<svg width="52" height="50" viewBox="0 0 52 50" fill="none" xmlns="http://www.w3.org/2000/svg">
    <rect x="2" y="2" width="48" height="46" rx="10" fill="#F2E7FE" stroke="#AB22AF" stroke-width="2.8"/>
    <path d="M34.9027 23.6799C35.1803 25.5524 34.8604 27.4649 33.9885 29.1451C33.1166 30.8254 31.7372 32.188 30.0463 33.039C28.3554 33.8902 26.4391 34.1865 24.5701 33.8857C22.7012 33.5848 20.9746 32.7024 19.636 31.3639C18.2975 30.0253 17.4151 28.2987 17.1143 26.4299C16.8136 24.5608 17.1098 22.6447 17.9609 20.9536C18.812 19.2628 20.1746 17.8833 21.8548 17.0114C23.5351 16.1395 25.4475 15.8197 27.3202 16.0974C29.2302 16.3806 30.9985 17.2706 32.3638 18.636C33.7293 20.0014 34.6194 21.7697 34.9027 23.6799Z" fill="#F2E7FE" stroke="#AB22AF" stroke-width="2.8"/>
</svg>
