<svg width="21" height="21" viewBox="0 0 21 21" fill="none" xmlns="http://www.w3.org/2000/svg">
<path d="M15.8801 10.436C16.59 9.46224 16.8681 8.25749 16.6531 7.08679C16.4382 5.91609 15.7479 4.87534 14.7341 4.1935C13.7202 3.51166 12.4659 3.24457 11.247 3.45099C10.0281 3.65742 8.94457 4.32045 8.23467 5.29422C5.11186 9.57777 2.30828 9.5162 2.30828 9.5162L13.7764 17.2289C13.7764 17.2289 12.7573 14.7196 15.8801 10.436Z" stroke="#F9F9F9" stroke-width="2" stroke-linecap="round" stroke-linejoin="round"/>
<path d="M7.36016 16.5611C7.11294 16.6713 6.83994 16.7171 6.56849 16.694C6.29704 16.6709 6.03666 16.5798 5.81343 16.4296C5.5902 16.2795 5.41195 16.0757 5.29653 15.8386C5.18111 15.6015 5.13257 15.3394 5.15576 15.0786" stroke="#F9F9F9" stroke-width="2" stroke-linecap="round" stroke-linejoin="round"/>
</svg>
