<svg width="301" height="260" viewBox="0 0 301 260" fill="none" xmlns="http://www.w3.org/2000/svg">
<path opacity="0.1" d="M151.862 23C74.2658 23 11.3618 85.904 11.3618 163.5H292.362C292.362 85.904 229.458 23 151.862 23Z" fill="#8036E4"/>
<path d="M137.47 91.5699L137.938 91.7849C138.562 91.8364 139.181 91.8987 139.779 92.0955C139.875 92.1044 139.951 92.1302 139.994 92.1784C140.058 92.2037 140.124 92.2243 140.188 92.2534C140.425 92.3602 140.356 92.5907 140.228 92.7514C141.043 94.5261 142.864 95.0986 144.805 95.3202C147.756 95.6575 150.739 95.6472 153.704 95.7962C155.075 95.8651 160.254 96.3982 164.238 95.9157C165.421 95.6299 166.994 95.2124 168.075 94.7833C169.011 94.1588 169.414 93.2649 168.916 91.9896C168.799 91.6921 170.137 91.2672 170.277 91.6261C170.544 92.3101 170.573 92.8962 170.436 93.4087C170.554 93.3689 170.664 93.3394 170.764 93.316C171.002 93.167 171.241 93.018 171.479 92.8671C171.716 86.4243 170.248 79.2638 164.05 76.0265C162.07 74.992 159.905 74.3549 157.692 74.0583C155.506 73.9215 153.287 73.892 151.123 74.204C151.033 74.227 150.948 74.2438 150.856 74.2682C148.67 74.8496 147.005 75.408 145.711 75.9374C140.247 78.9387 137.518 85.4213 137.47 91.5699ZM153.911 89.1313C158.585 89.2349 163.428 89.7493 167.819 91.4331C167.902 91.4649 166.901 92.0229 166.532 91.8814C162.887 90.4839 158.838 89.9011 154.953 89.7155C150.872 89.5206 146.15 89.4251 142.431 91.3567C142.201 91.4762 140.829 91.65 141.399 91.3543C145.172 89.3946 149.725 89.039 153.911 89.1313ZM188.243 129.09C189.434 126.531 190.977 124.064 192.548 121.665C197.067 124.598 201.283 128.114 205.019 132.07C203.99 133.067 202.926 134.042 201.946 135.103C201.046 136.079 200.223 137.116 199.429 138.177C195.954 134.899 192.246 131.652 188.243 129.09ZM186.843 129.477C186.587 130.036 186.347 130.6 186.128 131.168C186.099 130.437 186.066 129.704 186.028 128.971C186.301 129.136 186.573 129.304 186.843 129.477ZM198.686 139.178C197.127 141.326 195.638 143.531 193.887 145.53C191.43 143.758 188.865 142.13 186.278 140.57C186.291 138.819 186.275 137.077 186.245 135.354C186.523 133.557 187.073 131.808 187.795 130.1C191.693 132.729 195.283 135.984 198.686 139.178ZM193.205 120.665C194.353 118.926 195.488 117.221 196.484 115.541C201.167 118.719 205.599 122.389 209.489 126.492C209.33 126.555 209.203 126.64 209.156 126.742C208.368 128.456 207.214 129.849 205.944 131.151C202.125 127.157 197.818 123.618 193.205 120.665ZM187.305 128.509C186.859 128.239 186.412 127.976 185.958 127.725C185.752 124.282 185.424 120.831 184.919 117.416C187.237 118.507 189.506 119.751 191.709 121.134C190.141 123.521 188.566 125.969 187.305 128.509ZM209.051 150.092C210.521 151.927 211.961 153.949 212.68 156.178C211.873 156.809 211.127 157.517 210.467 158.293C209.001 158.608 207.531 158.903 206.058 159.183C205.487 157.235 204.452 155.479 203.179 153.879C205.181 152.685 207.125 151.401 209.051 150.092ZM215.653 155.29C215.341 155.457 215.042 155.617 214.755 155.771C215.048 155.599 215.348 155.438 215.653 155.29ZM208.416 149.31C206.499 150.613 204.565 151.889 202.572 153.078C202.557 153.087 202.547 153.096 202.534 153.105C201.099 151.452 199.443 149.965 197.838 148.605C196.711 147.649 195.542 146.743 194.349 145.868C194.631 145.828 194.925 145.735 195.028 145.619C196.631 143.809 198.028 141.842 199.441 139.888C199.642 140.077 199.843 140.267 200.042 140.455C202.998 143.242 205.839 146.169 208.416 149.31ZM218.624 153.348C216.958 153.71 215.342 154.394 213.875 155.332C213.055 153.141 211.569 151.182 210.117 149.368C211.766 148.235 213.408 147.093 215.061 145.968C216.282 148.268 217.344 150.636 218.226 153.058C218.288 153.228 218.442 153.318 218.624 153.348ZM184.729 116.208C184.334 113.752 183.835 111.321 183.226 108.926C183.209 108.583 183.208 108.307 183.214 108.078C187.552 110.067 191.909 112.473 196.08 115.27C195.744 115.304 195.35 115.414 195.243 115.595C194.365 117.09 193.376 118.601 192.366 120.136C190.017 118.68 187.594 117.374 185.119 116.24C185.002 116.187 184.865 116.182 184.729 116.208ZM210.168 127.214C214.163 131.553 217.538 136.369 219.965 141.598C218.529 142.467 217.118 143.374 215.725 144.306C213.198 139.794 210.071 135.57 206.5 131.746C207.894 130.383 209.218 128.974 210.168 127.214ZM205.562 132.654C209.06 136.446 212.115 140.628 214.578 145.083C212.873 146.242 211.181 147.42 209.482 148.586C207.23 145.836 204.731 143.284 202.18 140.813C201.52 140.173 200.85 139.528 200.172 138.882C201.132 137.572 202.117 136.282 203.196 135.063C203.949 134.214 204.756 133.43 205.562 132.654ZM216.21 145.19C217.584 144.269 218.974 143.374 220.388 142.513C221.889 145.936 222.972 149.535 223.561 153.289C222.164 153 220.731 152.99 219.322 153.217C219.533 153.095 219.666 152.909 219.588 152.695C218.653 150.125 217.517 147.618 216.21 145.19ZM104.093 163.048L101.492 162.687C102.37 162.769 103.25 162.844 104.129 162.919L104.093 163.048ZM122.706 141.03C122.706 141.031 122.706 141.033 122.706 141.034C121.716 141.755 119.726 143.232 117.604 144.961C119.216 143.524 120.915 142.188 122.706 141.03ZM103.687 162.282C101.863 162.117 100.039 161.943 98.2181 161.752C98.4018 161.687 98.5438 161.599 98.5677 161.499C99.0866 159.31 99.9124 157.191 100.933 155.141C102.252 156.341 103.562 157.549 104.865 158.763C104.907 158.802 104.971 158.823 105.045 158.833C104.488 159.948 104.026 161.097 103.687 162.282ZM113.704 114.998C113.695 114.981 113.68 114.968 113.667 114.954C117.649 112.309 121.795 110.018 125.929 108.114C125.225 110.771 124.68 113.477 124.257 116.211C124.147 116.216 124.032 116.243 123.919 116.301C121.379 117.596 118.992 119.162 116.74 120.916C115.847 118.889 114.868 116.902 113.704 114.998ZM100.685 153.281C99.0227 151.787 97.3449 150.31 95.6454 148.858C98.2134 143.904 101.349 139.222 104.742 134.835C104.939 134.581 105.14 134.327 105.34 134.074C106.39 136.777 107.451 139.473 108.678 142.089C105.882 145.5 102.958 149.256 100.685 153.281ZM93.8209 161.269C93.7988 161.267 93.7697 161.269 93.7396 161.271C93.6198 161.099 93.4605 160.88 93.2588 160.623C92.8095 159.775 92.2597 158.973 91.6487 158.243C92.5905 155.406 93.7542 152.646 95.0871 149.964C96.7719 151.415 98.438 152.887 100.088 154.377C98.8535 156.719 97.8557 159.147 97.2518 161.649C96.1074 161.527 94.9639 161.402 93.8209 161.269ZM122.781 135.333C122.004 133.774 121.302 132.18 120.64 130.57C121.414 129.968 122.207 129.405 123.02 128.893C122.918 130.854 122.847 132.809 122.795 134.751C122.79 134.943 122.785 135.139 122.781 135.333ZM109.102 142.986C110.098 145.026 111.21 147.007 112.514 148.896C112.206 149.223 111.897 149.55 111.594 149.881C109.423 152.248 107.227 154.888 105.605 157.779C104.249 156.518 102.885 155.265 101.511 154.022C103.618 150.105 106.385 146.453 109.026 143.083C109.051 143.051 109.077 143.018 109.102 142.986ZM124.091 117.302C123.948 118.299 123.823 119.3 123.709 120.303C123.406 122.395 123.184 124.525 123.127 126.505C123.117 126.848 123.109 127.186 123.102 127.521C123.081 127.869 123.056 128.217 123.037 128.564C122.734 128.58 122.307 128.665 122.185 128.74C121.573 129.117 120.976 129.523 120.39 129.951C119.301 127.261 118.289 124.536 117.154 121.867C119.335 120.134 121.646 118.587 124.091 117.302ZM86.1076 155.371C86.7637 155.7 87.3953 156.081 87.9903 156.509C87.2064 156.074 86.5766 155.683 86.1076 155.371ZM119.51 131.485C120.435 133.701 121.433 135.885 122.628 137.979C122.651 138.02 122.686 138.05 122.725 138.075C122.714 138.862 122.706 139.652 122.705 140.446C122.557 140.477 122.431 140.514 122.374 140.55C119.093 142.56 116.165 145.143 113.472 147.901C112.163 145.943 111.05 143.889 110.055 141.777C112.854 138.235 115.978 134.474 119.51 131.485ZM116.024 122.786C117.138 125.449 118.142 128.161 119.238 130.832C115.646 133.711 112.525 137.408 109.647 140.907C108.445 138.26 107.4 135.537 106.346 132.815C109.247 129.243 112.459 125.778 116.024 122.786ZM104.056 133.884C100.555 138.273 97.3312 143.021 94.6815 148.043C92.7569 146.417 90.8074 144.822 88.8222 143.273C88.8034 143.259 88.7813 143.248 88.7574 143.238C91.5899 136.375 96.0736 130.192 101.486 124.817C102.739 127.444 103.817 130.154 104.873 132.873C104.599 133.21 104.325 133.546 104.056 133.884ZM88.3052 144.362C90.2726 145.914 92.2103 147.505 94.1194 149.131C92.795 151.744 91.6318 154.429 90.6697 157.176C90.5033 157.01 90.3355 156.85 90.1668 156.696C88.8546 155.501 87.338 154.571 85.7264 153.951C85.8068 153.881 85.8627 153.799 85.8754 153.707C86.328 150.473 87.1613 147.356 88.3052 144.362ZM105.891 131.642C104.856 128.987 103.789 126.347 102.536 123.796C105.64 120.836 109.018 118.133 112.546 115.711C113.719 117.677 114.709 119.727 115.611 121.816C112.051 124.743 108.835 128.13 105.891 131.642ZM174.835 137.35C172.427 137.343 170.02 137.317 167.612 137.281C167.955 135.054 168.118 132.817 168.189 130.574C170.856 130.691 173.524 130.767 176.196 130.775C176.316 130.775 176.421 130.75 176.513 130.711C176.212 133 175.692 135.243 174.835 137.319C174.831 137.33 174.832 137.34 174.835 137.35ZM153.574 128.619C149.983 128.364 146.392 128.117 142.798 127.931C142.956 126.434 143.149 124.939 143.286 123.458C146.068 122.559 148.153 120.471 150.593 118.926C152.205 121.845 153.097 125.201 153.574 128.619ZM141.909 105.367C142.255 106.454 142.641 107.559 143.076 108.649L143.076 108.664C142.882 108.755 142.737 108.884 142.734 109.041C142.707 110.568 142.526 112.105 142.322 113.643C142.261 113.614 142.168 113.595 142.03 113.595C139.307 113.595 136.585 113.595 133.861 113.595C133.65 113.595 133.358 113.731 133.16 113.887C133.747 111.178 134.59 108.528 135.761 106.066C137.76 105.802 139.76 105.54 141.771 105.388C141.819 105.385 141.865 105.377 141.909 105.367ZM170.893 106.173C171.3 106.203 171.705 106.245 172.11 106.287L173.757 106.647C173.748 106.665 173.745 106.683 173.753 106.698C176.102 111.384 176.657 116.89 176.829 122.055C176.912 124.561 176.898 127.199 176.622 129.798C176.538 129.764 176.434 129.742 176.306 129.742C173.608 129.733 170.913 129.657 168.219 129.537C168.263 127.385 168.241 125.23 168.228 123.074C168.681 120.591 168.399 118.091 167.984 115.591C168.027 115.598 168.075 115.602 168.131 115.604C170.484 115.664 172.734 116.449 175.089 116.509C175.656 116.524 176.521 115.683 175.598 115.66C173.245 115.599 170.995 114.815 168.64 114.754C168.391 114.748 168.086 114.906 167.898 115.087C167.495 112.735 167.016 110.385 166.968 108.051C166.966 107.938 166.832 107.885 166.648 107.879C166.907 107.044 167.131 106.223 167.325 105.434C168.253 106.067 169.412 106.241 170.537 106.049C170.597 106.113 170.709 106.159 170.893 106.173ZM142.996 136.771C142.392 134.207 142.454 131.586 142.694 128.965C146.367 129.153 150.037 129.408 153.706 129.669C153.984 132.071 154.077 134.482 154.091 136.773C154.093 137.084 155.455 136.858 155.452 136.409C155.444 135.023 155.405 133.591 155.316 132.146C155.387 132.091 155.436 132.03 155.448 131.965C155.567 131.281 155.699 130.56 155.847 129.821C159.509 130.081 163.171 130.329 166.836 130.509C166.772 132.766 166.615 135.018 166.281 137.261C158.52 137.131 150.758 136.899 142.996 136.771ZM156.064 128.796C156.802 125.474 157.978 121.949 160.254 119.67C160.314 119.69 160.375 119.711 160.436 119.733C162.489 121.201 164.397 122.921 166.867 123.595C166.879 125.555 166.895 127.515 166.861 129.472C163.259 129.294 159.662 129.051 156.064 128.796ZM141.653 104.545C141.537 104.555 141.423 104.568 141.307 104.578L141.639 104.499C141.644 104.514 141.648 104.529 141.653 104.545ZM166.862 122.605C166.853 122.601 166.845 122.596 166.836 122.592V117.294C167.046 118.816 167.166 120.336 167.052 121.848C166.936 121.935 166.86 122.039 166.86 122.159C166.86 122.308 166.862 122.456 166.862 122.605ZM157.173 122.193C157.702 120.769 158.288 119.637 158.846 119.478C158.965 119.444 159.111 119.437 159.276 119.449C158.449 120.244 157.757 121.175 157.173 122.193ZM141.549 136.75C139.167 136.715 136.786 136.69 134.404 136.684C133.047 134.182 132.401 131.366 132.15 128.501C132.245 128.598 132.403 128.663 132.632 128.664C135.542 128.673 138.448 128.763 141.352 128.898C141.1 131.531 141.005 134.167 141.549 136.75ZM133.068 114.319C133.128 114.34 133.214 114.352 133.329 114.352C136.051 114.352 138.774 114.352 141.497 114.352C141.739 114.352 142.085 114.174 142.276 113.992C141.862 117.085 141.403 120.187 141.949 123.252C141.819 124.778 141.624 126.32 141.457 127.865C138.555 127.73 135.651 127.64 132.743 127.631C132.437 127.63 132.215 127.783 132.108 127.971C131.961 125.905 132.001 123.823 132.114 121.826C132.253 119.35 132.554 116.814 133.068 114.319Z" fill="#9F55E7"/>
<path d="M152.918 114.643C153.991 113.279 155.846 113.541 157.062 114.518C157.313 114.721 156.091 115.251 155.78 115.001C155.508 114.782 155.212 114.552 154.882 114.428C154.497 114.284 154.42 114.245 154.162 114.573C153.946 114.848 152.615 115.027 152.918 114.643ZM138.36 99.9971C137.941 99.6857 137.389 99.6721 136.9 99.7766C136.651 99.8299 136.249 100.078 136.332 100.388C136.415 100.696 136.824 100.689 137.08 100.643C137.074 100.644 137.076 100.645 137.093 100.643C137.103 100.646 137.108 100.648 137.126 100.653C137.205 100.675 137.295 100.732 137.37 100.801C137.604 101.017 137.744 101.305 137.848 101.601C138.051 102.18 139.41 101.796 139.213 101.235C139.04 100.743 138.784 100.312 138.36 99.9971ZM169.405 103.179C169.789 102.087 170.788 101.339 171.97 101.592C172.281 101.659 172.329 101.988 172.133 102.199C171.904 102.445 171.552 102.515 171.232 102.464C171.228 102.47 171.204 102.479 171.19 102.482C171.165 102.496 171.143 102.51 171.141 102.511C171.17 102.489 171.155 102.505 171.096 102.56C170.907 102.772 170.794 103.03 170.7 103.297C170.517 103.819 169.154 103.895 169.405 103.179ZM171.168 102.457C171.176 102.459 171.179 102.461 171.183 102.462C171.19 102.461 171.194 102.461 171.2 102.461C171.189 102.459 171.178 102.46 171.168 102.457ZM141.929 91.4139C145.657 89.4718 150.389 89.5683 154.48 89.7638C158.373 89.9504 162.431 90.5359 166.085 91.9414C166.455 92.0837 167.458 91.5227 167.375 91.4906C162.973 89.7977 158.12 89.2805 153.435 89.1764C149.24 89.0832 144.676 89.4412 140.894 91.4115C140.323 91.7092 141.698 91.534 141.929 91.4139ZM228.914 126.321C229.283 126.441 230.519 125.878 230.014 125.713C228.31 125.158 226.575 124.784 224.811 124.484C225.477 123.406 226.083 122.292 226.778 121.233C226.969 120.943 226.614 120.713 226.37 120.688C226.019 120.651 225.672 120.805 225.479 121.098C224.853 122.051 224.302 123.051 223.713 124.027C223.239 122.799 222.919 121.521 222.874 120.191C222.852 119.526 221.481 119.781 221.499 120.321C221.603 123.4 223.007 126.154 224.59 128.73C224.878 129.198 226.193 128.718 225.847 128.155C225.281 127.234 224.729 126.278 224.257 125.287C224.281 125.267 224.298 125.239 224.32 125.217C225.875 125.492 227.407 125.83 228.914 126.321ZM235.285 122.075C235.382 121.654 235.518 121.28 235.755 120.918C236.07 120.437 236.398 120.543 236.863 120.769C237.782 121.216 238.268 122.22 238.485 123.168C238.546 123.44 239.917 123.099 239.849 122.802C239.522 121.364 238.571 120.135 237.025 120.017C235.713 119.916 234.609 120.654 234.123 121.781C233.128 121.36 231.929 121.446 230.972 122.11C230.786 121.893 230.594 121.682 230.394 121.479C229.983 121.059 228.687 121.604 229.141 122.066C230.044 122.986 230.858 124.03 231.208 125.29C231.374 125.889 232.738 125.522 232.572 124.925C232.357 124.148 231.977 123.441 231.51 122.792C231.546 122.761 231.585 122.733 231.616 122.697C232.737 121.411 234.28 123.158 234.559 124.267C234.679 124.746 236.046 124.386 235.924 123.902C235.757 123.237 235.414 122.705 234.972 122.312C235.138 122.248 235.264 122.167 235.285 122.075ZM70.923 115.995C71.6013 115.218 72.4718 115.489 73.2782 115.927C73.6254 116.115 74.8911 115.593 74.3772 115.314C71.8726 113.955 69.1179 115.513 68.636 118.229C68.4368 119.353 68.6751 120.604 69.5508 121.388C70.6474 122.371 72.4139 122.076 73.6744 121.663C74.4625 121.406 74.3207 120.811 73.5166 121.074C71.3865 121.771 69.7854 120.598 69.9569 118.331C70.0214 117.476 70.3596 116.641 70.923 115.995ZM84.7648 123.011C84.7554 123.283 86.1148 123.086 86.1294 122.645C86.1737 121.338 85.7502 120.108 84.501 119.541C83.5264 119.099 82.3493 119.397 81.3704 119.86C81.2625 119.647 81.1085 119.456 80.8942 119.302C80.1527 118.767 79.0929 118.936 78.2111 119.231C78.0617 119.022 76.9986 119.189 76.8662 119.539C76.5596 120.35 76.3321 121.123 76.2864 121.994C76.2703 122.293 77.627 122.093 77.651 121.628C77.6816 121.044 77.8182 120.499 77.9982 119.959C78.0132 119.953 78.0302 119.947 78.0438 119.941C78.6553 119.675 79.3048 119.465 79.8371 119.99C80.3972 120.541 80.2371 121.566 80.0835 122.239C79.986 122.666 81.3478 122.443 81.4401 122.037C81.5532 121.541 81.6304 120.962 81.5447 120.434C81.581 120.415 81.6187 120.398 81.653 120.377C83.639 119.157 84.8246 121.235 84.7648 123.011ZM155.89 60.9095C155.89 60.1191 155.89 59.3287 155.89 58.5383C156.053 57.5671 156.477 56.747 157.448 56.9858C159.067 57.3834 158.993 59.6877 158.777 60.9001C158.707 61.2948 160.025 61.0245 160.129 60.6792C160.44 59.6486 161.473 57.0904 162.978 57.4234C164.467 57.7531 164.107 60.2444 163.932 61.203C163.862 61.5874 165.217 61.3485 165.283 60.9821C165.622 59.1257 165.556 56.6358 163.101 56.78C161.874 56.852 160.868 57.5007 160.112 58.3942C159.838 57.1436 159.055 56.1488 157.448 56.3325C156.824 56.4036 156.309 56.5963 155.89 56.8756C155.89 56.8054 155.89 56.7352 155.89 56.6646C155.89 56.3829 154.525 56.5977 154.525 57.0301C154.525 57.7037 154.525 58.3773 154.525 59.0508C154.384 59.7466 154.39 60.512 154.525 61.2751C154.587 61.6222 155.89 61.2953 155.89 60.9095ZM56.6214 82.6008C56.474 82.4802 56.6549 82.3054 56.9276 82.1768C56.8739 81.9597 57.0246 81.6983 57.4439 81.6031C69.9573 78.751 82.2084 74.1612 94.3648 70.1051C100.757 67.9723 107.14 65.8144 113.521 63.6472C116.118 62.765 118.892 61.4183 121.608 60.9519C122.482 60.8017 122.227 61.6637 121.592 61.8662C116.951 69.4574 112.297 77.0397 107.623 84.6102C104.5 89.6701 101.377 94.7309 98.1996 99.7569C97.3145 101.157 96.4365 102.563 95.5095 103.936C95.3248 104.209 95.1529 104.472 94.9508 104.683C95.0309 104.732 95.1109 104.781 95.1915 104.83C95.5047 105.02 94.3026 105.575 93.9178 105.341C87.7376 101.593 81.5598 97.8407 75.3838 94.0851C71.0624 91.4567 66.741 88.8279 62.4262 86.1891C60.5377 85.0351 58.3417 84.003 56.6214 82.6008ZM94.6762 104.441C94.6286 104.438 94.5857 104.437 94.5419 104.436C94.5495 104.44 94.5565 104.445 94.5636 104.449C94.605 104.443 94.6441 104.439 94.6762 104.441ZM58.2348 82.3492C59.9899 83.6926 62.1379 84.7237 64.0033 85.8636C68.2173 88.4393 72.436 91.0069 76.6557 93.5731C82.468 97.1077 88.2826 100.639 94.0987 104.168C94.1217 104.135 94.1439 104.105 94.1688 104.067C94.5104 103.561 94.8439 103.05 95.1745 102.537C96.2613 100.853 97.3287 99.1572 98.3932 97.4587C101.483 92.5274 104.543 87.5768 107.597 82.6229C111.747 75.8913 115.883 69.1517 120.008 62.4051C119.692 62.5115 119.376 62.6175 119.06 62.7244C116.942 63.4414 114.825 64.162 112.708 64.8809C106.345 67.0406 99.9793 69.1918 93.6041 71.3147C81.9531 75.1942 70.2173 79.5668 58.2348 82.3492ZM76.6307 84.346C76.5346 84.2758 76.617 84.1665 76.7777 84.0624C76.7772 83.907 76.935 83.7294 77.3048 83.6436C82.3954 82.4628 87.3772 80.6168 92.3275 78.9639C95.9325 77.7599 99.5643 76.1853 103.258 75.2795C103.963 75.1066 104.194 75.5734 103.717 75.8353C101.838 78.9078 99.9548 81.9776 98.0625 85.0417C96.834 87.0309 95.607 89.021 94.3582 90.9975C94.0266 91.5222 93.6008 92.5434 93.0548 93.0917C93.2343 93.2712 92.116 93.7855 91.7608 93.5703C86.7578 90.5363 81.3577 87.7911 76.6307 84.346ZM78.2789 84.1095C82.621 87.2198 87.4922 89.7765 92.0962 92.5147C92.1961 92.3866 92.2926 92.2636 92.344 92.1835C92.7816 91.5015 93.214 90.8156 93.6441 90.1289C94.8665 88.1764 96.078 86.2174 97.2867 84.2565C98.9246 81.5993 100.556 78.9394 102.185 76.2771C98.755 77.2451 95.3691 78.6752 92.0096 79.7929C87.4799 81.2998 82.9249 82.9668 78.2789 84.1095ZM273.191 228.846C267.619 232.934 258.912 234.97 252.552 231.428C252.113 231.183 251.716 230.917 251.348 230.634C232.869 234.518 213.947 236.339 195.12 237.418C145.049 240.287 94.5349 238.12 44.6629 232.733C40.6834 233.655 36.216 233.112 32.6096 231.639C25.0559 228.553 18.8615 220.483 21.7237 211.977C22.8617 208.595 25.1218 206.066 27.86 204.686C27.8313 204.659 27.8077 204.628 27.796 204.589C27.6669 204.162 28.7578 203.188 28.9792 202.93C30.2318 201.47 31.5206 200.041 32.8126 198.618C37.0036 193.999 41.2572 189.438 45.5334 184.899C54.7019 175.167 63.8812 165.372 73.6197 156.203C73.6216 156.201 73.6249 156.2 73.6273 156.197C73.4309 156.08 73.3847 155.876 73.7224 155.629C76.7805 153.397 80.5004 152.98 83.9221 153.952C87.104 132.304 106.72 115.749 125.669 107.227C125.69 107.152 125.709 107.076 125.73 107.001C125.757 106.907 125.886 106.826 126.053 106.764C126.104 106.506 126.586 106.138 126.957 106.133C131.606 106.073 136.18 105.11 140.802 104.707C140.918 104.697 141.033 104.683 141.149 104.674C141.144 104.658 141.14 104.643 141.135 104.627C141.024 104.259 140.918 103.896 140.814 103.537C139.771 104.364 138.39 104.741 137.046 104.378C135.426 103.94 133.548 102.636 133.454 100.779C133.363 99.0041 134.139 97.6904 135.585 97.0861L135.536 97.0771L135.587 96.584C135.175 95.3522 135.438 93.6499 135.322 92.4266C135.291 92.372 135.284 92.3112 135.3 92.2476C135.291 92.1812 135.283 92.1133 135.271 92.0502C135.237 91.8722 135.37 91.7167 135.564 91.606C135.66 84.9588 138.918 77.5607 145.192 74.7802C147.152 73.912 149.151 73.4099 151.186 73.1532C152.027 72.5573 154.08 72.798 154.81 72.8089C157.629 72.8498 160.585 73.3284 163.171 74.4881C170.336 77.7006 172.554 84.678 172.446 92.0394C172.816 91.8039 173.187 91.5684 173.56 91.3376C175.091 90.3898 176.821 88.9423 178.576 88.2782C178.518 88.1402 178.673 87.9287 179.088 87.801C180.177 87.4652 181.313 87.1717 182.466 86.9564C182.567 86.9268 182.674 86.9084 182.777 86.9027C184.392 86.6234 186.034 86.508 187.627 86.6912C187.72 86.7016 187.944 86.7647 187.874 86.9122C187.434 87.8429 186.788 88.6748 186.089 89.4529C186.246 89.622 186.222 89.8849 185.82 90.1044C185.646 90.1991 185.466 90.2631 185.283 90.3145C185.149 90.4534 185.015 90.591 184.883 90.7276C184.239 91.3908 182.736 92.3903 182.416 93.2792C182.357 93.4436 182.094 93.5679 181.814 93.6334C181.75 93.6739 181.661 93.7153 181.538 93.7563C178.197 94.8703 175.364 97.364 172.145 98.7908C173.564 99.2901 174.47 100.596 174.218 102.321C174.014 103.722 173.104 104.837 171.93 105.52C175.312 105.856 178.636 106.542 182.049 106.581C182.564 106.587 182.529 106.861 182.298 107.101C182.307 107.133 182.315 107.164 182.324 107.196C182.577 107.097 182.862 107.052 183.033 107.128C202.016 115.625 221.685 132.265 224.719 153.992C224.724 154.027 224.723 154.062 224.717 154.096C225.645 154.432 226.546 154.903 227.4 155.526C227.612 155.681 227.591 155.857 227.459 156.007C227.474 156.016 227.49 156.024 227.502 156.036C237.344 165.302 246.622 175.201 255.88 185.044C260.11 189.54 264.325 194.051 268.466 198.629C269.717 200.012 270.973 201.394 272.179 202.817C272.384 203.058 273.35 203.922 273.232 204.313C273.227 204.328 273.218 204.342 273.211 204.356C274.453 204.946 275.625 205.828 276.671 207.048C282.398 213.735 279.953 223.883 273.191 228.846ZM220.063 142.847C218.646 143.713 217.252 144.613 215.876 145.539C217.186 147.98 218.324 150.5 219.262 153.084C219.34 153.3 219.206 153.487 218.995 153.609C220.408 153.381 221.843 153.391 223.244 153.681C222.653 149.907 221.568 146.288 220.063 142.847ZM185.842 135.65C185.872 137.382 185.888 139.133 185.875 140.893C188.468 142.462 191.039 144.099 193.501 145.88C195.257 143.87 196.749 141.654 198.312 139.494C194.901 136.282 191.302 133.011 187.395 130.367C186.672 132.085 186.121 133.842 185.842 135.65ZM186.442 129.741C186.172 129.567 185.898 129.398 185.624 129.231C185.662 129.969 185.696 130.705 185.725 131.441C185.945 130.869 186.185 130.303 186.442 129.741ZM193.965 146.22C195.161 147.099 196.332 148.01 197.462 148.971C199.07 150.34 200.73 151.834 202.168 153.496C202.182 153.487 202.192 153.477 202.207 153.469C204.204 152.274 206.143 150.991 208.064 149.681C205.481 146.522 202.634 143.579 199.672 140.776C199.472 140.587 199.27 140.396 199.069 140.206C197.652 142.171 196.253 144.149 194.646 145.968C194.542 146.087 194.248 146.179 193.965 146.22ZM209.133 148.953C210.836 147.78 212.531 146.596 214.24 145.431C211.772 140.952 208.709 136.747 205.204 132.935C204.396 133.715 203.587 134.503 202.832 135.357C201.75 136.582 200.763 137.88 199.801 139.196C200.48 139.846 201.151 140.494 201.813 141.138C204.371 143.622 206.875 146.188 209.133 148.953ZM204.659 132.348C200.915 128.371 196.69 124.835 192.16 121.887C190.586 124.298 189.038 126.779 187.845 129.352C191.858 131.928 195.575 135.192 199.057 138.488C199.853 137.422 200.678 136.379 201.58 135.398C202.562 134.331 203.628 133.351 204.659 132.348ZM191.319 121.353C189.111 119.962 186.836 118.711 184.513 117.614C185.02 121.048 185.348 124.518 185.555 127.979C186.009 128.231 186.458 128.496 186.905 128.767C188.169 126.214 189.747 123.752 191.319 121.353ZM182.999 162.584C182.98 162.642 182.923 162.694 182.845 162.74C190.043 162.083 197.216 161.173 204.305 159.876C202.959 155.397 199.181 151.86 195.654 148.998C192.552 146.48 189.254 144.234 185.862 142.133C185.752 149.05 185.125 156.072 182.999 162.584ZM205.7 159.608C207.177 159.326 208.65 159.029 210.119 158.713C210.782 157.933 211.529 157.22 212.337 156.586C211.617 154.345 210.173 152.312 208.701 150.467C206.77 151.784 204.822 153.074 202.814 154.275C204.091 155.884 205.128 157.649 205.7 159.608ZM213.536 155.735C215.006 154.793 216.626 154.105 218.296 153.741C218.114 153.71 217.959 153.621 217.898 153.45C217.014 151.015 215.949 148.633 214.725 146.321C213.068 147.452 211.422 148.601 209.77 149.739C211.224 151.563 212.714 153.533 213.536 155.735ZM209.82 127.466C208.868 129.235 207.541 130.651 206.144 132.021C209.723 135.867 212.856 140.114 215.389 144.65C216.786 143.713 218.2 142.801 219.639 141.927C217.207 136.67 213.825 131.829 209.82 127.466ZM196.105 115.73C195.107 117.418 193.969 119.132 192.819 120.881C197.441 123.85 201.759 127.408 205.587 131.424C206.86 130.116 208.016 128.715 208.806 126.992C208.853 126.889 208.981 126.804 209.139 126.741C205.24 122.614 200.799 118.925 196.105 115.73ZM182.574 108.118C182.659 108.437 182.736 108.759 182.817 109.079C183.427 111.486 183.927 113.93 184.323 116.4C184.46 116.374 184.597 116.379 184.713 116.432C187.195 117.572 189.623 118.885 191.977 120.349C192.99 118.806 193.98 117.286 194.861 115.784C194.968 115.601 195.363 115.491 195.7 115.457C191.519 112.644 187.152 110.226 182.805 108.226C182.728 108.191 182.651 108.153 182.574 108.118ZM171.675 106.425C171.27 106.383 170.864 106.341 170.456 106.31C170.272 106.296 170.16 106.25 170.099 106.187C168.972 106.38 167.81 106.204 166.88 105.568C166.685 106.361 166.461 107.187 166.202 108.026C166.386 108.032 166.52 108.086 166.523 108.2C166.571 110.545 167.051 112.909 167.455 115.274C167.643 115.091 167.949 114.933 168.198 114.939C170.558 115 172.813 115.789 175.172 115.849C176.097 115.873 175.23 116.718 174.662 116.703C172.302 116.643 170.047 115.854 167.688 115.793C167.632 115.792 167.584 115.787 167.541 115.78C167.956 118.294 168.238 120.807 167.785 123.303C167.798 125.471 167.82 127.639 167.777 129.802C170.476 129.922 173.177 129.999 175.882 130.008C176.01 130.008 176.114 130.03 176.199 130.065C176.475 127.451 176.489 124.799 176.405 122.279C176.233 117.087 175.677 111.55 173.322 106.839C173.315 106.824 173.318 106.806 173.327 106.788C173.348 106.743 173.41 106.692 173.5 106.64C172.893 106.561 172.285 106.489 171.675 106.425ZM175.771 131.045C173.093 131.037 170.418 130.961 167.745 130.843C167.674 133.098 167.511 135.347 167.168 137.587C169.581 137.623 171.993 137.649 174.407 137.656C174.403 137.646 174.402 137.636 174.407 137.625C175.265 135.537 175.787 133.282 176.089 130.98C175.996 131.02 175.891 131.046 175.771 131.045ZM147.184 111.08C146.108 110.885 145.105 110.375 144.368 109.641C146.269 114.105 149.147 118.137 154.033 118.932C155.499 119.171 156.793 118.983 157.938 118.488C158.02 118.309 158.42 118.123 158.755 118.067C161.238 116.584 162.944 113.592 164.114 110.494C163.354 110.935 162.406 111.131 161.283 110.927C159.382 110.584 157.713 109.255 157.335 107.441C157.308 107.432 157.28 107.423 157.256 107.41C157.113 107.333 156.933 107.222 156.728 107.095C156.771 107.582 156.784 108.071 156.704 108.561C156.606 109.164 156.324 109.802 155.658 109.944C154.837 110.12 154.262 109.675 153.708 109.12C153.249 108.659 154.543 108.112 154.961 108.531C155.055 108.626 155.167 108.745 155.289 108.847C155.381 108.387 155.388 107.911 155.371 107.444C155.355 107.037 155.3 106.621 155.249 106.205C154.151 105.599 152.954 105.123 152.32 105.652C152.235 105.723 152.134 105.768 152.027 105.795C152.544 108.474 150.708 111.716 147.184 111.08ZM158.448 107.049C158.664 108.655 159.838 110.149 161.981 110.266C163.23 110.334 164.113 109.79 164.643 108.978C164.863 108.3 165.06 107.629 165.234 106.977C165.283 105.264 164.35 103.459 162.453 103.134C162.284 103.105 162.191 103.042 162.156 102.966C159.569 102.851 158.318 104.802 158.418 106.72C158.526 106.821 158.521 106.937 158.448 107.049ZM158.452 118.939C157.504 119.346 156.465 119.591 155.32 119.626C153.988 119.666 152.779 119.488 151.674 119.142C153.149 121.959 153.987 125.154 154.447 128.41C154.962 126.33 155.664 124.238 156.705 122.417C157.29 121.393 157.984 120.457 158.812 119.659C158.917 119.557 159.021 119.455 159.13 119.359C158.907 119.213 158.681 119.074 158.452 118.939ZM148.354 103.286C148.185 103.257 148.092 103.194 148.057 103.117C143.143 102.9 143.049 110.154 147.882 110.417C152.093 110.647 152.188 103.942 148.354 103.286ZM143.48 110.874C143.132 114.777 142.176 118.725 142.727 122.604C142.812 122.661 142.864 122.747 142.854 122.87C142.851 122.918 142.846 122.967 142.842 123.015C145.458 122.051 147.518 119.816 149.928 118.416C147.039 116.882 144.997 114.051 143.48 110.874ZM142.297 128.187C145.899 128.373 149.498 128.621 153.098 128.878C152.62 125.442 151.726 122.067 150.109 119.132C147.664 120.685 145.574 122.786 142.785 123.69C142.649 125.178 142.455 126.681 142.297 128.187ZM142.193 129.225C141.952 131.861 141.89 134.496 142.495 137.074C150.276 137.202 158.054 137.436 165.834 137.567C166.169 135.312 166.326 133.047 166.39 130.778C162.717 130.597 159.047 130.347 155.377 130.086C155.228 130.829 155.096 131.555 154.976 132.242C154.965 132.308 154.915 132.369 154.844 132.424C154.933 133.877 154.973 135.317 154.981 136.711C154.984 137.162 153.618 137.388 153.616 137.076C153.603 134.773 153.509 132.348 153.231 129.934C149.553 129.671 145.875 129.416 142.193 129.225ZM166.414 129.736C166.449 127.768 166.433 125.797 166.421 123.826C163.945 123.149 162.033 121.42 159.975 119.944C159.927 119.91 159.88 119.874 159.832 119.839C159.818 119.853 159.806 119.868 159.793 119.881C157.512 122.172 156.333 125.716 155.593 129.056C159.199 129.312 162.805 129.557 166.414 129.736ZM166.606 122.071C166.72 120.55 166.6 119.022 166.389 117.492C166.073 115.191 165.55 112.886 165.298 110.596C164.044 113.739 162.231 116.718 159.59 118.347C161.917 119.723 163.906 121.766 166.389 122.818C166.398 122.822 166.407 122.827 166.416 122.831C166.415 122.682 166.414 122.532 166.413 122.383C166.413 122.263 166.49 122.157 166.606 122.071ZM184.83 89.4845C185.176 89.0912 185.513 88.6899 185.817 88.2673C186.517 87.2965 186.549 87.2075 185.216 87.2673C184.562 87.297 183.911 87.3596 183.264 87.4515C182.909 88.2725 183.943 89.4869 184.83 89.4845ZM179.2 91.3248C179.579 92.3074 180.348 92.8807 181.302 93.0611C181.714 92.4939 182.45 91.9673 182.869 91.5439C183.256 91.152 183.646 90.7563 184.031 90.355C183.549 90.2551 183.089 90.0347 182.704 89.7007C182.13 89.2028 181.695 88.4454 181.847 87.7007C181.146 87.8439 180.449 88.0073 179.76 88.2014C179.924 88.2028 180.014 88.2348 179.926 88.313C179.106 89.0488 178.799 90.2867 179.2 91.3248ZM171.534 93.4332C170.65 93.997 169.763 94.5547 168.86 95.0814C168.58 96.5336 168.329 97.9909 168.078 99.4483C168.104 99.4285 168.127 99.4059 168.155 99.3871C168.966 98.8365 170.097 98.5171 171.078 98.5788C171.08 98.5788 171.081 98.5793 171.083 98.5793C174.005 97.3918 177.122 94.8482 180.316 93.5754C179.219 93.404 178.199 92.8373 177.835 91.6904C177.59 90.9155 177.641 90.1308 177.961 89.4459C177.691 89.6079 177.42 89.7695 177.151 89.9334C175.98 90.6484 174.812 91.3691 173.647 92.0936C173.238 92.3475 172.832 92.6051 172.426 92.8642C172.426 92.8684 172.426 92.8731 172.425 92.8774C172.411 93.2438 171.926 93.461 171.534 93.4332ZM136.952 91.8053C137.11 91.819 137.268 91.8317 137.426 91.8444C138.052 91.8962 138.672 91.9589 139.271 92.1567C139.368 92.1656 139.444 92.1915 139.487 92.2401C139.551 92.2655 139.617 92.2862 139.681 92.3154C139.919 92.4228 139.849 92.6546 139.721 92.8161C140.539 94.6004 142.363 95.176 144.308 95.3988C147.267 95.738 150.257 95.7276 153.228 95.8774C154.602 95.9466 159.793 96.4827 163.786 95.9975C165.357 95.8067 166.738 95.4568 167.632 94.859C168.57 94.2311 168.974 93.3324 168.474 92.0502C168.357 91.7511 169.699 91.3239 169.839 91.6847C170.106 92.3724 170.136 92.9617 169.999 93.477C169.987 93.5208 169.983 93.5674 169.968 93.6098C170.088 93.5349 170.207 93.4591 170.327 93.3837C170.566 93.2339 170.805 93.0842 171.043 92.9325C171.281 86.4548 169.81 79.2555 163.598 76.0006C161.613 74.9606 159.443 74.32 157.226 74.0218C155.034 73.8842 152.81 73.8546 150.641 74.1683C149.141 74.3854 147.667 74.7651 146.25 75.393C145.894 75.5503 145.551 75.726 145.217 75.9106C139.741 78.929 137.006 85.4468 136.958 91.6287C136.956 91.6871 136.952 91.7464 136.952 91.8053ZM141.922 102.263C142.285 103.574 142.691 105 143.173 106.451C143.192 106.25 143.22 106.046 143.271 105.837C143.747 103.87 145.237 102.77 147.028 102.478C146.974 102.42 146.94 102.345 146.941 102.246C146.953 101.365 147.127 100.507 147.396 99.6692C147.562 99.1535 148.947 98.9773 148.769 99.5289C148.5 100.367 148.327 101.224 148.314 102.106C148.313 102.219 148.245 102.318 148.145 102.4C148.335 102.403 148.527 102.412 148.72 102.432C148.95 102.455 149.037 102.546 149.037 102.654C150.393 102.98 151.278 103.817 151.736 104.851C152.756 104.221 153.98 104.442 155.167 104.94C155.168 104.877 155.168 104.813 155.172 104.75C155.212 104.163 156.598 103.949 156.552 104.633C156.529 104.968 156.543 105.303 156.572 105.638C156.824 105.779 157.068 105.921 157.302 106.059C157.321 105.935 157.34 105.812 157.371 105.686C157.791 103.951 158.999 102.89 160.507 102.463C160.461 102.407 160.433 102.336 160.434 102.247C160.447 101.365 160.62 100.508 160.889 99.6697C161.055 99.1539 162.44 98.9778 162.262 99.5293C161.993 100.367 161.82 101.224 161.807 102.106C161.807 102.16 161.789 102.21 161.762 102.258C162.108 102.238 162.462 102.244 162.82 102.281C163.049 102.304 163.136 102.395 163.136 102.503C164.462 102.821 165.34 103.628 165.807 104.631C165.817 104.585 165.827 104.538 165.837 104.493C165.818 104.463 165.797 104.437 165.779 104.407C165.502 103.957 166.832 103.533 167.05 103.888C167.063 103.909 167.078 103.929 167.091 103.95C167.181 103.973 167.235 104.016 167.22 104.084C167.217 104.099 167.213 104.115 167.21 104.13C167.949 105.18 169.16 105.976 170.49 105.425C171.579 104.974 172.641 104 172.819 102.774C173.001 101.523 172.538 99.6099 171.049 99.3678C169.118 99.0536 168.806 100.226 167.804 101.419C167.783 101.444 167.753 101.468 167.719 101.49C167.717 101.502 167.715 101.514 167.713 101.527C167.641 101.922 166.33 101.991 166.348 101.893C166.72 99.8285 167.056 97.7578 167.448 95.697C163.982 96.9792 158.149 96.7328 156.567 96.6768C152.107 96.519 147.383 96.6546 142.969 95.9311C142.353 95.8298 141.752 95.7012 141.191 95.5189C141.134 96.7988 141.22 98.0658 141.385 99.3358C141.451 99.8379 140.634 100.151 140.233 99.9735C140.074 99.9773 139.938 99.9439 139.866 99.8586C139.233 99.1054 138.855 98.0055 137.839 97.6951C137.627 97.6301 137.413 97.584 137.202 97.5576C136.883 97.706 136.445 97.7705 136.239 97.6042C135.669 97.7521 135.209 98.144 135.011 98.8807C134.858 99.4502 134.716 100.091 134.857 100.679C135.463 103.219 138.824 104.939 140.518 102.478C140.505 102.399 140.582 102.317 140.707 102.243C141.046 101.966 142.069 101.865 141.922 102.263ZM135.243 106.203C134.071 108.678 133.225 111.343 132.637 114.066C132.835 113.91 133.128 113.773 133.34 113.773C136.069 113.773 138.798 113.773 141.527 113.773C141.666 113.773 141.758 113.791 141.82 113.821C142.024 112.274 142.205 110.73 142.232 109.194C142.235 109.036 142.381 108.907 142.575 108.814C142.577 108.813 142.579 108.813 142.58 108.812C142.579 108.808 142.577 108.804 142.576 108.8C142.139 107.704 141.752 106.593 141.406 105.5C141.362 105.51 141.315 105.518 141.268 105.521C139.252 105.674 137.247 105.938 135.243 106.203ZM141.774 114.172C141.582 114.355 141.235 114.533 140.993 114.533C138.264 114.533 135.535 114.533 132.806 114.533C132.691 114.533 132.605 114.521 132.544 114.501C132.03 117.008 131.728 119.558 131.589 122.048C131.476 124.057 131.436 126.149 131.583 128.227C131.69 128.038 131.913 127.884 132.219 127.885C135.134 127.894 138.045 127.984 140.954 128.12C141.12 126.567 141.316 125.017 141.446 123.482C140.898 120.4 141.358 117.281 141.774 114.172ZM140.847 129.159C137.936 129.023 135.024 128.932 132.108 128.923C131.877 128.923 131.719 128.857 131.624 128.76C131.876 131.641 132.523 134.471 133.883 136.988C136.27 136.992 138.657 137.018 141.044 137.053C140.5 134.456 140.595 131.806 140.847 129.159ZM123.585 136.015C123.448 145.258 123.579 155.126 126.479 163.999C126.496 164.053 126.45 164.113 126.368 164.171C130.072 164.299 133.778 164.384 137.484 164.421C136.913 161.456 135.682 158.507 135.454 155.485C135.07 155.347 135.043 154.903 135.537 154.717C135.805 154.451 136.468 154.326 136.702 154.469C148.384 152.202 161.027 152.691 172.739 154.326C173.114 154.378 173.201 154.554 173.133 154.739C173.488 154.677 173.83 154.738 173.779 154.994C173.249 157.679 173.04 161.17 171.498 163.498C171.477 163.53 171.445 163.559 171.409 163.587C174.826 163.388 178.243 163.145 181.656 162.847C181.657 162.842 181.654 162.839 181.656 162.834C183.881 156.019 184.501 148.596 184.542 141.324C184.426 141.254 184.311 141.183 184.196 141.112C184.126 141.071 184.299 140.941 184.543 140.824C184.545 139.729 184.536 138.638 184.517 137.554C184.391 137.544 184.31 137.512 184.314 137.456C184.35 136.956 184.406 136.46 184.483 135.967C184.47 135.457 184.456 134.948 184.44 134.443C184.156 125.419 183.4 116.158 180.926 107.439C178.883 107.37 176.868 107.096 174.851 106.82C177.144 111.618 177.721 117.313 177.785 122.559C177.845 127.459 177.641 132.778 175.751 137.374C175.696 137.507 175.463 137.605 175.206 137.663C176.06 137.691 175.245 138.552 174.667 138.551C171.871 138.548 169.077 138.515 166.282 138.471C166.184 138.481 166.09 138.481 166.009 138.468C154.982 138.291 143.959 137.887 132.931 137.875C132.501 137.875 132.454 137.681 132.584 137.475C129.913 132.639 129.82 126.474 130.321 121.115C130.79 116.106 131.759 110.949 133.938 106.374C131.637 106.672 129.332 106.928 127.009 106.992C124.388 116.324 123.728 126.37 123.585 136.015ZM138.888 164.253C138.899 164.315 138.884 164.374 138.85 164.429C145.028 164.472 151.206 164.396 157.373 164.202C161.632 164.067 165.906 163.894 170.182 163.657C170.173 163.611 170.187 163.556 170.231 163.49C171.049 162.254 171.306 160.508 171.619 159.088C171.902 157.809 172.15 156.524 172.404 155.239C172.35 155.245 172.296 155.246 172.244 155.239C160.741 153.634 148.308 153.096 136.836 155.331C137.11 158.345 138.347 161.29 138.888 164.253ZM112.904 148.265C115.603 145.491 118.538 142.894 121.826 140.874C121.883 140.838 122.009 140.801 122.158 140.769C122.159 139.972 122.167 139.177 122.178 138.385C122.139 138.36 122.104 138.33 122.081 138.289C120.883 136.183 119.882 133.988 118.955 131.76C115.415 134.765 112.284 138.546 109.478 142.107C110.477 144.231 111.592 146.296 112.904 148.265ZM108.525 143.323C108.499 143.355 108.474 143.388 108.448 143.42C105.8 146.808 103.027 150.48 100.916 154.419C102.293 155.668 103.66 156.928 105.019 158.196C106.646 155.289 108.846 152.635 111.022 150.255C111.325 149.923 111.635 149.594 111.944 149.265C110.636 147.366 109.522 145.373 108.525 143.323ZM122.234 135.629C122.239 135.434 122.243 135.237 122.248 135.043C122.3 133.09 122.373 131.125 122.474 129.153C121.659 129.668 120.864 130.233 120.088 130.839C120.752 132.459 121.455 134.06 122.234 135.629ZM122.491 128.823C122.51 128.474 122.535 128.124 122.556 127.774C122.699 125.354 122.891 122.93 123.164 120.517C123.278 119.509 123.404 118.503 123.547 117.5C121.096 118.792 118.781 120.347 116.594 122.09C117.732 124.773 118.745 127.512 119.838 130.217C120.425 129.787 121.024 129.378 121.637 129C121.759 128.924 122.187 128.839 122.491 128.823ZM115.462 123.014C111.889 126.022 108.67 129.505 105.762 133.097C106.818 135.833 107.866 138.572 109.071 141.233C111.955 137.715 115.083 133.998 118.683 131.104C117.585 128.417 116.578 125.691 115.462 123.014ZM104.754 134.362C104.554 134.617 104.352 134.872 104.155 135.127C100.754 139.538 97.6113 144.245 95.0375 149.226C96.7408 150.686 98.4224 152.171 100.089 153.673C102.367 149.626 105.297 145.851 108.099 142.42C106.87 139.79 105.806 137.08 104.754 134.362ZM94.4774 150.339C93.1415 153.036 91.9752 155.811 91.0312 158.663C91.6431 159.396 92.1947 160.203 92.645 161.056C92.7628 161.278 92.8777 161.503 92.9799 161.732C93.035 161.719 93.0831 161.712 93.1269 161.708C93.157 161.705 93.1862 161.703 93.2084 161.706C94.354 161.839 95.5 161.965 96.647 162.089C97.2519 159.573 98.2519 157.132 99.4898 154.777C97.836 153.278 96.1661 151.797 94.4774 150.339ZM97.6155 162.191C99.4408 162.382 101.268 162.557 103.097 162.723C103.437 161.532 103.9 160.376 104.458 159.256C104.384 159.246 104.32 159.225 104.278 159.186C102.972 157.965 101.659 156.75 100.336 155.545C99.3141 157.605 98.486 159.736 97.966 161.936C97.942 162.036 97.7992 162.125 97.6155 162.191ZM104.336 162.835C111.223 163.438 118.128 163.865 125.041 164.126C122.729 156.919 122.17 149.034 122.159 141.36C122.159 141.358 122.159 141.357 122.159 141.355C120.364 142.521 118.661 143.863 117.046 145.309C115.727 146.489 114.465 147.737 113.269 149.023C113.235 149.101 113.163 149.173 113.068 149.235C112.639 149.702 112.216 150.171 111.803 150.643C108.705 154.182 105.552 158.204 104.336 162.835ZM113.099 115.139C113.113 115.153 113.127 115.166 113.137 115.183C114.303 117.097 115.284 119.096 116.179 121.133C118.437 119.37 120.829 117.795 123.375 116.493C123.488 116.434 123.604 116.408 123.714 116.402C124.138 113.654 124.684 110.933 125.389 108.262C121.246 110.177 117.091 112.48 113.099 115.139ZM101.943 124.029C103.199 126.593 104.269 129.248 105.306 131.918C108.257 128.386 111.479 124.981 115.048 122.038C114.144 119.937 113.152 117.877 111.976 115.9C108.44 118.335 105.054 121.053 101.943 124.029ZM88.1333 143.576C88.1573 143.586 88.1794 143.597 88.1983 143.612C90.1885 145.169 92.1419 146.773 94.0709 148.407C96.7266 143.358 99.9581 138.584 103.467 134.171C103.737 133.832 104.011 133.493 104.286 133.155C103.227 130.421 102.147 127.696 100.891 125.055C95.4661 130.459 90.9723 136.676 88.1333 143.576ZM85.095 154.348C86.7102 154.971 88.2303 155.905 89.5455 157.107C89.7146 157.262 89.8832 157.423 90.0495 157.589C91.0137 154.828 92.1796 152.129 93.507 149.501C91.5936 147.866 89.6515 146.267 87.6797 144.706C86.5331 147.716 85.6979 150.85 85.2439 154.102C85.2316 154.195 85.176 154.276 85.095 154.348ZM41.2859 231.721C43.3402 231.429 45.2295 230.539 46.4331 228.626C47.2932 227.26 47.7723 225.715 47.9607 224.125C45.9502 224.559 43.9709 225.129 41.9444 225.49C41.6543 225.541 41.4385 225.462 41.3066 225.335C35.6851 226.273 29.8672 216.912 35.72 213.441C35.8716 213.351 36.0803 213.32 36.2791 213.333C37.7695 212.238 39.0037 210.87 39.9811 209.278C40.105 209.076 40.6905 208.925 41.0297 208.961C39.4215 206.914 37.3625 205.327 35.0134 204.663C26.7347 202.326 21.1344 211.39 22.7849 218.725C24.15 224.792 28.6928 229.305 34.532 231.2C34.7859 231.099 35.0629 231.019 35.1938 231.034C37.2231 231.273 39.2547 231.495 41.2859 231.721ZM41.2364 209.231C41.235 209.234 41.235 209.236 41.2331 209.239C40.048 211.17 38.4874 212.727 36.6117 213.962C36.607 213.964 36.6041 213.967 36.5999 213.97C33.3577 215.893 34.5287 219.872 36.7459 222.159C37.8077 223.254 39.4841 224.634 41.1436 224.441C43.115 224.211 44.3619 222.467 44.5936 220.6C45.0501 216.924 43.7156 212.528 41.2364 209.231ZM43.9539 224.083C45.3172 223.763 46.6719 223.407 48.0427 223.123C48.0916 221.983 48.0021 220.834 47.8024 219.723C47.1547 216.118 45.5343 212.561 43.1206 209.764C46.0501 214.3 47.8556 220.932 43.9539 224.083ZM47.6559 230.711C50.2246 229.28 51.43 226.867 53.0947 224.596C58.5843 217.109 64.2425 209.729 70.0412 202.478C73.901 197.651 77.6906 192.924 80.8315 187.575C84.2688 181.722 87.308 175.635 90.8847 169.864C93.214 166.106 92.2644 162.128 89.773 159.15C89.7306 159.118 89.6958 159.079 89.6722 159.032C88.9995 158.248 88.2195 157.536 87.3645 156.919C86.7682 156.488 86.1356 156.105 85.4775 155.774C82.0718 154.063 77.9887 153.794 74.7583 156.05C74.8713 156.112 74.8859 156.221 74.7046 156.392C65.0283 165.503 55.9035 175.23 46.7977 184.902C42.6081 189.352 38.4351 193.819 34.328 198.344C33.0453 199.757 31.7617 201.172 30.5153 202.617C30.3189 202.845 29.4908 203.765 29.2369 204.1C30.8399 203.546 32.5583 203.367 34.2833 203.61C34.4354 203.532 34.6125 203.492 34.7835 203.524C43.034 205.096 48.9767 213.159 49.3946 221.372C49.4214 221.899 49.4219 222.436 49.3979 222.974C49.8402 223.128 49.8953 223.661 49.3376 223.833C49.0766 226.424 48.134 228.964 46.0671 230.652C45.3548 231.233 44.5889 231.673 43.7881 232.003C43.8385 232.008 43.8894 232.014 43.9398 232.02C45.2385 231.78 46.4943 231.358 47.6559 230.711ZM250.949 230.311C249.488 229.06 248.526 227.512 247.33 225.854C245.147 222.828 242.889 219.853 240.631 216.882C237.435 212.677 234.215 208.49 230.933 204.352C227.374 199.866 223.64 195.557 220.607 190.68C217.015 184.906 213.956 178.83 210.522 172.965C208.343 169.242 206.08 166.015 208.18 161.671C208.601 160.799 209.122 159.973 209.722 159.202C208.38 159.49 207.035 159.763 205.687 160.022C205.409 160.245 204.594 160.431 204.436 160.262C188.662 163.194 172.466 164.251 156.479 164.727C138.835 165.253 121.133 164.888 103.539 163.364C102.658 163.288 101.777 163.213 100.896 163.13C98.3381 162.891 95.7827 162.629 93.2296 162.339C93.7882 163.834 93.979 165.428 93.5489 167.007C92.8461 169.586 91.0218 171.832 89.7151 174.133C88.1003 176.978 86.5454 179.854 84.9537 182.711C81.7925 188.385 78.4565 193.888 74.3188 198.91C71.1086 202.805 67.9954 206.782 64.9114 210.778C61.9043 214.674 58.9183 218.587 55.9817 222.536C54.6016 224.393 53.4051 226.45 51.9943 228.265C50.4963 230.191 48.5033 231.488 46.2828 232.266C66.5827 234.423 86.9481 235.987 107.339 236.945C134.098 238.201 160.936 238.539 187.703 237.319C208.862 236.355 230.175 234.622 250.949 230.311ZM253.865 229.693C252.532 228.054 251.852 226 251.657 223.892C251.068 223.764 251.227 223.286 251.602 223.045C251.581 222.397 251.602 221.75 251.663 221.113C252.429 213.033 258.121 205.128 266.368 203.557C266.602 203.512 266.785 203.553 266.917 203.633C268.358 203.355 269.826 203.35 271.247 203.675C270.883 203.267 270.476 202.836 270.365 202.708C269.077 201.228 267.763 199.772 266.442 198.322C262.289 193.758 258.079 189.245 253.846 184.755C244.83 175.193 235.804 165.571 226.232 156.559C226.127 156.46 226.176 156.344 226.302 156.239C223.057 153.891 218.823 153.992 215.318 155.694C215.012 155.842 214.712 156.004 214.418 156.177C214.21 156.299 214.004 156.423 213.803 156.557C213.791 156.661 213.606 156.773 213.373 156.858C211.304 158.36 209.688 160.475 209.016 162.973C207.931 167.006 210.264 169.742 212.184 173.093C214.487 177.111 216.647 181.209 218.954 185.225C223.215 192.643 228.487 199.048 233.742 205.749C238.002 211.18 242.203 216.66 246.321 222.199C247.733 224.098 248.961 226.356 250.483 228.148C251.085 228.857 251.77 229.462 252.511 229.979C252.963 229.883 253.415 229.792 253.865 229.693ZM257.619 210.352C257.985 209.734 258.398 209.145 258.851 208.59C255.696 211.643 253.625 215.923 253.122 220.243C253.016 221.157 252.968 222.116 253.01 223.076C254.223 223.325 255.424 223.631 256.628 223.922C255.987 223.318 255.499 222.536 255.261 221.602C254.313 217.881 255.716 213.569 257.619 210.352ZM256.386 231.756C255.727 231.417 255.107 230.987 254.545 230.443C254.398 230.301 254.258 230.153 254.123 230.002C254.024 230.047 253.92 230.085 253.822 230.107C253.54 230.169 253.258 230.225 252.976 230.287C254.027 230.945 255.18 231.431 256.386 231.756ZM278.334 213.72C277.419 209.157 273.941 204.499 268.905 204.273C263.519 204.031 259.444 208.42 257.632 213.105C256.78 215.309 255.988 217.963 256.431 220.35C256.811 222.393 258.378 224.845 260.833 224.411C264.922 223.688 268.648 217.332 264.831 214.409C264.755 214.405 264.687 214.39 264.635 214.359C262.61 213.115 260.982 211.465 259.74 209.441C259.576 209.176 260.862 208.68 261.104 209.076C262.133 210.75 263.459 212.152 265.04 213.279C265.179 213.267 265.308 213.283 265.403 213.339C270.629 216.439 266.419 223.094 262.249 224.891C261.416 225.251 260.529 225.37 259.673 225.286C259.497 225.452 259.231 225.565 258.972 225.519C256.994 225.167 255.061 224.615 253.101 224.185C253.325 226.011 253.925 227.774 255.141 229.163C257.693 232.077 261.599 232.204 265.154 231.451C265.355 231.408 265.519 231.429 265.646 231.484C273.381 229.238 280.076 222.411 278.334 213.72ZM204.68 72.0632C204.09 70.8291 200.802 67.9737 203.119 66.8908C204.275 66.3505 205.709 66.4178 206.575 67.4249C207.292 68.2596 207.743 69.3778 208.48 70.2054C208.499 70.2017 208.519 70.1993 208.539 70.1974C208.86 69.9544 209.42 69.8851 209.624 70.2125C210.236 71.1923 212.558 72.6289 211.823 74.043C212.577 74.043 211.66 74.7604 211.198 74.7886C212.879 74.6841 211.535 74.0095 212.367 74.4594C212.567 74.5677 212.768 74.6737 212.972 74.7745C213.581 75.0745 214.194 75.3638 214.81 75.6478C216.797 76.563 218.795 77.4542 220.787 78.3605C223.778 79.7223 226.79 81.0779 229.72 82.5819C229.671 82.4863 229.661 82.3733 229.72 82.2498C229.848 81.9842 229.953 81.7124 230.044 81.4354C228.458 80.832 226.937 80.0445 225.265 79.7011C224.472 79.5386 225.617 78.8179 226.088 78.9149C227.523 79.2093 228.853 79.8165 230.199 80.3747C230.401 79.8038 231.353 79.8363 231.806 80.003C232.307 80.1877 232.983 80.6012 233.451 80.6248C233.566 80.6304 233.691 80.6738 233.778 80.7439C233.967 80.8024 234.092 80.9394 234.049 81.1726C234 81.4383 233.938 81.7016 233.867 81.9635C236.416 82.337 238.823 83.2593 241.251 84.0784C242.025 84.3394 240.876 84.9998 240.423 84.8471C238.173 84.0883 235.94 83.2461 233.599 82.8283C233.416 83.345 233.198 83.849 232.962 84.3394C233.067 84.3992 233.173 84.4567 233.277 84.5169C233.399 84.5876 233.426 84.67 233.397 84.7525C233.862 84.7091 234.342 84.9574 233.98 85.4251C233.235 86.3898 233.05 87.6762 232.423 88.7252C232.709 89.0436 231.59 89.5005 231.246 89.3003C227.067 86.8735 222.579 84.9781 218.14 83.0859C216.558 82.4119 214.968 81.7515 213.395 81.0562C213.802 82.662 214.002 84.7708 214.122 85.3342C215.079 89.7921 216.028 94.2674 217.394 98.6217C217.465 98.8473 217.146 99.0564 216.797 99.1473C216.736 99.3065 216.542 99.4469 216.409 99.502C216.115 99.624 215.817 99.7324 215.517 99.8285C215.849 100.9 215.939 102.032 216.352 103.079C216.584 103.663 215.227 104.052 214.988 103.444C214.569 102.384 214.482 101.237 214.14 100.154C213.565 100.241 212.98 100.268 212.386 100.21C211.918 100.163 211.904 99.926 212.079 99.7102C210.65 95.1318 209.715 90.3941 208.752 85.7007C208.324 83.6159 207.914 81.5273 207.463 79.4477C207.38 79.0656 206.94 77.3275 206.931 76.9271C206.768 76.9102 206.651 76.8522 206.643 76.742C206.591 76.7222 206.542 76.6977 206.501 76.661C205.387 75.6568 204.538 74.4528 203.674 73.2361C203.526 73.0284 203.658 72.7679 203.851 72.6426C204.136 72.4575 204.428 72.2855 204.72 72.115C204.705 72.1014 204.69 72.0839 204.68 72.0632ZM230.26 82.8575C230.797 83.1378 231.329 83.4241 231.859 83.7157C232.185 82.9884 232.458 82.231 232.62 81.4529C232.298 81.3813 231.988 81.2409 231.689 81.1137C231.635 81.0911 231.581 81.0694 231.527 81.0459C231.398 81.5197 231.248 81.9861 231.033 82.4312C230.896 82.7148 230.568 82.8603 230.26 82.8575ZM210.95 74.9521C210.123 75.5635 209.074 75.9318 208.132 76.3671C208.451 76.8009 208.519 77.6883 208.602 78.0543C209.066 80.1076 209.472 82.1745 209.893 84.2367C210.929 89.3013 211.907 94.4224 213.45 99.3631C214.277 99.356 215.062 99.1582 215.843 98.8355C215.881 98.8195 215.925 98.8044 215.971 98.7898C214.753 94.8703 213.867 90.8519 213.004 86.8425C212.648 85.1872 212.308 83.5278 211.927 81.8782C211.877 81.6639 211.644 80.7896 211.541 80.2625C211.288 80.1231 211.092 79.9686 211.09 79.8165C211.086 79.6469 211.201 79.54 211.335 79.4594C211.571 79.2041 212.022 79.0581 212.356 79.1354C212.595 79.1905 212.801 79.4467 212.98 79.8231C213.699 80.1745 214.924 80.6073 215.12 80.6921C216.841 81.4302 218.567 82.1542 220.286 82.8942C224.039 84.5099 227.817 86.1392 231.394 88.127C231.906 87.1684 232.108 86.0662 232.74 85.1637C232.523 85.2202 232.308 85.2315 232.188 85.1618C227.691 82.5442 222.887 80.4453 218.152 78.3044C216.234 77.4377 214.303 76.5941 212.409 75.6761C212.143 75.5475 211.362 75.2893 210.95 74.9521ZM205.168 72.986C205.825 73.9158 206.494 74.8433 207.308 75.6393C208.282 75.1673 209.368 74.8329 210.214 74.1654C211.191 73.3948 209.425 71.9973 208.644 71.1522C207.468 71.7335 206.288 72.303 205.168 72.986ZM204.745 69.8479C205.128 70.3713 205.584 70.887 205.909 71.4579C206.358 71.2219 206.812 70.9925 207.267 70.7669C206.765 70.2139 206.411 69.5144 206.013 68.8964C205.854 68.6482 203.917 66.229 203.68 67.4372C203.516 68.2648 204.296 69.2332 204.745 69.8479ZM149.388 190.165C149.006 190.29 148.562 190.273 148.562 190.037C148.562 189.498 148.562 188.959 148.562 188.42C148.562 187.896 149.927 187.64 149.927 188.054C149.927 188.551 149.927 189.047 149.927 189.544C149.929 189.544 149.932 189.544 149.934 189.544C162.157 189.542 174.38 189.431 186.603 189.302C192.846 189.237 199.089 189.166 205.332 189.05C207.334 189.012 209.337 188.974 211.338 188.91C211.979 188.89 212.621 188.87 213.261 188.835C213.31 188.832 213.354 188.828 213.396 188.825C208.501 185.009 205.142 179.675 200.83 175.258C200.679 175.337 200.507 175.383 200.345 175.362C193.279 174.483 186.184 174.212 179.08 174.186C179.072 176.383 179.038 178.58 179.035 180.777C179.035 180.85 179 180.916 178.947 180.976C179.474 180.927 180.007 180.955 180.533 181.108C180.82 181.192 180.481 181.384 180.359 181.439C180.105 181.555 179.69 181.703 179.407 181.62C178.412 181.329 177.689 181.639 176.851 182.18C176.584 182.353 176.201 182.444 175.886 182.439C175.621 182.435 175.601 182.301 175.812 182.164C176.398 181.786 177.046 181.459 177.721 181.236C177.69 181.212 177.671 181.181 177.671 181.142C177.674 178.823 177.713 176.504 177.718 174.185C169.044 174.191 160.358 174.527 151.696 174.549C150.727 177.007 150.618 179.709 149.969 182.261C150.549 182.311 151.116 182.416 151.627 182.644C152.173 182.887 150.919 183.453 150.535 183.282C149.516 182.829 148.2 182.965 147.11 182.968C146.91 182.968 146.556 182.857 146.747 182.596C146.939 182.337 147.346 182.232 147.65 182.231C147.984 182.231 148.334 182.222 148.688 182.22C149.297 179.67 149.422 176.988 150.438 174.557C143.256 174.585 136.077 174.872 128.898 175.136C128.901 175.153 128.903 175.17 128.898 175.191C127.598 180.546 125.264 185.576 124.047 190.957C124.042 190.977 124.033 190.996 124.021 191.015C124.377 191.015 124.734 191.015 125.09 191.015C126.005 191.015 124.948 191.658 124.524 191.658C123.041 191.658 121.559 191.658 120.077 191.658C119.162 191.658 120.218 191.015 120.643 191.015C121.34 191.015 122.037 191.015 122.734 191.015C123.961 185.695 126.258 180.71 127.546 175.408C127.567 175.32 127.658 175.241 127.781 175.176C118.779 175.502 109.777 175.76 100.77 175.386C99.3127 181.19 95.8524 186.117 93.426 191.54C94.6682 191.565 95.8915 191.653 97.1153 191.944C97.8586 192.12 96.6353 192.703 96.2603 192.614C94.8359 192.275 93.4222 192.218 91.9639 192.218C91.2667 192.218 91.6869 191.822 92.1278 191.632C94.6908 185.947 98.3711 180.799 99.65 174.597C99.7291 174.213 101.087 173.982 101.004 174.385C101 174.404 100.994 174.424 100.99 174.443C118.317 175.189 135.68 173.746 153.01 173.611C168.936 173.486 184.977 172.455 200.834 174.428C200.962 174.444 201.054 174.476 201.122 174.517C201.431 174.397 201.819 174.385 202.023 174.593C206.535 179.196 209.97 184.846 215.266 188.648C215.904 189.107 214.711 189.797 214.215 189.441C214.16 189.402 214.109 189.36 214.055 189.321C213.525 189.489 212.791 189.452 212.384 189.47C210.688 189.546 208.991 189.583 207.294 189.619C201.105 189.752 194.914 189.826 188.724 189.893C175.611 190.039 162.499 190.162 149.388 190.165ZM213.306 189.076C213.347 189.022 213.43 188.972 213.533 188.929C213.518 188.917 213.503 188.906 213.488 188.894C213.427 188.941 213.365 188.999 213.306 189.076ZM87.1149 198.702C88.7 198.703 90.2638 198.736 91.8155 199.095C92.2107 199.186 93.4194 198.575 92.6643 198.4C91.0161 198.02 89.3458 197.986 87.6618 197.985C87.1893 197.985 86.1949 198.701 87.1149 198.702ZM143.861 198.403C143.407 198.403 142.953 198.403 142.499 198.403C142.493 197.916 141.497 198.041 141.209 198.403C140.745 198.403 140.282 198.403 139.818 198.403C139.364 198.403 138.346 199.092 139.264 199.092C139.874 199.092 140.483 199.092 141.093 199.092C140.68 204.82 139.974 210.498 138.87 216.136C124.322 216.121 109.772 215.934 95.2264 215.682C90.9761 215.609 86.6956 215.639 82.4505 215.368C82.4637 215.341 82.4778 215.317 82.4877 215.279C82.6041 214.836 82.768 214.402 82.9206 213.97C83.451 212.468 84.0521 210.99 84.6579 209.517C86.1059 205.993 87.6278 202.415 89.643 199.172C89.9869 198.618 88.6109 198.744 88.3693 199.133C86.5143 202.119 85.1091 205.39 83.737 208.619C82.8161 210.784 81.2955 213.432 81.0463 215.811C81.0289 215.976 81.1547 216.084 81.3134 216.106C83.6249 216.421 86.0536 216.302 88.3792 216.353C93.6003 216.467 98.8223 216.547 104.044 216.621C115.923 216.79 127.803 216.93 139.684 216.933C140.206 216.933 141.133 216.141 140.21 216.141C140.206 216.141 140.201 216.141 140.196 216.141C140.21 216.113 140.222 216.084 140.227 216.055C141.329 210.444 142.036 204.792 142.452 199.092C142.737 199.092 143.023 199.092 143.308 199.092C143.762 199.092 144.779 198.403 143.861 198.403ZM117.029 214.608C116.948 215.097 118.318 214.852 118.39 214.421C119.202 209.554 120.039 204.695 121.212 199.899C121.3 199.899 121.388 199.899 121.475 199.899C121.927 199.899 122.948 199.214 122.03 199.214C120.548 199.214 119.065 199.214 117.583 199.214C117.131 199.214 116.11 199.899 117.028 199.899C118.004 199.899 118.981 199.899 119.958 199.899C119.908 199.947 119.873 199.999 119.859 200.055C118.682 204.86 117.843 209.73 117.029 214.608ZM212.435 195.163C212.076 195.275 211.828 195.169 211.728 194.991C211.517 194.985 211.306 194.981 211.095 194.985C210.234 194.999 209.374 195.031 208.514 195.069C205.929 195.185 203.346 195.334 200.762 195.486C195.17 195.812 189.577 196.192 183.978 196.381C176.914 196.619 169.838 196.578 162.772 196.503C159.895 196.472 157.019 196.428 154.142 196.392C153.305 196.382 152.469 196.368 151.632 196.37C151.266 196.37 151.086 196.408 151.026 196.426C151.083 196.402 151.235 196.319 151.405 196.104C151.403 196.094 151.4 196.085 151.398 196.075C151.238 196.235 150.984 196.365 150.744 196.392C150.744 196.891 150.744 197.39 150.744 197.89C150.744 198.52 149.36 198.717 149.36 197.987C149.36 197.179 149.36 196.37 149.36 195.562C149.36 194.947 150.674 194.747 150.739 195.415C151.635 195.112 153.263 195.4 153.876 195.408C157.102 195.448 160.326 195.499 163.552 195.53C171.507 195.606 179.473 195.646 187.421 195.261C194.086 194.938 200.743 194.468 207.407 194.146C209.071 194.066 210.958 193.767 212.618 194.037C213.639 194.203 213.143 194.942 212.435 195.163ZM212.19 194.247C211.748 194.385 211.662 194.518 211.711 194.632C211.774 194.477 211.929 194.329 212.19 194.247ZM215.016 192.096C215.016 191.817 213.651 192.031 213.652 192.462C213.652 193.641 213.663 194.838 214.502 195.755C214.758 196.034 216.039 195.55 215.784 195.272C214.992 194.408 215.017 193.198 215.016 192.096ZM141.394 221.954C141.648 222.241 140.361 222.719 140.113 222.437C139.975 222.28 139.867 222.113 139.771 221.942C139.477 221.946 139.309 221.765 139.302 221.552C139.288 221.55 139.279 221.549 139.264 221.547C139.039 221.513 138.815 221.482 138.589 221.458C137.809 221.376 137.027 221.318 136.244 221.272C134.057 221.147 131.867 221.074 129.677 221.024C123.964 220.893 118.245 220.868 112.531 220.992C105.977 221.133 99.4489 221.174 92.8961 220.882C90.2973 220.765 87.6999 220.624 85.104 220.459C84.3399 220.41 83.5768 220.36 82.8128 220.312C82.4345 220.919 81.9602 221.464 81.4919 222.002C81.0765 222.48 79.7745 222.238 80.3445 221.581C80.7114 221.159 81.1217 220.723 81.4364 220.245C81.3996 220.24 81.3643 220.234 81.3308 220.223C81.3209 220.221 81.3111 220.217 81.3012 220.214C80.9366 220.098 80.9413 219.697 81.2117 219.488C81.1104 219.378 81.044 219.231 81.0341 219.011C81.0072 218.414 82.2621 218.204 82.4034 218.824C82.4477 218.839 82.492 218.854 82.5372 218.869C82.7303 218.93 82.9376 219.044 83.0412 219.228C83.6592 219.285 84.2759 219.402 84.7054 219.429C87.8318 219.63 90.9596 219.812 94.0897 219.938C101.999 220.256 109.872 219.988 117.78 219.947C123.951 219.914 130.144 219.922 136.307 220.275C137.18 220.325 138.329 220.266 139.334 220.423C139.294 220.003 139.292 219.573 139.291 219.146C139.291 218.715 140.656 218.501 140.656 218.781C140.659 219.871 140.628 221.085 141.394 221.954ZM139.467 221.177C139.465 221.168 139.463 221.159 139.461 221.15C139.41 221.195 139.386 221.238 139.384 221.279C139.407 221.244 139.434 221.21 139.467 221.177Z" fill="#3C0B84"/>
</svg>
