<svg width="100" height="100" viewBox="0 0 100 100" fill="none" xmlns="http://www.w3.org/2000/svg">
<path d="M57.8376 65.9118L57.7434 65.3232C57.8009 65.526 57.8584 65.7288 57.9165 65.9316C57.8899 65.9252 57.864 65.918 57.8376 65.9118ZM34.593 67.5673C34.5809 67.5758 34.5689 67.5838 34.5568 67.5923L35.0504 70.4853C34.9356 69.5879 34.7816 68.7004 34.6306 67.7972C34.6176 67.7207 34.6056 67.6438 34.593 67.5673ZM34.4685 66.772C34.415 66.4092 34.3657 66.0456 34.3222 65.681C33.4792 64.1384 32.5799 62.4574 31.4073 61.0616L31.3721 61.0183C30.6777 60.1992 29.8862 59.4829 28.9556 58.9526C28.4457 59.6175 27.9413 60.316 27.3467 60.8486C29.9979 62.5039 30.7441 66.2391 31.5209 69.0291C31.5611 69.1736 31.2868 69.2954 31.0951 69.2868L31.1081 69.3387C31.148 69.3261 31.188 69.3129 31.2276 69.2991C31.2911 69.2686 31.3533 69.2358 31.4172 69.206C31.4657 69.1833 31.5176 69.1707 31.5675 69.1666C32.581 68.7212 33.4831 67.9173 34.3725 67.3151C34.4148 67.2864 34.4772 67.2677 34.5427 67.2584C34.5217 67.1254 34.5017 66.9921 34.4817 66.8589C34.4496 66.8385 34.4483 66.8066 34.4685 66.772ZM35.0931 66.8255C35.1539 67.2134 35.219 67.6001 35.2881 67.9843C35.4546 68.9118 35.5886 69.8257 35.6887 70.7495C35.7331 70.7543 35.7275 70.773 35.6941 70.798C35.7368 71.1978 35.7739 71.6002 35.8017 72.0062C35.9202 72.0256 35.894 72.0907 35.8139 72.1546C35.8204 72.2577 35.8279 72.3601 35.8351 72.463C37.1546 72.013 38.7197 72.012 40.0808 71.9133C42.6459 71.7276 45.218 71.628 47.7891 71.5684C50.3832 71.5083 52.9801 71.4806 55.5742 71.5431C56.9123 71.5752 58.4196 71.5008 59.7388 71.8444C59.1314 70.0226 58.5683 68.1859 58.0342 66.3401C50.5197 64.3678 42.6653 65.9164 35.0931 66.8255ZM63.6764 60.6673L63.6661 60.6714C63.6708 60.6741 63.6766 60.6761 63.6809 60.679C63.6793 60.6751 63.678 60.6712 63.6764 60.6673ZM63.7469 60.8526C63.7291 60.9309 63.6603 61.0119 63.5309 61.0574C61.5709 61.7459 59.6448 62.4809 57.92 63.6592C58.2444 64.8359 58.5781 66.0099 58.9242 67.1803C60.6288 65.8418 62.7134 65.0054 64.8207 64.5278C64.8824 64.4684 64.9223 64.4179 64.9458 64.3843C64.5775 63.2631 64.1991 62.0507 63.7469 60.8526ZM44.2175 53.8643C43.8255 53.8801 43.3999 53.8051 42.9837 53.6507C43.3562 53.8449 43.7709 53.9341 44.2175 53.8643ZM34.5702 59.1925C34.5397 59.14 34.5085 59.0874 34.4762 59.0363L34.5366 59.2449C34.5432 59.2267 34.5541 59.209 34.5702 59.1925ZM35.2052 59.0814C35.2734 59.2104 35.1963 59.3273 35.0791 59.3949C34.9748 59.8638 34.8942 60.3354 34.8391 60.8095C41.9142 59.5885 49.1301 58.0682 56.242 59.789C56.0458 59.0406 55.8513 58.292 55.6575 57.5436C55.581 57.2482 56.1784 57.0887 56.2548 57.3837C56.335 57.6934 56.4154 58.0032 56.496 58.3132C57.6498 57.0434 59.4438 56.4549 61.0525 56.0167C61.0616 56.0142 61.0697 56.0134 61.0783 56.0118C60.5364 55.3891 59.9197 54.8421 59.2064 54.4049C57.1935 53.1715 54.5554 53.1612 52.2587 52.9046C50.6679 52.7267 48.85 52.7939 47.3633 52.1016C47.3206 52.1226 47.272 52.1393 47.2223 52.151C45.7381 54.0943 43.1084 54.9993 41.4771 53.0528C41.3468 53.073 41.2299 53.0621 41.2293 53.0093C41.2281 52.9069 41.2246 52.8071 41.2194 52.7088C41.2042 52.6859 41.1885 52.6643 41.1732 52.6408C40.517 53.066 39.4786 53.2247 38.913 53.349C37.3492 53.6921 35.6877 53.8109 34.1592 54.2928C33.3475 54.5488 32.5777 55.0972 31.8666 55.7438C33.0484 56.7971 34.4434 57.6434 35.2052 59.0814ZM39.9347 52.6896C40.1023 52.6482 40.2822 52.5981 40.4514 52.5361L39.9347 52.6896Z" fill="#A358E7"/>
<path d="M94.551 84.0842C94.0436 83.146 93.3156 82.3337 92.5719 81.5781C92.1836 81.1836 91.7695 80.8144 91.3524 80.451C90.8876 80.0462 90.3451 79.8826 89.8811 79.4924C87.7858 77.7295 85.9062 75.7273 83.7663 74.0149C82.0879 72.6719 80.2416 71.6421 78.2025 70.9601C76.1485 70.2731 73.9957 70.4448 71.8723 70.5656C72.247 70.013 72.5687 69.4132 72.8365 68.781C73.9689 66.1063 74.2424 63.1403 74.418 60.2675C74.4417 59.88 74.7808 56.3144 74.3292 55.8152C74.8981 54.7892 76.5004 54.2022 77.4772 53.7351C78.3628 53.3115 79.2973 52.9531 80.1577 52.4741C80.3574 52.6738 80.5571 52.8733 80.7566 53.0731C81.0893 53.4057 82.2231 52.9445 81.8594 52.5805C81.5733 52.2946 81.2876 52.0085 81.0013 51.7224C81.4428 50.9231 81.4799 49.7398 81.4492 48.8615C81.4403 48.6076 81.4189 48.0521 81.1089 47.9464C80.951 47.8926 80.7935 47.9027 80.6441 47.9491C81.274 45.9673 80.6841 43.8897 79.2067 42.4304C78.0135 41.2518 76.3159 40.9101 74.7043 41.1038C74.7043 39.0249 74.7043 36.9459 74.7043 34.8668C74.7043 34.5731 74.102 34.679 74.102 34.9224C74.102 37.0149 74.102 39.1076 74.102 41.2003C73.978 41.2258 73.8549 41.2539 73.7331 41.2854C73.6065 41.3182 73.5393 41.3847 73.5158 41.454C71.3255 42.0839 69.8874 43.9228 69.751 46.2068C69.623 48.3477 71.0629 49.9599 72.9088 50.6657C67.8403 52.6889 67.1949 58.8371 65.3914 63.7661C64.2671 60.3553 63.0389 56.6644 60.1157 54.4017C58.3118 53.0053 56.0099 52.9826 53.8443 52.7355C52.83 52.6196 51.8285 52.4675 50.8095 52.377C49.7059 52.2791 48.5202 52.1909 47.5337 51.6422C47.4894 51.6175 47.4255 51.614 47.3573 51.6237C46.9669 50.7541 46.6715 49.8562 46.3949 48.943C47.0557 48.6573 47.5609 48.148 47.6714 47.4934C47.6976 47.4847 47.7186 47.4762 47.7312 47.468C49.6505 46.2227 51.671 44.2308 52.0303 41.8747C52.3908 39.5107 50.5523 37.7268 48.3188 37.5636C48.2908 37.5615 48.2372 37.5725 48.1758 37.5904C47.7553 36.4293 47.1097 35.4713 45.873 35.0999C44.6714 34.7392 43.2878 35.0867 42.0884 35.3213C40.8195 33.6563 37.4873 33.1076 36.6777 35.4911C36.2197 36.8399 36.9333 38.4686 38.2075 39.0352C39.5008 39.6103 41.0893 39.2525 42.4711 39.2562C42.4654 39.2715 42.4621 39.2871 42.4656 39.3032C42.7279 40.5516 44.1134 40.6955 45.1782 40.8006C45.1729 40.8031 45.1667 40.8054 45.1619 40.8082C43.418 41.8083 43.3001 45.6587 45.3784 46.2936C45.5387 46.3923 45.6498 46.4372 45.6498 46.4372C45.6498 46.4372 45.6628 46.435 45.6811 46.4319C45.6453 46.4659 45.6107 46.5007 45.5785 46.5368C45.4099 46.7252 46.0093 46.6819 46.1332 46.5436C46.2206 46.4461 46.3009 46.3855 46.3764 46.3486C46.4733 46.3418 46.5716 46.3375 46.6672 46.3368C46.904 46.4539 47.0434 46.8721 47.0906 47.1716C47.2066 47.9105 46.7125 48.5513 46.0235 48.7667C45.9462 48.7908 45.7265 48.8679 45.7632 48.9904C46.0649 49.9931 46.3861 50.9775 46.8257 51.9275C46.2956 52.7004 45.6259 53.3348 44.7518 53.7096C44.569 53.7879 44.3907 53.8373 44.2167 53.8646C43.7699 53.9344 43.3552 53.845 42.9829 53.651C42.5222 53.4109 42.1271 53.0112 41.818 52.5512C41.7708 51.3782 41.4958 50.4453 40.4234 49.7719C39.1432 48.9683 37.2793 49.2047 36.4617 47.7341C35.7359 46.4288 36.6208 44.4697 37.1594 43.2573C37.7618 41.9004 38.5459 40.6248 39.3493 39.3797C39.4054 39.2925 38.8565 39.3259 38.7584 39.4782C37.3494 41.6611 35.1961 44.71 35.7139 47.4573C35.982 48.8793 37.6037 49.2031 38.7675 49.5293C40.2214 49.937 40.9073 50.7679 41.1361 51.9955C41.131 52.0058 41.1252 52.0161 41.1221 52.027C41.0537 52.2575 40.7727 52.4182 40.4504 52.5361C40.2812 52.5982 40.1012 52.6483 39.9337 52.6897C39.7327 52.7394 39.5507 52.7773 39.4309 52.809C38.563 53.0391 37.6744 53.1941 36.7912 53.3534C35.4717 53.5917 34.1507 53.717 32.9932 54.4334C31.4543 55.3861 30.1651 56.8029 28.9704 58.1418C28.2633 58.9343 27.6525 59.9583 26.866 60.6698C26.4323 59.2608 25.9467 57.8628 25.5413 56.4509C24.8459 54.0284 23.7454 51.9683 20.9338 52.0588C20.8227 52.0625 20.6288 52.1635 20.5575 52.247C19.6774 52.1853 19.5656 51.3129 19.1606 50.4474C18.8535 49.7911 18.0864 49.315 17.3602 49.5291C17.2425 49.5638 17.143 49.6169 17.0568 49.6831C16.5125 49.1196 15.8785 48.9972 15.5332 49.5479C15.3731 49.2987 15.1571 49.0977 14.8331 49.1301C14.3755 49.1759 14.1319 49.5953 13.9967 49.989C13.6184 51.0925 13.4068 52.8274 14.0443 53.8779C14.1657 54.0777 14.742 53.8714 14.595 53.6292C14.1535 52.902 14.2541 51.8343 14.3501 51.0307C14.4004 50.61 14.4878 50.1809 14.6558 49.7905C14.6807 49.7353 14.7088 49.6819 14.7395 49.6297C14.7611 49.5908 14.7793 49.5679 14.7933 49.5535C14.9677 49.6747 15.0783 49.9585 15.1546 50.1234C15.1826 50.1838 15.2422 50.2167 15.3133 50.2289C15.1323 51.3448 15.2803 52.793 15.6699 53.8334C15.7773 54.1201 16.3723 53.9542 16.2672 53.6735C15.9772 52.8993 15.9123 52.0021 15.8824 51.1844C15.8675 50.778 15.882 50.3678 15.957 49.9675C16.0714 49.3601 16.3196 49.7179 16.6236 50.0758C16.6516 50.1087 16.6887 50.1304 16.7299 50.144C16.3406 51.19 17.0162 53.1772 17.1125 53.9365C17.1345 54.1092 17.7354 53.9781 17.7098 53.7765C17.6166 53.0446 17.4332 52.3261 17.3365 51.5938C17.2765 51.1414 17.243 50.6784 17.3116 50.2254C17.4027 49.625 17.8456 49.8179 18.2168 50.1306C18.7839 50.6079 18.8051 51.5012 19.2 52.0986C19.6429 52.7688 20.6086 52.5986 21.2591 52.4403C21.3135 52.4271 21.3547 52.4094 21.3898 52.39C23.8124 52.7054 24.5322 55.1425 25.1499 57.3368C26.0471 60.5233 27.3685 63.554 27.4182 66.9219C27.4207 67.0742 28.0186 66.9687 28.0155 66.7619C27.9875 64.8661 27.5707 63.0469 27.0408 61.2515C29.4787 62.9239 30.183 66.5334 30.9221 69.1891C30.9401 69.2537 31.0089 69.2827 31.0936 69.2866C31.2855 69.2953 31.5599 69.1735 31.5195 69.029C30.7426 66.239 29.9965 62.5038 27.3452 60.8485C27.9399 60.3159 28.4442 59.6174 28.9542 58.9525C29.8848 59.4828 30.676 60.1991 31.3706 61.0182C31.3826 61.0324 31.3939 61.0472 31.4059 61.0614C32.5783 62.4572 33.4777 64.1383 34.3208 65.6809C34.3642 66.0455 34.4135 66.4091 34.4671 66.7718C34.4469 66.8065 34.4481 66.8384 34.4803 66.8586C34.5003 66.9918 34.5203 67.1251 34.5413 67.2581C34.4758 67.2673 34.4133 67.2861 34.371 67.3147C33.4817 67.9172 32.5795 68.7209 31.566 69.1663C31.5164 69.1706 31.4644 69.1832 31.4158 69.2056C31.3519 69.2355 31.2896 69.2683 31.2262 69.2988C31.1866 69.3126 31.1466 69.326 31.1066 69.3384C31.0077 69.3691 30.9079 69.3973 30.8067 69.4198C30.621 69.461 30.5528 69.5517 30.5769 69.6199C29.9004 69.9672 29.2314 70.3292 28.5413 70.6491C28.4809 70.648 28.4205 70.6462 28.3601 70.6451C28.2457 70.6435 27.6828 70.8659 27.9677 70.8702C27.9864 70.8704 28.0052 70.871 28.0238 70.8715C26.7077 71.3692 25.3426 71.3841 23.974 70.9926C21.929 70.4079 20.5698 68.7639 20.1281 66.7263C19.6341 64.4481 19.8561 61.915 20.028 59.6123C20.0892 58.7929 20.1729 57.9757 20.2537 57.1583C20.2687 57.0059 20.3324 56.7415 20.3365 56.5152C20.5309 56.5292 20.7248 56.5426 20.9173 56.5556C21.2193 56.576 21.5231 56.1312 21.1193 56.1042C18.7857 55.9471 15.5485 55.8917 13.6531 54.271C12.7381 53.4886 12.3782 49.5712 13.7031 49.8569C14.008 49.9226 14.3009 49.4908 13.9051 49.4055C11.789 48.9491 11.9722 52.9348 12.7565 54.1393C13.2248 54.859 14.1034 55.2552 14.8759 55.5434C16.4123 56.1159 18.0899 56.335 19.7355 56.4694C19.8616 56.7633 19.611 57.7106 19.584 57.9862C19.4702 59.1396 19.3795 60.2945 19.3247 61.4522C19.2148 63.7751 19.0444 66.4876 20.1426 68.6098C20.7799 69.8413 21.8702 70.6458 23.1116 71.1147C22.6994 71.2732 22.3968 71.5815 21.896 71.7722C20.8135 72.1842 19.8221 73.1682 18.8632 73.8135C16.6372 75.3116 14.3394 76.6991 12.142 78.2402C10.1019 79.6711 8.1191 81.2582 6.49533 83.159C4.9944 84.9157 4.0438 87.0421 5.48228 89.1633C5.79536 89.6245 6.11814 89.4928 6.66269 89.511C7.46778 89.5378 8.27306 89.559 9.07856 89.5786C10.8231 89.621 12.5681 89.6452 14.313 89.6623C17.675 89.695 21.0381 89.6511 24.3996 89.7122C31.18 89.8352 37.9611 89.9486 44.7429 89.9236C51.5099 89.8987 58.2718 89.6697 65.0392 89.6406C71.695 89.612 78.3336 90.144 84.9898 89.9624C86.4683 89.9222 87.9453 89.8424 89.42 89.7328C90.2084 89.674 90.9958 89.5978 91.7819 89.5147C92.4217 89.4471 93.3028 89.486 93.8966 89.2317C94.5898 88.9347 95.0288 87.7794 95.1892 87.1056C95.4375 86.0691 95.0371 84.9829 94.551 84.0842ZM73.9194 56.0832C73.9293 56.0825 73.9392 56.0813 73.9493 56.0803C73.9586 56.0805 73.966 56.0815 73.9763 56.0815C73.9534 56.0817 73.9359 56.0823 73.9194 56.0832ZM80.6169 48.3298C80.6373 48.3087 80.6614 48.2927 80.6831 48.2737C80.762 48.3617 80.7861 48.5151 80.8088 48.6227C80.8916 49.0126 80.8609 49.4345 80.8315 49.828C80.7974 50.2804 80.7612 50.8499 80.6126 51.3341C80.3755 51.0968 80.1383 50.8596 79.9011 50.6224C79.8508 50.5721 79.7809 50.5418 79.702 50.5247C80.096 49.8494 80.1509 48.9392 80.0495 48.1968C80.0482 48.189 80.0464 48.182 80.0453 48.1741C80.0678 48.2088 80.1068 48.2325 80.154 48.2457C80.1507 48.2488 80.1472 48.2514 80.1439 48.2543C79.8974 48.4858 80.4889 48.4497 80.6169 48.3298ZM70.4501 47.186C69.8862 44.9052 71.3387 42.2916 73.5938 41.6459C73.6506 41.6785 73.7306 41.6923 73.8351 41.6653C75.6768 41.1896 77.5108 41.5525 78.882 42.9071C80.2016 44.2106 80.635 46.2979 80.0367 48.027C80.0313 48.0426 80.0288 48.0569 80.0268 48.0707C79.9309 47.6051 79.6811 47.3109 79.3588 47.2466C79.3678 47.2343 79.3751 47.2217 79.3788 47.2083C80.1919 44.1081 77.0919 41.9178 74.2647 42.5522C74.2061 42.5124 74.1204 42.4965 74.0113 42.5274C72.3014 43.0141 71.0217 44.6335 71.1624 46.4599C71.3199 48.5012 72.9375 49.679 74.8743 49.8635C74.5545 50.1619 74.1832 50.4033 73.7762 50.5587C73.7603 50.5539 73.7446 50.5488 73.729 50.5438C73.6941 50.4791 73.61 50.4408 73.4849 50.4641C72.0003 49.9309 70.8547 48.822 70.4501 47.186ZM78.2534 46.7893C77.8321 46.3756 76.925 46.6743 76.6082 47.0756C76.5902 47.0982 76.5742 47.1221 76.5571 47.145C76.5746 47.0826 76.5872 47.0185 76.5925 46.9525C76.6422 46.3366 76.0443 46.0231 75.5426 45.8317C75.5426 45.3448 75.5426 44.8582 75.5426 44.3713C75.623 44.4064 75.6908 44.4713 75.7336 44.5772C75.8192 44.7877 76.408 44.6073 76.331 44.4173C76.1976 44.089 75.8903 43.961 75.5426 43.9717C75.5426 43.8482 75.5426 43.7248 75.5426 43.6013C75.5426 43.3418 74.9444 43.4671 74.9444 43.6722C74.9444 43.8181 74.9444 43.9641 74.9444 44.11C74.3096 44.3779 73.7826 44.9922 74.1414 45.6053C74.3127 45.8982 74.6235 46.0112 74.9444 46.1138C74.9444 46.3239 74.9444 46.5337 74.9444 46.7435C74.9154 46.7182 74.8857 46.694 74.8572 46.6681C74.837 46.6497 74.8183 46.6303 74.7991 46.611C74.8057 46.4242 74.3925 46.4477 74.2927 46.4667C74.0392 46.5143 73.3592 46.7157 73.69 47.0591C73.8916 47.2679 74.136 47.4426 74.3642 47.6207C74.5551 47.7698 74.7501 47.9128 74.9444 48.0571C74.9444 48.1616 74.9444 48.2659 74.9444 48.3704C74.9444 48.5658 75.2837 48.5429 75.4513 48.432C75.5539 48.5027 75.6617 48.5641 75.7825 48.5928C75.7744 48.6103 75.7664 48.628 75.7582 48.6455C75.6248 48.9318 75.4525 49.2064 75.2499 49.458C75.219 49.4387 75.1769 49.4244 75.1184 49.4193C73.533 49.2804 72.206 48.451 71.8222 46.8416C71.4258 45.1799 72.522 43.4117 74.1255 42.9553C74.2327 42.925 74.2979 42.8669 74.329 42.803C76.9641 42.222 79.4793 44.6492 78.7847 47.2967C78.7792 47.3186 78.7829 47.3365 78.7938 47.3507C78.7305 47.3839 78.6671 47.422 78.6025 47.4703C78.543 47.1986 78.4304 46.9632 78.2534 46.7893ZM74.7822 46.5926L74.7818 46.5937C74.7422 46.5518 74.7818 46.5875 74.7822 46.5926ZM74.9444 45.5794C74.7274 45.4454 74.5856 45.2537 74.639 44.9254C74.6639 44.7708 74.7876 44.6137 74.9444 44.5008C74.9444 44.8602 74.9444 45.2199 74.9444 45.5794ZM76.198 47.7215C76.1935 47.718 76.1889 47.7145 76.1844 47.7112C76.1974 47.7001 76.2094 47.6877 76.2221 47.6762C76.2137 47.6912 76.2061 47.7065 76.198 47.7215ZM75.8462 47.4593C75.7996 47.4243 75.7524 47.3905 75.7062 47.3553C75.6508 47.3132 75.5976 47.2687 75.5426 47.2262C75.5426 46.9331 75.5426 46.64 75.5426 46.3469C75.7231 46.4498 75.8746 46.592 75.961 46.822C76.0418 47.037 75.9795 47.2767 75.8462 47.4593ZM73.0408 51.0315C73.0651 51.0307 73.0917 51.0284 73.123 51.0233C73.2953 50.995 73.4761 50.9526 73.6595 50.8975C73.8137 50.9342 73.9695 50.9651 74.1264 50.9893C74.2719 51.0117 74.788 50.777 74.6151 50.7502C74.4902 50.7308 74.3665 50.7079 74.2443 50.6815C74.8622 50.4103 75.4513 50.0102 75.8134 49.5293C76.0443 49.2231 76.2096 48.8753 76.3707 48.528C76.5614 48.4635 76.7271 48.3601 76.7605 48.2195C76.7764 48.1531 76.7572 48.1185 76.7135 48.0721C76.7086 48.0668 76.7009 48.0635 76.6954 48.0587C76.669 48.0369 76.636 48.0196 76.5971 48.0086L76.5956 48.0078C76.7687 47.5851 77.0031 47.0582 77.3516 46.9461C78.1827 46.6788 77.9683 48.4464 77.9094 48.7779C77.7931 49.4312 77.5219 50.5294 76.8998 50.8922C76.5517 51.0952 77.0831 51.157 77.2653 51.0507C78.0623 50.5863 78.7876 48.8516 78.6341 47.656C78.7742 47.6442 78.9476 47.6034 79.003 47.5525C79.1597 47.408 79.0407 47.4631 79.1675 47.5869C79.2596 47.677 79.3081 47.8192 79.3522 47.9365C79.4748 48.2634 79.4925 48.6317 79.495 48.9766C79.4985 49.442 79.4208 50.091 79.1632 50.5793C78.8721 50.6824 78.6456 50.8798 78.7615 51.0645C78.7291 51.0882 78.6961 51.1111 78.6609 51.1309C78.3585 51.3017 78.738 51.3083 78.9362 51.252C79.2603 51.5761 79.5845 51.9001 79.9083 52.2239C78.7716 52.8828 77.504 53.3404 76.3332 53.9332C75.4517 54.3798 74.1589 54.953 73.7129 55.9111C73.6525 56.0407 73.7665 56.0887 73.9073 56.0832C73.7838 56.0916 73.8549 56.1328 73.8745 56.3499C73.9013 56.644 73.9038 56.9408 73.9081 57.2358C73.9242 58.2725 73.8803 59.3109 73.8217 60.3458C73.6925 62.6285 73.4581 64.9469 72.8538 67.1577C72.5011 68.4469 71.9953 69.6523 71.2601 70.6723C71.2195 70.7051 71.1913 70.7432 71.1791 70.7801C70.4878 71.7056 69.6017 72.4725 68.4533 72.9967C66.1357 74.0547 62.6986 73.6602 60.5274 72.2522C59.9991 70.6954 59.5046 69.1271 59.0345 67.5514C59.0674 67.5394 59.0959 67.5252 59.1157 67.5085C60.78 66.1086 62.8719 65.2757 64.9837 64.8059C64.5969 65.7204 64.1529 66.5762 63.6083 67.3314C63.4268 67.5833 64.0367 67.574 64.1747 67.3823C65.9933 64.8595 66.6805 61.6596 67.6294 58.7497C68.6064 55.7536 69.9521 52.3193 73.0408 51.0315ZM70.4598 72.4851C72.3126 72.4909 74.1655 72.4781 76.0183 72.4849C76.3672 72.9878 77.9576 74.2082 78.1206 74.3529C79.9128 75.9456 81.7184 77.5236 83.526 79.0989C85.2868 80.6336 87.0514 82.1647 88.8246 83.685C89.3895 84.1693 89.9553 84.6529 90.5267 85.1298C90.5887 85.1816 90.6664 85.2595 90.7517 85.3384C64.3792 85.3384 38.0065 85.3384 11.634 85.3384C11.2417 85.3384 10.8495 85.3384 10.4573 85.3384C10.4288 85.3384 10.3779 85.3514 10.3204 85.3708C10.3884 85.3143 10.4538 85.2562 10.517 85.204C11.075 84.745 11.6228 84.2736 12.1719 83.8041C13.9696 82.2665 15.7556 80.7151 17.5393 79.1614C19.3608 77.5747 21.1787 75.9841 22.9859 74.3814C23.1704 74.2179 25.1085 72.7374 25.2929 72.2796C28.6009 72.2802 31.909 72.2848 35.2165 72.293C35.3017 73.6068 35.4169 74.9078 35.8786 76.1476C34.7769 76.1476 33.6754 76.1476 32.5735 76.1476C32.3418 76.1476 31.9408 76.4992 32.3449 76.4992C43.4063 76.4992 54.4678 76.4992 65.5293 76.4992C65.761 76.4992 66.1621 76.1476 65.7579 76.1476C64.4565 76.1476 63.1549 76.1476 61.8533 76.1476C61.8838 76.101 61.8949 76.0464 61.8716 75.9858C61.4837 74.9739 61.1152 73.9553 60.7607 72.932C62.7763 73.9228 65.2989 74.0819 67.4264 73.6497C68.5009 73.4314 69.4253 72.9784 70.2151 72.3612C70.2405 72.4307 70.3167 72.4847 70.4598 72.4851ZM34.8115 61.0919C41.8806 59.8697 49.1276 58.3106 56.2311 60.1754C56.2593 60.1828 56.2987 60.1809 56.343 60.1735C56.7952 61.8937 57.2584 63.6119 57.7434 65.3237C57.8009 65.5265 57.8584 65.7293 57.9165 65.9321C57.8901 65.9257 57.8639 65.9185 57.8376 65.9123C50.3533 64.1548 42.5732 65.6749 35.0545 66.5694C35.0042 66.2345 34.9587 65.8983 34.9181 65.5615C34.9253 65.5486 34.928 65.5364 34.9222 65.5257C34.9185 65.5193 34.9152 65.5127 34.9115 65.5063C34.7371 64.0375 34.6693 62.5562 34.8115 61.0919ZM36.535 76.1478C36.1172 75.1015 35.9596 74.0106 35.8687 72.9004C35.8757 72.8982 35.8825 72.8969 35.8897 72.8943C37.1874 72.3922 38.8481 72.4396 40.2131 72.3406C42.7168 72.1595 45.2279 72.07 47.7371 72.0092C50.1821 71.95 52.6291 71.9292 55.0746 71.9746C56.5129 72.0012 58.2005 71.8835 59.5974 72.3009C59.6341 72.3118 59.6744 72.3128 59.7159 72.3077C59.7923 72.3631 59.8703 72.4167 59.9492 72.469C60.3682 73.7024 60.8077 74.929 61.2743 76.1461L61.2753 76.148C53.0285 76.1478 44.7817 76.1478 36.535 76.1478ZM58.0346 66.3409C58.5686 68.1866 59.1315 70.0233 59.7392 71.8451C58.42 71.5015 56.9127 71.576 55.5746 71.5438C52.9803 71.4813 50.3834 71.509 47.7895 71.5691C45.2182 71.6287 42.6463 71.7283 40.0812 71.914C38.7201 72.0125 37.1552 72.0137 35.8355 72.4637C35.8285 72.3608 35.8211 72.2584 35.8143 72.1553C35.8946 72.0914 35.9208 72.0263 35.8021 72.0069C35.7741 71.6007 35.7372 71.1986 35.6945 70.7987C35.7277 70.7738 35.7333 70.755 35.6891 70.7503C35.589 69.8267 35.4548 68.9127 35.2885 67.985C35.2194 67.6008 35.1543 67.2142 35.0935 66.8263C42.6653 65.9169 50.5197 64.3683 58.0346 66.3409ZM64.8209 64.5283C62.7134 65.0059 60.6288 65.8423 58.9244 67.1808C58.5783 66.0104 58.2446 64.8364 57.9202 63.6597C59.645 62.4814 61.5711 61.7464 63.5311 61.0579C63.6605 61.0124 63.7293 60.9314 63.7471 60.8531C64.1991 62.0512 64.5775 63.2636 64.9462 64.3848C64.9584 64.4211 64.9701 64.4572 64.9821 64.4932C64.9285 64.505 64.8747 64.5161 64.8209 64.5283ZM63.6809 60.6795C63.6766 60.6766 63.6708 60.6746 63.6661 60.6719C63.6104 60.6426 63.5304 60.6362 63.4276 60.6723C61.4703 61.3597 59.5442 62.0976 57.8021 63.2318C57.407 61.7882 57.0246 60.3413 56.647 58.8937C56.6765 58.8762 56.7025 58.8542 56.7225 58.8274C57.7582 57.4478 59.5662 56.8734 61.1653 56.4377C61.249 56.415 61.3069 56.3752 61.3436 56.3295C62.3469 57.5853 63.0774 59.1091 63.6762 60.6676C63.678 60.6717 63.6792 60.6756 63.6809 60.6795ZM41.1734 52.6411C41.1885 52.6646 41.2041 52.6862 41.2196 52.7091C41.2246 52.8076 41.2283 52.9074 41.2295 53.0096C41.2301 53.0624 41.347 53.0733 41.4772 53.0531C43.1086 54.9996 45.7382 54.0946 47.2225 52.1513C47.2719 52.1396 47.3208 52.1229 47.3635 52.1019C48.8502 52.7942 50.6681 52.727 52.2589 52.9049C54.5556 53.1615 57.1937 53.1716 59.2066 54.4052C59.9199 54.8424 60.5366 55.3894 61.0785 56.0121C61.0698 56.0139 61.0618 56.0147 61.0527 56.017C59.4438 56.4552 57.6498 57.0437 56.4962 58.3135C56.4156 58.0037 56.3352 57.6939 56.255 57.3839C56.1786 57.089 55.581 57.2485 55.6577 57.5439C55.8512 58.2923 56.046 59.0409 56.2422 59.7893C49.1303 58.0683 41.9144 59.5886 34.8393 60.8098C34.8944 60.3357 34.975 59.8641 35.0793 59.3952C35.1965 59.3276 35.2736 59.2107 35.2054 59.0817C34.4436 57.6434 33.0486 56.7974 31.867 55.7435C32.5781 55.0971 33.3479 54.5484 34.1596 54.2924C35.6881 53.8105 37.3498 53.6918 38.9134 53.3486C39.4788 53.225 40.5172 53.0661 41.1734 52.6411ZM29.442 58.7002C29.3755 58.6633 29.2468 58.6874 29.1283 58.7305C29.2926 58.5211 29.4581 58.3164 29.6286 58.1251C30.1647 57.5243 30.7785 56.8013 31.4525 56.1361C32.5063 57.0674 33.7183 57.837 34.4764 59.0368C34.5087 59.0879 34.5399 59.1403 34.5704 59.193C34.5543 59.2095 34.5434 59.227 34.5368 59.2454C34.5353 59.2493 34.5328 59.2528 34.532 59.2567C34.1406 60.8801 34.0777 62.535 34.1845 64.1865C32.9872 62.0576 31.573 59.8814 29.442 58.7002ZM31.4079 69.5395C32.5622 69.1302 33.5614 68.2872 34.5568 67.593C34.5689 67.5845 34.5809 67.5763 34.593 67.5681C34.6056 67.6445 34.6176 67.7214 34.6305 67.7977C34.7816 68.7011 34.9356 69.5884 35.0504 70.4858C35.0624 70.5792 35.0733 70.6728 35.0844 70.7665C33.1121 70.8218 31.1437 70.7134 29.172 70.6633C29.9237 70.3055 30.6618 69.9 31.4079 69.5395ZM94.6314 86.9271C94.5859 87.5088 94.1351 88.8881 93.4269 88.9835C86.7647 89.882 80.0303 89.7134 73.3349 89.4143C66.6071 89.1138 59.8437 89.2968 53.1151 89.463C46.4759 89.6268 39.8335 89.5934 33.1937 89.5036C26.4398 89.4123 19.6866 89.3791 12.9329 89.2942C11.3221 89.2739 9.71133 89.2412 8.10116 89.1975C7.14005 89.1713 6.2552 89.3702 5.7224 88.4211C5.34397 87.7468 5.29595 86.9432 5.39179 86.1948C5.56823 84.8194 6.5485 83.7315 7.44036 82.7494C8.37241 81.7232 9.4203 80.8057 10.4987 79.9376C12.6652 78.1935 15.0439 76.7255 17.3784 75.2215C18.4386 74.5386 19.4919 73.8453 20.5237 73.1204C21.0486 72.7516 21.5487 72.2953 22.1369 72.0317C22.4974 71.8701 23.1912 71.3476 23.5439 71.368C23.6038 71.3715 23.6743 71.3517 23.7395 71.3202C24.1538 71.4362 24.5781 71.5209 25.0038 71.5729C26.3287 71.7342 27.5274 71.3911 28.6825 70.8863C30.8253 70.9386 32.9643 71.0656 35.1087 70.9786C35.1442 71.3028 35.1739 71.6285 35.1947 71.9577C35.1957 71.9717 35.1965 71.9857 35.1974 71.9999C31.7948 71.9917 28.3923 71.9863 24.99 71.9861C24.7966 71.9861 24.344 72.279 24.7451 72.2792C24.7505 72.2792 24.756 72.2792 24.7612 72.2792C24.7418 72.3062 24.7309 72.3328 24.729 72.3565C24.7212 72.354 24.7134 72.3516 24.7055 72.3491C24.6756 72.2823 24.224 72.7533 24.0736 72.8905C23.5187 73.3961 22.9571 73.8943 22.3954 74.3925C20.7271 75.8722 19.0485 77.3401 17.3679 78.8056C15.6715 80.2847 13.9713 81.7598 12.2641 83.2266C11.675 83.7328 11.0847 84.2378 10.4906 84.7382C10.308 84.8922 10.1248 85.0451 9.93991 85.1964C9.68783 85.4025 9.64991 85.3166 9.91992 85.3032C9.76822 85.3244 9.60374 85.4 9.58539 85.5004L9.58457 85.5041C9.56602 85.6051 9.69154 85.6288 9.76533 85.6296C9.85087 85.6305 9.93084 85.6092 10.0069 85.5765C10.0205 85.581 10.0399 85.5841 10.07 85.5841C36.6556 85.5841 63.2417 85.5841 89.8273 85.5841C90.2196 85.5841 90.6118 85.5841 91.004 85.5841C91.0182 85.5841 91.0389 85.5806 91.0624 85.575C91.1277 85.609 91.1932 85.6305 91.2561 85.6296C91.3709 85.6284 91.7048 85.5622 91.6724 85.3852L91.6718 85.3815C91.6632 85.3349 91.6228 85.3079 91.5671 85.2957C91.6327 85.2842 91.5082 85.249 91.4008 85.1626C91.225 85.0206 91.052 84.8751 90.8789 84.7298C90.2991 84.2433 89.7243 83.7503 89.1498 83.2575C87.4537 81.8021 85.766 80.3366 84.0811 78.8685C82.3876 77.3931 80.6977 75.9138 79.0166 74.4249C78.76 74.1975 76.5095 72.3231 76.5509 72.2302C76.5474 72.2316 76.5441 72.233 76.5406 72.2343C76.5406 72.2299 76.54 72.2258 76.5395 72.2215C76.5624 72.1836 76.555 72.1494 76.4987 72.1273C76.4589 72.0846 76.3901 72.0554 76.2854 72.055C74.3838 72.0461 72.4824 72.0605 70.5808 72.055C70.9619 71.7136 71.3084 71.3331 71.6202 70.9187C72.9589 70.8449 74.2958 70.7418 75.6359 70.8434C77.2737 70.9679 78.8544 71.5844 80.3032 72.3281C82.7914 73.6056 84.8367 75.6022 86.858 77.497C87.7334 78.3177 88.6189 79.3164 89.6249 79.9755C90.0967 80.2847 90.5572 80.478 90.9983 80.8624C91.4948 81.2949 91.9662 81.7543 92.4202 82.231C93.2505 83.1033 93.9735 84.0914 94.4049 85.222C94.6131 85.7669 94.6768 86.3486 94.6314 86.9271ZM38.205 45.0303C38.5502 45.0923 38.0461 45.4071 37.8435 45.3706C36.2166 45.0783 37.9634 43.3142 38.504 42.7729C38.6527 42.6241 39.2391 42.6348 38.9872 42.8871C38.6127 43.2618 37.0011 44.8139 38.205 45.0303ZM41.4587 42.4318C41.577 42.4198 41.7258 42.452 41.7258 42.594C41.7254 42.8747 41.6611 43.1025 41.4638 43.3111C41.3643 43.4164 41.1802 43.4632 41.0415 43.4242C40.9121 43.388 40.8836 43.2695 40.9743 43.1734C41.1145 43.0252 41.1246 42.8488 41.1246 42.6538C41.1246 42.5161 41.3567 42.4419 41.4587 42.4318ZM38.2588 42.0927C38.3732 41.8572 38.4533 41.6069 38.5679 41.3713C38.6634 41.1751 39.2644 41.1257 39.1292 41.4033C39.0148 41.6389 38.9346 41.8891 38.82 42.1247C38.7246 42.3209 38.1236 42.3704 38.2588 42.0927ZM41.4488 41.2423C41.3288 41.211 41.2936 41.1149 41.3913 41.0271C41.4939 40.9348 41.6774 40.8785 41.8136 40.914C42.2572 41.0296 42.7207 41.2431 42.8574 41.7195C42.9176 41.9295 42.3211 42.0925 42.2601 41.8794C42.1529 41.5055 41.8002 41.334 41.4488 41.2423ZM40.0649 40.1382C39.9495 40.2091 39.7708 40.254 39.6418 40.1932C39.5035 40.1281 39.3901 40.1159 39.2483 40.1159C39.1519 40.1159 39.0063 40.0539 39.0855 39.9368C39.1665 39.8168 39.3442 39.7727 39.4794 39.7729C39.6999 39.7731 39.9157 39.8071 40.1165 39.9018C40.2465 39.9632 40.1449 40.0891 40.0649 40.1382ZM40.5942 45.9347C40.1111 46.1167 39.5998 46.1639 39.09 46.0988C39.0694 46.0038 39.0546 45.9143 39.0441 45.8418C39.0216 45.6874 38.4204 45.8193 38.4467 46.0017C38.537 46.6238 38.8314 47.2508 39.5589 47.1493C40.2321 47.0554 40.7163 46.5712 40.9997 45.9782C41.0737 45.8242 40.6311 45.9209 40.5942 45.9347ZM39.6795 46.8795C39.4266 46.8703 39.2741 46.6553 39.1799 46.4086C39.5579 46.4133 39.9353 46.3667 40.3022 46.2746C40.1558 46.5376 39.9161 46.8882 39.6795 46.8795ZM37.7097 78.0679C36.7822 78.0679 35.8547 78.0679 34.9271 78.0679C34.523 78.0679 34.8824 77.671 35.1438 77.671C36.0713 77.671 36.9988 77.671 37.9263 77.671C38.3305 77.671 37.971 78.0679 37.7097 78.0679ZM60.3798 78.2648C58.25 78.2648 56.1202 78.2648 53.9902 78.2648C53.586 78.2648 53.9626 77.8863 54.212 77.8863C56.3418 77.8863 58.4716 77.8863 60.6016 77.8863C61.0057 77.8863 60.6292 78.2648 60.3798 78.2648ZM13.9878 43.2274C14.6016 46.5619 18.33 47.375 21.1882 46.7674C23.8683 46.1977 25.4803 43.8268 24.943 41.1409C24.5668 39.2616 23.2456 37.8792 21.5775 37.2664C21.6651 37.2221 21.7307 37.1588 21.7307 37.0819C21.7307 36.2574 21.7307 35.433 21.7307 34.6085C21.7307 34.4228 21.1334 34.5362 21.1334 34.7685C21.1334 35.5534 21.1334 36.3382 21.1334 37.1231C20.5993 36.9758 20.0364 36.9092 19.4634 36.9226C19.4634 35.0519 19.4634 33.1814 19.4634 31.3107C19.4634 31.2365 18.8661 31.3154 18.8661 31.4706C18.8661 33.3018 18.8661 35.1333 18.8661 36.9644C18.533 37.011 18.203 37.0889 17.8798 37.1755C17.8318 37.1885 17.7929 37.206 17.7603 37.2264C17.7413 37.2291 17.7248 37.2282 17.7042 37.2336C15.055 37.9204 13.4974 40.563 13.9878 43.2274ZM17.799 37.5885C17.8477 37.576 17.8871 37.5582 17.9196 37.538C17.9384 37.5354 17.9545 37.536 17.9749 37.5306C18.2735 37.4504 18.5714 37.3968 18.8661 37.3647C18.8661 37.3925 18.8661 37.4203 18.8661 37.4482C18.8661 37.5152 19.3511 37.457 19.4461 37.3313C21.4442 37.3226 23.2267 38.4155 24.0684 40.4032C25.006 42.6171 24.2121 45.1556 21.9615 46.1404C19.2765 47.3153 15.5462 46.388 14.6612 43.3865C13.9546 40.9909 15.3545 38.2225 17.799 37.5885ZM21.1251 45.3617C23.1168 44.7011 24.0973 42.8341 23.4185 40.826C22.6796 38.6401 20.3827 37.9101 18.3071 38.4542C18.2653 38.4651 18.2304 38.4785 18.2001 38.493C18.1923 38.4948 18.1863 38.4944 18.1783 38.4967C16.1662 39.034 14.9561 40.9849 15.4005 43.0345C15.9426 45.5318 19.0388 46.0534 21.1251 45.3617ZM18.2445 38.7422C18.2853 38.7312 18.3193 38.7178 18.3492 38.7036C18.3578 38.7018 18.3644 38.702 18.3733 38.6995C20.2438 38.2089 22.0058 39.0662 22.765 40.8385C23.4447 42.4252 22.894 44.3182 21.2686 45.0365C19.3257 45.8951 16.7147 45.1366 16.0407 43.0328C15.4902 41.3149 16.4704 39.216 18.2445 38.7422ZM19.0875 41.9918C19.0875 42.4091 19.0875 42.8265 19.0875 43.2439C19.0141 43.1516 18.9529 43.0572 18.9104 42.9838C18.8119 42.8135 18.2302 43.0009 18.3562 43.2181C18.5429 43.5409 18.7907 43.7553 19.0877 43.8509C19.0877 43.9834 19.0877 44.1158 19.0877 44.2481C19.0877 44.5076 19.6858 44.3823 19.6858 44.1772C19.6858 44.0795 19.6858 43.982 19.6858 43.8843C19.7248 43.8777 19.7629 43.874 19.8029 43.8641C20.2815 43.7462 20.6958 43.3288 20.7356 42.8304C20.7852 42.2146 20.1873 41.9011 19.6856 41.7096C19.6856 41.2227 19.6856 40.7361 19.6856 40.2493C19.766 40.2843 19.8338 40.3492 19.8767 40.4552C19.9622 40.6656 20.5511 40.4853 20.474 40.2952C20.3406 39.9669 20.0333 39.8389 19.6856 39.8496C19.6856 39.7261 19.6856 39.6027 19.6856 39.4792C19.6856 39.2197 19.0875 39.345 19.0875 39.5501C19.0875 39.6961 19.0875 39.842 19.0875 39.9879C18.4526 40.2559 17.9258 40.8701 18.2844 41.4833C18.4555 41.7762 18.7663 41.8891 19.0875 41.9918ZM20.104 42.6995C20.2166 42.9996 20.0535 43.35 19.8021 43.5219C19.7633 43.5485 19.7244 43.5646 19.6856 43.5745C19.6856 43.1243 19.6856 42.6744 19.6856 42.2242C19.8662 42.3273 20.0177 42.4697 20.104 42.6995ZM18.7818 40.8031C18.8067 40.6485 18.9304 40.4914 19.0873 40.3785C19.0873 40.738 19.0873 41.0976 19.0873 41.4571C18.8704 41.3231 18.7284 41.1316 18.7818 40.8031ZM65.0037 33.2022C67.6838 32.6325 69.2959 30.2616 68.7585 27.5757C68.4009 25.7885 67.1863 24.4539 65.6336 23.8001C65.6336 22.8147 65.6336 21.8292 65.6336 20.8438C65.6336 20.5827 65.0351 20.7072 65.0351 20.9141C65.0351 21.8043 65.0351 22.6945 65.0351 23.5847C64.6301 23.466 64.2079 23.3941 63.7769 23.3673C63.7794 23.3553 63.7819 23.3434 63.7819 23.3306C63.7819 20.5136 63.7819 17.6969 63.7819 14.8799C63.7819 14.5627 63.1763 14.6509 63.1763 14.9238C63.1763 17.736 63.1763 20.5482 63.1763 23.3605C63.1211 23.3627 63.0663 23.3609 63.0108 23.3648C62.566 23.3955 62.1243 23.4955 61.695 23.6107C61.647 23.6237 61.608 23.6412 61.5756 23.6616C61.5567 23.6643 61.54 23.6634 61.5194 23.6688C58.8704 24.3558 57.3128 26.9982 57.8033 29.6626C58.4174 32.9967 62.1458 33.8098 65.0037 33.2022ZM61.6146 24.0235C61.6632 24.011 61.7026 23.9932 61.7354 23.973C61.7539 23.9704 61.77 23.971 61.7904 23.9656C62.9335 23.6589 64.0626 23.71 65.0567 24.0782C65.0899 24.1289 65.1594 24.1513 65.2402 24.1528C66.3864 24.6316 67.3357 25.543 67.884 26.838C68.8216 29.0519 68.028 31.5904 65.7773 32.5752C63.0922 33.7501 59.362 32.8228 58.4769 29.8213C57.7702 27.4259 59.1701 24.6573 61.6146 24.0235ZM64.9407 31.7965C66.9324 31.1359 67.9128 29.2689 67.2339 27.2608C66.4952 25.0749 64.198 24.3449 62.1229 24.889C62.081 24.8999 62.0462 24.9133 62.0157 24.9278C62.0081 24.9296 62.0021 24.9294 61.9941 24.9315C59.9818 25.4688 58.7715 27.4197 59.2163 29.4693C59.7581 31.9666 62.8544 32.4884 64.9407 31.7965ZM62.0598 25.1769C62.1008 25.166 62.1346 25.1526 62.1647 25.1384C62.1732 25.1365 62.1798 25.1368 62.1886 25.1343C64.0593 24.6437 65.8214 25.501 66.5807 27.2733C67.2603 28.86 66.7095 30.753 65.0841 31.4713C63.1413 32.3299 60.5302 31.5714 59.8562 29.4676C59.3057 27.7499 60.286 25.6508 62.0598 25.1769ZM62.903 28.4265C62.903 28.8439 62.903 29.2613 62.903 29.6787C62.8297 29.5863 62.7686 29.492 62.7262 29.4186C62.6275 29.2483 62.0458 29.4357 62.1715 29.6529C62.3585 29.9757 62.6062 30.1901 62.9032 30.2857C62.9032 30.418 62.9032 30.5506 62.9032 30.6829C62.9032 30.9424 63.5014 30.8171 63.5014 30.612C63.5014 30.5143 63.5014 30.4166 63.5014 30.3191C63.5401 30.3125 63.5783 30.3088 63.6182 30.2989C64.097 30.181 64.5111 29.7636 64.5513 29.2652C64.6008 28.6494 64.0028 28.3359 63.5012 28.1444C63.5012 27.6575 63.5012 27.1709 63.5012 26.6841C63.5815 26.7191 63.6492 26.784 63.6922 26.89C63.7778 27.1004 64.3666 26.9201 64.2896 26.73C64.1564 26.4017 63.8489 26.2737 63.5012 26.2844C63.5012 26.1609 63.5012 26.0375 63.5012 25.914C63.5012 25.6545 62.903 25.7798 62.903 25.9849C62.903 26.1308 62.903 26.2768 62.903 26.4227C62.2682 26.6906 61.7414 27.3049 62.1 27.9181C62.2711 28.2112 62.5819 28.3239 62.903 28.4265ZM63.9196 29.1345C64.0323 29.4346 63.8689 29.785 63.6176 29.9569C63.5789 29.9833 63.5399 29.9996 63.5012 30.0095C63.5012 29.5596 63.5012 29.1094 63.5012 28.6595C63.6817 28.7623 63.8334 28.9045 63.9196 29.1345ZM62.5974 27.2379C62.6225 27.0833 62.7462 26.9262 62.9028 26.8133C62.9028 27.173 62.9028 27.5324 62.9028 27.8919C62.686 27.7579 62.5444 27.5664 62.5974 27.2379ZM11.7741 69.7189C13.8682 69.0517 14.7786 66.9213 14.0612 64.8995C13.4515 63.1819 11.9161 62.3119 10.2588 62.2561C10.3392 62.2147 10.3973 62.1518 10.3973 62.0749C10.3973 61.3191 10.3973 60.5635 10.3973 59.8076C10.3973 59.5102 9.79419 59.6137 9.79419 59.8614C9.79419 60.6173 9.79419 61.3729 9.79419 62.1287C9.79419 62.1868 9.81768 62.2293 9.85478 62.2586C9.4844 62.2755 9.11133 62.3293 8.74383 62.4259C8.70529 62.436 8.67478 62.4502 8.64634 62.4653C8.63335 62.4678 8.62305 62.4665 8.60924 62.4702C6.48296 63.0354 5.24731 65.1755 5.74858 67.3106C6.36486 69.9351 9.57653 70.419 11.7741 69.7189ZM8.70446 62.8254C8.7428 62.8153 8.7731 62.8008 8.80154 62.786C8.81453 62.7835 8.82504 62.7848 8.83905 62.7811C10.8198 62.2598 12.7008 63.1432 13.4638 65.0599C14.1356 66.7467 13.477 68.6087 11.7834 69.3246C9.73112 70.1919 6.9865 69.4082 6.3461 67.1507C5.83803 65.3597 6.89127 63.3071 8.70446 62.8254ZM11.2592 68.7615C12.8401 68.2899 13.5838 66.758 13.0562 65.2159C12.4739 63.5144 10.6722 63.009 9.07485 63.4175C9.04187 63.426 9.01631 63.4367 8.99055 63.4474C8.98539 63.4489 8.98148 63.4485 8.97633 63.4501C7.42119 63.8792 6.46998 65.3165 6.77585 66.9244C7.16108 68.9492 9.62332 69.2493 11.2592 68.7615ZM9.04208 63.6958C9.07217 63.6873 9.09525 63.6768 9.11937 63.6667C9.12699 63.6651 9.13256 63.6653 9.1408 63.6632C10.5313 63.3077 11.8061 63.9413 12.4005 65.2305C12.9096 66.3345 12.6227 67.7049 11.5569 68.3501C10.0974 69.2337 7.93792 68.5424 7.41357 66.9233C6.9999 65.6465 7.72583 64.059 9.04208 63.6958ZM9.60971 66.1801C9.60971 66.4161 9.60971 66.6523 9.60971 66.8883C9.51099 66.718 8.92892 66.9048 9.05465 67.122C9.19728 67.3683 9.38649 67.5293 9.60971 67.6074C9.60971 67.702 9.60971 67.7966 9.60971 67.8914C9.60971 68.1509 10.2079 68.0256 10.2079 67.8205C10.2079 67.7569 10.2079 67.6932 10.2079 67.6295C10.2178 67.6272 10.227 67.6268 10.2369 67.6243C10.625 67.5287 10.9789 67.1981 11.0119 66.7889C11.0505 66.3106 10.5993 66.063 10.2081 65.9113C10.2081 65.6028 10.2081 65.2944 10.2081 64.9859C10.2101 64.9902 10.2124 64.9933 10.2142 64.9978C10.2998 65.2083 10.8887 65.0277 10.8116 64.8379C10.7087 64.585 10.4764 64.4768 10.2079 64.4726C10.2079 64.3896 10.2079 64.3065 10.2079 64.2237C10.2079 63.9642 9.60971 64.0895 9.60971 64.2946C9.60971 64.3997 9.60971 64.5048 9.60971 64.6099C9.11257 64.8368 8.71889 65.3136 8.99982 65.794C9.12967 66.0156 9.36567 66.1022 9.60971 66.1801ZM10.3884 66.7162C10.4632 66.9161 10.3717 67.1577 10.2081 67.2863C10.2081 67.0089 10.2081 66.7314 10.2081 66.4538C10.2837 66.5206 10.3464 66.6047 10.3884 66.7162ZM9.51573 65.2365C9.52603 65.1732 9.56107 65.1079 9.60971 65.0487C9.60971 65.234 9.60971 65.4195 9.60971 65.605C9.53139 65.516 9.48914 65.4004 9.51573 65.2365ZM11.7741 27.2764C13.8682 26.6092 14.7786 24.4788 14.0612 22.4571C13.267 20.2199 10.9035 19.415 8.74383 19.9833C8.74424 19.9802 8.74548 19.9775 8.74548 19.9744C8.74548 19.2186 8.74548 18.463 8.74548 17.7072C8.74548 17.6245 8.14816 17.7061 8.14816 17.8671C8.14816 18.6229 8.14816 19.3785 8.14816 20.1344C8.14816 20.1486 8.16691 20.1576 8.19618 20.1626C6.32652 20.8797 5.2809 22.8755 5.74878 24.868C6.36486 27.4926 9.57653 27.9766 11.7741 27.2764ZM8.70446 20.3829C8.7428 20.3728 8.7731 20.3584 8.80154 20.3436C8.81453 20.3411 8.82504 20.3423 8.83905 20.3386C10.8198 19.8174 12.7008 20.7008 13.4638 22.6174C14.1356 24.3043 13.477 26.1663 11.7834 26.8821C9.73112 27.7495 6.9865 26.9658 6.3461 24.7082C5.83803 22.9173 6.89127 20.8646 8.70446 20.3829ZM11.2592 26.319C12.8401 25.8474 13.5838 24.3156 13.0562 22.7734C12.4739 21.072 10.6722 20.5666 9.07485 20.9751C9.04187 20.9835 9.01631 20.9943 8.99055 21.005C8.98539 21.0064 8.98148 21.006 8.97633 21.0077C7.42119 21.4368 6.46998 22.874 6.77585 24.4819C7.16108 26.5068 9.62332 26.8069 11.2592 26.319ZM9.04208 21.2534C9.07217 21.2449 9.09525 21.2344 9.11937 21.2243C9.12699 21.2226 9.13256 21.2228 9.1408 21.2208C10.5313 20.8652 11.8061 21.4988 12.4005 22.7881C12.9096 23.892 12.6227 25.2625 11.5569 25.9076C10.0974 26.7912 7.93792 26.0999 7.41357 24.4809C6.9999 23.204 7.72583 21.6165 9.04208 21.2534ZM9.60971 23.7376C9.60971 23.9736 9.60971 24.2099 9.60971 24.4459C9.51099 24.2756 8.92892 24.4623 9.05465 24.6796C9.19728 24.9259 9.38649 25.0869 9.60971 25.165C9.60971 25.2596 9.60971 25.3542 9.60971 25.449C9.60971 25.7085 10.2079 25.5832 10.2079 25.3781C10.2079 25.3144 10.2079 25.2507 10.2079 25.187C10.2178 25.1848 10.227 25.1844 10.2369 25.1819C10.625 25.0863 10.9789 24.7556 11.0119 24.3465C11.0505 23.8681 10.5993 23.6206 10.2081 23.4689C10.2081 23.1603 10.2081 22.852 10.2081 22.5434C10.2101 22.5478 10.2124 22.5508 10.2142 22.5554C10.2998 22.7658 10.8887 22.5855 10.8116 22.3954C10.7087 22.1425 10.4764 22.0343 10.2079 22.0302C10.2079 21.9471 10.2079 21.8641 10.2079 21.7812C10.2079 21.5217 9.60971 21.647 9.60971 21.8521C9.60971 21.9572 9.60971 22.0624 9.60971 22.1675C9.11257 22.3944 8.71889 22.8711 8.99982 23.3516C9.12967 23.5732 9.36567 23.6597 9.60971 23.7376ZM10.3884 24.2738C10.4632 24.4737 10.3717 24.7153 10.2081 24.8439C10.2081 24.5664 10.2081 24.289 10.2081 24.0114C10.2837 24.0782 10.3464 24.1622 10.3884 24.2738ZM9.51573 22.7941C9.52603 22.7308 9.56107 22.6654 9.60971 22.6063C9.60971 22.7916 9.60971 22.9771 9.60971 23.1626C9.53139 23.0735 9.48914 22.9579 9.51573 22.7941ZM78.8631 63.0525C78.8581 63.0539 78.854 63.0535 78.8488 63.0552C77.2937 63.4843 76.3425 64.9215 76.6484 66.5294C77.0338 68.5543 79.4958 68.8544 81.132 68.3665C82.7129 67.895 83.4565 66.3631 82.9289 64.821C82.3464 63.1195 80.545 62.6141 78.9476 63.0226C78.9144 63.0311 78.8888 63.0418 78.8631 63.0525ZM82.2732 64.8354C82.7823 65.9393 82.4954 67.3098 81.4296 67.9549C79.9701 68.8386 77.8106 68.1472 77.2863 66.5282C76.8724 65.2511 77.5984 63.6638 78.9146 63.3005C78.9447 63.292 78.9678 63.2815 78.9919 63.2714C78.9995 63.2697 79.0051 63.27 79.0133 63.2679C80.404 62.9126 81.6788 63.5462 82.2732 64.8354ZM78.8726 65.3983C79.0024 65.6205 79.2382 65.7071 79.4824 65.785C79.4824 66.021 79.4824 66.2572 79.4824 66.4932C79.3837 66.3229 78.8016 66.5097 78.9274 66.7269C79.07 66.9734 79.2592 67.1344 79.4824 67.2123C79.4824 67.3069 79.4824 67.4015 79.4824 67.4963C79.4824 67.7558 80.0806 67.6305 80.0806 67.4254C80.0806 67.3617 80.0806 67.298 80.0806 67.2344C80.0905 67.2321 80.0998 67.2317 80.1096 67.2292C80.4978 67.1336 80.8517 66.803 80.8846 66.3938C80.923 65.9154 80.472 65.6679 80.0808 65.5162C80.0808 65.2076 80.0808 64.8993 80.0808 64.5907C80.0829 64.5951 80.0851 64.5982 80.087 64.6027C80.1725 64.8131 80.7614 64.6326 80.6843 64.4427C80.5814 64.1898 80.3492 64.0816 80.0806 64.0775C80.0806 63.9944 80.0806 63.9114 80.0806 63.8285C80.0806 63.569 79.4824 63.6944 79.4824 63.8994C79.4824 64.0046 79.4824 64.1097 79.4824 64.2148C78.9853 64.4411 78.5916 64.9176 78.8726 65.3983ZM80.2611 66.3211C80.336 66.521 80.2445 66.7626 80.0808 66.8912C80.0808 66.6137 80.0808 66.3363 80.0808 66.0587C80.1564 66.1255 80.2191 66.2096 80.2611 66.3211ZM79.3885 64.8414C79.3988 64.7781 79.4338 64.7128 79.4824 64.6536C79.4824 64.8389 79.4824 65.0244 79.4824 65.2099C79.4041 65.1209 79.3619 65.0052 79.3885 64.8414ZM80.4102 22.948C82.5043 22.2808 83.4147 20.1504 82.6972 18.1287C81.9286 15.9632 79.6896 15.1437 77.5887 15.6085C77.5887 14.4685 77.5887 13.3285 77.5887 12.1887C77.5887 11.9197 76.9893 12.0405 76.9893 12.2554C76.9893 13.4235 76.9893 14.5913 76.9893 15.7594C76.9893 15.767 76.9916 15.7732 76.9924 15.7802C75.0238 16.4429 73.9044 18.4914 74.385 20.5396C75.0009 23.1642 78.2126 23.6482 80.4102 22.948ZM77.3405 16.0545C77.3788 16.0444 77.4091 16.03 77.4376 16.0152C77.4506 16.0127 77.4611 16.0139 77.4751 16.0102C79.4559 15.489 81.3369 16.3724 82.1001 18.289C82.7716 19.9759 82.1131 21.8379 80.4194 22.5537C78.3672 23.4211 75.6225 22.6374 74.9823 20.3798C74.4741 18.5889 75.5273 16.5362 77.3405 16.0545ZM79.8953 21.9906C81.4762 21.519 82.2198 19.9872 81.6922 18.445C81.1097 16.7436 79.3083 16.2382 77.7109 16.6467C77.6779 16.6551 77.6524 16.6659 77.6266 16.6766C77.6216 16.678 77.6175 16.6776 77.6124 16.6793C76.0572 17.1084 75.106 18.5456 75.4119 20.1535C75.7971 22.1784 78.2594 22.4785 79.8953 21.9906ZM77.6781 16.925C77.7082 16.9165 77.7313 16.906 77.7554 16.8959C77.763 16.8942 77.7686 16.8944 77.7768 16.8924C79.1673 16.5368 80.4421 17.1704 81.0365 18.4597C81.5456 19.5636 81.2587 20.9341 80.1929 21.5792C78.7334 22.4628 76.574 21.7715 76.0496 20.1525C75.6359 18.8756 76.3619 17.2881 77.6781 16.925ZM78.2458 19.4092C78.2458 19.6452 78.2458 19.8815 78.2458 20.1175C78.147 19.9472 77.565 20.1339 77.6907 20.3512C77.8333 20.5977 78.0225 20.7587 78.2458 20.8366C78.2458 20.9312 78.2458 21.0258 78.2458 21.1206C78.2458 21.3801 78.8439 21.2548 78.8439 21.0497C78.8439 20.986 78.8439 20.9223 78.8439 20.8586C78.8538 20.8564 78.8631 20.856 78.873 20.8535C79.2611 20.7579 79.615 20.4272 79.648 20.0181C79.6863 19.5397 79.2353 19.2922 78.8441 19.1405C78.8441 18.8319 78.8441 18.5236 78.8441 18.215C78.8462 18.2194 78.8484 18.2224 78.8503 18.227C78.9358 18.4374 79.5247 18.2571 79.4476 18.067C79.3448 17.8141 79.1125 17.7059 78.8439 17.7018C78.8439 17.6187 78.8439 17.5357 78.8439 17.4528C78.8439 17.1933 78.2458 17.3186 78.2458 17.5237C78.2458 17.6288 78.2458 17.734 78.2458 17.8391C77.7486 18.066 77.3549 18.5427 77.6359 19.0232C77.7657 19.2448 78.0017 19.3313 78.2458 19.4092ZM79.0245 19.9454C79.0993 20.1453 79.0078 20.3868 78.8441 20.5155C78.8441 20.238 78.8441 19.9606 78.8441 19.683C78.9198 19.7498 78.9824 19.8338 79.0245 19.9454ZM78.1518 18.4657C78.1621 18.4024 78.1971 18.337 78.2458 18.2779C78.2458 18.4632 78.2458 18.6487 78.2458 18.8342C78.1674 18.7451 78.1252 18.6295 78.1518 18.4657ZM10.6211 19.6782C10.6211 17.9607 10.6211 16.2429 10.6211 14.5254C10.6211 14.3232 11.2188 14.1966 11.2188 14.4532C11.2188 16.1708 11.2188 17.8885 11.2188 19.6061C11.2191 19.8085 10.6211 19.935 10.6211 19.6782ZM60.9132 23.6383C60.9132 22.4016 60.9132 21.1649 60.9132 19.9282C60.9132 19.7129 61.5105 19.6069 61.5105 19.7683C61.5105 21.005 61.5105 22.2417 61.5105 23.4784C61.5107 23.6937 60.9132 23.7997 60.9132 23.6383ZM78.639 15.3937C78.639 13.6762 78.639 11.9584 78.639 10.2409C78.639 10.0414 79.2363 9.94283 79.2363 10.0809C79.2363 11.7985 79.2363 13.5162 79.2363 15.2338C79.2365 15.4333 78.639 15.5318 78.639 15.3937ZM77.1754 38.5247C77.1754 39.143 77.1754 39.7614 77.1754 40.3797C77.1754 40.6089 76.5781 40.7211 76.5781 40.5397C76.5781 39.9213 76.5781 39.303 76.5781 38.6846C76.5779 38.4557 77.1754 38.3435 77.1754 38.5247ZM8.54266 57.5425C8.54266 59.1227 8.54266 60.7028 8.54266 62.2831C8.54266 62.5407 7.93875 62.6384 7.93875 62.3328C7.93875 60.7525 7.93875 59.1724 7.93875 57.5921C7.93875 57.3343 8.54266 57.2368 8.54266 57.5425ZM81.0926 56.2975C81.0926 56.0271 80.4932 56.1471 80.4932 56.3637C80.4932 58.2047 80.4932 60.0459 80.4932 61.8869C79.8788 61.821 79.2396 61.8667 78.6168 62.0306C78.5782 62.0407 78.5477 62.0549 78.5193 62.07C78.5063 62.0724 78.496 62.0712 78.4822 62.0749C78.3876 62.1001 78.2971 62.132 78.206 62.1631C78.206 61.0854 78.206 60.0076 78.206 58.9298C78.206 58.7672 77.6087 58.8735 77.6087 59.0898C77.6087 60.2013 77.6087 61.3127 77.6087 62.4241C76.0331 63.2716 75.194 65.0935 75.6215 66.9151C76.2376 69.5395 79.4493 70.0237 81.6469 69.3235C83.741 68.6563 84.6514 66.5259 83.9339 64.5042C83.4446 63.1257 82.3586 62.293 81.0926 61.9883C81.0926 60.0917 81.0926 58.1946 81.0926 56.2975ZM83.3366 64.6645C84.0081 66.3514 83.3496 68.2134 81.6559 68.9292C79.6036 69.7966 76.859 69.0129 76.2188 66.7553C75.8058 65.2998 76.4243 63.6713 77.6439 62.8538C77.7711 62.9284 78.206 62.8245 78.206 62.6399C78.206 62.612 78.206 62.5844 78.206 62.5566C78.3261 62.5075 78.4492 62.4638 78.5772 62.4298C78.6155 62.4197 78.6458 62.4053 78.6743 62.3905C78.6873 62.388 78.6978 62.3892 78.7118 62.3855C80.6923 61.8645 82.5733 62.7479 83.3366 64.6645ZM55.7731 83.2C54.5824 83.2 53.3913 83.2 52.2005 83.2C52.2267 83.1734 52.2418 83.1443 52.2379 83.1136C51.7673 79.5874 48.3973 77.815 45.1042 78.6692C45.0886 78.6733 45.0781 78.6786 45.064 78.6834C45.0228 78.6822 44.9767 78.6857 44.9214 78.7005C42.7989 79.2698 41.3571 81.0253 41.1198 83.2C40.302 83.2 39.4839 83.2 38.6661 83.2C38.4919 83.2 38.0149 83.4632 38.4136 83.4632C44.1159 83.4632 49.8185 83.4632 55.521 83.4632C55.6948 83.4632 56.172 83.2 55.7731 83.2ZM46.295 82.8918C46.1525 82.8038 46.033 82.6884 45.9802 82.5276C45.9128 82.3219 46.0427 82.11 46.1855 81.9719C46.2156 81.9429 46.2533 81.9116 46.295 81.8802C46.295 82.2176 46.295 82.5546 46.295 82.8918ZM46.8678 83.2C46.8832 83.1818 46.8923 83.1625 46.8923 83.1416C46.8923 82.655 46.8923 82.1684 46.8923 81.6819C46.9755 81.7061 47.0446 81.7669 47.0838 81.8841C47.1487 82.0789 47.7421 81.9072 47.6811 81.7242C47.5642 81.3734 47.2427 81.3012 46.8923 81.3522C46.8923 81.1893 46.8923 81.0265 46.8923 80.8637C46.8923 80.766 46.295 80.8521 46.295 81.0236C46.295 81.1935 46.295 81.3631 46.295 81.5329C46.1103 81.6143 45.9477 81.7075 45.8399 81.7856C45.581 81.973 45.3557 82.2539 45.365 82.5864C45.373 82.8688 45.6133 83.0654 45.8716 83.2002C44.9509 83.2002 44.03 83.2002 43.1095 83.2002C43.1177 83.1833 43.1241 83.1658 43.1264 83.1468C43.2894 81.7937 44.1134 80.6011 45.4695 80.2385C45.5517 80.2165 45.6074 80.1792 45.6447 80.1373C47.8509 79.6163 49.8409 81.0086 50.2183 83.2002C49.1016 83.2 47.9847 83.2 46.8678 83.2ZM50.8233 83.2C50.8313 83.1802 50.8361 83.1596 50.8328 83.1379C50.4445 80.5265 47.9896 79.2576 45.5445 79.8535C45.495 79.8424 45.4379 79.8397 45.3676 79.8584C43.7923 80.2799 42.7172 81.5913 42.5233 83.2C42.2458 83.2 41.9686 83.2 41.6912 83.2C41.7017 83.1843 41.7093 83.168 41.7112 83.1509C41.9101 81.2306 43.0674 79.4967 44.9962 78.9796C45.0756 78.9583 45.1302 78.9274 45.1688 78.894C48.2549 78.0958 51.1724 80.0905 51.6288 83.2C51.3602 83.2 51.0917 83.2 50.8233 83.2ZM65.8263 77.8981C70.2972 77.8981 74.7682 77.8981 79.239 77.8981C79.4132 77.8981 79.8901 77.6349 79.4915 77.6349C78.5755 77.6349 77.6591 77.6349 76.7432 77.6349C76.7539 77.6168 76.7595 77.598 76.7568 77.5784C76.3596 74.7652 73.7114 73.4273 71.093 74.0868L71.0886 74.0883C71.048 74.0875 71.0025 74.091 70.9479 74.1056C69.2738 74.5545 68.1181 75.92 67.9165 77.6349C67.304 77.6349 66.6914 77.6349 66.0788 77.6349C65.9047 77.6349 65.4277 77.8981 65.8263 77.8981ZM71.9686 77.2725C71.8278 77.1278 71.7818 76.9448 71.9686 76.7418C71.9686 76.9188 71.9686 77.0957 71.9686 77.2725ZM72.5572 77.6349C72.5624 77.6238 72.5661 77.6122 72.5661 77.6003C72.5661 77.2668 72.5661 76.9333 72.5661 76.5998C72.5741 76.6156 72.5813 76.6319 72.5871 76.6488C72.6518 76.8436 73.2454 76.6721 73.1844 76.4889C73.104 76.2479 72.8577 76.1669 72.5661 76.1919C72.5661 76.0661 72.5661 75.9402 72.5661 75.8143C72.5661 75.7166 71.9688 75.8027 71.9688 75.9742C71.9688 76.1039 71.9688 76.2333 71.9688 76.363C71.3671 76.6464 70.9048 77.2152 71.5582 77.6347C70.9085 77.6347 70.2586 77.6347 69.609 77.6347C69.6106 77.6283 69.6133 77.6221 69.6141 77.6155C69.7386 76.5825 70.3586 75.6599 71.397 75.3821C71.4747 75.3612 71.527 75.3264 71.5646 75.2877C73.2396 74.9117 74.7257 75.9903 75.0337 77.6347C74.208 77.6349 73.3825 77.6349 72.5572 77.6349ZM68.5038 77.6161C68.6565 76.1399 69.5348 74.7835 71.0229 74.3845C71.0975 74.3645 71.149 74.3356 71.1872 74.3047C73.5789 73.7216 75.7524 75.2654 76.1424 77.6347C75.9797 77.6347 75.8171 77.6347 75.6545 77.6347C75.6568 77.6223 75.6576 77.6099 75.6555 77.5972C75.3484 75.53 73.407 74.5531 71.4825 74.9995C71.4314 74.9859 71.3706 74.9822 71.2954 75.0024C70.048 75.3361 69.1831 76.3625 69.0164 77.6347C68.8439 77.6347 68.6711 77.6347 68.4984 77.6347C68.5001 77.6285 68.5032 77.6225 68.5038 77.6161ZM33.528 80.3144C32.6121 80.3144 31.6957 80.3144 30.7797 80.3144C30.7904 80.2962 30.796 80.2775 30.7933 80.2579C30.3961 77.4446 27.748 76.1068 25.1295 76.7663L25.1252 76.7678C25.0846 76.7669 25.039 76.7704 24.9844 76.7851C23.3103 77.234 22.1547 78.5995 21.9531 80.3144C21.3405 80.3144 20.7279 80.3144 20.1154 80.3144C19.9412 80.3144 19.4642 80.5776 19.8629 80.5776C24.3337 80.5776 28.8047 80.5776 33.2755 80.5776C33.4497 80.5776 33.9269 80.3144 33.528 80.3144ZM26.0051 79.952C25.8645 79.8073 25.8185 79.6245 26.0051 79.4215C26.0051 79.5983 26.0051 79.7752 26.0051 79.952ZM26.5935 80.3144C26.5989 80.3032 26.6026 80.2917 26.6026 80.2797C26.6026 79.9463 26.6026 79.6128 26.6026 79.2793C26.6106 79.2951 26.6178 79.3114 26.6236 79.3283C26.6883 79.5231 27.2819 79.3516 27.2209 79.1684C27.1406 78.9274 26.8942 78.8464 26.6026 78.8714C26.6026 78.7456 26.6026 78.6197 26.6026 78.4938C26.6026 78.3961 26.0053 78.4822 26.0053 78.6537C26.0053 78.7834 26.0053 78.9128 26.0053 79.0424C25.4036 79.3259 24.9413 79.8947 25.5949 80.3142C24.945 80.3142 24.2951 80.3142 23.6455 80.3142C23.6471 80.3078 23.6498 80.3016 23.6506 80.295C23.7751 79.262 24.3951 78.3394 25.4335 78.0615C25.5112 78.0407 25.5636 78.0059 25.6011 77.9671C27.2764 77.5912 28.7623 78.6698 29.0702 80.3142C28.2445 80.3144 27.419 80.3144 26.5935 80.3144ZM29.6908 80.3144C29.6931 80.302 29.6939 80.2896 29.6918 80.2769C29.3847 78.2097 27.4433 77.2328 25.5188 77.6792C25.4677 77.6656 25.4069 77.6619 25.3317 77.6821C24.0843 78.0158 23.2194 79.0422 23.0529 80.3144C22.8802 80.3144 22.7075 80.3144 22.5347 80.3144C22.5366 80.3082 22.5395 80.302 22.5401 80.2958C22.6928 78.8196 23.5711 77.4632 25.0592 77.0642C25.1336 77.0442 25.1852 77.0153 25.2235 76.9844C27.6152 76.4013 29.7887 77.9451 30.1787 80.3144C30.0161 80.3144 29.8534 80.3144 29.6908 80.3144ZM53.1944 43.1716C53.2016 43.1998 53.235 43.2198 53.287 43.2299C54.6809 45.4532 56.0749 47.6766 57.4692 49.8997C57.5502 50.029 57.7675 50.0125 57.9113 49.9257C57.9383 49.9175 57.9641 49.9072 57.9862 49.8931C61.4559 47.7176 64.9256 45.5419 68.3954 43.3661C68.5217 43.2868 68.5322 43.2169 68.4848 43.1668C68.4871 43.1577 68.4871 43.1491 68.4821 43.1413C68.4755 43.1305 68.4687 43.1198 68.4619 43.1091C67.075 40.8975 65.6883 38.6859 64.3015 36.4741C64.3166 36.4388 64.2949 36.4135 64.2533 36.3974L64.2516 36.3947C64.1739 36.2706 63.7596 36.3778 63.6898 36.5258C60.339 38.6271 56.9875 40.7285 53.6365 42.8298C53.4572 42.8127 53.2245 42.936 53.2299 43.0938C53.1965 43.1254 53.1891 43.1505 53.1944 43.1716ZM57.9134 49.4731C56.5691 47.3291 55.2247 45.1851 53.8804 43.0411C57.192 40.9645 60.5037 38.8881 63.8153 36.8113C65.1596 38.9553 66.5038 41.0995 67.8483 43.2433C64.5367 45.3199 61.2248 47.3967 57.9134 49.4731ZM63.7304 37.496C63.7273 37.4912 63.7244 37.4867 63.7215 37.482C63.6044 37.2954 63.2534 37.387 63.1648 37.5632C60.3501 39.3281 57.5356 41.0929 54.7209 42.8578C54.6197 42.8826 54.5237 42.9395 54.4783 43.0137C54.3421 43.1194 54.4004 43.2157 54.5212 43.2645C55.196 44.3408 55.871 45.417 56.5458 46.4933C56.5089 46.5456 56.5438 46.5794 56.6104 46.5963C57.051 47.299 57.4917 48.0016 57.9324 48.7045C57.8942 48.7581 57.9315 48.7923 58.0012 48.8088C58.1352 48.9745 58.5266 48.849 58.5604 48.6532C61.3287 46.9177 64.0964 45.1818 66.8645 43.4463C67.0443 43.4624 67.2675 43.3358 67.2601 43.173C67.2815 43.1377 67.2698 43.111 67.2366 43.093C67.2331 43.0866 67.2314 43.0802 67.2273 43.0736C66.7796 42.3597 66.3319 41.6459 65.8843 40.9319C65.8855 40.9121 65.875 40.8958 65.8542 40.8835C65.168 39.7894 64.4821 38.6952 63.7961 37.6013C63.7982 37.5601 63.7726 37.5242 63.7304 37.496ZM63.315 37.9738C63.9233 38.9435 64.5315 39.9135 65.1398 40.8833C64.2149 40.7913 63.3495 40.3919 62.4252 40.7891C61.5701 41.1568 61.3619 41.9342 61.1043 42.7243C60.3355 42.6317 59.5605 42.5617 58.9048 42.9819C57.8365 43.6666 57.4142 44.8598 56.9428 45.9914C56.3395 45.0293 55.7362 44.0669 55.1327 43.1048C57.8602 41.3942 60.5875 39.6841 63.315 37.9738ZM58.5561 43.7715C59.112 42.884 60.0586 42.9364 61.0039 43.0205C61.0018 43.0262 60.9998 43.032 60.9979 43.0378C60.9653 43.1281 61.2345 43.1223 61.4219 43.0567C61.6022 43.0708 61.7803 43.0813 61.9537 43.0813C60.4894 43.9993 59.0258 44.9171 57.5618 45.8352C57.8623 45.1317 58.1476 44.4237 58.5561 43.7715ZM62.3729 42.8183C62.1352 42.828 61.8894 42.8123 61.6393 42.7867C61.8908 42.0014 62.1023 40.8138 63.1514 40.8544C63.7969 40.8793 64.3889 41.1083 65.0297 41.1522C64.1442 41.7075 63.2586 42.2628 62.3729 42.8183ZM58.4338 48.3689C58.0402 47.7409 57.6461 47.1129 57.2524 46.4846C57.2738 46.4686 57.2905 46.4508 57.2994 46.4314C57.3138 46.3999 57.3276 46.368 57.3419 46.3364C60.0257 44.6535 62.7097 42.9706 65.3935 41.2877C65.8012 41.9377 66.2087 42.5878 66.6164 43.2377C63.8891 44.9482 61.1614 46.6588 58.4338 48.3689Z" fill="#340679"/>
<path fill-rule="evenodd" clip-rule="evenodd" d="M29.1602 18.0155C29.1384 18.0348 29.1358 18.0737 29.1505 18.1245C27.8084 20.3795 26.4663 22.6345 25.1245 24.8898C25.0465 25.0209 25.1603 25.2066 25.3032 25.2951C25.3228 25.3153 25.3438 25.3335 25.3663 25.3468C28.8856 27.4412 32.405 29.5355 35.9245 31.6299C36.0528 31.7061 36.1197 31.6835 36.1427 31.6185C36.1518 31.6164 36.1595 31.6124 36.1642 31.6045C36.1707 31.5937 36.1771 31.5828 36.1836 31.5718C37.5184 29.3284 38.8534 27.0852 40.1886 24.8418C40.2268 24.8391 40.2395 24.8083 40.2348 24.7639L40.2364 24.7612C40.3114 24.6355 40.0269 24.3158 39.8633 24.3211L33.7458 20.6807L29.666 18.253C29.5994 18.0856 29.3836 17.9348 29.2455 18.0116C29.2022 17.9963 29.1765 18.0012 29.1602 18.0155ZM27.4174 24.2251L26.9268 25.0495C29.6933 26.6959 32.4602 28.3423 35.2269 29.9884L35.9571 28.7611L36.4039 28.0103L28.2369 23.1503L28.1927 23.1527C28.1728 23.1538 28.1529 23.1549 28.133 23.1558C28.1117 23.1568 28.0883 23.15 28.0643 23.1383L27.4174 24.2251ZM38.404 24.6485L36.6479 27.6C36.5516 27.3551 36.4793 27.1032 36.4077 26.8534C36.2262 26.2208 36.0486 25.6012 35.4929 25.1417C34.8149 24.5812 34.075 24.7018 33.3033 24.8276L33.1681 24.8495C32.8995 24.1232 32.6082 23.4016 31.935 23.01C30.926 22.423 29.7836 22.5189 28.6558 22.6135C28.5577 22.6217 28.4596 22.63 28.3618 22.6377L28.8584 21.8033L30.1042 19.7097L36.6775 23.6211L38.404 24.6485ZM32.8587 24.8953C32.5022 24.0159 32.1167 23.1496 31.0733 23.0601C30.3868 23.0011 29.7056 23.0505 29.0228 23.1C28.943 23.1058 28.8632 23.1116 28.7833 23.1172L33.2381 25.7682C33.159 25.6139 33.087 25.4507 33.0172 25.2838C32.8734 25.147 32.7454 24.9101 32.8406 24.8979C32.8466 24.8969 32.8526 24.8961 32.8587 24.8953ZM33.6634 26.0212C33.5463 25.8141 33.4481 25.5882 33.3567 25.3541C33.4519 25.3383 33.5517 25.3195 33.6546 25.3002C34.4304 25.1545 35.3753 24.977 35.7661 25.8176C35.909 26.1247 35.9952 26.4443 36.0814 26.764C36.1596 27.054 36.2378 27.344 36.3583 27.6248L33.6634 26.0212ZM29.5893 18.5663L25.7068 25.0903L35.7841 31.0871C36.7878 29.4002 37.7917 27.7134 38.7956 26.0266C39.086 25.5388 39.3763 25.0509 39.6666 24.5631C37.4349 23.2352 35.2034 21.9072 32.9719 20.5793C31.8444 19.9083 30.7169 19.2373 29.5893 18.5663ZM39.0186 24.8L39.0271 24.7857C39.1396 24.5964 38.898 24.3259 38.7007 24.3274L30.136 19.2306C30.0678 19.1518 29.9733 19.0923 29.8866 19.0859C29.7304 19.0129 29.6713 19.1087 29.683 19.2385L27.7341 22.5136C27.6707 22.5046 27.6565 22.551 27.6718 22.618L26.3994 24.7564C26.3343 24.7469 26.3209 24.7958 26.338 24.8653C26.2517 25.0601 26.542 25.3511 26.7317 25.2918C28.2576 26.2001 29.7836 27.1081 31.3095 28.0162C32.5912 28.7789 33.8729 29.5416 35.1545 30.3044C35.2222 30.4716 35.4367 30.6125 35.5782 30.5316C35.6194 30.5346 35.6378 30.5119 35.6387 30.4742C35.6404 30.4715 35.6424 30.4692 35.6443 30.4669C35.6469 30.4639 35.6494 30.4608 35.6517 30.4571L36.9444 28.2846C36.9626 28.2767 36.9723 28.2599 36.9738 28.2357C37.3467 27.6089 37.7198 26.982 38.0928 26.3552C38.3802 25.8723 38.6676 25.3894 38.9549 24.9066C38.9925 24.8896 39.0128 24.8505 39.0186 24.8Z" fill="#340679"/>
</svg>
