<svg width="104" height="25" viewBox="0 0 104 25" fill="none" xmlns="http://www.w3.org/2000/svg">
<path d="M67.9316 5.40601C66.2686 5.40771 64.6742 6.07229 63.4982 7.2539C62.3223 8.43551 61.6609 10.0376 61.6592 11.7087C61.6592 11.7803 61.6592 11.8511 61.6647 11.9228C61.6647 11.9338 61.6647 11.9448 61.6647 11.9568V20.5365C61.6843 20.9497 61.8615 21.3394 62.1595 21.6248C62.4575 21.9102 62.8533 22.0695 63.265 22.0695C63.6767 22.0695 64.0726 21.9102 64.3705 21.6248C64.6685 21.3394 64.8457 20.9497 64.8654 20.5365V17.2046C65.7015 17.675 66.6338 17.9466 67.5908 17.9985C68.5477 18.0504 69.5037 17.8813 70.3854 17.504C71.2671 17.1268 72.051 16.5515 72.677 15.8224C73.3029 15.0933 73.7542 14.2297 73.9962 13.2979C74.2382 12.3662 74.2645 11.3912 74.0729 10.4477C73.8814 9.50418 73.4773 8.61734 72.8915 7.85526C72.3057 7.09319 71.5539 6.47617 70.6937 6.05158C69.8336 5.627 68.8881 5.40615 67.9298 5.40601H67.9316ZM67.9298 14.7833C67.3244 14.7833 66.7327 14.6029 66.2293 14.265C65.726 13.927 65.3337 13.4467 65.102 12.8847C64.8703 12.3227 64.8097 11.7043 64.9278 11.1078C65.0459 10.5112 65.3374 9.96316 65.7655 9.53304C66.1936 9.10292 66.7389 8.80999 67.3327 8.69132C67.9264 8.57265 68.5418 8.63357 69.1011 8.86634C69.6604 9.09912 70.1384 9.49332 70.4747 9.99909C70.811 10.5049 70.9906 11.0995 70.9906 11.7078C70.9896 12.5231 70.6668 13.3048 70.093 13.8814C69.5192 14.458 68.7412 14.7823 67.9298 14.7833Z" fill="#202020"/>
<path d="M82.081 5.40601C80.418 5.40771 78.8236 6.07229 77.6476 7.2539C76.4717 8.43551 75.8103 10.0376 75.8086 11.7087C75.8086 11.7803 75.8086 11.8511 75.8141 11.9228C75.8141 11.9338 75.8141 11.9448 75.8141 11.9568V20.5365C75.8037 20.7541 75.8374 20.9716 75.9132 21.1758C75.9889 21.3799 76.1052 21.5665 76.2548 21.7242C76.4044 21.8819 76.5843 22.0075 76.7837 22.0933C76.983 22.179 77.1976 22.2233 77.4144 22.2233C77.6313 22.2233 77.8458 22.179 78.0452 22.0933C78.2445 22.0075 78.4245 21.8819 78.5741 21.7242C78.7237 21.5665 78.8399 21.3799 78.9157 21.1758C78.9914 20.9716 79.0251 20.7541 79.0148 20.5365V17.2046C79.8509 17.675 80.7833 17.9466 81.7402 17.9985C82.6971 18.0504 83.6531 17.8813 84.5348 17.504C85.4165 17.1268 86.2004 16.5515 86.8264 15.8224C87.4523 15.0933 87.9036 14.2297 88.1456 13.2979C88.3876 12.3662 88.4139 11.3912 88.2224 10.4477C88.0309 9.50418 87.6267 8.61734 87.0409 7.85527C86.4551 7.09319 85.7033 6.47617 84.8432 6.05158C83.983 5.627 83.0375 5.40615 82.0792 5.40601H82.081ZM82.0792 14.7833C81.4738 14.7833 80.8821 14.6029 80.3787 14.265C79.8754 13.927 79.4831 13.4467 79.2514 12.8847C79.0197 12.3227 78.9591 11.7043 79.0772 11.1078C79.1953 10.5112 79.4869 9.96316 79.9149 9.53304C80.343 9.10292 80.8883 8.80999 81.4821 8.69132C82.0758 8.57265 82.6912 8.63357 83.2505 8.86635C83.8098 9.09912 84.2878 9.49332 84.6241 9.99909C84.9605 10.5049 85.14 11.0995 85.14 11.7078C85.139 12.5231 84.8162 13.3048 84.2424 13.8814C83.6686 14.458 82.8907 14.7823 82.0792 14.7833Z" fill="#202020"/>
<path d="M45.9028 11.7079C45.9036 10.6088 45.6182 9.52862 45.0748 8.5747C44.5314 7.62078 43.749 6.82636 42.8055 6.27039C41.8619 5.71442 40.7899 5.41625 39.6961 5.40554C38.6023 5.39482 37.5248 5.67193 36.5706 6.2093V2.78092C36.5706 2.35395 36.4018 1.94446 36.1013 1.64255C35.8008 1.34063 35.3933 1.17102 34.9684 1.17102H34.9611C34.5361 1.17102 34.1286 1.34063 33.8282 1.64255C33.5277 1.94446 33.3589 2.35395 33.3589 2.78092V16.3171C33.3589 16.7441 33.5277 17.1535 33.8282 17.4555C34.1286 17.7574 34.5361 17.927 34.9611 17.927H34.9684C35.3933 17.927 35.8008 17.7574 36.1013 17.4555C36.4018 17.1535 36.5706 16.7441 36.5706 16.3171V11.7061C36.5851 10.8997 36.9143 10.1314 37.4872 9.5666C38.0602 9.00178 38.831 8.6857 39.6336 8.68642C40.4362 8.68714 41.2064 9.00462 41.7783 9.57047C42.3502 10.1363 42.678 10.9052 42.6912 11.7116C42.6912 11.719 42.6912 11.7263 42.6912 11.7337V16.3171C42.6912 16.7441 42.86 17.1535 43.1604 17.4555C43.4609 17.7574 43.8684 17.927 44.2934 17.927H44.3007C44.7256 17.927 45.1331 17.7574 45.4336 17.4555C45.7341 17.1535 45.9028 16.7441 45.9028 16.3171V11.7328C45.9028 11.7254 45.9028 11.7181 45.9028 11.7107V11.7079Z" fill="#202020"/>
<path d="M60.0515 11.9284V7.01139C60.0515 6.58441 59.8827 6.17492 59.5822 5.87301C59.2818 5.57109 58.8743 5.40149 58.4493 5.40149H58.4411C58.0164 5.40198 57.6091 5.57174 57.3087 5.87355C57.0084 6.17536 56.8394 6.58456 56.8389 7.01139V11.9366C56.8251 12.743 56.4965 13.5116 55.9241 14.0769C55.3517 14.6422 54.5812 14.959 53.7786 14.959C52.976 14.959 52.2055 14.6422 51.6331 14.0769C51.0607 13.5116 50.7322 12.743 50.7183 11.9366V7.01139C50.7176 6.58464 50.5486 6.17558 50.2482 5.87382C49.9479 5.57206 49.5408 5.40222 49.1161 5.40149H49.1061C48.6812 5.40149 48.2736 5.57109 47.9732 5.87301C47.6727 6.17492 47.5039 6.58441 47.5039 7.01139V11.933C47.5061 13.3234 47.9651 14.6741 48.8096 15.7756C49.654 16.877 50.8368 17.6675 52.1742 18.0243V20.542C52.1938 20.9552 52.371 21.345 52.669 21.6304C52.967 21.9158 53.3628 22.0751 53.7745 22.0751C54.1862 22.0751 54.5821 21.9158 54.88 21.6304C55.178 21.345 55.3552 20.9552 55.3748 20.542V18.0243C56.7121 17.6673 57.8946 16.8768 58.7389 15.7753C59.5832 14.6739 60.0421 13.3232 60.0442 11.933" fill="#202020"/>
<path d="M96.6862 12.9457L97.5842 12.5102L98.8645 11.889L99.2916 11.6813L101.271 10.7211C101.578 10.571 101.814 10.3068 101.93 9.98453C102.045 9.66229 102.031 9.30745 101.891 8.99542C101.891 8.98715 101.884 8.97889 101.88 8.97062C101.877 8.96235 101.87 8.95132 101.866 8.94122C101.832 8.87138 101.795 8.80246 101.76 8.73446C101.744 8.70597 101.73 8.67658 101.714 8.64809C101.68 8.5856 101.644 8.52404 101.606 8.46431C101.586 8.43032 101.566 8.3954 101.545 8.3614C101.514 8.31178 101.482 8.26307 101.453 8.21528C101.425 8.1675 101.395 8.1234 101.362 8.08297C101.329 8.04254 101.313 8.01681 101.29 7.98465C101.248 7.92768 101.207 7.87163 101.164 7.81649C101.151 7.79995 101.138 7.78525 101.125 7.76871C100.615 7.1293 99.9842 6.5967 99.2696 6.20107L99.2541 6.19282C99.1718 6.14779 99.0895 6.10093 99.0053 6.06234C98.9623 6.0412 98.9139 6.0219 98.8746 6.00077C98.8352 5.97963 98.7831 5.95665 98.7347 5.93644C98.6523 5.9006 98.5691 5.8666 98.485 5.83352L98.4585 5.8225C97.6947 5.53012 96.8813 5.39119 96.0644 5.41359H96.0104C95.9382 5.41359 95.8668 5.42095 95.7937 5.42646L95.6794 5.43472C95.6245 5.43931 95.5705 5.44576 95.5157 5.45219C95.4608 5.45862 95.4041 5.46504 95.3483 5.4724L95.2267 5.4917C95.1581 5.50273 95.0886 5.51467 95.02 5.52845L94.924 5.54867C94.849 5.56429 94.7731 5.58174 94.699 5.60104L94.6076 5.62677C94.5363 5.64606 94.4649 5.66628 94.3936 5.68833L94.3506 5.70121L94.2528 5.73428L94.1138 5.78207C94.0461 5.80596 93.9803 5.83261 93.9144 5.85925L93.8303 5.89233C93.7376 5.93092 93.6462 5.97197 93.5559 6.01546L93.5449 6.02097C93.4456 6.06814 93.3481 6.11808 93.2523 6.17076H93.2478C92.1578 6.76506 91.2696 7.67322 90.6973 8.77857L90.6872 8.79786C90.6561 8.85667 90.6278 8.91732 90.5958 8.98164C90.5802 9.01472 90.5638 9.04781 90.5482 9.08181C90.5327 9.1158 90.5189 9.1498 90.5034 9.18288C90.4769 9.24445 90.4494 9.30509 90.4257 9.36666L90.4184 9.38595C89.9548 10.5419 89.8459 11.8107 90.1056 13.0294V13.0349C90.1282 13.1421 90.1537 13.2487 90.1824 13.3546V13.3657C90.2086 13.4631 90.2373 13.5599 90.2684 13.656C90.2775 13.6845 90.2876 13.713 90.2976 13.7415C90.3205 13.8095 90.3443 13.8766 90.3699 13.9437C90.3873 13.9896 90.4055 14.0355 90.4238 14.0806C90.4366 14.1127 90.4485 14.1449 90.4622 14.1725C90.4677 14.1862 90.4751 14.2 90.4805 14.2138C90.5107 14.2827 90.5418 14.3507 90.572 14.4178L90.614 14.5097C90.6488 14.5795 90.6845 14.6475 90.721 14.7155C90.7366 14.744 90.7521 14.7734 90.7677 14.8019C90.8015 14.8635 90.8381 14.9241 90.8747 14.9857C90.8957 15.0206 90.9168 15.0564 90.9387 15.0913C90.9606 15.1263 91.0009 15.1832 91.0301 15.2338C91.0594 15.2843 91.0914 15.3257 91.1216 15.3698C91.1518 15.4139 91.1673 15.4323 91.1902 15.4617C91.2332 15.5195 91.2761 15.5774 91.321 15.6344L91.3557 15.6767C91.8698 16.3151 92.5036 16.8458 93.2212 17.2388L93.2478 17.2526C93.3264 17.2958 93.406 17.3371 93.4864 17.3757C93.5331 17.3987 93.5779 17.4198 93.6272 17.441C93.6766 17.4621 93.7132 17.4814 93.7571 17.5007C93.8431 17.5384 93.9309 17.5733 94.0196 17.6063L94.0342 17.6119C94.7981 17.9 95.6109 18.0349 96.4265 18.0088H96.4878C96.5573 18.0088 96.6277 18.0006 96.6972 17.996L96.8188 17.9868C96.8719 17.9813 96.924 17.9748 96.977 17.9684C97.0301 17.962 97.0922 17.9546 97.1499 17.9463L97.2678 17.927C97.3382 17.9151 97.4077 17.9032 97.4772 17.8885L97.5787 17.8664C97.6537 17.8499 97.7287 17.8324 97.8037 17.8131L97.8357 17.8058L97.9272 17.7791C97.9775 17.7644 98.0277 17.7515 98.078 17.7359C98.1622 17.7102 98.246 17.6823 98.3295 17.6523L98.3743 17.6367C98.4658 17.6036 98.5527 17.5687 98.6395 17.5328L98.6962 17.508C98.7749 17.474 98.8535 17.4391 98.9313 17.4014L98.9605 17.3886L98.9944 17.3711C99.052 17.3426 99.1087 17.3132 99.1645 17.2838L99.2367 17.2452C99.287 17.2177 99.3373 17.1883 99.3876 17.1598L99.479 17.1065L99.5979 17.032L99.715 16.9549L99.7945 16.8997C99.8448 16.8648 99.8951 16.8299 99.9436 16.794L99.982 16.7646C100.451 16.4123 100.869 15.9957 101.223 15.5269C101.461 15.1846 101.558 14.7629 101.493 14.3503C101.428 13.9378 101.207 13.5666 100.875 13.3148C100.544 13.0629 100.128 12.9501 99.7151 13.0001C99.3024 13.05 98.925 13.2588 98.6624 13.5825C98.6578 13.589 98.6514 13.5954 98.6469 13.6018C98.6048 13.6563 98.5609 13.7093 98.5152 13.7608L98.4868 13.792C98.4411 13.8417 98.3954 13.8904 98.346 13.9363L98.3048 13.9749C98.2591 14.0172 98.2134 14.0576 98.1649 14.0971C98.1439 14.1146 98.122 14.1311 98.1009 14.1477C98.0589 14.1807 98.0159 14.2129 97.972 14.2395C97.9281 14.2662 97.9089 14.2818 97.8805 14.302C97.8522 14.3222 97.8064 14.3498 97.768 14.3719C97.7296 14.3939 97.6866 14.4169 97.6446 14.438C97.6025 14.4591 97.5751 14.4748 97.5394 14.4913L97.448 14.5327C97.4032 14.552 97.3565 14.5703 97.3135 14.5878L97.2221 14.619C97.17 14.6365 97.1178 14.653 97.0648 14.6677L96.9853 14.6898C96.9423 14.7008 96.8984 14.71 96.8554 14.7192L96.7639 14.7376L96.646 14.755C96.6103 14.7605 96.5737 14.7651 96.5381 14.7688L96.4466 14.7762C96.4036 14.7762 96.3597 14.7817 96.3167 14.7826H96.2463C96.1951 14.7826 96.1448 14.7826 96.0945 14.7826H96.0461C95.9894 14.7826 95.9327 14.7743 95.8769 14.767L95.843 14.7624C95.7836 14.7541 95.7242 14.7449 95.6647 14.7339L95.6336 14.7275C95.5751 14.7155 95.5166 14.7017 95.459 14.687L95.4187 14.6751C95.3648 14.6604 95.3117 14.6438 95.2596 14.6264L95.2002 14.6043C95.1553 14.5878 95.1087 14.5713 95.0666 14.5529C95.0383 14.5409 95.0109 14.5281 94.9825 14.5152C94.9542 14.5023 94.913 14.484 94.8792 14.4674C94.8454 14.4509 94.8069 14.4298 94.7713 14.4095L94.6981 14.3691C94.6551 14.3443 94.614 14.3176 94.5728 14.2901L94.5225 14.257C94.4768 14.2258 94.4311 14.1936 94.389 14.1596L94.3524 14.132L94.3195 14.1035L95.2185 13.668L96.6862 12.9457ZM93.8394 9.79578C93.8769 9.74891 93.9162 9.70389 93.9556 9.65795L93.9784 9.6313L94.037 9.56973L94.0973 9.50909L94.132 9.47509C94.1686 9.44017 94.2071 9.40618 94.2455 9.3731L94.2994 9.32715C94.3332 9.29958 94.368 9.27385 94.4028 9.2472L94.4796 9.19023L94.571 9.1305C94.6039 9.10937 94.6378 9.08731 94.6716 9.0671L94.753 9.02115C94.7914 9.00002 94.8307 8.97889 94.871 8.95867L94.9542 8.91916C94.9932 8.90078 95.0322 8.88363 95.0712 8.8677L95.1718 8.8291L95.2743 8.79328C95.3145 8.7795 95.3556 8.76755 95.3968 8.7556L95.4882 8.73079C95.5312 8.71976 95.5751 8.71057 95.6181 8.70138L95.7095 8.683L95.8275 8.66555L95.9354 8.65269L96.0269 8.64533C96.0699 8.64533 96.1137 8.63981 96.1567 8.63889H96.2271C96.2774 8.63889 96.3286 8.63889 96.3798 8.63889H96.4274C96.4841 8.63889 96.5408 8.64717 96.5975 8.65453L96.6313 8.65911L96.7228 8.67198L96.8142 8.6876L96.8444 8.69404C96.9054 8.70629 96.9636 8.71976 97.0191 8.73446L97.0584 8.74641C97.1124 8.76111 97.1654 8.77765 97.2184 8.79603L97.277 8.81716C97.3227 8.8337 97.3684 8.85024 97.4123 8.86954L97.4955 8.90629C97.5303 8.92191 97.565 8.93754 97.5989 8.955C97.6327 8.97246 97.6711 8.99267 97.7059 9.01197L97.7799 9.05332C97.822 9.07812 97.8641 9.10478 97.9052 9.13143L97.9555 9.1645L93.1856 11.4792C93.1941 11.3682 93.2085 11.2578 93.2286 11.1484C93.2286 11.1337 93.2331 11.1199 93.2359 11.1052C93.2386 11.0905 93.2423 11.0758 93.2459 11.0602C93.2569 11.006 93.2697 10.9527 93.2843 10.8994C93.2898 10.8801 93.2953 10.8608 93.3008 10.8424C93.3145 10.7946 93.3291 10.7505 93.3456 10.7C93.3547 10.6733 93.3648 10.6476 93.3749 10.621C93.3849 10.5943 93.4041 10.5447 93.4197 10.507C93.4352 10.4693 93.4508 10.4372 93.4672 10.4032C93.4837 10.3692 93.4928 10.3471 93.5065 10.3196C93.5285 10.2764 93.5514 10.235 93.5742 10.1927L93.6053 10.1376C93.6337 10.0898 93.6638 10.0457 93.6968 9.99702L93.7205 9.96118C93.7544 9.91156 93.79 9.86378 93.8266 9.816L93.8458 9.79027" fill="#202020"/>
<path d="M18.1448 5.29745C16.3181 4.05797 14.4196 2.94142 12.4153 2.01609C10.8924 1.31269 9.32853 0.721981 7.65882 0.472721C6.92128 0.363456 6.18375 0.329311 5.44962 0.476136C3.99503 0.76637 3.00482 1.65756 2.32875 2.94142C1.63218 4.26626 1.29073 5.69695 1.06196 7.15836C0.809281 8.77002 0.744405 10.3987 0.758063 12.0275C0.758063 12.3962 0.754649 12.7616 0.758063 13.1304C0.77855 14.5098 0.894644 15.8791 1.12683 17.238C1.35561 18.58 1.69023 19.8843 2.33216 21.093C2.74873 21.875 3.27798 22.5579 4.05991 23.0291C4.92379 23.5481 5.85595 23.6813 6.83934 23.6335C7.8876 23.5856 8.89488 23.3466 9.88851 23.0291C11.2714 22.5852 12.6065 22.015 13.8733 21.3082C15.1742 20.5809 16.4615 19.8263 17.7248 19.0341C18.7799 18.3717 19.7701 17.6102 20.6921 16.7668C21.5081 16.0191 22.2662 15.2201 22.8159 14.2469C23.5637 12.9255 23.6593 11.5699 23.0071 10.1836C22.611 9.33683 22.0272 8.6232 21.3818 7.95736C20.4018 6.94325 19.3024 6.08279 18.1448 5.29745ZM4.33307 4.6282C4.34332 3.38531 5.33011 2.59656 6.37496 2.59656C7.39249 2.59314 8.45099 3.39897 8.40319 4.74429C8.36221 5.83011 7.45736 6.68374 6.34081 6.67009C5.23451 6.65301 4.32283 5.78572 4.33307 4.6282ZM10.6465 16.241C8.3588 16.2649 6.3852 14.4245 6.39203 11.9933C6.39886 9.6817 8.21197 7.77298 10.6295 7.76956C13.0572 7.76273 14.8669 9.73292 14.8635 12.0002C14.8601 14.3494 12.9821 16.241 10.6465 16.241Z" fill="#AB22AF"/>
</svg>
