<svg width="329" height="330" viewBox="0 0 329 330" fill="none" xmlns="http://www.w3.org/2000/svg">
<mask id="mask0_500_20731" style="mask-type:alpha" maskUnits="userSpaceOnUse" x="4" y="95" width="320" height="206">
<rect x="4" y="95" width="319.615" height="205.839" fill="#8036E4" fill-opacity="0.1"/>
</mask>
<g mask="url(#mask0_500_20731)">
<circle cx="163.808" cy="254.808" r="159.808" fill="#8036E4"/>
</g>
<path d="M217.766 84.8932C218.586 84.157 219.489 83.58 220.458 83.1329C219.523 83.6878 218.485 84.3908 217.766 84.8932ZM238.715 63.5977C232.586 60.197 226.79 57.4579 219.78 58.7075C219.78 58.7125 219.778 58.7153 219.777 58.7202C219.718 59.0463 219.662 59.3729 219.613 59.7007C219.436 60.8691 219.28 62.0408 219.132 63.2136C218.707 66.57 218.315 69.9303 217.921 73.2907C217.469 77.1412 217.03 80.9946 216.561 84.844C221.149 80.905 228.145 81.2035 233.824 81.2576C238.817 81.3052 243.717 80.9028 248.048 78.1234C251.834 75.6938 254.639 72.3434 256.457 68.2391C256.476 68.1977 256.512 68.1595 256.557 68.1247C250.004 68.8603 244.372 66.7364 238.715 63.5977ZM216.866 85.5327C216.866 85.5327 216.89 85.5155 216.924 85.4901C216.89 85.5001 216.854 85.51 216.817 85.5194L216.866 85.5327ZM224.342 81.9905C227.199 81.7374 231.374 81.6639 231.374 81.6639C231.374 81.6639 232.679 81.7191 234.532 81.681C231.119 81.6368 227.56 81.4538 224.342 81.9905ZM189.434 110.485C189.034 110.476 188.634 110.459 188.234 110.442C189.631 110.588 190.583 110.68 190.752 110.68C191.013 110.68 191.521 110.57 192.095 110.42C191.182 110.517 190.253 110.504 189.434 110.485ZM189.188 96.5477C186.434 96.5234 183.248 96.4841 180.175 96.4195C183.164 96.5991 186.187 96.6682 189.188 96.5477ZM144.173 76.2111C143.938 76.2558 143.715 76.2525 143.58 76.1646C140.942 74.4452 137.433 73.5294 134.27 73.1343C133.755 73.8926 133.132 74.5867 132.436 75.2267C138.618 77.6353 143.696 80.4601 146.581 86.8221C149.139 92.4622 148.483 99.7809 147.369 105.944C147.626 115.419 147.889 124.893 147.898 134.373C147.898 134.382 147.895 134.391 147.894 134.401C148.995 134.003 149.991 133.423 150.814 132.586C150.706 132.531 150.676 132.439 150.787 132.299C152.747 129.829 152.685 124.876 152.986 121.922C153.53 116.592 153.835 111.236 154.013 105.883C154.069 104.211 154.131 102.531 154.172 100.849C154.143 100.812 154.144 100.767 154.174 100.719C154.236 98.0853 154.243 95.4479 154.079 92.8314C153.671 86.3059 148.069 81.1604 144.173 76.2111ZM128.061 124.277C126.305 124.178 124.544 124.013 122.798 123.913C122.993 123.961 123.167 124.03 123.305 124.129C123.607 124.081 123.894 124.117 124.007 124.303C125.421 126.637 127.742 129.265 126.478 132.11C126.209 132.715 125.835 133.313 125.392 133.885C125.535 133.961 125.683 134.028 125.83 134.096L127.695 134.763C127.902 134.817 128.11 134.87 128.322 134.916C128.345 131.413 128.527 127.919 128.05 124.435C128.043 124.38 128.049 124.328 128.061 124.277ZM193.473 103.093C186.689 103.179 179.715 105.042 172.957 103.733C169.64 103.091 166.154 102.287 163.103 100.795C160.629 99.5847 158.44 97.7315 155.798 96.9025C155.802 98.0433 155.79 99.1846 155.766 100.326C161.305 103.743 166.198 107.728 172.941 108.264C176.602 108.554 180.253 108.917 183.909 109.256C185.728 109.424 187.554 109.606 189.38 109.648C190.582 109.676 193.048 110.024 193.991 109.078C194.019 109.05 194.058 109.024 194.102 108.999C193.336 107.495 193.84 105.013 194.489 102.565C194.309 102.805 193.794 103.089 193.473 103.093ZM129.691 124.346C130.13 127.862 129.953 131.385 129.934 134.92C129.934 135.013 129.896 135.098 129.837 135.173C130.387 135.243 130.944 135.292 131.505 135.324C132.721 135.342 134.308 135.355 136.052 135.34C136.263 135.334 136.472 135.329 136.679 135.322C137.574 131.424 136.998 127.432 136.899 123.472C134.565 124.237 132.142 124.406 129.691 124.346ZM145.919 112.301C144.658 116.547 142.564 120.881 138.717 122.748C138.646 122.783 138.574 122.809 138.503 122.842C138.562 126.994 139.238 131.196 138.267 135.288C138.607 135.283 138.954 135.282 139.308 135.282C141.816 135.208 144.351 135.06 146.367 134.785C146.314 134.715 146.281 134.627 146.281 134.518C146.274 127.11 146.112 119.705 145.919 112.301ZM171.59 96.8975C167.928 96.4504 164.377 95.5092 161.313 93.3769C158.923 91.7145 156.745 89.7618 154.565 87.8208C155.186 89.2799 155.594 90.8014 155.68 92.4026C155.743 93.572 155.776 94.7443 155.791 95.9176C155.931 95.8856 156.06 95.8751 156.153 95.8972C158.693 96.5096 160.655 98.0394 162.905 99.2802C165.992 100.982 169.507 102.047 172.955 102.715C180.012 104.081 187.024 102.328 194.111 102.239C194.378 102.235 194.508 102.286 194.544 102.364C195.082 100.358 195.689 98.4025 195.747 97.0512C187.792 98.3185 179.321 97.8415 171.59 96.8975ZM105.502 118.814C103.059 115.655 100.198 111.112 102.112 106.999C104.596 101.664 110.61 98.4694 114.651 94.4563C119 90.1371 123.623 85.9151 128.886 82.7294C129.03 82.6421 129.217 82.6018 129.406 82.5968C128.442 81.3919 127.221 80.3678 125.72 79.5825C125.665 79.6106 125.61 79.6405 125.557 79.6687C118.958 83.134 113.667 88.0949 108.156 93.0956C106.914 94.2231 105.239 95.5844 103.515 97.1114L98.339 102.431C95.8713 105.609 94.4879 109.094 96.2631 112.537C98.606 117.084 102.011 121.139 105.365 124.968C107.601 127.52 109.864 130.251 112.493 132.418C112.843 132.706 112.01 133.15 111.417 133.157C112.463 134.194 115.426 132.29 117.334 130.78C117.227 130.755 117.131 130.71 117.061 130.638C113.233 126.687 108.88 123.184 105.502 118.814ZM127.525 106.612C127.348 106.604 127.223 106.561 127.221 106.473C127.16 102.89 126.491 99.2907 125.796 95.7673C125.156 96.3957 124.476 96.9915 123.771 97.5652C123.485 102.117 122.726 106.67 122.696 111.234C124.501 110.122 126.135 108.521 127.525 106.612ZM107.536 129.66C108.657 131.288 109.501 132.521 109.862 133.05C110.078 132.913 110.411 132.798 110.703 132.775C110.491 132.589 110.278 132.405 110.075 132.209C109.214 131.377 108.368 130.526 107.536 129.66ZM129.955 83.338C129.943 83.3457 129.934 83.3534 129.922 83.3612C124.498 86.6436 119.931 91.0219 115.417 95.4219C111.743 99.0027 105.476 102.113 103.628 107.124C101.897 111.821 105.431 116.517 108.403 119.844C111.556 123.373 115.134 126.467 118.429 129.855C118.591 129.709 118.725 129.58 118.826 129.477C119.238 129.053 120.451 127.807 121.222 126.682C120.879 126.786 120.491 126.783 120.307 126.578C117.402 123.369 115.575 119.507 112.914 116.136C111.692 114.587 107.646 110.686 108.349 108.383C109.059 106.061 112.515 104.294 114.352 103.01C118.052 100.425 122.336 97.8404 125.362 94.4994C125.458 94.3939 125.614 94.3193 125.788 94.2728C126.217 94.0087 127.109 93.8738 127.165 94.1595C127.85 97.6188 128.57 101.164 128.77 104.703C132.645 98.1162 133.833 89.0643 129.955 83.338ZM121.666 125.776V124.773L120.981 124.969C121.203 125.241 121.43 125.511 121.666 125.776Z" fill="#A358E7"/>
<path d="M136.331 64.419C136.496 65.0214 134.895 65.453 134.73 64.8479C134.535 64.1343 134.011 63.7613 133.317 63.58C132.985 63.4927 132.897 63.2058 133.152 62.9638C133.428 62.7012 133.913 62.5631 134.285 62.6603C135.237 62.9096 136.059 63.4219 136.331 64.419ZM147.817 61.6583C149.029 61.7274 151.269 61.6854 152.053 60.5209C152.438 59.9477 150.839 60.1346 150.573 60.5303C150.199 61.0857 148.561 60.8387 148.034 60.7641C146.427 60.5358 145.1 59.5576 144.331 58.1493C144.055 57.6442 142.517 58.1891 142.73 58.5782C143.78 60.5032 145.646 61.5345 147.817 61.6583ZM144.96 54.1849C145.149 54.543 145.767 54.4684 146.054 54.3264C146.396 54.1573 146.612 53.8223 146.422 53.462C146.178 53.0005 145.801 52.6269 145.557 52.1648C145.368 51.8067 144.751 51.8813 144.464 52.0233C144.121 52.1925 143.905 52.5274 144.095 52.8877C144.34 53.3492 144.717 53.7228 144.96 54.1849ZM296.695 298.501C285.137 301.788 274.919 293.333 268.303 284.697C266.424 282.244 264.691 279.771 263.452 276.926C262.108 273.838 261.064 270.601 259.559 267.584C258.013 264.486 256.02 261.492 252.862 259.84C250.233 258.465 247.381 257.809 244.535 257.043C241.484 256.221 238.706 255.248 236.021 253.539C233.778 252.112 231.775 250.342 229.587 248.836C223.584 244.707 216.036 243.15 209.178 240.915C204.239 239.306 199.955 237.27 196.865 232.924C196.844 232.894 196.824 232.863 196.803 232.833C196.705 232.787 196.625 232.721 196.585 232.622C196.564 232.574 196.558 232.507 196.543 232.451C193.764 228.356 191.704 223.088 186.465 222.048C186.464 222.048 186.462 222.048 186.46 222.048C179.56 222.031 172.66 221.666 165.76 221.781C159.624 221.884 152.296 221.619 146.928 225.087C141.515 228.585 138.087 234.135 134.228 239.141C132.316 241.621 130.235 243.937 128.166 246.286C126.529 248.146 124.817 250.111 122.642 251.365C116.71 254.785 110.039 253.395 103.526 253.487C96.2561 253.589 91.2531 256.692 86.7896 262.243C83.5504 266.272 80.7118 270.788 76.7744 274.199C74.9152 275.809 72.831 277.383 70.4694 278.162C66.6675 279.416 62.4897 279.253 58.7867 280.822C54.0729 282.819 51.6228 288.616 46.6614 290.034C44.7706 290.575 42.2697 290.115 40.3862 289.838C39.1238 289.652 37.8449 289.307 36.5704 289.234C34.0789 289.092 33.5721 290.793 33.2101 292.827C33.1106 293.388 31.4934 293.66 31.6073 293.021C32.5646 287.63 36.3626 288.211 40.7554 288.86C44.0676 289.349 46.5237 289.711 49.1368 287.388C51.2531 285.508 53.167 283.098 55.5303 281.528C58.0262 279.871 61.0279 279.07 63.9665 278.633C68.1083 278.016 71.7743 277.132 74.9998 274.338C79.2201 270.683 82.1382 265.946 85.697 261.706C88.6489 258.189 92.1137 254.918 96.6065 253.542C103.874 251.315 111.774 254.453 118.908 252.092C122.475 250.912 124.863 248.31 127.263 245.562C129.289 243.242 131.334 240.961 133.187 238.497C136.53 234.053 139.695 229.13 144.221 225.773C149.529 221.835 155.589 221.292 162.02 220.977C164.094 220.874 166.17 220.831 168.245 220.823C166.712 220.674 165.192 220.505 163.627 220.493C160.661 220.47 157.554 220.607 154.642 219.954C146.861 218.209 151.563 209.547 152.249 204.43C150.746 203.919 149.266 203.344 147.828 202.683C147.648 202.6 147.414 202.422 147.473 202.184C150.887 188.731 152.461 174.472 157.965 161.665C152.836 161.721 147.689 162.067 142.556 162.045C142.592 162.11 142.613 162.186 142.61 162.278C142.123 177.816 139.005 192.845 131.981 206.806C125.647 219.393 115.881 228.991 106.027 238.834C105.916 238.946 105.743 239.018 105.554 239.058C105.171 239.279 104.535 239.408 104.303 239.185C102.966 237.904 101.736 236.489 100.583 234.995C99.2323 239.502 101.551 244.769 102.93 249.017C102.981 249.043 103.013 249.077 103.016 249.124C103.215 252.254 100.95 253.614 98.243 251.882C94.1232 249.245 90.7137 244.961 87.8829 241.032C86.6614 239.337 85.634 237.559 84.3219 235.923C82.2714 233.365 79.6219 230.636 78.443 227.516C76.0018 221.054 85.4422 219.159 89.3663 216.812C87.9508 214.313 86.5636 211.799 85.2239 209.261C85.136 209.094 85.4356 208.894 85.5351 208.835C94.8345 203.189 105.192 197.103 111.642 188.118C118.656 178.347 116.743 165.631 118.383 154.312C118.389 154.266 118.412 154.224 118.44 154.182C117.411 152.615 116.744 150.736 116.585 148.476C116.579 148.387 116.619 148.305 116.686 148.23C115.052 146.855 113.927 145.026 115.026 143.317C115.593 142.435 116.36 142.005 117.186 141.897C116.069 141.083 115.045 140.246 114.699 138.7C112.078 138.485 109.799 137.172 109.222 134.028C109.182 133.811 109.429 133.62 109.739 133.501C109.711 133.46 109.681 133.423 109.655 133.379C109.596 133.279 109.694 133.158 109.865 133.049C110.081 132.913 110.414 132.798 110.707 132.774C110.495 132.588 110.281 132.404 110.079 132.209C109.218 131.377 108.372 130.526 107.54 129.659C105.006 127.017 102.607 124.225 100.347 121.364C98.0108 118.405 92.7183 112.772 93.7424 108.541C94.6439 104.818 97.0536 102.089 99.7059 99.5106C103.063 96.2481 106.527 93.0923 110.03 89.9879C113.07 87.2935 116.104 84.5246 119.368 82.0999C123.014 79.3918 127.561 78.1477 130.972 75.0344C131.575 74.4834 132.403 73.5598 133.084 72.507C133.075 72.5026 133.064 72.4998 133.055 72.4954C128.994 70.157 125.565 67.5068 122.837 63.7099C121.284 65.867 119.903 68.1385 118.783 70.5444C118.76 70.5925 118.727 70.6356 118.69 70.6765C118.688 70.6787 118.688 70.6804 118.686 70.6826C116.476 73.3222 111.647 73.5024 109.479 70.64C106.652 66.9083 109.481 61.9656 112.065 58.9468C113.139 57.6917 114.476 56.8405 115.894 56.1005C115.614 51.8846 113.72 47.7865 115.719 43.6634C117.564 39.8571 121.101 37.124 124.655 34.9735C128.045 32.9231 132.368 30.6471 136.43 32.0758C139.86 33.2818 143.128 35.3687 145.683 38.0006C148.109 36.3823 150.822 34.3136 153.541 33.5813C155.5 33.0535 163.62 31.3015 163.664 35.4074C163.714 39.9521 154.605 41.4256 151.615 42.3033C150.276 42.6962 148.939 43.1024 147.618 43.5468C148.794 46.1826 149.56 52.0758 152.711 52.9684C153.604 53.2216 154.904 53.231 155.565 53.9599C156.182 54.6392 154.735 55.917 154.154 56.431C154.328 56.4487 154.46 56.5117 154.494 56.6361C155.024 58.5472 156.519 60.312 156.723 62.2723C156.878 63.7668 155.13 65.0546 154.108 65.8023C150.744 68.2635 144.971 69.9657 144.77 74.7791C144.934 74.7846 145.073 74.8266 145.144 74.9211C147.35 77.8443 150.316 80.8531 152.542 84.1626C152.638 84.1825 152.726 84.2195 152.799 84.2797C158.858 89.3661 163.85 94.9029 172.152 95.7447C174.767 96.0094 177.458 96.257 180.179 96.42C183.168 96.5991 186.192 96.6687 189.193 96.5482C194.178 96.3482 199.095 95.6148 203.668 93.9097C203.843 93.8445 204.022 93.834 204.186 93.8583C204.307 93.8379 204.411 93.834 204.476 93.8545C205.058 94.033 205.448 94.374 205.696 94.8239C207.32 92.2799 211.374 92.3893 213.649 94.9388C214.812 86.9238 215.68 78.8656 216.629 70.8241C217.021 67.503 217.393 64.1763 217.866 60.8652C217.933 60.3965 217.943 59.6714 218.081 59.0264C217.446 58.9971 217.394 58.3709 218.225 58.1664C218.302 58.1476 218.378 58.1338 218.455 58.1161C218.564 57.9686 218.689 57.8393 218.855 57.7591C219.146 57.6193 219.671 57.5375 219.923 57.8028C219.927 57.8072 219.931 57.8116 219.935 57.8155C225.886 56.7847 231.345 58.1233 236.755 61.0316C243.238 64.5162 249.249 68.1142 256.925 67.204C257.728 67.1089 257.666 67.5781 257.274 67.8799C257.686 67.8147 258.087 67.8324 258.038 67.9407C254.992 74.8128 248.819 79.7416 241.441 81.2427C239.335 81.6711 236.974 81.7125 234.537 81.681C231.125 81.6368 227.566 81.4544 224.348 81.9911C222.978 82.2193 221.67 82.5769 220.463 83.1335C219.494 83.5806 218.591 84.1576 217.771 84.8938C217.621 85.0281 217.471 85.1635 217.327 85.3088C217.261 85.3757 217.11 85.4387 216.93 85.4907C216.895 85.5006 216.859 85.5106 216.822 85.52C216.709 85.5476 216.589 85.5703 216.473 85.5868C216.081 88.7792 215.668 91.9692 215.203 95.1511C215.647 94.9372 216.147 94.7957 216.677 94.741C216.895 94.7183 217.053 94.7498 217.164 94.8123C217.274 94.7664 217.4 94.7382 217.542 94.741C219.491 94.7786 222.463 95.5169 223.025 97.7537C223.55 99.8434 221.325 101.082 219.476 101.442C219.489 101.453 219.504 101.464 219.515 101.475C219.524 101.484 219.535 101.489 219.544 101.499C220.537 102.545 221.353 103.881 220.893 105.361C220.568 106.41 219.555 107.247 218.548 107.617C218.447 107.654 218.343 107.685 218.24 107.717C218.428 109.619 218.06 111.787 215.903 112.312C215.125 112.501 214.327 112.464 213.55 112.293C213.447 112.332 213.332 112.357 213.204 112.358C213.004 112.358 212.799 112.361 212.595 112.363C212.687 112.411 212.47 112.815 212.399 113.265C212.261 114.131 212.138 115.001 212.018 115.87C211.603 118.87 211.22 121.875 210.84 124.879C209.632 134.44 208.481 144.008 207.338 153.577C205.257 170.98 203.216 188.386 201.201 205.796C200.47 212.108 199.742 218.419 199.026 224.733C198.818 226.573 198.609 228.412 198.407 230.252C198.368 230.606 198.239 231.596 198.2 232.009C200.803 235.479 203.95 237.916 208.29 239.427C211.585 240.574 214.878 241.756 218.23 242.729C221.263 243.61 224.433 244.405 227.251 245.866C232.511 248.593 236.601 253.461 242.332 255.287C247.326 256.878 253.357 257.394 257.219 261.344C261.764 265.992 262.924 272.544 265.839 278.149C271.197 288.451 283.771 301.349 296.494 297.731C297.445 297.458 297.646 298.23 296.695 298.501ZM212.55 112.362C212.548 112.362 212.546 112.362 212.543 112.362C212.542 112.363 212.542 112.363 212.541 112.364C212.544 112.364 212.547 112.363 212.55 112.362ZM216.623 108.034C215.039 108.166 213.422 107.793 212.083 106.933C212.016 106.944 211.949 106.95 211.883 106.945C211.216 106.895 210.283 106.799 209.721 107.113C209.743 107.101 209.64 107.179 209.625 107.245C209.585 107.421 209.59 107.558 209.644 107.73C209.987 108.822 211.136 109.675 212.066 110.245C212.99 110.813 214.446 111.576 215.525 111.313C216.771 111.01 216.745 109.135 216.623 108.034ZM218.13 102.249C216.687 101.41 214.752 101.382 213.191 101.905C211.713 102.4 210.794 103.602 212.061 104.944C213.496 106.463 216.043 107.715 218.101 106.664C220.132 105.628 219.367 103.594 218.13 102.249ZM214.4 100.588C214.519 100.571 214.638 100.556 214.757 100.543C214.694 100.497 214.636 100.445 214.576 100.395C214.521 100.461 214.465 100.526 214.4 100.588ZM215.019 97.3939C215.128 97.7664 215.195 98.1428 215.204 98.5119C215.791 99.8738 217.383 100.593 218.833 100.361C219.947 100.184 222.232 99.472 221.3 97.8741C220.515 96.5284 218.891 95.9502 217.396 95.9215C217.188 95.9176 217.031 95.8696 216.92 95.7961C216.807 95.8596 216.678 95.906 216.532 95.9215C215.644 96.0144 215.109 96.6317 215.019 97.3939ZM248.048 78.1239C251.834 75.6943 254.639 72.3439 256.458 68.2397C256.476 68.1982 256.512 68.1601 256.558 68.1253C250.005 68.8604 244.373 66.7364 238.716 63.5977C232.586 60.197 226.79 57.4579 219.781 58.7075C219.78 58.7125 219.779 58.7153 219.778 58.7202C219.718 59.0463 219.663 59.373 219.613 59.7007C219.436 60.8691 219.281 62.0408 219.133 63.2136C218.707 66.57 218.316 69.9304 217.922 73.2907C217.47 77.1413 217.031 80.9946 216.561 84.844C221.15 80.905 228.146 81.2035 233.825 81.2576C238.817 81.3057 243.718 80.9039 248.048 78.1239ZM206.009 97.285C205.796 99.31 204.853 101.672 204.528 102.87C203.95 104.999 203.203 107.046 201.852 108.473C204.091 111.056 207.682 111.267 211.008 111.241C210.909 111.182 210.807 111.124 210.711 111.062C209.645 110.369 207.856 109.063 207.977 107.585C208.083 106.293 209.473 105.909 210.772 105.825C210.71 105.757 210.646 105.692 210.587 105.622C209.205 103.965 209.996 102.318 211.626 101.436C210.427 101.247 209.297 100.459 208.497 99.4979C208.236 99.184 209.746 98.6341 210.005 98.9458C210.729 99.8157 213.095 101.983 213.545 99.7168C213.589 99.4963 213.604 99.2697 213.604 99.042C213.536 98.8585 213.478 98.6678 213.443 98.4611C213.398 98.2013 213.383 97.9532 213.395 97.7155C213.121 96.8174 212.612 95.9657 212.011 95.3329C211.177 94.4558 210.03 93.6174 208.768 93.5676C207.069 93.4996 206.632 95.5269 206.593 96.8456C206.587 97.0413 206.322 97.1916 206.009 97.285ZM200.796 108.254C201.102 107.91 201.355 107.538 201.534 107.165C202.255 105.667 202.715 104.101 203.126 102.494C203.539 100.877 205.371 96.6052 203.976 94.977C201.835 95.7491 199.614 96.3349 197.342 96.7704C197.268 98.8087 196.502 100.813 195.978 102.76C195.542 104.383 194.428 107.465 195.709 108.999C196.959 110.495 198.852 109.967 200.202 108.829C200.2 108.583 200.469 108.364 200.796 108.254ZM129.922 83.3612C124.499 86.6436 119.932 91.0219 115.418 95.4219C111.743 99.0027 105.477 102.113 103.629 107.124C101.897 111.821 105.431 116.517 108.404 119.844C111.557 123.373 115.135 126.467 118.43 129.855C118.591 129.709 118.726 129.58 118.827 129.477C119.239 129.053 120.452 127.807 121.223 126.682C120.879 126.786 120.492 126.783 120.307 126.578C117.402 123.369 115.575 119.507 112.915 116.136C111.693 114.587 107.646 110.687 108.35 108.383C109.06 106.061 112.516 104.294 114.353 103.01C118.053 100.425 122.337 97.8404 125.363 94.4994C125.458 94.3939 125.615 94.3193 125.789 94.2729C126.218 94.0087 127.109 93.8738 127.166 94.1595C127.851 97.6188 128.57 101.164 128.771 104.703C132.645 98.1151 133.833 89.0632 129.956 83.3369C129.943 83.3463 129.935 83.3534 129.922 83.3612ZM132.437 75.2267C138.618 77.6353 143.696 80.4601 146.581 86.8221C149.139 92.4622 148.483 99.7809 147.369 105.944C147.627 115.419 147.889 124.893 147.898 134.373C147.898 134.382 147.895 134.391 147.895 134.401C148.995 134.003 149.991 133.423 150.814 132.586C150.706 132.531 150.676 132.439 150.787 132.299C152.747 129.829 152.685 124.876 152.986 121.922C153.53 116.592 153.835 111.236 154.013 105.883C154.069 104.211 154.131 102.531 154.172 100.849C154.143 100.812 154.144 100.767 154.174 100.719C154.236 98.0853 154.243 95.4479 154.079 92.8314C153.672 86.3059 148.07 81.1604 144.174 76.2111C143.939 76.2558 143.716 76.2525 143.581 76.1647C140.943 74.4452 137.434 73.5294 134.271 73.1343C133.756 73.892 133.132 74.5867 132.437 75.2267ZM123.772 97.5658C123.486 102.117 122.727 106.671 122.697 111.234C124.502 110.123 126.136 108.522 127.526 106.612C127.348 106.604 127.224 106.561 127.222 106.473C127.161 102.89 126.492 99.2907 125.797 95.7673C125.157 96.3957 124.477 96.9921 123.772 97.5658ZM119.919 123.585C121.771 120.229 121.125 116.072 121.087 112.391C121.039 107.867 121.77 103.367 122.108 98.8585C120.403 100.12 118.623 101.296 116.956 102.498C115.78 103.347 114.573 104.152 113.407 105.013C112.553 105.644 110.059 107.018 109.962 108.222C109.741 110.929 113.539 114.31 115.045 116.309C116.821 118.667 118.212 121.214 119.919 123.585ZM120.718 124.643C120.805 124.752 120.894 124.86 120.982 124.968C121.204 125.241 121.431 125.51 121.667 125.775C121.684 125.795 121.7 125.815 121.717 125.835C122.074 125.049 121.944 124.496 120.718 124.643ZM121.325 123.852C121.184 123.848 121.043 123.843 120.902 123.84C120.67 123.912 120.407 123.95 120.195 123.951C120.229 123.998 120.266 124.045 120.301 124.092C120.434 124.016 120.586 123.954 120.741 123.928C120.912 123.898 121.113 123.871 121.325 123.852ZM125.83 134.097C126.42 134.371 127.045 134.591 127.696 134.763C127.903 134.818 128.111 134.871 128.323 134.917C128.346 131.413 128.527 127.92 128.051 124.436C128.043 124.38 128.05 124.328 128.062 124.278C126.307 124.178 124.545 124.013 122.799 123.914C122.994 123.962 123.169 124.031 123.306 124.129C123.608 124.082 123.895 124.117 124.009 124.304C125.422 126.638 127.744 129.266 126.479 132.11C126.211 132.715 125.836 133.313 125.394 133.885C125.536 133.961 125.683 134.028 125.83 134.097ZM131.505 135.325C133.037 135.413 134.589 135.382 136.052 135.341C136.263 135.335 136.472 135.329 136.679 135.323C137.574 131.425 136.998 127.432 136.899 123.472C134.565 124.237 132.142 124.406 129.691 124.346C130.13 127.862 129.953 131.385 129.935 134.92C129.934 135.013 129.896 135.098 129.837 135.173C130.387 135.243 130.944 135.292 131.505 135.325ZM139.309 135.281C141.586 135.281 144.122 135.319 146.4 134.821C146.389 134.809 146.377 134.797 146.368 134.785C146.314 134.715 146.282 134.627 146.282 134.518C146.275 127.11 146.113 119.706 145.919 112.301C144.658 116.547 142.564 120.882 138.717 122.749C138.646 122.784 138.574 122.809 138.503 122.842C138.562 126.995 139.238 131.197 138.267 135.288C138.607 135.283 138.954 135.281 139.309 135.281ZM183.91 109.255C185.729 109.424 187.554 109.605 189.381 109.647C190.583 109.675 193.048 110.023 193.992 109.077C194.02 109.049 194.059 109.023 194.103 108.999C193.337 107.494 193.84 105.012 194.49 102.564C194.31 102.804 193.795 103.088 193.474 103.092C186.69 103.178 179.717 105.041 172.958 103.732C169.642 103.09 166.155 102.286 163.104 100.793C160.631 99.5836 158.441 97.7305 155.8 96.9014C155.803 98.0422 155.791 99.1835 155.768 100.325C161.306 103.742 166.199 107.727 172.942 108.262C176.603 108.554 180.253 108.916 183.91 109.255ZM171.591 96.8976C167.929 96.4504 164.377 95.5092 161.313 93.3769C158.924 91.7145 156.746 89.7618 154.566 87.8208C155.187 89.2799 155.595 90.8014 155.681 92.4026C155.744 93.572 155.776 94.7443 155.791 95.9176C155.932 95.8856 156.061 95.8751 156.154 95.8972C158.694 96.5096 160.656 98.0394 162.906 99.2802C165.992 100.982 169.508 102.047 172.956 102.715C180.013 104.081 187.025 102.328 194.112 102.239C194.379 102.235 194.509 102.286 194.545 102.364C195.082 100.358 195.689 98.4025 195.748 97.0512C187.792 98.3185 179.322 97.8415 171.591 96.8976ZM146.067 44.0945C143.685 44.9777 141.383 46.0455 139.276 47.5289C139.064 47.6787 138.858 47.8379 138.648 47.9898C138.739 48.0114 138.818 48.0484 138.869 48.1087C141.679 51.4005 138.569 58.1029 135.58 60.3855C135.595 60.3998 135.611 60.4115 135.626 60.4264C136.06 60.8608 134.543 61.4616 134.139 61.0575C133.499 60.4175 132.835 60.2744 132.244 60.4291C131.74 60.7757 131.118 61.3317 130.614 61.9181C130.238 62.7095 130.208 63.6165 130.765 64.1493C131.216 64.5815 131.661 64.7882 132.235 64.9866C133.133 65.2961 133.878 65.605 134.586 66.2439C136.002 67.5229 135.96 68.7675 135.467 70.5881C135.308 71.1756 135.08 71.7294 134.802 72.2572C137.576 72.5639 140.625 73.2885 143.23 74.5409C143.711 71.1242 146.859 69.2738 149.75 67.5892C151.346 66.659 155.699 64.6555 155.076 62.3033C154.591 60.4717 153.402 58.9153 152.889 57.0644C152.87 56.9959 152.889 56.9295 152.932 56.8654C152.603 56.8864 152.367 56.8411 152.53 56.6875C154.201 55.1189 154.472 54.3424 152.236 53.8196C151.08 53.5488 150.308 53.1901 149.546 52.2461C147.704 49.9613 147.24 46.7413 146.067 44.0945ZM117.466 55.3196C118.485 54.8315 119.51 54.3457 120.482 53.7637C123.13 52.177 125.76 50.5587 128.379 48.9222C133.726 45.5796 139.034 42.1728 144.384 38.834C142.242 36.568 139.519 34.6082 136.656 33.4393C131.922 31.5076 127.547 34.0798 123.709 36.7886C120.612 38.9739 117.201 41.813 116.569 45.8007C116.049 49.0808 117.186 52.1074 117.466 55.3196ZM117.29 70.3294C119.903 64.7456 123.936 59.777 128.251 55.4196C132.243 51.3894 136.743 47.1033 141.927 44.6527C145.255 43.0792 148.745 42.0402 152.267 41.0017C154.89 40.2285 160.32 39.4332 161.749 36.7023C163.473 33.4067 157.135 33.8217 155.612 34.1655C154.076 34.512 152.941 34.9818 151.594 35.7572C149.863 36.7532 148.15 37.7812 146.444 38.8202C146.768 39.232 145.763 39.6946 145.207 39.5758C137.687 44.2039 130.342 49.1317 122.781 53.6853C121.639 54.3728 120.507 55.1245 119.312 55.718C118.716 56.0148 118.025 56.2868 117.328 56.5797C117.153 56.7328 116.888 56.84 116.631 56.8837C115.633 57.3352 114.682 57.8625 114.043 58.6097C112.186 60.7795 109.958 63.5977 109.917 66.6297C109.868 70.3012 114.429 73.6162 117.29 70.3294ZM127.095 78.8479C139.552 85.4221 133.259 106.626 122.703 112.278C122.705 112.41 122.701 112.541 122.705 112.673C122.808 116.039 123.227 119.922 121.67 123.038C126.434 123.153 132.435 124.555 136.966 122.678C137.115 122.462 137.455 122.321 137.779 122.298C138.896 121.707 139.906 120.882 140.759 119.741C143.646 115.882 145.057 111.002 145.756 106.23C145.747 105.895 145.739 105.56 145.729 105.225C145.725 105.074 145.81 104.943 145.939 104.84C145.962 104.653 145.985 104.465 146.006 104.279C146.733 97.6586 147.203 91.6111 144.026 85.599C141.265 80.3756 136.688 78.1073 131.462 76.0635C130.098 77.139 128.562 78.0482 127.095 78.8479ZM112.493 132.417C112.843 132.705 112.01 133.15 111.417 133.156C112.462 134.193 115.425 132.289 117.334 130.779C117.226 130.754 117.13 130.71 117.061 130.638C113.233 126.688 108.881 123.184 105.502 118.814C103.06 115.655 100.198 111.112 102.113 106.999C104.597 101.664 110.61 98.4694 114.652 94.4563C119.001 90.1371 123.624 85.9151 128.887 82.7295C129.03 82.6421 129.218 82.6018 129.406 82.5968C128.442 81.392 127.222 80.3678 125.72 79.5825C125.666 79.6106 125.61 79.6405 125.557 79.6687C118.958 83.134 113.667 88.0949 108.157 93.0956C106.915 94.2231 105.24 95.5844 103.516 97.1114C101.696 98.7236 99.8231 100.521 98.3397 102.431C95.8719 105.609 94.4886 109.094 96.2638 112.537C98.6066 117.084 102.012 121.139 105.366 124.968C107.601 127.519 109.864 130.25 112.493 132.417ZM115.001 137.815C115.457 137.567 116.169 137.534 116.226 137.923C116.227 137.932 116.23 137.939 116.231 137.948C118.112 137.99 120.114 137.331 121.609 136.102C123.077 134.895 125.741 132.484 125.272 130.275C124.941 128.715 124.048 127.305 123.173 125.944C122.243 127.557 120.844 128.9 119.538 130.201C118.293 131.442 113.608 134.817 110.999 134.312C111.625 136.327 113.177 137.449 115.001 137.815ZM119.283 148.508C122.24 150.247 125.078 148.426 125.551 145.234C126.039 141.945 125.022 138.678 123.653 135.702C122.74 136.485 121.732 137.137 120.758 137.572C119.454 138.154 117.931 138.57 116.423 138.694C117.211 140.902 119.732 141.541 121.138 143.436C121.571 144.019 120.053 144.461 119.656 144.081C119.322 143.763 116.61 141.489 116.424 143.73C116.348 144.341 116.426 144.928 116.657 145.49C117.238 146.669 118.129 147.83 119.283 148.508ZM99.5943 233.676C96.9425 230.009 94.687 225.959 92.4652 222.185C91.5311 220.597 90.6109 219.001 89.6995 217.4C85.7506 219.31 77.9119 221.446 79.8568 226.594C81.5933 231.19 85.6246 234.493 88.1454 238.625C90.1218 241.865 92.7222 244.875 95.3789 247.572C96.6297 248.841 97.9346 250.156 99.4434 251.122C101.242 252.274 101.529 251.62 101.42 249.686C101.407 249.664 101.392 249.643 101.384 249.618C99.8026 244.687 97.1133 238.721 99.5943 233.676ZM141.223 162.031C138.427 161.982 135.635 161.807 132.854 161.397C128.006 160.681 122.925 159.14 119.749 155.824C119.11 160.919 118.876 166.025 118.536 171.151C118.256 175.365 117.764 179.648 115.897 183.497C111.45 192.664 102.667 198.774 94.404 204.232C92.5017 205.488 90.5866 206.726 88.6533 207.934C88.1001 208.28 87.5463 208.625 86.9897 208.967C86.9632 208.983 86.9427 208.996 86.9195 209.01C88.0813 211.199 89.2751 213.372 90.4888 215.532C93.0245 220.044 95.626 224.529 98.4419 228.873C100.47 232.001 102.553 235.255 105.173 237.945C114.743 228.395 124.43 218.972 130.458 206.661C137.32 192.649 140.505 177.957 140.992 162.421C140.997 162.267 141.088 162.135 141.223 162.031ZM159.641 205.04C165.216 206.099 172.217 206.946 177.152 203.476C177.233 203.418 177.325 203.378 177.42 203.351C178.318 193.449 178.811 183.499 180.075 173.634C181.21 164.779 184.299 156.046 184.359 147.072C184.381 143.695 184.027 140.123 181.088 137.968C178.1 135.778 174.263 135.004 170.645 134.64C163.355 133.908 156.101 134.67 148.819 135.055C148.689 135.062 148.594 135.056 148.527 135.041C145.64 136.066 142.247 136.018 139.189 136.113C134.946 136.244 129.365 136.785 125.19 135.126C126.658 138.256 128.091 142.275 127.023 145.648C126.207 148.228 123.796 150.909 120.801 150.38C120.142 150.263 119.252 149.908 118.352 149.392C119.708 157.224 127.759 159.936 135.029 160.757C142.792 161.633 150.546 160.95 158.322 160.855C159.224 158.829 160.224 156.839 161.354 154.897C161.72 154.269 163.352 154.311 162.891 155.102C161.791 156.992 160.824 158.934 159.942 160.908C160.09 160.999 159.972 161.169 159.756 161.326C155.05 172.066 153.186 183.882 150.687 195.3C150.313 197.008 149.935 198.714 149.516 200.411C149.309 201.245 148.93 201.683 149.794 202.045C150.368 202.286 150.944 202.526 151.528 202.741C154.166 203.711 156.876 204.515 159.641 205.04ZM169.427 220.124C173.102 220.528 176.909 220.507 180.584 220.114C183.349 219.818 188.298 218.905 184.198 215.974C184.184 215.964 184.177 215.952 184.171 215.939C184.092 215.94 184.022 215.931 183.967 215.909C179.316 214.058 173.753 212.108 171.699 207.098C171.654 206.988 171.705 206.878 171.808 206.779C169.117 207.253 166.295 207.205 163.635 206.918C160.287 206.559 156.945 205.897 153.708 204.909C152.757 209.724 148.815 218.002 155.946 219.293C160.38 220.096 164.96 219.632 169.427 220.124ZM196.75 229.902C196.857 229.389 196.962 228.919 196.997 228.604C197.405 224.965 197.821 221.326 198.239 217.688C199.554 206.223 200.887 194.76 202.231 183.299C204.221 166.322 206.222 149.345 208.315 132.379C208.979 127.003 209.635 121.624 210.377 116.258C210.541 115.068 210.684 113.866 210.918 112.687C210.937 112.589 210.988 112.483 211.056 112.378C207.329 112.406 203.297 112.226 200.657 109.463C199.932 109.915 199.075 110.228 198.05 110.359C196.372 110.573 195.294 110.295 194.629 109.691C193.881 110.114 192.997 110.323 192.096 110.42C191.183 110.518 190.254 110.505 189.436 110.486C189.035 110.476 188.635 110.46 188.235 110.443C184.322 110.279 180.429 109.782 176.53 109.432C172.244 109.048 167.916 108.933 163.991 106.956C161.099 105.5 158.448 103.613 155.731 101.851C155.701 102.93 155.666 104.006 155.63 105.081C155.439 110.808 155.156 116.548 154.526 122.245C154.232 124.912 154.22 128.957 152.776 131.531C152.969 131.576 153.061 131.683 152.92 131.874C152.156 132.91 151.243 133.679 150.234 134.259C157.561 133.843 164.947 133.034 172.267 133.967C178.882 134.81 185.61 137.055 185.929 144.721C186.313 153.972 183.061 162.903 181.848 171.982C180.421 182.663 179.922 193.445 178.915 204.168C178.885 204.488 178.023 204.748 177.582 204.662C176.203 205.519 174.703 206.114 173.137 206.503C173.212 206.542 173.271 206.595 173.302 206.67C175.288 211.514 180.755 213.366 185.247 215.154C185.371 215.203 185.416 215.268 185.409 215.339C185.529 215.338 185.633 215.357 185.702 215.407C188.929 217.714 186.924 219.493 183.826 220.204C182.151 220.59 180.429 220.837 178.691 220.981C181.25 221.042 183.809 221.098 186.366 221.113C186.49 221.078 186.603 221.061 186.688 221.07C186.793 221.082 186.89 221.104 186.993 221.119C187.021 221.119 187.05 221.119 187.078 221.119C187.257 221.12 187.373 221.147 187.445 221.19C192.152 222.077 194.322 226.014 196.75 229.902Z" fill="#340679"/>
</svg>
