<svg width="100" height="100" viewBox="0 0 100 100" fill="none" xmlns="http://www.w3.org/2000/svg">
<path d="M52.1867 85.0034C50.8986 87.4365 49.4672 89.2972 46.1754 88.1523C42.8835 87.0073 37.3015 81.7115 36.4427 80.9959C35.5839 80.2803 33.0076 78.5628 31.0039 78.9922C29.0002 79.4216 24.5631 80.5665 24.5631 80.5665C24.5631 80.5665 31.5765 75.9865 31.4333 73.267C31.2901 70.5475 31.2901 68.2576 28.7138 65.5381C26.1375 62.8186 26.1375 62.8186 26.1375 62.8186C26.1375 62.8186 21.7004 60.6716 21.7004 56.521C21.7004 52.3704 23.2748 50.0802 23.2748 50.0802L25.2785 48.0765L26.4235 47.3609L27.7116 47.7903C27.7116 47.7903 30.7173 46.8603 31.4329 47.4329C32.1484 48.0054 34.5818 49.6511 34.5818 49.6511L30.5026 44.2842C30.5026 44.2842 38.16 44.3555 39.4482 44.3555C40.7363 44.3555 47.8927 45.071 47.8927 45.071C47.8927 45.071 47.7495 50.2236 47.3201 52.0844C46.8907 53.9451 46.6045 54.8039 46.6045 54.8039L46.7477 55.3765C46.7477 55.3765 39.3052 55.2333 38.7326 55.2333C38.16 55.2333 37.4445 54.9471 37.4445 54.9471L36.2278 56.9512L36.371 58.4541L35.8701 62.8192L50.183 61.2449C50.183 61.2449 53.1887 67.5424 53.4749 70.5481C53.7611 73.5538 53.4749 82.5702 52.1867 85.0034Z" fill="#A358E7"/>
<path fill-rule="evenodd" clip-rule="evenodd" d="M21.8767 37.9523C22.0725 38.2293 21.4836 38.4811 21.3092 38.2342C21.1804 38.0519 21.0202 37.9319 20.7952 37.9993C20.6664 38.038 20.4638 38.0066 20.4232 37.8546C20.3809 37.6971 20.5445 37.5818 20.6731 37.5431C21.1379 37.4036 21.5965 37.5558 21.8767 37.9523ZM32.248 36.516C32.4011 36.6262 32.56 36.7516 32.6184 36.9371C32.7053 37.2137 32.3386 37.4621 32.132 37.6021C32.1221 37.6088 32.1125 37.6153 32.1034 37.6215C32.0967 37.6261 32.0902 37.6305 32.084 37.6348C31.9799 37.7069 32.0114 37.796 32.131 37.8102C32.2809 37.828 32.4481 37.7774 32.5709 37.6923C32.9694 37.4167 33.499 36.9901 33.0832 36.5057C32.9398 36.3386 32.7512 36.2164 32.563 36.0944C32.2913 35.9183 32.0203 35.7426 31.8871 35.4331C31.8083 35.25 31.2001 35.4492 31.2651 35.5997C31.4157 35.9502 31.7344 36.1658 32.0431 36.3746C32.1126 36.4216 32.1816 36.4683 32.248 36.516ZM30.9148 40.0271C31.249 39.7691 30.7291 39.6478 30.5197 39.8092C29.898 40.289 29.1775 39.8981 28.6431 39.4693C28.4568 39.3197 27.8762 39.569 28.0679 39.7231C28.8997 40.3904 29.9933 40.7386 30.9148 40.0271ZM27.3786 34.3601C27.2845 33.9537 27.2753 33.5456 27.2751 33.1303C27.2749 32.8083 26.6454 32.9066 26.6454 33.1802C26.6456 33.6329 26.654 34.0836 26.7566 34.5267C26.8219 34.8101 27.4449 34.6467 27.3786 34.3601ZM32.7459 34.4674C32.6518 34.061 32.6426 33.6529 32.6424 33.2377C32.6422 32.9157 32.0127 33.014 32.0127 33.2875C32.0129 33.7403 32.0213 34.1909 32.1239 34.634C32.1892 34.9174 32.8122 34.7541 32.7459 34.4674ZM27.2077 30.6723C27.4565 30.7646 27.9378 30.407 27.5716 30.2713C26.6415 29.9263 25.7598 30.3892 25.0921 31.0332C24.8151 31.3005 25.4212 31.3787 25.6078 31.1988C26.0533 30.7689 26.5803 30.4396 27.2077 30.6723ZM48.1468 82.8808C46.6467 84.2407 44.2263 81.9724 42.9821 80.8063C42.8682 80.6996 42.7641 80.6021 42.6715 80.5174C42.5118 80.3714 41.9285 80.6085 42.0934 80.7592C42.2008 80.8574 42.3129 80.9614 42.4292 81.0694C43.7574 82.3023 45.6378 84.0477 47.5148 83.5313C48.5987 83.2333 49.1977 82.433 49.8473 81.5651L49.8667 81.5392C50.7087 80.4142 51.4965 79.0994 51.5673 77.6642C51.5798 77.4123 50.9556 77.5409 50.9456 77.744C50.8537 79.6035 49.5058 81.6489 48.1468 82.8808ZM92.9653 54.2788C92.9276 54.3145 92.8797 54.3475 92.8105 54.3713C89.6305 55.4665 86.7047 57.6579 84.0369 59.6561L83.9964 59.6865C82.6365 60.705 81.2962 61.7561 80.0254 62.885C79.9187 62.9797 79.8094 63.0752 79.6989 63.1717C79.0528 63.7358 78.365 64.3363 77.9199 65.0542C77.8005 65.2468 77.17 65.2867 77.3351 65.0205C77.3403 65.012 77.3462 65.0039 77.352 64.9957C77.3574 64.9881 77.3628 64.9805 77.3677 64.9726C77.3068 64.9739 77.2557 64.9632 77.2286 64.934C75.1865 62.722 73.7439 59.9937 72.3955 57.3159C70.95 57.4902 69.4996 57.3443 68.0511 57.1986C67.6265 57.1559 67.2021 57.1132 66.778 57.0786C66.71 57.073 66.6647 57.0576 66.6346 57.037C64.299 57.8655 61.8989 58.4692 59.4809 59.0123C57.6305 59.4279 55.7922 59.8806 53.9531 60.3336L53.9527 60.3337C53.0591 60.5538 52.1652 60.7739 51.2697 60.9899C51.0042 61.0539 50.7382 61.1159 50.4724 61.1773C50.9246 61.9547 51.2318 62.8559 51.527 63.7221C51.6037 63.9473 51.6796 64.17 51.7571 64.3876C52.5334 66.5689 53.3183 68.8051 53.6586 71.1043C54.0998 74.0863 54.2061 77.323 53.8778 80.3238C53.6056 82.8101 53.0465 85.8581 51.0123 87.5492C49.6473 88.6839 47.7003 88.6027 46.0987 88.1055C42.8576 87.0992 40.3605 84.8292 37.8943 82.5871C37.2263 81.9798 36.5605 81.3745 35.8827 80.797C32.6718 78.0605 28.0688 79.5844 24.5451 80.8478C24.3428 80.9204 24.1006 80.8272 24.1146 80.7147C24.0343 80.6553 24.0249 80.5657 24.1803 80.4711L24.2643 80.4199C26.7695 78.8937 29.7397 77.0841 30.869 74.2332C32.531 70.0374 29.215 65.9523 26.4597 63.1316C26.4479 63.1194 26.4393 63.1072 26.4324 63.0949C24.7625 62.5378 23.1582 61.6179 22.3279 60.0762C20.5018 56.6844 21.4711 51.2693 24.4334 48.5603C24.1374 47.7131 24.652 46.8601 25.2765 46.1437C25.3064 46.1093 25.3658 46.0806 25.4356 46.0589C25.3755 45.9644 25.316 45.8695 25.2566 45.7746C24.532 47.642 22.6528 48.9231 20.6849 49.1485C20.072 49.2187 19.3624 49.1013 18.9942 48.5644C18.7381 48.191 18.863 47.7517 19.0934 47.3586L19.0552 47.3621C19.0327 47.3642 19.0094 47.3663 18.9853 47.3685C18.9689 47.3701 18.952 47.3716 18.9347 47.3732C15.829 48.4422 11.5485 47.7902 12.5577 43.6389C11.3842 43.7286 10.0739 43.5749 9.0548 42.9987C8.70099 42.7986 8.33859 42.4321 8.36199 41.9926C8.37831 41.6858 8.48651 41.393 8.67115 41.1452C8.70951 41.0938 8.75437 41.0454 8.79778 40.9986C8.97426 40.8083 9.12666 40.644 8.71967 40.4043C8.61145 40.3405 8.50311 40.2768 8.39482 40.2131L8.39286 40.212L8.27053 40.14C6.66249 39.1814 6.00231 37.9807 5.9115 36.0888C5.84494 34.7062 6.08046 33.3925 7.43624 32.8661C5.56219 31.4302 4.84448 27.7697 7.87872 27.4474C7.88631 27.4467 7.89313 27.4466 7.89987 27.4465C7.90438 27.4465 7.90885 27.4464 7.9135 27.4462C7.35831 25.3626 7.14984 22.9778 9.12351 21.5825C9.35859 21.4163 9.62503 21.2585 9.90391 21.129C10.119 20.9906 10.3391 20.9017 10.5592 20.8916C11.2022 20.7269 11.8355 20.7834 12.2481 21.2909C12.5826 20.8109 13.0341 20.3864 13.4371 20.0197C14.3472 19.1917 15.333 18.4334 16.4059 17.8269C17.3213 17.3095 19.8029 16.1282 19.9663 17.9123C22.5905 16.0926 25.8431 14.9577 29.0508 15.0906C29.0907 15.0923 29.1313 15.0939 29.1726 15.0956C30.1192 15.1337 31.3973 15.1852 32.1392 15.8148C33.0114 16.555 32.3143 17.4967 31.6952 18.1562C33.8245 18.1772 38.5765 19.1434 36.6327 22.1493C38.4466 22.3919 40.2953 24.9179 39.0518 26.5026C39.0523 26.5028 39.0528 26.5029 39.0533 26.503C39.0538 26.5031 39.0543 26.5032 39.0548 26.5034C41.4759 27.4719 40.9018 30.5772 39.7214 32.3776C39.8316 32.4234 39.9595 32.4951 40.0868 32.6067C42.2524 33.7633 40.3103 38.2976 38.7787 39.6508C38.795 39.6634 38.8114 39.6763 38.8279 39.6896C38.8798 39.6845 38.9254 39.6879 38.9548 39.7068C40.9542 40.9861 38.1293 43.0255 36.9882 43.7273C36.7132 43.8965 36.4349 44.052 36.1541 44.1919C36.1507 44.1941 36.1473 44.1963 36.1439 44.1985L36.1384 44.202C36.1332 44.2054 36.128 44.2088 36.1228 44.2121C39.9688 43.7634 43.8453 44.2209 47.6236 45.0086C47.8074 44.9303 48.0959 44.9109 48.0964 44.9871C48.0995 45.5505 48.1227 46.1354 48.1463 46.7313C48.174 47.4337 48.2024 48.1514 48.1994 48.8671C48.2157 48.8703 48.231 48.8748 48.2447 48.8812C50.7777 50.079 53.459 50.5816 56.0539 50.4139L56.6083 50.3682C60.2095 50 63.6075 48.3237 66.164 45.3871C66.1498 45.3577 66.1494 45.3201 66.172 45.272C66.2278 45.1529 66.2837 45.033 66.3397 44.9126C67.1186 43.2409 67.9387 41.4806 69.3653 40.2729C70.1279 39.6274 71.2389 39.3307 72.1836 39.6374C72.7293 39.1997 73.4844 38.8092 74.1488 39.0863C74.4765 38.7688 74.9013 38.5447 75.3638 38.6801C75.6607 38.7671 75.8733 39.005 76.0263 39.2808C77.9007 38.2782 79.8885 37.5266 81.875 36.7755L81.8753 36.7754C82.4384 36.5625 83.0014 36.3496 83.5616 36.1311C83.6056 36.0712 83.6496 36.0113 83.6981 35.9533C83.8358 35.7889 84.178 35.8071 84.2651 35.9439C84.3665 35.9628 84.4053 36.0167 84.2647 36.0916C84.2546 36.1116 84.2417 36.132 84.2235 36.1539C83.1554 37.4306 83.4927 39.3684 83.9058 40.841C84.3658 42.4811 85.0346 44.0653 85.8416 45.5642C87.6399 48.9042 89.8929 51.8294 93.1087 53.9018C93.3011 54.0261 93.1583 54.2039 92.9653 54.2788ZM38.339 39.3813C38.339 39.3813 38.3453 39.3841 38.3556 39.389C38.3839 39.3631 38.412 39.3367 38.4408 39.3083C38.3764 39.3568 38.339 39.3813 38.339 39.3813ZM7.59382 27.9498C7.15757 28.0372 6.85893 28.2293 6.66807 28.4878C6.96585 28.2867 7.29905 28.1012 7.59382 27.9498ZM17.5626 47.4845C17.0042 47.524 16.423 47.5562 15.9713 47.5607C16.4997 47.6073 17.0362 47.5783 17.5626 47.4845ZM74.4911 39.2965C74.9387 39.6681 75.1551 40.2901 75.2313 40.8522C75.2702 41.1384 75.2953 41.484 75.2635 41.8192C75.2788 41.8207 75.2929 41.823 75.3041 41.8273C75.3135 41.831 75.3232 41.8349 75.3331 41.8389C75.3906 41.862 75.456 41.8882 75.5188 41.8967C75.5328 41.887 75.5547 41.8698 75.577 41.8389C75.668 41.7148 75.7195 41.5581 75.747 41.4078C75.8219 40.9962 75.7816 40.5576 75.6745 40.1549C75.577 39.7888 75.4329 39.368 75.1412 39.1082L75.1379 39.1053C75.0803 39.0539 75.0159 38.9963 74.9428 38.9689C74.9129 38.9577 74.8849 38.9544 74.8661 38.9522C74.8525 38.9507 74.8437 38.9496 74.8427 38.9466C74.7036 39.0327 74.5885 39.161 74.4911 39.2965ZM72.5664 39.8045C72.74 39.8985 72.9058 40.0138 73.0576 40.1583C73.5709 40.648 74.1624 41.8086 73.8232 42.5828C73.8283 42.5858 73.8341 42.588 73.8386 42.5914C74.2556 42.9169 74.3902 42.8875 74.5417 42.3602C74.6854 41.8606 74.6809 41.3159 74.5731 40.8095C74.4821 40.3811 74.3225 39.8962 73.9883 39.5883C73.8543 39.5995 73.7474 39.5831 73.7772 39.538C73.7837 39.5282 73.7904 39.5184 73.7971 39.5086C73.8039 39.4987 73.8108 39.4889 73.8177 39.479L73.8283 39.464C73.3732 39.1823 72.9309 39.4792 72.5664 39.8045ZM46.8044 54.3567C46.7932 54.372 46.7764 54.3859 46.7571 54.3986C46.9138 54.6264 47.0609 54.8638 47.196 55.1129C48.8064 55.0197 50.4153 54.8976 52.0218 54.7625C56.4835 54.3875 60.9328 53.896 65.3808 53.3872C66.0732 52.9523 66.6602 52.3899 67.2471 51.8278C67.9266 51.1768 68.6058 50.5262 69.4477 50.0743C69.4838 50.055 69.5207 50.0421 69.557 50.0343C69.2433 49.2168 69.0445 48.3445 68.9703 47.487C68.6828 48.1017 68.4428 48.4924 67.6752 48.729C67.3111 48.8411 67.2538 48.6082 67.6132 48.4976C68.1903 48.3197 68.4221 47.6878 68.6539 47.0559C68.8626 46.487 69.0712 45.9181 69.5319 45.6804C69.6405 45.6244 69.7534 45.5786 69.8643 45.5336C70.2415 45.3807 70.596 45.2369 70.6818 44.7312C70.8714 43.6131 69.752 43.2909 68.8522 43.913C68.7272 43.9994 68.1001 44.0526 68.3685 43.8671C68.431 43.8239 68.4971 43.7812 68.5653 43.7394C68.5417 43.7164 68.5237 43.6874 68.514 43.6513C68.477 43.5135 68.4306 43.3805 68.3846 43.2483C68.29 42.9764 68.1966 42.7082 68.1875 42.4091C68.1793 42.1405 68.7285 42.0439 68.8088 42.3052C69.2469 42.1431 69.6738 41.9529 70.1005 41.7626C70.2798 41.6827 70.459 41.6028 70.6391 41.525C70.8651 41.4271 71.1655 41.531 71.0051 41.6706C71.1092 41.6553 71.2091 41.6678 71.2602 41.7253L71.2797 41.7475C71.526 42.0266 72.6241 43.2713 73.0106 42.8645C73.2491 42.6133 73.3002 42.2065 73.2491 41.876C73.1149 41.0053 72.5286 40.1527 71.6208 39.9543C69.4003 39.4693 67.9511 42.635 67.0737 44.5955C67.2484 44.585 67.3948 44.6353 67.2929 44.766C64.4345 48.4332 60.3847 50.476 56.1078 50.7941C52.2468 50.7601 50.2182 50.1457 48.1677 49.3646C48.1385 50.513 48.0527 50.9799 47.9335 51.6286C47.9101 51.756 47.8854 51.8904 47.8596 52.0383C47.6487 52.8644 47.3179 53.6483 46.8044 54.3567ZM21.7204 17.1392C22.8398 16.6488 24.2028 16.0836 25.3315 15.7106C24.0717 16.0157 22.858 16.5048 21.7204 17.1392ZM22.8812 30.0422C22.7556 30.1049 22.6592 30.1886 22.5845 30.2818C22.7294 30.2058 22.849 30.1109 22.9465 30.001C22.9436 30.0029 22.9408 30.0048 22.9379 30.0067C22.9349 30.0087 22.9319 30.0107 22.929 30.0127C22.9133 30.0233 22.8978 30.0339 22.8812 30.0422ZM21.5634 36.3387C21.7489 36.3724 21.9344 36.4222 22.1167 36.4873C22.1196 36.476 22.1226 36.4648 22.1256 36.4536L22.1257 36.4532C22.13 36.4371 22.1343 36.4209 22.1384 36.4046C21.9761 36.3563 21.7785 36.3222 21.5634 36.3387ZM24.0839 46.8852C23.9534 47.0525 23.8134 47.2212 23.665 47.3861C23.816 47.229 23.9562 47.0617 24.0839 46.8852ZM25.0687 45.4702L25.0629 45.4608L25.0498 45.4397C25.0423 45.4528 25.0369 45.4627 25.0286 45.4773C25.0421 45.4747 25.0554 45.4724 25.0687 45.4702ZM27.2137 47.5766C28.492 47.0909 29.8057 46.7865 31.1765 47.1115C32.178 47.3488 33.0943 47.9016 33.9612 48.504C33.3866 47.8362 32.75 47.2197 32.1133 46.6033C31.2841 45.8004 30.4549 44.9974 29.7623 44.0807C29.7303 44.0384 29.8791 43.9663 29.895 43.9594C29.9611 43.9307 30.0274 43.9015 30.0938 43.8723C30.0899 43.8093 30.3935 43.6623 30.5786 43.6546C32.8485 42.6129 35.0813 41.2172 34.905 38.3637C34.9049 38.3623 34.9048 38.3609 34.9046 38.3595L34.9046 38.3591C34.9044 38.3576 34.9043 38.3561 34.9042 38.3547C34.7084 37.3128 34.4108 35.9976 34.1315 34.8223C33.932 34.2304 33.7118 33.6433 33.4915 33.0558C33.1445 32.1304 32.7972 31.2042 32.5301 30.2578C32.4004 30.3439 32.1982 30.3911 32.0857 30.3217C31.8427 30.1721 31.5758 30.1581 31.3072 30.2408C31.1952 30.2754 30.9813 30.2691 30.9431 30.1257C30.903 29.9765 31.0887 29.8784 31.201 29.8438C31.6078 29.7187 32.0548 29.7236 32.4384 29.9078C32.3021 29.3801 32.1903 28.8459 32.1239 28.3006C32.1185 28.257 32.163 28.2163 32.2291 28.1821L32.0438 28.0977C31.8744 28.0439 31.6594 27.9722 31.4134 27.8902C30.3244 27.5272 28.6266 26.9612 27.5772 26.8369C27.4638 26.8259 27.3573 26.8175 27.2601 26.8128C26.9007 26.8044 26.6667 26.8776 26.6435 27.0771C26.5121 28.2087 25.5483 28.4376 24.5917 28.4552C24.3471 28.4756 24.1554 28.4668 24.0111 28.4455C23.9729 28.4438 23.9343 28.4423 23.8967 28.4404C24.0395 29.42 23.5931 30.2644 22.6916 30.6509C23.2022 32.7941 23.2389 34.9814 22.5495 37.0944C22.4733 37.3278 21.8427 37.4081 21.9239 37.159C21.9372 37.1183 21.9493 37.0775 21.9615 37.0366C21.9683 37.0138 21.9751 36.9909 21.9821 36.968C21.4357 36.7065 21.0078 36.6556 20.6858 36.7408C20.348 37.0423 20.0829 37.3441 19.9442 37.653C19.8804 38.0479 19.9547 38.5011 20.1492 38.8867C20.1956 38.9436 20.2467 39.0009 20.3047 39.0589C20.7216 39.4758 21.1883 39.6641 21.5591 39.7484C21.6978 39.736 21.844 39.7036 21.9975 39.6482C22.1036 39.61 22.3376 39.5477 22.416 39.6793C22.8793 40.4571 23.3281 41.2438 23.7768 42.0304C24.8554 43.9212 25.9337 45.8114 27.2137 47.5766ZM30.8388 43.7885C30.8482 43.7954 30.8574 43.8023 30.8669 43.8091C30.9729 43.7509 31.1305 43.6629 31.3248 43.5498C31.1647 43.6256 30.9893 43.7104 30.8388 43.7885ZM49.8362 61.3207C45.3767 62.3141 40.8623 62.9277 36.2842 62.9792C36.2462 63.1578 35.7389 63.2716 35.6732 63.081C33.4033 63.9973 30.7407 64.0548 28.3619 63.5947C28.1008 63.5443 27.8339 63.4861 27.5649 63.4204C30.1919 66.214 33.0917 70.1744 31.5303 74.1166C30.4622 76.8131 27.9866 78.615 25.5726 80.1269C26.0277 79.9751 26.4855 79.8313 26.9477 79.7022C29.8853 78.8817 33.4593 78.1979 36.071 80.231C37.0599 81.0009 37.9999 81.8661 38.9432 82.7344C41.1971 84.8092 43.4702 86.9017 46.4759 87.7526C47.7297 88.1077 49.2327 88.3604 50.3693 87.5323C51.5965 86.6381 52.2296 85.1393 52.6268 83.7194C53.5073 80.5733 53.5015 77.2086 53.3087 73.9689C53.1532 71.3546 52.5937 68.8828 51.7719 66.4055C51.6517 66.0431 51.535 65.667 51.4164 65.2849L51.4164 65.2847C50.9949 63.9262 50.5497 62.4911 49.8362 61.3207ZM92.4177 54.1283C89.0528 51.8908 86.618 48.6496 84.8573 45.032C83.7679 42.7941 81.9134 38.9455 83.3497 36.4538C82.9441 36.6097 82.5375 36.7634 82.1309 36.9171L82.1306 36.9172C80.092 37.6878 78.0524 38.4588 76.1393 39.5112C76.1974 39.6503 76.2442 39.7914 76.2792 39.9228C76.4184 40.4464 76.5364 41.2099 76.2219 41.6994C75.9982 42.0476 75.5978 42.2002 75.2021 42.176C75.1457 42.4005 75.0548 42.6088 74.908 42.773C74.5201 43.2065 73.9762 43.2282 73.5106 42.9875C72.4743 43.7971 71.3645 42.7436 70.6839 41.9755C70.6423 41.9282 70.6461 41.8793 70.6771 41.8342C70.5592 41.8862 70.4415 41.9389 70.3239 41.9915L70.3234 41.9917C69.8378 42.2091 69.3521 42.4266 68.849 42.6002C68.8841 42.7697 68.945 42.9343 69.0057 43.0986C69.0492 43.2164 69.0927 43.3339 69.1265 43.453C69.5783 43.2696 70.0751 43.1822 70.524 43.3299C71.53 43.661 71.4384 44.5649 70.9579 45.3429C70.7913 45.6128 70.4274 45.6984 70.144 45.7633C69.9383 45.8103 69.7378 46.0411 69.5643 46.312C69.5643 46.3148 69.5654 46.3167 69.5652 46.3197C69.493 48.1086 70.0585 50.1649 71.1226 51.6323C71.6956 51.4889 72.1657 51.0655 72.6069 50.5908C72.5996 50.5211 72.6432 50.4416 72.7692 50.3736C73.3749 50.0464 74.0357 50.0912 74.151 50.8036C74.1532 50.8039 74.1555 50.8041 74.1579 50.8043L74.1609 50.8046C74.1622 50.8048 74.1634 50.8049 74.1646 50.8051C74.1657 50.8053 74.1669 50.8055 74.168 50.8057C75.755 51.1988 74.8271 54.1056 74.3745 55.0605C74.2878 55.2436 73.6662 55.3194 73.7952 55.0472C74.1072 54.389 74.8372 52.127 74.1615 51.3669C74.1224 51.9069 73.9608 52.4698 73.7366 52.9363C73.6241 53.1704 72.9953 53.1886 73.1449 52.8773C73.3577 52.4344 73.4842 51.9166 73.5273 51.4283L73.5278 51.4226C73.5479 51.1952 73.5713 50.9297 73.4715 50.716C73.3817 50.524 73.2343 50.6071 73.0894 50.6889C73.0784 50.6951 73.0674 50.7012 73.0565 50.7073C73.0505 50.7106 73.0446 50.7139 73.0387 50.7171C73.0194 50.7276 72.9998 50.736 72.9805 50.7428C72.4758 51.2368 71.9049 51.6418 71.2709 51.838C71.3735 52.028 70.8097 52.2249 70.6829 52.0623C70.6746 52.0518 70.6665 52.0411 70.6585 52.0302C70.6517 52.0209 70.6449 52.0115 70.6381 52.0021C70.6278 51.9879 70.6176 51.9737 70.6071 51.9597C70.2983 51.9782 69.9776 51.9473 69.6435 51.8498C69.4527 51.7942 70.0057 51.5591 70.153 51.6022C70.2344 51.6261 70.3136 51.6428 70.3911 51.6561C70.1242 51.2587 69.8921 50.8287 69.6968 50.377C68.8916 50.811 68.2396 51.4449 67.5865 52.0799C67.045 52.6064 66.5028 53.1336 65.8718 53.5482C65.827 53.6377 65.7112 53.7279 65.5676 53.7444C60.7834 54.2921 55.9975 54.8269 51.1967 55.2108C48.369 55.4366 45.5325 55.6357 42.6947 55.6674C42.4744 55.6699 42.2492 55.6743 42.0207 55.6788L42.0203 55.6789C40.5267 55.7083 38.8891 55.7406 37.5082 55.2385C37.4408 55.214 37.4043 55.1827 37.3907 55.1485C36.8334 56.1997 36.6453 57.5316 36.5148 58.6289C36.3587 59.9409 36.3027 61.2589 36.2922 62.5788C41.585 62.54 46.8168 61.7316 51.9417 60.4291C53.4984 60.0335 55.0738 59.6796 56.6516 59.3252C60.1413 58.5415 63.6424 57.7551 66.9768 56.5082C67.2154 56.4189 67.4908 56.5715 67.3963 56.7139C67.7124 56.7438 68.0292 56.7779 68.3464 56.812C69.6333 56.9506 70.9278 57.09 72.2138 56.955L72.2111 56.9495C72.1953 56.9178 72.1794 56.8862 72.1636 56.8547C72.0992 56.7265 72.698 56.5131 72.7856 56.6881C72.8028 56.7225 72.8201 56.757 72.8375 56.7916L72.8731 56.8624C73.6697 56.7166 74.5153 56.421 74.9361 55.7059C75.49 54.7647 75.3322 53.6766 75.0617 52.6684C74.9945 52.4174 75.6165 52.2508 75.6837 52.5018C76.2923 54.7709 75.577 56.7014 73.1353 57.1976C73.1201 57.2006 73.105 57.2032 73.0898 57.2058C73.0762 57.2081 73.0627 57.2104 73.0492 57.213C74.3464 59.7874 75.7346 62.4036 77.6689 64.5516C78.1693 63.9163 78.8141 63.3597 79.4208 62.8359C79.5072 62.7614 79.5927 62.6876 79.677 62.6142C81.0098 61.4543 82.3965 60.3537 83.8182 59.3046C86.4614 57.3543 89.2997 55.2701 92.4177 54.1283ZM79.4365 42.3647C78.7951 42.6422 78.1629 42.9591 77.529 43.2767C76.0883 43.9988 74.639 44.7251 73.0539 45.0039C72.7583 45.0561 72.5412 45.4275 72.9698 45.3521C74.6733 45.0523 76.2122 44.2945 77.7505 43.5369C78.391 43.2216 79.0313 42.9062 79.6834 42.624C80.0814 42.4518 79.7169 42.2434 79.4365 42.3647ZM80.9393 44.8336C80.298 45.1112 79.6657 45.428 79.0319 45.7457C77.5911 46.4677 76.1418 47.194 74.5568 47.4729C74.2611 47.525 74.0441 47.8964 74.4726 47.8211C76.1761 47.5213 77.715 46.7634 79.2534 46.0059C79.8938 45.6905 80.5342 45.3752 81.1862 45.093C81.5843 44.9208 81.2197 44.7123 80.9393 44.8336ZM82.6569 47.6246C82.0155 47.9022 81.3833 48.219 80.7494 48.5367C79.3087 49.2587 77.8594 49.985 76.2743 50.2639C75.9787 50.316 75.7616 50.6874 76.1901 50.6121C77.8937 50.3123 79.4326 49.5544 80.9709 48.7969C81.6114 48.4815 82.2517 48.1662 82.9038 47.884C83.3018 47.7118 82.9373 47.5033 82.6569 47.6246ZM85.1258 50.7377C84.4845 51.0152 83.8522 51.3321 83.2184 51.6497C81.7776 52.3718 80.3283 53.0981 78.7433 53.3769C78.4476 53.4291 78.2306 53.8005 78.6591 53.7251C80.3626 53.4253 81.9015 52.6675 83.4399 51.9099C84.0803 51.5946 84.7207 51.2792 85.3727 50.997C85.7708 50.8248 85.4062 50.6164 85.1258 50.7377ZM85.5552 53.0993C84.9138 53.3768 84.2816 53.6937 83.6478 54.0113C82.207 54.7334 80.7577 55.4597 79.1726 55.7385C78.877 55.7907 78.66 56.1621 79.0885 56.0867C80.792 55.7869 82.3309 55.0291 83.8693 54.2716C84.5097 53.9562 85.15 53.6409 85.8021 53.3586C86.2002 53.1865 85.8356 52.978 85.5552 53.0993ZM26.6287 74.45C26.6733 74.1806 26.0428 74.2821 26.0037 74.5172C25.7561 76.0093 24.9517 77.4282 23.6496 78.2383C23.2913 78.4611 23.8256 78.5944 24.045 78.4577C25.4506 77.5832 26.3599 76.069 26.6287 74.45ZM24.5637 74.3736C24.9057 73.7825 25.1091 73.1554 25.017 72.4682C24.9925 72.2844 24.3664 72.4231 24.395 72.6348C24.4783 73.2578 24.3001 73.8422 23.9894 74.3792C23.8529 74.6149 24.4721 74.5318 24.5637 74.3736ZM64.0874 59.7265C63.5467 59.9241 63.0055 60.1219 62.5054 60.4066C62.3996 60.4669 62.3397 60.6215 62.4636 60.6964C62.6025 60.7808 62.7792 60.7237 62.9073 60.6507C63.3626 60.3914 63.8641 60.214 64.3636 60.0372C64.6459 59.9373 64.9276 59.8377 65.1998 59.7236C65.5964 59.5575 65.2404 59.2738 64.9362 59.4014C64.6574 59.5182 64.3725 59.6223 64.0874 59.7265ZM93.8602 52.3373C92.7747 52.3791 91.904 51.363 91.2233 50.5687C91.152 50.4854 91.0827 50.4045 91.0155 50.3276C90.9024 50.1979 90.315 50.415 90.4318 50.5488C90.4694 50.5919 90.5073 50.6355 90.5455 50.6794C91.3501 51.6043 92.2762 52.669 93.5985 52.6182C93.7818 52.6111 94.2752 52.3212 93.8602 52.3373ZM91.1834 49.7975C91.3116 49.9227 91.8872 49.6932 91.7669 49.5758C91.5469 49.3611 91.2892 49.1792 91.0155 49.039C90.8936 48.9766 90.7332 49.0152 90.6115 49.0614C90.5865 49.0708 90.319 49.2028 90.4322 49.2608C90.7057 49.401 90.9633 49.5829 91.1834 49.7975ZM36.3527 44.626C37.2115 44.833 38.1104 45.213 38.8105 45.5121C39.9342 45.9921 41.3179 46.6577 41.9021 47.8056C42.3184 48.6236 42.4497 49.8233 42.201 50.3525C41.4949 51.1273 39.7032 51.4582 38.5389 51.5552C36.0513 51.7628 33.4776 51.3298 30.9602 50.9062C30.0152 50.7472 29.078 50.5895 28.1564 50.4676C27.0454 50.3205 25.5135 50.0416 24.7542 49.1183C24.7104 49.065 24.673 49.0118 24.6369 48.9583C22.0978 51.5338 21.2697 56.4901 22.7513 59.5216C23.8057 61.6793 26.2128 62.7398 28.4628 63.175C30.7645 63.6201 33.3303 63.6611 35.527 62.7424C35.5734 62.7231 35.6213 62.7139 35.6678 62.7113C35.676 61.1041 35.7327 59.4804 36.0109 57.8964C36.2441 56.5687 36.5732 55.0712 37.588 54.1066C36.0495 53.6231 34.4807 53.2483 32.9125 52.8736C30.6343 52.3294 28.3571 51.7853 26.1752 50.9086C25.9202 50.806 26.4882 50.5378 26.6716 50.6114C28.8523 51.4878 31.1298 52.0318 33.4083 52.5759C35.0019 52.9565 36.5959 53.3372 38.1576 53.8318C38.2482 53.8606 38.2328 53.9147 38.1679 53.9694C38.2368 53.998 38.2551 54.0523 38.1589 54.1386C37.8959 54.3741 37.6795 54.6545 37.4968 54.962C37.608 54.8832 37.7763 54.8314 37.8813 54.8694C39.3134 55.3899 41.0412 55.3375 42.6003 55.2901C42.8515 55.2825 43.0983 55.275 43.3388 55.27C44.3934 55.2484 45.4477 55.2069 46.5012 55.152C46.1705 54.5532 46.3371 54.4273 46.5843 54.2404C46.8031 54.0752 46.8763 53.6942 46.9553 53.2836C46.9656 53.23 46.976 53.1759 46.9869 53.1217C46.9869 53.1217 47.2042 52.4303 47.358 51.6317C47.6518 50.1067 47.5867 48.465 47.5245 46.895L47.5245 46.8947C47.5052 46.4094 47.4863 45.931 47.4783 45.4651C43.821 44.6982 40.077 44.2381 36.3527 44.626ZM25.9732 47.4993C25.6241 47.6693 25.2948 47.875 24.9822 48.1068C24.9307 47.5282 25.2471 46.9127 25.6516 46.3906C25.9665 46.8745 26.2892 47.3535 26.6287 47.8222C26.3798 47.9969 26.6939 48.2865 26.9928 48.1627C28.4224 47.5703 29.8458 47.1897 31.354 47.7105C32.3921 48.069 33.3338 48.7535 34.2371 49.4101C34.4531 49.5671 34.667 49.7226 34.8795 49.8716C35.1163 50.0376 35.6543 49.711 35.3563 49.5019C35.3039 49.4652 35.2509 49.4274 35.1981 49.3898C35.2816 49.3476 35.3372 49.3038 35.3218 49.2814C34.5529 48.1782 33.5686 47.2158 32.5949 46.2637C32.1969 45.8746 31.8007 45.4872 31.4217 45.0926C31.1711 44.8315 30.9274 44.5636 30.6923 44.2883C31.5466 44.7933 32.4322 44.9972 33.3223 44.9708C33.5441 45.0198 33.7532 45.0554 33.9374 45.0707C34.2331 45.0954 34.6141 44.9945 35.0366 44.8092C35.8487 44.8219 36.786 45.1951 37.5911 45.5157C37.7515 45.5796 37.9067 45.6414 38.0546 45.6978C39.1708 46.1237 40.2708 46.7053 41.0485 47.6315C41.4727 48.1369 41.6764 48.8119 41.5925 49.43C41.5122 49.794 41.4062 49.9479 41.4062 49.9479L41.3177 50.1745C41.1944 50.363 41.0321 50.5359 40.8241 50.6746C39.9421 51.2624 38.6613 51.2635 37.6424 51.257C35.8638 51.2458 34.1046 50.9576 32.3462 50.6696C31.1534 50.4742 29.9609 50.2789 28.7629 50.17C27.6718 50.0709 26.5222 49.8023 25.6241 49.149C25.3667 48.9617 25.2003 48.7546 25.0985 48.5367C25.4491 48.244 25.8253 47.992 26.2295 47.7949C26.616 47.6066 26.2641 47.3574 25.9732 47.4993Z" fill="#340679"/>
</svg>
