<svg width="100" height="100" viewBox="0 0 100 100" fill="none" xmlns="http://www.w3.org/2000/svg">
<path d="M41.0852 55.1124C43.2658 52.9371 45.5772 50.9734 48.1375 49.201C48.1968 49.1599 48.2574 49.1199 48.3168 49.079C46.2946 50.6978 43.3552 53.0924 41.0852 55.1124ZM37.9915 52.1521C35.7467 55.1206 33.4967 58.1967 32.1454 61.7013L20.3406 41.2547C20.4817 41.2144 20.6964 41.0511 20.7387 40.9363C20.9748 40.2899 21.2505 39.6659 21.5549 39.0583C22.0681 38.1785 22.6837 37.1394 23.331 36.0866C24.4657 34.4293 25.7441 32.86 26.9636 31.2728C28.2442 29.606 29.5877 28.0139 30.9948 26.4813C31.789 25.649 32.6021 24.8041 33.3709 24.0099C34.1086 23.2769 34.8626 22.5566 35.6342 21.8488C36.1675 21.3595 36.7068 20.8758 37.2481 20.3945C41.3044 26.8562 45.9854 32.934 50.5355 39.0491C50.5388 39.0535 50.5434 39.0556 50.5469 39.0594C49.6961 39.7986 48.8522 40.5458 48.0159 41.2999C47.9078 41.3631 47.8063 41.4525 47.7324 41.5574C47.7115 41.5763 47.6907 41.5954 47.6698 41.6144C47.5325 41.6481 47.3746 41.7946 47.3244 41.9285C47.179 42.0609 47.0326 42.1924 46.8877 42.3253C43.6084 45.3343 40.6773 48.6006 37.9915 52.1521ZM39.907 32.8065C37.4731 34.6456 35.2515 36.7174 33.2609 39.0333C32.9554 39.3886 33.3571 39.2437 33.5275 39.0457C35.4035 36.863 37.4965 34.9078 39.7901 33.1745C39.9216 33.075 40.2508 32.5465 39.907 32.8065ZM33.3925 32.2469C34.5018 31.2068 35.6656 30.2354 36.8791 29.3202C37.0994 29.154 37.22 28.7551 36.8494 29.0347C35.5878 29.9863 34.3831 31.0022 33.23 32.0834C32.939 32.3563 33.1052 32.5166 33.3925 32.2469ZM28.2182 38.2643C29.4161 36.5633 30.7202 34.9554 32.1565 33.4521C32.4284 33.1678 32.2853 33.0203 32.0119 33.3065C30.4965 34.8924 29.1159 36.5866 27.8516 38.3815C27.6023 38.7356 28.122 38.401 28.2182 38.2643ZM24.5947 44.4738C25.3717 42.9233 26.2185 41.4133 27.1408 39.9463C27.3753 39.5737 26.8379 39.8352 26.7254 40.0143C25.7771 41.5224 24.9124 43.0766 24.1138 44.6705C23.9562 44.9847 24.5168 44.6295 24.5947 44.4738ZM27.5892 48.3945C28.9771 45.629 30.5737 42.9918 32.4532 40.5382C32.7287 40.1788 32.2486 40.0967 32.0361 40.3744C30.1227 42.872 28.5003 45.5616 27.0877 48.3761C26.8877 48.775 27.4564 48.6594 27.5892 48.3945ZM32.2694 47.4341C31.4368 48.7919 30.6701 50.1862 29.9567 51.6115C29.8118 51.901 30.335 51.4934 30.3957 51.3725C31.1093 49.9472 31.8758 48.5529 32.7086 47.1953C32.8736 46.9261 32.3386 47.3216 32.2694 47.4341ZM33.5987 45.9493C36.1145 42.2392 39.178 38.9871 42.749 36.2885C43.0128 36.0893 42.9865 35.6318 42.6231 35.9064C38.9585 38.6757 35.8004 42.0148 33.2184 45.823C32.9633 46.1989 33.4105 46.2267 33.5987 45.9493ZM47.6896 49.0873C48.6354 48.4327 49.5948 47.7905 50.5633 47.1598C49.3653 45.6693 48.3953 43.925 47.4384 42.2726C47.3336 42.3689 47.2276 42.4642 47.1228 42.5607C43.9898 45.4592 41.1373 48.5594 38.5596 51.9678C36.224 55.0564 33.8391 58.2312 32.5021 61.9132C32.4834 61.9644 32.4301 62.0254 32.3645 62.0807L33.5433 64.1225C34.7887 61.3462 36.9192 59.0263 38.9681 56.8309C41.6553 53.9516 44.4439 51.3338 47.6896 49.0873ZM50.4827 63.1954C48.6824 64.2348 46.1175 65.0186 45.0783 67.009C44.2112 68.6692 45.1564 71.3731 46.6096 72.4628C48.3478 73.7659 50.5348 72.4653 52.0759 71.4867C53.3803 70.6584 54.6765 69.8423 56.0148 69.0696C57.6351 68.1503 59.5197 67.5003 60.913 66.229C62.7567 64.5469 62.0996 62.3837 60.4682 60.7268C57.4323 57.6435 53.246 61.6 50.4827 63.1954ZM59.51 67.9469C59.51 67.9469 59.6085 67.8513 59.7675 67.6905C59.4477 67.8814 59.1189 68.0623 58.7902 68.2346L59.51 67.9469ZM44.2318 67.8881C44.336 67.3139 44.5561 66.7785 44.9088 66.3304C44.9386 66.2924 44.9708 66.2564 45.0015 66.2192C44.9014 66.3044 44.811 66.3856 44.7343 66.4602C44.3507 66.8327 44.2117 67.2934 44.2318 67.8881Z" fill="#A358E7"/>
<path d="M56.3497 7.11018C60.2549 13.8742 64.1602 20.6384 68.0654 27.4024C68.1445 27.5394 67.9611 27.7655 67.7955 27.8658C67.7843 27.8731 67.7736 27.879 67.7632 27.8839C67.7301 27.9007 67.6983 27.9138 67.6706 27.917C66.1814 28.3791 64.7632 29.0098 63.4029 29.7544C65.1477 32.8122 66.8447 35.8962 68.5911 38.9534L68.5921 38.9562C68.598 38.9672 68.602 38.9788 68.605 38.9907C68.651 39.187 68.298 39.5028 68.1557 39.4651C66.3273 39.6462 64.5662 40.1128 62.8668 40.7593C66.198 46.3198 69.4633 51.9176 72.5386 57.6243C74.1186 60.5563 75.6665 63.5054 77.209 66.4573C78.2223 68.3968 79.2919 70.3178 80.2495 72.2851C80.7722 73.3595 80.955 74.56 80.5496 75.7076C79.5858 78.4358 77.2108 80.019 74.9258 81.5624C71.6632 83.766 68.2828 85.7994 64.8725 87.7647C61.4895 89.7141 58.0699 91.6316 54.5402 93.3056C52.0682 94.478 48.548 96.1302 46.0233 94.1445C44.791 93.1755 44.0635 91.6076 43.2361 90.3065C42.2997 88.8333 41.3657 87.3585 40.4368 85.8802C38.5836 82.9307 36.7449 79.9721 34.9292 76.9994C31.4684 71.3333 28.0807 65.6229 24.7874 59.8578C21.4301 53.9808 18.1606 48.0543 14.9669 42.0868C13.2503 38.8796 11.4523 35.6906 9.86045 32.4195C8.88555 30.4159 9.49357 28.5216 10.7541 26.819C12.2805 24.7574 14.816 23.354 16.927 21.9902C20.3743 19.7634 23.9086 17.6671 27.4873 15.6585C30.6277 13.896 33.8021 12.1185 37.1142 10.694C38.1671 10.2411 39.2067 9.83757 40.3616 9.74263C41.4637 9.65202 42.6721 9.6985 43.6525 10.2824C44.722 10.9191 45.2982 11.9176 45.9455 12.9398C49.0536 10.5193 52.3809 8.27095 56.1766 7.1038C56.2533 7.0663 56.3209 7.0603 56.3497 7.11018ZM45.096 14.0434C42.6295 16.0391 40.1739 18.0672 37.7863 20.1643C41.8117 26.5678 46.4579 32.59 50.9743 38.6492C50.9891 38.669 50.9955 38.6922 50.9974 38.7168C52.9756 37.0141 54.9891 35.3502 57.0272 33.7315C60.1811 31.2267 63.5518 28.8486 67.399 27.5582C63.5662 20.9197 59.7335 14.2812 55.9008 7.64271C51.8661 8.90725 48.352 11.4093 45.096 14.0434ZM41.4714 14.2742L13.8711 30.2092L20.2438 41.2472C21.6303 37.5079 24.2395 34.4867 26.6307 31.3647C29.2772 27.9088 32.2122 24.7517 35.435 21.8261C37.6931 19.7764 40.0065 17.7677 42.3643 15.8206L41.4714 14.2742ZM50.5064 39.1393C50.5028 39.1359 50.4981 39.1336 50.495 39.1291C45.9704 33.0584 41.3149 27.0251 37.2845 20.6083C36.7424 21.0889 36.2026 21.5715 35.6688 22.0601C34.8963 22.7669 34.1414 23.4858 33.4025 24.2172C32.5893 25.022 31.7965 25.844 31.0227 26.6832C29.6131 28.2121 28.267 29.8005 26.9834 31.4627C25.7609 33.0457 24.4798 34.6109 23.3421 36.2632C22.6869 37.2146 22.0801 38.1952 21.5599 39.2253C21.2541 39.8308 20.9769 40.4524 20.7392 41.0963C20.6968 41.2108 20.4816 41.3738 20.3408 41.4143L32.0658 61.7225C33.4257 58.2314 35.6812 55.1641 37.9314 52.2039C40.6235 48.6623 43.5598 45.4036 46.8436 42.3996C46.9886 42.2669 47.1352 42.1357 47.2807 42.0035C47.3311 41.8702 47.4894 41.724 47.6266 41.6899C47.6475 41.671 47.6683 41.6519 47.6893 41.633C47.7635 41.5283 47.865 41.4388 47.9731 41.3759C48.8099 40.6234 49.6547 39.8774 50.5064 39.1393ZM47.3928 42.3459C47.2878 42.4421 47.1817 42.5372 47.0768 42.6336C43.94 45.5268 41.0827 48.62 38.4988 52.019C36.1575 55.0991 33.7669 58.265 32.4209 61.9325C32.402 61.9835 32.3487 62.0444 32.283 62.0996L33.4539 64.1276C34.7056 61.3615 36.8398 59.0469 38.892 56.8564C41.5836 53.9833 44.3758 51.3705 47.623 49.1254C48.5693 48.4712 49.5291 47.8294 50.498 47.199C49.3064 45.7195 48.3431 43.9873 47.3928 42.3459ZM46.8641 87.3548L74.4645 71.4197L58.0878 43.0545C58.0509 43.0756 58.0135 43.0958 57.9768 43.1168C55.6602 44.4336 53.3482 45.7969 51.0924 47.2358C51.0026 47.356 50.8607 47.4551 50.7551 47.4509C49.9105 47.9941 49.0743 48.548 48.2494 49.1155C48.19 49.1563 48.1293 49.1963 48.07 49.2374C45.5085 51.0084 43.1947 52.9693 41.011 55.1402C40.5247 55.6234 40.043 56.1136 39.5687 56.6184C37.3554 58.9739 34.9498 61.4458 33.7263 64.4955C33.7197 64.5117 33.7086 64.5291 33.6958 64.5467L46.8641 87.3548ZM62.2847 41.0674C62.2719 41.0462 62.2695 41.0207 62.2743 40.993C61.0445 41.4947 59.8474 42.0862 58.6803 42.725L75.3916 71.6699L46.6168 88.2831L12.9435 29.9593L41.7184 13.3461L42.8944 15.3831C43.7313 14.6976 44.5734 14.0205 45.421 13.3523C44.2886 11.6011 43.1696 10.1954 40.8584 10.2075C39.7127 10.2136 38.6765 10.4215 37.626 10.84C35.3345 11.7527 33.1353 12.9203 30.9629 14.0816C27.1775 16.105 23.451 18.246 19.7964 20.4979C17.1221 22.1459 14.259 23.7774 11.9042 25.879C9.94947 27.6237 9.33504 30.0168 10.5491 32.3411C12.2317 35.5629 13.9277 38.7776 15.646 41.9807C18.8411 47.9365 22.1037 53.8569 25.4632 59.7218C28.7657 65.4867 32.1527 71.2027 35.6218 76.8687C37.4445 79.8457 39.2857 82.811 41.1453 85.7652C42.1571 87.3721 43.1725 88.9767 44.1932 90.5778C44.8973 91.6821 45.544 93.1141 46.7159 93.8116C49.7243 95.6035 53.2572 93.6213 55.9935 92.256C59.626 90.4432 63.1739 88.455 66.6724 86.3969C69.9715 84.456 73.2772 82.4762 76.3873 80.24C77.4963 79.4426 78.6014 78.6466 79.3462 77.4738C80.0889 76.3043 80.559 74.8821 80.0812 73.5107C79.5364 71.9464 78.5679 70.4593 77.802 68.9911C72.869 59.5366 67.7684 50.2152 62.2847 41.0674ZM62.8373 30.0739C60.706 31.3031 58.7145 32.7961 56.8117 34.3356C54.0245 36.5908 51.2489 38.8861 48.5722 41.2785C48.5191 41.3403 48.4573 41.3946 48.3909 41.4397C48.2229 41.5904 48.0566 41.7422 47.8893 41.8935C48.8563 43.5613 49.841 45.3386 51.0666 46.8322C53.4441 45.3035 55.8784 43.8496 58.3408 42.4911C61.3244 40.8449 64.471 39.4498 67.8665 39.0005C66.1807 36.0389 64.5358 33.0548 62.8452 30.0957C62.8413 30.0891 62.8399 30.0812 62.8373 30.0739ZM59.2151 59.0915C60.7028 59.6556 62.0513 61.3077 62.4458 62.8342C63.0173 65.0464 61.4731 66.4959 59.6261 67.5987C59.3063 67.7896 58.9775 67.9706 58.6488 68.1431C57.723 68.6286 56.7996 69.0494 56.0897 69.4522C54.8181 70.1863 53.5852 70.9581 52.3457 71.7447C51.0535 72.5646 49.5185 73.5563 47.9242 73.5329C45.3618 73.4952 43.6582 70.3112 44.1146 67.8423C44.2204 67.2706 44.4417 66.7372 44.7953 66.2904C44.8251 66.2525 44.8573 66.2166 44.8881 66.1794C46.1115 64.6983 47.9133 63.7777 49.6089 62.9472C51.3843 62.0775 52.9381 60.8531 54.6863 59.9396C56.0174 59.2439 57.7012 58.5176 59.2151 59.0915ZM60.7743 66.1414C62.6202 64.4622 61.9706 62.3118 60.3468 60.6682C57.3249 57.6095 53.1335 61.5585 50.3695 63.1543C48.5689 64.1939 46.0057 64.9815 44.9621 66.9649C44.0914 68.6194 45.027 71.3069 46.4747 72.3867C48.2063 73.678 50.3936 72.3774 51.9353 71.3991C53.2402 70.5711 54.5368 69.7552 55.8753 68.9824C57.4958 68.0628 59.3794 67.4104 60.7743 66.1414ZM33.3989 32.4128C34.5096 31.3746 35.6745 30.4046 36.8888 29.4904C37.1093 29.3244 37.231 28.9271 36.8601 29.2064C35.5976 30.1571 34.3918 31.1714 33.2372 32.2506C32.9458 32.5231 33.1112 32.6821 33.3989 32.4128ZM28.2147 38.4155C29.4158 36.7194 30.7227 35.1157 32.1613 33.6157C32.4336 33.332 32.2912 33.1856 32.0173 33.4713C30.4995 35.0537 29.116 36.7435 27.8483 38.5332C27.5983 38.8863 28.1182 38.5518 28.2147 38.4155ZM26.719 40.1611C25.7676 41.6645 24.8997 43.2135 24.0975 44.8018C23.9392 45.1149 24.4998 44.7596 24.578 44.6047C25.3584 43.0597 26.2085 41.5548 27.1337 40.0924C27.3692 39.7208 26.8319 39.9828 26.719 40.1611ZM33.5133 39.177C35.3929 36.9997 37.4886 35.048 39.7837 33.3165C39.9154 33.2172 40.2455 32.6901 39.9014 32.9498C37.4658 34.787 35.2415 36.8551 33.2471 39.1652C32.9411 39.52 33.3426 39.3745 33.5133 39.177ZM32.0202 40.5035C30.1024 42.9943 28.4744 45.6752 27.0557 48.4798C26.8548 48.8773 27.4227 48.7607 27.5563 48.4966C28.9503 45.7408 30.5523 43.1122 32.4362 40.6653C32.7124 40.3069 32.2335 40.2265 32.0202 40.5035ZM42.6043 36.0261C38.9372 38.7925 35.774 42.1243 33.1846 45.9211C32.9287 46.2961 33.3753 46.3223 33.564 46.0458C36.087 42.3468 39.1555 39.1019 42.7289 36.4061C42.9926 36.2068 42.9679 35.7518 42.6043 36.0261ZM32.2321 47.527C31.3966 48.8805 30.6269 50.2701 29.9104 51.6903C29.7648 51.9788 30.2885 51.5717 30.3494 51.4512C31.0662 50.0309 31.8357 48.6414 32.6712 47.2881C32.8368 47.0197 32.3015 47.4149 32.2321 47.527Z" fill="#340679"/>
</svg>
