<svg width="387" height="387" viewBox="0 0 387 387" fill="none" xmlns="http://www.w3.org/2000/svg">
<circle opacity="0.1" cx="193" cy="193" r="123" fill="#8036E4"/>
<path d="M289.132 223.146L289.203 223.473C288.935 223.624 288.755 223.805 288.791 223.956C288.599 224.034 288.443 224.134 288.376 224.257C286.534 227.582 283.067 227.265 279.78 227.163C274.862 214.881 257.091 209 257.695 194.517C257.851 194.212 258.007 193.906 258.163 193.601C258.215 193.5 258.002 193.454 257.701 193.462C257.444 193.013 255.911 193.368 255.863 193.896C255.831 194.24 255.822 194.573 255.809 194.907C255.644 195.229 255.48 195.551 255.316 195.873L254.982 194.955L241.547 222.694C241.547 222.694 241.451 223.029 241.267 223.631C237.492 230.879 233.572 238.041 229.321 244.978C225.498 251.217 219.984 256.403 213.354 259.412C212.728 259.687 212.082 259.952 211.425 260.207C210.572 260.528 209.708 260.824 208.824 261.073C205.106 262.119 201.12 262.55 197.106 262.447C194.231 262.262 191.483 261.915 189.189 261.559C185.317 260.793 181.578 259.555 178.186 257.916C179.3 253.105 181.962 248.44 184.576 244.126L196.673 225.695C199.652 221.576 202.744 217.536 205.91 213.571C221.369 194.217 239.529 175.007 261.56 163.148C261.593 163.13 261.619 163.109 261.65 163.091C264.418 163.919 268.006 171.46 268.813 172.946C272.372 179.501 275.294 186.412 278.096 193.317C280.824 200.039 283.363 206.841 285.733 213.697C286.519 215.972 287.282 218.254 287.993 220.553C288.213 221.267 288.425 221.984 288.618 222.707C288.685 222.956 288.745 223.208 288.799 223.461C288.939 224.117 288.719 223.456 289.132 223.146ZM297.721 118.396C296.382 119.969 293.826 122.146 293.469 122.505C288.967 127.038 284.429 131.536 279.93 136.071C274.737 141.305 269.559 146.56 264.529 151.952C260.978 155.757 257.268 159.581 254.325 163.893C254.304 163.923 254.276 163.953 254.245 163.981L253.375 165.207C253.349 165.577 253.336 165.941 253.345 166.295C255.519 164.917 257.734 163.607 259.99 162.373C260.097 162.262 260.269 162.164 260.499 162.093C260.57 162.054 260.639 162.014 260.711 161.976C261.066 161.785 261.427 161.812 261.686 161.952C265.369 162.151 268.208 167.998 269.648 170.545C270.126 171.389 270.59 172.24 271.046 173.097C279.386 168.205 284.498 158.816 288.926 150.562C293.459 142.11 297.561 133.397 302.645 125.256L303.443 123.629C302.241 121.26 299.751 120.017 297.721 118.396ZM279.041 228.018C278.704 228.109 278.344 228.124 278.13 228.006C278.113 228.006 278.096 228.006 278.079 228.005C278.041 228.005 278.013 228.001 277.981 228C278.071 228.08 278.126 228.19 278.119 228.339C278.116 228.419 278.106 228.499 278.1 228.579C278.964 228.473 280.031 228.304 281.258 228.032C280.518 228.04 279.775 228.03 279.041 228.018ZM277.59 227.849C277.574 227.759 277.677 227.645 277.839 227.533C277.714 227.229 277.589 226.926 277.45 226.63C277.384 227.183 277.165 227.607 276.905 227.927C277.131 227.854 277.377 227.824 277.59 227.849ZM276.23 228.528C275.978 228.69 275.787 228.761 275.787 228.761C275.787 228.761 275.936 228.761 276.211 228.748C276.215 228.679 276.224 228.612 276.227 228.543C276.228 228.538 276.23 228.532 276.23 228.528ZM169.951 102.898L169.167 102.637C169.167 102.637 169.1 102.627 168.987 102.612C169.061 102.754 169.131 102.9 169.196 103.052C169.433 102.947 169.694 102.899 169.951 102.898ZM150.484 145.014C151.77 141.59 150.529 137.937 147.931 135.511C147.405 135.352 146.877 135.225 146.356 135.143C148.141 137.602 149.78 141.994 148.504 144.668C148.156 145.398 146.251 145.43 146.708 144.473C147.909 141.957 145.8 137.263 144.142 135.337C144.082 135.268 144.051 135.197 144.034 135.129C142.505 135.415 141.303 136.396 140.921 138.531C140.64 140.098 140.782 141.811 141.309 143.366C141.502 143.807 141.701 144.272 141.89 144.721C142.005 144.936 142.123 145.149 142.256 145.351C144.254 148.392 148.958 149.076 150.484 145.014ZM147.379 113.878C142.223 119.919 141.043 126.876 143.044 134.441C143.853 134.205 144.72 134.11 145.596 134.122C145.14 132.179 145.082 130.051 145.376 127.907C145.432 127.282 145.549 126.622 145.747 125.931C146.767 121.596 149.132 117.465 152.37 115.102C157.175 111.596 163.06 109.371 169.023 108.512C169.91 108.293 170.568 108.135 170.805 108.079C170.979 107.903 171.233 107.765 171.539 107.737C172.818 107.623 174.246 107.62 175.583 107.902C175.592 107.439 175.428 106.947 175.05 106.484C174.357 105.634 173.442 105.067 172.442 104.673C163.342 103.276 153.398 106.827 147.379 113.878Z" fill="#A358E7"/>
<path d="M172.052 138.699C171.089 137.152 170.398 135.572 170.049 133.778C169.957 133.307 171.853 132.863 171.932 133.274C172.441 135.887 173.717 138.061 175.345 140.138C175.423 140.238 175.411 140.3 175.312 140.393C174.303 141.338 173.186 142.109 171.969 142.758C171.521 142.997 169.777 143.086 170.88 142.497C171.399 142.22 173.795 141.069 173.179 140.283C172.781 139.775 172.393 139.247 172.052 138.699ZM163.697 135.007C163.662 133.966 163.246 132.959 163.21 131.918C163.201 131.655 161.309 131.94 161.326 132.423C161.362 133.463 161.778 134.47 161.814 135.511C161.823 135.775 163.714 135.489 163.697 135.007ZM174.33 133.374C174.571 132.856 174.89 132.378 175.257 131.941C175.39 131.782 175.536 131.638 175.695 131.507C175.74 131.47 175.767 131.456 175.794 131.44C176.495 131.629 176.997 132.449 177.329 133.014C177.647 133.554 179.428 132.876 179.212 132.509C178.72 131.673 178.116 130.793 177.107 130.58C176.276 130.404 175.376 130.645 174.651 131.059C173.665 131.623 172.933 132.649 172.46 133.665C172.264 134.089 174.084 133.904 174.33 133.374ZM169.006 148.508C170.161 148.164 169.806 146.802 168.641 147.148C168.208 147.277 167.384 146.663 166.999 146.318C166.246 145.644 165.966 144.573 166.261 143.619C166.592 142.551 164.712 142.524 164.45 143.369C163.963 144.941 164.396 146.306 165.555 147.44C166.406 148.272 167.822 148.86 169.006 148.508ZM314.295 116.569C314.387 116.678 314.364 116.832 314.132 117.036C311.718 119.162 307.85 120.293 306.232 123.173C306.117 123.379 305.816 123.529 305.489 123.605C305.473 123.63 305.457 123.655 305.44 123.68C305.394 123.751 305.347 123.824 305.301 123.896C299.276 133.247 294.743 143.439 289.314 153.132C284.926 160.968 279.856 169.449 271.779 173.964C271.712 174.002 271.631 174.03 271.546 174.053C274.821 180.318 277.592 186.861 280.224 193.409C283.296 201.054 286.192 208.783 288.775 216.608C288.959 217.166 290.959 221.897 290.473 223.65C290.579 223.692 290.657 223.758 290.685 223.855C293.932 234.884 297.888 246.825 305.39 255.771C305.554 255.761 305.698 255.779 305.795 255.842C307.59 256.998 309.831 258.719 308.936 261.119C308.503 262.278 306.872 262.875 305.777 263.049C300.335 263.914 294.177 258.708 290.045 255.922C285.559 252.897 280.605 250.729 276.095 247.768C273.385 245.988 268.909 242.91 271.546 239.316C271.676 239.139 272.105 238.991 272.511 238.931C273.866 235.641 275.977 232.339 276.213 228.749C276.217 228.681 276.226 228.614 276.229 228.545C276.229 228.539 276.231 228.535 276.232 228.53C276.255 228.259 276.553 228.043 276.907 227.929C277.133 227.856 277.38 227.826 277.592 227.85C277.576 227.761 277.679 227.647 277.84 227.534C277.716 227.231 277.591 226.928 277.452 226.632C274.701 220.776 269.158 216.413 264.368 211.732C266.205 214.59 265.451 216.519 261.855 217.378C259.076 218.042 257.106 219.065 255.725 221.711C254.431 224.188 253.613 226.869 252.949 229.576C251.554 235.262 250.732 241.136 248.219 246.475C243.058 257.442 234.779 266.654 223.67 271.787C218.54 274.157 213.094 275.828 207.512 276.728C206.005 276.972 204.452 277.208 202.874 277.408C202.679 277.579 202.34 277.758 202.025 277.818C195.873 278.99 188.941 278.221 182.807 277.243C179.841 276.77 176.887 276.141 173.991 275.318C170.622 285.594 167.181 295.877 163.9 306.208C164.667 306.232 165.434 306.254 166.202 306.277C168.887 306.356 171.572 306.433 174.257 306.51C182.122 306.736 189.987 306.959 197.852 307.184C205.398 307.4 212.942 307.615 220.487 307.839C222.772 307.907 225.057 307.974 227.342 308.048C227.654 308.059 228.027 308.037 228.404 308.035C224.939 297.059 221.281 286.142 217.704 275.231C217.412 274.341 219.288 273.827 219.588 274.726C219.594 274.746 219.601 274.765 219.607 274.784C219.607 274.785 219.607 274.785 219.607 274.786C226.729 296.511 234.179 318.262 239.761 340.446C239.991 341.362 238.107 341.864 237.877 340.95C235.223 330.402 232.145 319.953 228.882 309.557C228.743 309.549 228.626 309.523 228.529 309.482C228.922 309.72 228.306 309.529 227.92 309.516C227.147 309.489 226.375 309.465 225.603 309.442C223.072 309.363 220.541 309.288 218.01 309.214C210.397 308.99 202.783 308.773 195.17 308.555C184.619 308.254 173.975 308.333 163.436 307.665C159.986 318.581 156.729 329.553 153.942 340.635C153.724 341.501 151.79 341.708 152.028 340.76C154.891 329.384 158.243 318.123 161.789 306.92C161.808 306.859 161.828 306.797 161.848 306.735C165.219 296.091 168.764 285.499 172.233 274.914C172.233 274.913 172.233 274.913 172.234 274.911C172.24 274.892 172.247 274.872 172.253 274.854C172.26 274.835 172.271 274.818 172.279 274.8C169.685 273.982 167.144 273.003 164.698 271.806C153.466 266.306 144.735 257.049 139.711 245.596C137.363 240.241 136.74 234.322 135.081 228.745C133.797 225.483 132.404 222.631 131.472 220.847C131.248 220.594 131.015 220.352 130.761 220.131C129.069 218.659 127.219 218.361 125.129 217.801C123.68 217.412 122.177 216.898 122.342 215.133C122.361 214.921 122.409 214.701 122.474 214.477C122.307 214.013 122.633 213.431 123.26 212.809C124.074 211.518 125.274 210.299 126.227 209.671C129.938 207.224 134.122 207.42 138.136 208.728C137.851 205.055 137.695 201.372 137.825 197.688C138.308 184.039 142.788 171.288 153.899 162.745C154.01 162.659 154.206 162.594 154.426 162.553C154.434 162.323 154.443 162.103 154.453 161.894C154.449 161.866 154.443 161.84 154.445 161.81C154.516 160.368 154.692 158.646 154.714 156.922C154.631 156.944 154.542 156.969 154.432 156.999C153.146 157.87 151.774 158.155 150.504 157.971C150.085 157.992 149.728 157.882 149.419 157.696C147.872 157.106 146.602 155.757 146.021 153.864C145.664 153.768 145.244 153.681 144.748 153.62C141.436 153.846 138.775 151.886 138.386 148.53C133.503 148.505 132.058 143.54 134.397 139.731C128.741 138.936 128.258 131.606 132.14 128.22C129.079 124.342 131.114 118.684 134.193 114.622C132.862 114.52 131.551 114.103 130.373 113.325C127.783 111.616 126.041 108.802 126.469 105.864C124.02 104.199 123.554 101.028 124.638 98.629C125.127 96.877 127.13 95.7068 127.13 95.7068C127.13 95.7068 127.138 95.6086 127.17 95.4344C126.644 93.9372 126.868 92.2872 128.132 91.0312C129.796 89.3753 131.989 88.7018 134.308 88.8559C134.422 88.8637 134.498 88.8994 134.553 88.9475C136.901 84.2186 144.252 84.1699 147.33 88.5269C152.305 88.3715 160.126 92.544 156.725 98.1038C156.553 98.3853 156.153 98.5478 155.763 98.5887L155.735 98.7383C155.74 98.7383 155.746 98.737 155.75 98.737C155.837 98.7376 155.921 98.7448 156.006 98.7474C156.016 98.7474 156.027 98.748 156.036 98.7487C156.123 98.7519 156.229 98.7584 156.341 98.7656C157.951 98.8514 159.446 99.2427 160.649 100.258H161.009C161.073 99.8929 161.429 99.4937 161.963 99.43C164.833 99.0861 167.65 100.068 168.99 102.616C169.064 102.757 169.134 102.904 169.199 103.056C169.435 102.95 169.696 102.902 169.953 102.902C170.031 102.902 170.109 102.899 170.185 102.908C171.29 103.037 172.666 103.28 173.931 103.754C174.012 103.768 174.093 103.775 174.175 103.79C174.401 103.83 174.496 103.903 174.507 103.992C175.746 104.548 176.809 105.362 177.287 106.57C177.568 107.278 177.53 107.917 177.287 108.47C178.008 108.812 178.66 109.281 179.19 109.921C179.706 110.546 180.057 111.243 180.275 111.975C183.156 106.239 188.889 97.7312 189.553 96.7333C193.158 91.3114 196.951 85.97 201.234 81.0578C204.536 77.2702 208.137 73.4098 212.617 71.0109C212.733 70.9485 212.85 70.9101 212.964 70.8893C212.962 70.8692 212.958 70.8497 212.961 70.8269C213.621 66.425 214.283 62.0146 215.229 57.6634C215.941 54.3894 216.545 49.9777 218.756 47.2934C219.662 46.1921 221.657 45.1617 222.921 46.3729C224.491 47.8772 224.341 51.2234 224.399 53.24C224.471 55.7287 224.413 58.2147 224.385 60.7033C225.281 59.4792 226.994 58.8596 228.516 59.173C229.999 59.4785 230.801 60.4368 231.043 61.6317C232.923 57.8766 234.666 53.9519 237.496 50.8678C238.357 49.929 241.558 46.6596 242.582 49.6345C243.493 52.2824 241.646 55.7495 240.568 58.0892C239.176 61.1103 237.583 64.0228 235.986 66.9366C237.129 66.5407 238.351 66.4302 238.436 67.6784C238.531 69.0404 238.005 70.4004 237.459 71.6246C237.351 71.8684 236.063 74.2004 236.281 74.4012C236.475 74.58 236.753 74.8381 236.798 75.1229C237.099 77.0355 234.261 78.1361 232.89 78.6445C230.235 79.6288 227.342 79.8206 224.527 79.5924C224.523 79.5983 224.519 79.6015 224.515 79.6074C224.283 79.911 224.058 80.2198 223.84 80.5325C223.168 81.4972 222.524 82.4809 221.895 83.4736C219.883 86.6487 217.975 89.8902 216.133 93.1668C210.52 103.154 205.4 113.444 200.979 124.015C195.978 135.974 191.597 148.397 189.398 161.208C188.393 167.065 187.746 173.059 188.105 179.008C188.274 181.817 188.455 184.869 189.383 187.546C190.863 191.812 193.499 195.399 196.122 199.02C198.679 198.173 201.711 198.854 203.245 201.245C203.784 202.085 204.227 203.232 203.633 204.163C202.932 205.259 201.505 205.421 200.309 205.291C199.762 205.982 198.757 206.263 197.868 206.343C198.306 207.423 197.837 208.558 196.817 209.219C194.831 210.505 192.28 210.609 189.987 210.541C188.718 210.503 189.02 209.042 190.131 209.076C191.764 209.124 194.197 209.217 195.547 208.282C196.186 207.839 196.39 207.3 195.818 206.617C195.111 205.77 193.783 205.401 192.668 205.304C190.821 205.144 188.986 205.627 187.319 206.397C187.132 206.483 186.898 206.537 186.672 206.529C184.957 208.73 185.547 213.145 185.706 215.671C185.71 215.729 185.714 215.789 185.717 215.845C185.806 217.399 185.856 223.994 189.029 222.135C189.691 221.747 192.188 219.104 194.112 217.969C192.385 218.632 190.696 218.826 189.983 217.441C188.398 214.364 191.309 213.519 193.569 211.95C197.583 209.165 201.626 206.421 205.587 203.561V203.56C205.611 197.698 206.095 191.873 206.321 186.02C206.551 180.103 206.362 174.185 206.431 168.266C206.486 163.555 205.705 155.045 209.941 151.534C211.291 149.759 213.531 148.383 215.285 147.082C219.086 144.262 222.995 141.579 226.982 139.028C234.911 133.953 243.397 128.499 252.573 126.023C253.142 125.869 253.508 126.094 253.602 126.397C257.859 126.562 255.802 142.011 255.644 144.252C255.287 149.288 254.804 154.313 254.26 159.331C254.169 160.17 253.995 161.1 253.823 162.054C260.393 153.014 269.099 145.141 276.894 137.269C281.43 132.689 286.003 128.143 290.554 123.577C292.044 122.081 293.539 120.589 295.001 119.067C295.412 118.638 295.826 118.212 296.222 117.769C296.741 117.189 296.505 117.393 296.704 117.568C296.65 117.515 296.635 117.451 296.647 117.38C296.612 117.331 296.596 117.27 296.608 117.196C296.608 117.194 296.608 117.192 296.608 117.19C296.621 117.116 296.632 117.042 296.645 116.969C297.41 112.608 297.805 108.195 297.03 103.803C296.348 99.9403 295.226 96.1762 294.221 92.3893C294.186 92.2547 294.258 92.1266 294.388 92.0128C293.051 89.2355 293.103 86.3984 296.746 85.7971C300.035 85.2542 302.915 89.3851 304.463 91.6787C307.306 95.8947 309.398 100.561 312.259 104.765C315.051 108.867 317.317 112.442 314.295 116.569ZM170.222 267.092C169.617 266.812 167.904 267.669 168.736 268.054C179.164 272.877 189.724 274.579 201.126 273.105C202.074 272.982 202.657 271.799 201.358 271.967C190.366 273.388 180.267 271.739 170.222 267.092ZM152.279 253.831C152.725 257.1 155.52 259.419 157.922 261.387C158.479 261.843 160.239 261.093 159.664 260.621C157.337 258.714 154.595 256.494 154.163 253.326C154.066 252.616 152.173 253.062 152.279 253.831ZM176.829 255.999C178.563 250.432 182 245.099 184.952 240.289C190.793 230.772 197.332 221.673 204.325 212.97C204.87 212.291 205.42 211.612 205.972 210.934C205.752 211.083 205.533 211.231 205.312 211.379C203.118 212.844 200.909 214.304 198.604 215.592C198.418 215.696 198.174 215.842 197.889 216.012C197.968 216.108 197.943 216.25 197.745 216.447C189.154 224.991 179.329 233.415 168.547 239.049C167.06 239.826 165.481 240.614 163.846 241.269C163.977 241.347 164.079 241.461 164.129 241.622C166.19 248.343 169.89 254.583 176.374 257.6C176.456 257.265 176.551 256.931 176.647 256.597C176.705 256.398 176.767 256.199 176.829 255.999ZM198.86 214.296C200.856 213.087 202.813 211.818 204.746 210.512C205.664 209.892 207.027 208.598 208.363 208.025C220.898 192.918 235.057 178.293 251.513 167.478C251.329 165.643 251.98 163.369 252.177 161.583C252.661 157.206 253.117 152.825 253.477 148.435C253.862 143.757 254.223 139.044 254.154 134.346C254.129 132.696 254.109 131.001 253.793 129.375C253.669 128.734 252.95 127.231 253.216 127.165C253.179 127.174 253.152 127.174 253.117 127.18C253.049 127.211 252.991 127.247 252.908 127.269C243.839 129.716 235.344 135.216 227.548 140.283C223.804 142.717 220.101 145.226 216.524 147.902C215.299 148.819 213.813 149.759 212.609 150.867C212.599 150.939 212.516 151.026 212.339 151.129C212.007 151.455 211.695 151.793 211.431 152.154C211.271 152.371 210.976 152.492 210.675 152.525C209.402 154.205 209.017 156.708 208.785 158.655C208.265 163.037 208.29 167.47 208.306 171.876C208.342 182.292 207.512 192.648 207.47 203.052C207.47 203.121 207.444 203.186 207.406 203.247C207.559 203.32 207.57 203.446 207.301 203.641C203.656 206.28 199.934 208.812 196.236 211.375C195.084 212.173 188.899 215.165 192.123 217.214C193.521 218.102 197.652 215.028 198.86 214.296ZM188.58 223.206C187.236 223.599 185.762 223.59 184.965 222.266C183.965 220.603 183.904 218.553 183.835 216.622C180.343 217.647 176.96 219.414 173.54 220.592C170.498 221.641 166.352 223.511 163.057 222.666C159.173 221.67 157.537 214.252 157.101 211.034C156.789 208.72 155.881 204.227 157.115 202.001C157.394 201.498 159.275 201.257 158.86 202.006C157.676 204.141 158.693 209.015 159.1 211.25C159.641 214.226 161.443 222.279 165.608 221.793C172.063 221.04 177.644 217.391 183.796 215.687C183.794 215.658 183.794 215.628 183.792 215.6C183.681 213.57 183.482 211.426 183.846 209.408C184.168 207.619 184.94 206.351 186.076 205.52C186.177 205.381 186.317 205.265 186.462 205.198C186.72 205.078 186.988 204.973 187.254 204.866C187.277 204.856 187.299 204.847 187.322 204.838C187.777 204.658 188.238 204.49 188.709 204.35C188.712 204.304 188.724 204.254 188.762 204.194C190.036 202.124 192.252 200.296 194.605 199.924C194.513 199.892 194.437 199.844 194.387 199.774C191.964 196.43 189.211 192.976 187.84 189.024C183.98 177.892 186.52 164.174 189.285 153.094C192.453 140.398 197.166 128.11 202.613 116.228C207.086 106.472 212.014 96.8978 217.522 87.6831C218.105 86.7079 220.485 81.6026 222.728 79.3837C222.356 79.2862 222.507 79.0437 222.83 78.8246C222.411 77.2435 221.574 75.8978 220.458 74.8427C219.926 75.3016 219.388 75.5812 219.032 76.2554C218.822 76.6552 218.21 76.8216 217.796 76.7956C217.439 76.7729 217.048 76.5434 217.259 76.1435C217.491 75.7034 217.826 75.314 218.207 74.9954C218.402 74.8329 218.6 74.6756 218.802 74.5215C218.826 74.5033 219.077 74.2966 218.951 74.4058C219.006 74.359 219.059 74.3109 219.11 74.2608C219.208 74.1665 219.328 74.0918 219.456 74.0287C217.695 72.7812 215.487 72.1271 213.245 72.2C208.956 74.5573 205.466 78.4384 202.343 82.1265C198.529 86.6305 195.027 91.4011 191.76 96.3146C188.868 100.663 186.085 105.1 183.58 109.683C182.754 111.193 181.93 112.712 181.23 114.285C181.153 114.457 181.073 114.681 180.992 114.912C183.761 116.261 185.009 119.708 182.924 122.081C184.193 122.862 185.018 124.105 185.32 125.509C185.419 125.967 185.462 126.439 185.444 126.919C185.438 127.109 185.435 127.298 185.409 127.49C185.191 129.13 184.066 130.176 182.677 130.779C182.235 131.151 181.828 131.413 181.511 131.589C184.201 138.42 186.622 146.101 180.169 151.411C177.774 153.383 174.938 154.382 172.204 155.765C168.481 157.648 167.176 160.318 167.729 164.473C167.736 164.532 167.733 164.589 167.723 164.644C168.834 169.783 172.443 180.216 165.763 182.547C155.895 185.991 154.345 171.444 154.399 163.85C144.498 172.017 140.182 183.985 139.733 196.655C139.535 202.245 139.916 207.818 140.486 213.376C140.978 218.164 141.173 223.115 142.576 227.746C144.337 233.56 147.895 239.885 154.329 241.338C160.276 242.681 165.866 239.613 170.806 236.568C177.097 232.69 183.066 228.147 188.667 223.233C188.698 223.206 188.729 223.179 188.761 223.151C188.7 223.169 188.64 223.188 188.58 223.206ZM133.769 127.356C133.782 127.356 133.795 127.357 133.808 127.358C133.775 127.329 133.739 127.295 133.701 127.259C133.724 127.291 133.745 127.324 133.769 127.356ZM172.444 104.674C163.344 103.277 153.4 106.827 147.381 113.879C142.225 119.92 141.045 126.877 143.046 134.443C143.855 134.206 144.722 134.112 145.598 134.123C145.142 132.18 145.084 130.052 145.378 127.908C145.434 127.283 145.551 126.623 145.749 125.933C146.769 121.598 149.134 117.466 152.372 115.104C157.177 111.597 163.062 109.372 169.025 108.513C169.912 108.294 170.57 108.136 170.807 108.08C170.981 107.904 171.235 107.766 171.541 107.738C172.82 107.624 174.248 107.621 175.585 107.904C175.594 107.44 175.43 106.949 175.052 106.485C174.359 105.635 173.444 105.068 172.444 104.674ZM150.837 131.538C150.96 131.177 151.072 130.806 151.17 130.429C151.042 130.816 150.926 131.193 150.837 131.538ZM181.954 123.409C181.847 123.291 181.737 123.184 181.624 123.081C181.596 123.088 181.569 123.095 181.54 123.101C181.661 123.187 181.802 123.291 181.954 123.409ZM180.871 116.87C180.786 116.779 180.695 116.693 180.603 116.608C180.589 116.633 180.572 116.657 180.555 116.681C180.661 116.74 180.766 116.803 180.871 116.87ZM144.036 135.13C142.507 135.415 141.305 136.396 140.923 138.532C140.642 140.099 140.784 141.812 141.311 143.366C141.504 143.807 141.703 144.272 141.892 144.721C142.007 144.937 142.125 145.149 142.258 145.351C144.256 148.393 148.959 149.076 150.486 145.014C151.772 141.591 150.531 137.938 147.933 135.512C147.407 135.352 146.879 135.226 146.358 135.143C148.143 137.603 149.782 141.995 148.506 144.669C148.158 145.398 146.253 145.43 146.71 144.473C147.911 141.958 145.802 137.263 144.144 135.337C144.084 135.268 144.053 135.199 144.036 135.13ZM156.332 161.587C156.332 161.595 156.328 161.601 156.328 161.608C156.089 165.904 156.202 170.474 157.446 174.611C158.054 176.632 158.864 178.906 160.518 180.326C161.996 181.593 165.12 183.012 166.522 180.83C169.463 176.255 166.676 169.471 165.736 164.652C165.72 164.57 165.744 164.491 165.793 164.417C165.168 157.868 169.351 155.778 174.756 153.197C179.708 150.832 183.235 146.503 182.312 140.655C181.52 135.643 179.074 131.158 177.417 126.409C177.372 126.282 177.389 126.163 177.441 126.055C177.243 125.826 177.129 125.573 177.065 125.305C175.916 126.046 174.458 126.558 173.16 125.981C172.168 125.54 171.508 124.784 171.04 123.885C168.971 125.725 164.657 125.39 163.064 123.157C160.602 126.183 157.454 128.019 153.611 127.101C153.125 130.056 152.17 133.58 149.442 134.653C149.486 134.667 149.526 134.686 149.556 134.713C149.591 134.744 149.622 134.781 149.656 134.812C149.728 134.835 149.804 134.856 149.875 134.88C150.022 134.929 150.027 135.009 149.947 135.1C152.974 138.186 154.562 144.253 150.436 147.17C150.319 147.252 150.197 147.327 150.077 147.403L150.287 147.539C150.54 147.438 150.8 147.381 150.981 147.416C157.75 148.724 156.59 156.369 156.332 161.587ZM197.089 201.809C194.402 199.78 192.204 201.487 190.64 203.92C191.616 203.78 192.606 203.752 193.588 203.887C194.933 204.072 196.599 204.571 197.489 205.707C197.746 205.563 198.044 205.45 198.248 205.443C199.973 205.388 197.611 202.203 197.089 201.809ZM197.042 200.116C197.659 200.318 198.267 200.635 198.85 201.116C199.617 201.748 200.584 202.829 200.701 203.935C200.731 203.936 200.762 203.935 200.794 203.939C201.295 204.007 201.947 204.174 201.999 203.561C202.057 202.874 201.669 202.193 201.241 201.684C200.151 200.384 198.599 199.775 197.042 200.116ZM214.499 70.8854C219.081 71.0922 223.538 73.7225 224.725 78.3663C224.834 78.3806 224.943 78.4059 225.047 78.4534C225.114 78.484 225.157 78.5184 225.191 78.5542C227.689 78.7947 230.362 78.6952 232.667 77.7188C233.756 77.2585 235.976 76.0824 234.257 74.9421C234.119 74.8505 234.205 74.671 234.259 74.5703C235.079 73.0132 235.993 71.3412 236.387 69.6034C236.659 68.4033 236.755 67.4119 235.279 68.3389C234.764 68.6627 233.413 68.5353 233.853 68.0327C233.743 67.9443 233.712 67.8084 233.819 67.6127C236.373 62.9508 239.841 57.8558 240.746 52.5411C240.868 51.8208 241.233 50.0441 240.268 49.6644C240.029 49.5701 237.271 53.491 236.829 54.2152C234.775 57.588 233.195 61.2117 231.245 64.643C230.934 65.1898 229.115 65.3699 229.465 64.6268C229.151 64.6209 228.928 64.526 228.994 64.3141C229.443 62.8741 229.428 60.8483 227.738 60.2196C226.492 59.7555 225.833 60.689 225.668 61.8755C225.596 62.3891 224.031 62.7284 223.819 62.2955C223.263 62.5171 222.49 62.5451 222.491 62.2656C222.514 57.9533 223.005 53.346 222.032 49.1033C221.709 47.6932 221.113 45.9587 220.112 47.7914C219.512 48.8895 219.05 50.0545 218.676 51.2487C216.717 57.5035 215.8 64.0703 214.831 70.5357C214.811 70.667 214.681 70.7873 214.499 70.8854ZM145.196 88.8819C145.287 89.0808 145.332 89.203 145.332 89.203C145.332 89.203 145.379 89.1855 145.446 89.1621C145.368 89.0652 145.281 88.9742 145.196 88.8819ZM127.757 209.855C128.447 209.511 129.128 209.205 129.752 208.956C129.055 209.147 128.388 209.444 127.757 209.855ZM127.079 217.172C126.239 216.817 125.375 216.455 124.612 216.081C124.845 216.368 125.205 216.612 125.747 216.783C126.197 216.926 126.641 217.051 127.079 217.172ZM146.255 253.495C144.748 251.046 143.367 248.559 142.145 246.185C142.585 247.183 143.06 248.175 143.6 249.156C144.421 250.647 145.311 252.092 146.255 253.495ZM228.519 268.135C226.924 269.126 225.339 270.058 223.891 270.88C224.614 270.511 225.328 270.125 226.029 269.714C226.88 269.214 227.706 268.681 228.519 268.135ZM259.966 217.285C259.817 217.28 259.672 217.276 259.536 217.276C259.081 217.276 258.487 217.574 257.835 218.083C258.509 217.759 259.218 217.513 259.966 217.285ZM261.527 208.767C258.729 205.606 256.552 202.155 255.954 197.922C254.156 201.439 252.359 204.957 250.558 208.472L252.167 207.741C252.167 207.741 252.552 207.741 253.15 207.757C256.097 207.074 259.057 207.144 261.527 208.767ZM289.137 225.484C287.125 227.625 284.218 227.999 281.261 228.032C280.52 228.041 279.777 228.03 279.043 228.019C278.706 228.11 278.346 228.125 278.132 228.006C278.115 228.006 278.098 228.006 278.081 228.006C278.043 228.006 278.015 228.002 277.983 228C278.073 228.08 278.128 228.19 278.121 228.339C278.118 228.42 278.108 228.5 278.102 228.58C277.843 232.316 275.55 235.76 274.221 239.175C274.075 239.548 273.43 239.783 272.928 239.801C270.319 244.982 283.573 250.248 286.653 251.996C290.453 254.153 293.889 256.878 297.663 259.073C298.925 259.807 305.485 263.833 306.877 261.707C308.097 259.844 306.388 258.177 304.853 257.076C304.511 257.147 304.178 257.132 304.035 256.967C296.461 248.198 292.408 236.479 289.137 225.484ZM289.134 223.147C288.721 223.457 288.941 224.118 288.802 223.461C288.748 223.208 288.688 222.956 288.621 222.707C288.428 221.984 288.216 221.267 287.996 220.553C287.286 218.254 286.523 215.971 285.736 213.697C283.366 206.841 280.828 200.039 278.099 193.317C275.297 186.412 272.375 179.501 268.816 172.946C268.009 171.459 264.421 163.919 261.653 163.09C261.623 163.109 261.597 163.13 261.563 163.148C239.533 175.006 221.372 194.218 205.914 213.571C202.747 217.536 199.656 221.576 196.676 225.695C193.057 230.699 189.604 235.824 186.417 241.104C185.822 242.089 185.202 243.098 184.579 244.126C181.966 248.439 179.303 253.106 178.19 257.915C181.581 259.554 185.321 260.793 189.192 261.559C191.486 261.915 194.234 262.261 197.109 262.447C201.123 262.549 205.11 262.118 208.827 261.073C209.711 260.825 210.576 260.529 211.428 260.206C212.086 259.951 212.731 259.687 213.358 259.411C219.987 256.403 225.501 251.217 229.324 244.978C233.575 238.041 237.495 230.879 241.27 223.63C246.065 214.424 250.625 205.08 255.319 195.873C255.482 195.551 255.647 195.229 255.811 194.908C255.824 194.574 255.833 194.241 255.865 193.897C255.913 193.369 257.446 193.013 257.704 193.462C258.004 193.455 258.218 193.5 258.166 193.602C258.009 193.907 257.854 194.212 257.697 194.518C257.093 209 274.864 214.882 279.782 227.164C283.069 227.265 286.536 227.582 288.378 224.257C288.446 224.135 288.601 224.035 288.794 223.957C288.758 223.806 288.939 223.625 289.206 223.473C289.607 223.246 290.191 223.086 290.49 223.204C289.752 222.913 289.355 222.981 289.134 223.147ZM303.554 123.835C303.549 123.826 303.542 123.818 303.538 123.809C303.51 123.747 303.474 123.69 303.444 123.629C302.243 121.261 299.753 120.018 297.723 118.396C296.384 119.969 293.828 122.147 293.471 122.506C288.968 127.038 284.431 131.537 279.932 136.072C274.739 141.306 269.561 146.561 264.531 151.952C260.98 155.758 257.27 159.582 254.327 163.893C254.306 163.924 254.278 163.953 254.247 163.981C254.078 164.135 253.775 164.248 253.465 164.302C253.427 164.607 253.398 164.909 253.377 165.208C253.35 165.578 253.338 165.943 253.346 166.296C255.521 164.919 257.736 163.609 259.992 162.374C260.098 162.263 260.27 162.165 260.5 162.094C260.571 162.055 260.64 162.015 260.712 161.977C261.067 161.786 261.428 161.813 261.687 161.953C265.371 162.152 268.209 167.999 269.65 170.546C270.127 171.39 270.591 172.241 271.047 173.098C279.387 168.206 284.5 158.817 288.927 150.563C293.46 142.111 297.562 133.398 302.646 125.257C302.944 124.779 303.25 124.307 303.554 123.835ZM312.509 116.715C314.978 113.359 313.809 110.299 311.494 106.91C309.629 104.18 307.958 101.374 306.356 98.4847C304.641 95.3941 302.93 92.0921 300.477 89.5112C299.882 88.8851 296.131 84.9428 295.479 87.5225C295.024 89.3253 295.823 90.814 296.706 92.3333C296.778 92.4569 296.607 92.6194 296.343 92.7572C297.441 96.7723 298.728 100.831 299.151 104.975C299.555 108.942 299.205 112.809 298.518 116.724C300.618 118.646 303.25 119.898 304.833 122.265C304.903 122.239 304.978 122.216 305.054 122.198C306.944 119.775 310.207 118.696 312.509 116.715ZM155.83 85.9245C155.295 85.5904 153.623 86.3555 154.074 86.637C156.268 88.0088 157.851 90.03 158.344 92.6005C158.457 93.1863 160.349 92.728 160.228 92.096C159.723 89.4644 158.081 87.3314 155.83 85.9245ZM157.979 85.7867C158.381 86.3159 160.198 85.6619 159.726 85.0404C158.475 83.3917 157.041 81.9582 155.393 80.7067C154.848 80.2932 153.108 81.0454 153.645 81.453C155.294 82.7038 156.728 84.138 157.979 85.7867ZM124.192 118.434C122.032 117.018 121.727 114.535 122.084 112.151C122.182 111.496 120.294 111.847 120.209 112.419C119.831 114.944 120.137 117.633 122.435 119.138C122.952 119.478 124.628 118.72 124.192 118.434ZM127.474 118.32C127.928 118.327 128.424 118.215 128.806 117.963C129.098 117.77 129.061 117.525 128.687 117.519C127.166 117.494 126.028 116.655 125.989 115.067C125.98 114.71 124.092 115.013 124.105 115.571C124.151 117.466 125.753 118.292 127.474 118.32ZM285.767 166.765C285.299 166.745 284.824 166.928 284.527 167.291C282.776 169.431 280.645 171.218 278.892 173.359C278.595 173.723 279.143 173.947 279.415 173.958C279.883 173.978 280.358 173.795 280.655 173.432C282.407 171.292 284.537 169.505 286.29 167.364C286.588 167 286.039 166.777 285.767 166.765ZM286.852 174.517C289.459 172.745 291.75 170.591 293.216 167.767C293.617 166.995 291.738 167.241 291.469 167.756C290.128 170.341 288.091 172.381 285.697 174.008C284.644 174.724 286.285 174.902 286.852 174.517ZM117.872 156.855C115.896 159.416 113.72 161.803 112.198 164.679C112.102 164.861 111.9 165.013 111.664 165.113C111.759 165.273 111.704 165.489 111.377 165.745C109.655 167.092 105.553 166.722 106.254 163.777C106.795 161.506 109.445 162.322 111.095 163.365C111.824 162.154 112.645 161.014 113.543 159.909C113.749 159.655 116.036 157.154 115.29 156.773C114.65 156.436 114.003 156.113 113.348 155.803C111.244 154.829 109.1 153.935 106.912 153.163C104.945 156.366 101.823 161.569 98.1528 161.942C96.4983 162.11 95.0264 159.971 96.4859 158.689C97.9038 157.443 100.037 156.897 101.838 157.499C102.14 157.135 102.447 156.776 102.732 156.398C103.757 155.037 104.745 153.645 105.654 152.203C105.924 151.774 106.621 151.534 107.103 151.694C110.762 152.912 114.335 154.454 117.722 156.296C117.912 156.399 118.018 156.666 117.872 156.855ZM100.816 158.663C99.8561 158.272 98.8842 158.718 97.8999 160.031C97.9513 160.397 98.1437 160.618 98.4772 160.695C98.9915 160.432 99.4479 160.073 99.8613 159.672C100.194 159.348 100.502 159.003 100.816 158.663ZM110.362 164.931C108.743 163.256 108.199 166.584 110.17 165.041C110.227 164.997 110.293 164.961 110.362 164.931ZM172.271 77.0505C172.167 76.9048 172.164 76.7534 172.252 76.598C174.007 73.4625 176.505 70.7606 179.281 68.5099C179.575 68.2713 180.495 68.049 180.753 68.4709C181.789 70.1618 182.93 71.765 184.206 73.2837C184.634 73.7914 185.955 74.9317 186.455 75.7613C186.799 75.8796 186.977 76.1175 186.643 76.4153C186.624 76.546 186.566 76.6812 186.488 76.8177C186.53 77.7175 186.512 80.7086 186.15 81.5447C185.609 82.7929 183.709 82.4945 182.828 81.9315C181.312 80.9628 182.09 79.4897 183.062 78.3578C183.489 77.8598 183.941 77.3911 184.394 76.9172C184.922 76.3672 183.613 75.4252 183.246 74.9889C181.906 73.3955 180.651 71.7722 179.522 70.0338C177.497 71.8261 175.71 73.9059 174.318 76.2274C174.241 76.3568 174.183 76.4237 174.135 76.4673C174.153 76.4842 174.17 76.4972 174.191 76.5284C174.507 76.9887 174.818 77.4529 175.115 77.9262C175.949 79.2556 177.045 80.8978 177.783 82.5992C177.916 82.6882 177.98 82.804 177.925 82.9392C178.393 84.1022 178.678 85.2848 178.577 86.4082C178.395 88.4372 175.966 89.9728 173.989 89.1439C171.525 88.1115 174.095 84.4982 175.738 83.0439C175.708 82.9775 175.68 82.9099 175.649 82.8443C174.714 80.8159 173.569 78.8701 172.271 77.0505ZM176.276 84.4072C175.95 84.8063 175.674 85.249 175.463 85.7191C175.202 86.2034 175.035 86.7151 174.963 87.254C176.015 87.9756 176.576 87.8911 176.646 86.9998C176.724 86.1286 176.554 85.2503 176.276 84.4072ZM184.604 78.7856C184.092 79.4468 183.159 80.5403 184.684 81.048C184.977 81.1936 184.935 81.1215 184.56 80.8322C184.66 80.119 184.681 79.4084 184.682 78.6926C184.654 78.7245 184.626 78.7564 184.604 78.7856ZM224.469 106.784C223.887 110.817 222.456 115.078 220.696 118.736C220.623 118.888 220.504 119.009 220.362 119.102C220.307 119.186 220.227 119.273 220.109 119.363C218.127 120.879 213.181 122.359 212.52 118.571C212.302 117.322 213.398 116.482 214.492 116.246C216.152 115.888 217.89 116.624 219.396 117.449C220.878 114.145 222.05 110.479 222.561 106.934C222.682 106.098 224.605 105.839 224.469 106.784ZM218.425 118.829C216.987 118.1 213.769 116.645 214.49 118.438C215.22 120.254 217.133 119.658 218.425 118.829ZM244.599 90.2302C241.737 84.1146 243.856 77.5283 247.987 72.525C254.689 64.409 266.676 63.2446 274.936 69.0729C274.996 69.0859 275.053 69.1035 275.098 69.1321C283.659 74.4565 286.15 86.2515 281.022 94.898C278.76 98.7116 275.57 101.321 271.218 102.344C269.173 102.824 266.915 102.963 264.973 103.792C261.991 105.063 260.964 107.736 260.387 110.74C260.375 110.8 260.345 110.857 260.306 110.911C260.482 110.925 260.588 110.966 260.551 111.037C259.684 112.689 257.926 113.169 256.112 113.11C254.961 114.924 252.318 115.126 250.434 114.473C248.853 113.924 246.22 112.131 247.153 110.132C247.223 109.983 247.443 109.867 247.71 109.786C246.382 108.703 245.48 107.392 246.121 106.047C246.16 105.966 246.244 105.897 246.353 105.836C246.19 105.765 246.028 105.693 245.866 105.621C245.448 105.436 245.986 105.083 246.554 104.901C248.352 102.364 249.443 99.5366 248.086 96.4902C247.112 94.298 245.614 92.3984 244.599 90.2302ZM254.652 112.951C253.758 112.798 252.905 112.553 252.203 112.291C251.448 112.009 250.107 111.409 248.857 110.609C248.918 111.598 249.829 112.503 250.621 113.023C251.793 113.793 253.614 114.771 254.423 113.157C254.462 113.079 254.545 113.011 254.652 112.951ZM258.719 111.339C258.595 111.289 258.513 111.205 258.498 111.084C258.358 111.098 258.236 111.092 258.154 111.055C254.709 109.531 251.263 108.007 247.818 106.482C247.859 109.871 257.159 114.301 258.695 111.372C258.7 111.36 258.711 111.35 258.719 111.339ZM260.793 105.534C260.653 105.543 260.525 105.533 260.43 105.49C259.773 105.199 259.116 104.909 258.459 104.618C258.001 104.68 257.561 104.574 257.581 104.229C255.133 103.147 252.686 102.064 250.239 100.981C249.893 102.379 249.183 103.755 248.165 105.158C251.695 106.72 255.225 108.282 258.756 109.844C259.182 108.182 259.825 106.728 260.793 105.534ZM254.702 101.332C254.7 101.338 254.694 101.343 254.692 101.348C255.844 101.858 256.996 102.368 258.148 102.878C258.976 101.057 259.864 99.2863 261.073 97.6695C261.761 96.7502 262.608 96.0396 263.453 95.2784C264.191 94.7329 264.73 94.021 265.067 93.1434C265.391 91.9088 264.833 91.7989 263.391 92.8131C263.146 93.0647 261.41 93.4938 261.683 92.7345C261.987 91.8841 262.166 90.8465 261.343 90.1925C260.969 89.8954 260.432 89.6932 260.017 89.7686C259.937 90.1425 259.694 90.5455 259.23 90.9727C258.88 91.2945 257.532 91.7086 257.521 90.894C257.513 90.2998 257.698 89.8206 258.009 89.4514C257.744 88.8832 256.945 88.4327 256.307 88.3202C253.622 87.8463 255.132 91.6319 255.72 92.6272C257.491 95.6281 256.018 98.4451 254.702 101.332ZM249.223 94.4644C250.181 96.2483 250.568 97.9055 250.47 99.5106C250.527 99.5184 250.579 99.5295 250.624 99.5496C251.483 99.9293 252.342 100.31 253.202 100.69C254.02 99.0042 255.193 96.8061 254.668 94.9923C254.275 93.6375 252.901 92.334 252.86 90.8712C252.814 89.2739 253.324 87.8372 254.99 87.3366C256.308 86.94 258.749 87.4815 259.678 88.5731C261.396 88.2727 263.552 89.1179 263.78 90.9856C264.341 90.7243 264.953 90.5839 265.648 90.6502C266.494 90.7315 267.171 91.5382 267.038 92.4055C266.683 94.7147 264.602 95.6502 263.216 97.3054C261.652 99.1719 260.632 101.34 259.651 103.543C260.366 103.859 261.081 104.175 261.796 104.491C262.604 103.789 263.578 103.215 264.756 102.788C268.71 101.357 273.26 101.752 276.455 98.5432C283.476 91.4934 283.426 79.3915 276.651 72.5055C276.425 72.5101 276.226 72.4613 276.109 72.3384C272.266 68.2785 266.086 65.624 260.404 66.555C253.05 67.7603 246.645 73.9904 245.368 81.401C244.451 86.7209 246.838 90.0235 249.223 94.4644ZM277.455 62.2812C278.899 60.0695 280.027 57.6868 280.706 55.1299C280.815 54.7177 278.973 54.9804 278.847 55.4582C278.168 58.0151 277.04 60.3978 275.596 62.6095C275.452 62.8305 277.152 62.746 277.455 62.2812ZM283.438 98.135C283.221 98.5192 283.621 98.8156 283.982 98.8156C285.282 98.8156 286.583 98.8156 287.883 98.8156C288.327 98.8156 288.879 98.6915 289.117 98.2682C289.334 97.884 288.934 97.5876 288.573 97.5876C287.273 97.5876 285.973 97.5876 284.673 97.5876C284.228 97.5876 283.676 97.7117 283.438 98.135ZM233.986 85.3199C233.561 85.3199 233 85.461 232.741 85.8322C232.487 86.1982 232.956 86.3789 233.25 86.3789C234.117 86.3789 234.984 86.3789 235.851 86.3789C236.275 86.3789 236.836 86.2379 237.095 85.8667C237.35 85.5006 236.881 85.3199 236.586 85.3199C235.72 85.3199 234.853 85.3199 233.986 85.3199ZM252.83 58.1471C253.199 58.8694 255.042 58.2836 254.713 57.6426C253.916 56.0856 252.909 54.6482 252.113 53.0918C251.744 52.3695 249.901 52.9553 250.229 53.5963C251.027 55.1527 252.034 56.5907 252.83 58.1471ZM287.032 77.553C289.026 75.6261 291.516 74.0508 294.205 73.3188C295.333 73.0113 295.083 72.0693 293.952 72.3768C290.814 73.2317 287.857 74.9876 285.522 77.2442C284.73 78.0087 286.589 77.9814 287.032 77.553ZM274.663 255.03C272.881 253.825 271.448 252.367 270.243 250.587C269.828 249.975 268.013 250.641 268.506 251.37C269.773 253.243 271.316 254.762 273.188 256.029C273.782 256.431 275.49 255.589 274.663 255.03ZM298.338 237.579C298.872 239.15 299.547 240.646 300.288 242.129C300.566 242.685 302.384 242.048 302.172 241.625C301.431 240.141 300.756 238.645 300.221 237.074C300.035 236.523 298.166 237.074 298.338 237.579ZM150.101 178.906C150.993 177.529 151.502 176.031 151.904 174.449C152.057 173.845 150.176 174.139 150.029 174.718C149.652 176.201 149.201 177.635 148.364 178.929C147.927 179.604 149.803 179.367 150.101 178.906ZM153.039 185.203C155.252 185.203 157.419 185.241 159.516 186.025C160.268 186.306 161.727 185.226 160.619 184.813C158.232 183.92 155.743 183.903 153.227 183.901C152.18 183.901 151.757 185.202 153.039 185.203ZM146.931 196.8C147.363 196.906 147.947 196.764 148.263 196.443C149.47 195.213 150.462 193.828 151.416 192.398C151.672 192.015 151.2 191.794 150.888 191.779C150.448 191.757 149.904 191.928 149.649 192.31C148.764 193.637 147.855 194.924 146.735 196.066C146.452 196.354 146.525 196.699 146.931 196.8ZM162.593 197.844C163.018 197.853 163.578 197.512 163.625 197.058C163.677 196.552 163.132 196.407 162.742 196.398C161.574 196.372 160.451 195.99 159.275 195.964C158.851 195.955 158.29 196.296 158.244 196.749C158.192 197.256 158.736 197.401 159.126 197.41C160.295 197.435 161.418 197.818 162.593 197.844ZM171.333 202.723C172.376 201.097 173.09 199.247 173.145 197.302C173.157 196.888 171.28 197.177 171.262 197.807C171.212 199.55 170.544 201.328 169.607 202.788C169.202 203.418 171.059 203.149 171.333 202.723ZM163.005 191.259C164.566 191.228 166.119 190.828 167.595 190.346C167.93 190.237 168.5 189.954 168.378 189.501C168.264 189.073 167.611 189.051 167.278 189.159C165.956 189.591 164.597 189.953 163.2 189.98C162.163 190.001 161.718 191.285 163.005 191.259ZM146.3 206.183C146.716 206.313 147.249 206.149 147.622 205.964C148.138 205.706 148.682 205.372 149.272 205.352C149.683 205.337 150.237 205.196 150.527 204.881C150.826 204.556 150.269 204.486 150.061 204.494C148.785 204.538 147.634 205.054 146.51 205.616C146.32 205.709 145.882 206.053 146.3 206.183ZM146.283 188.371C146.283 187.649 146.283 186.927 146.283 186.205C146.283 185.252 144.38 185.566 144.38 186.367C144.38 187.089 144.38 187.811 144.38 188.533C144.38 189.487 146.283 189.172 146.283 188.371ZM152.393 198.323C152.012 198.68 151.483 198.824 151.093 199.189C150.83 199.436 150.834 199.689 151.241 199.743C151.651 199.798 152.262 199.678 152.573 199.386C152.954 199.029 153.483 198.885 153.873 198.52C154.136 198.274 154.132 198.02 153.725 197.966C153.316 197.911 152.705 198.031 152.393 198.323ZM146.222 212.846C145.537 212.141 145.002 211.311 144.974 210.304C144.967 210.039 143.077 210.319 143.091 210.808C143.12 211.876 143.722 212.727 144.443 213.467C144.759 213.794 146.465 213.095 146.222 212.846ZM150.561 214.544C151.142 213.418 152.034 212.05 153.296 211.595C153.632 211.473 154.2 211.202 154.076 210.738C153.963 210.314 153.309 210.265 152.972 210.386C151.052 211.079 149.693 212.584 148.771 214.37C148.296 215.291 150.204 215.236 150.561 214.544ZM156.707 221.507C156.901 221.417 157.322 221.172 156.943 221.033C155.699 220.576 154.912 219.383 154.022 218.474C153.688 218.133 151.967 218.827 152.246 219.11C153.229 220.113 154.025 221.25 155.392 221.752C155.764 221.888 156.374 221.661 156.707 221.507ZM147.141 223.307C147.141 222.873 147.141 222.44 147.141 222.006C147.141 221.644 145.257 221.932 145.257 222.511C145.257 222.945 145.257 223.378 145.257 223.811C145.257 224.174 147.141 223.885 147.141 223.307ZM151.908 224.607C151.895 224.213 150.004 224.533 150.025 225.111C150.057 226.051 150.479 226.886 150.891 227.712C151.146 228.223 152.957 227.571 152.775 227.207C152.363 226.382 151.941 225.547 151.908 224.607ZM148.007 228.074C148.007 227.687 147.119 227.829 146.945 227.876C146.606 227.967 146.123 228.169 146.124 228.578C146.125 229.13 146.236 229.576 146.623 229.989C147.058 230.454 148.849 229.769 148.375 229.263C148.052 228.918 148.008 228.531 148.007 228.074ZM156.85 227.389C158.84 227.389 160.797 227.439 162.757 227.809C163.177 227.888 163.692 227.726 164.07 227.556C164.204 227.497 164.732 227.19 164.314 227.11C162.247 226.721 160.182 226.664 158.084 226.664C157.717 226.664 155.948 227.388 156.85 227.389ZM158.469 229.95C158.039 229.845 157.451 229.985 157.137 230.307C156.216 231.251 155.574 232.392 154.851 233.485C154.597 233.868 155.064 234.086 155.378 234.101C155.815 234.123 156.364 233.952 156.617 233.571C157.268 232.587 157.836 231.53 158.665 230.681C158.946 230.392 158.876 230.05 158.469 229.95ZM150.458 232.913C150.458 233.779 150.458 234.647 150.458 235.513C150.458 235.773 152.341 235.516 152.341 235.009C152.341 234.142 152.341 233.275 152.341 232.408C152.342 232.148 150.458 232.405 150.458 232.913ZM163.214 236.798C162.309 237.079 161.226 236.879 160.523 236.245C160.161 235.918 158.483 236.64 158.746 236.877C160.093 238.092 162.296 237.675 163.857 237.191C163.932 237.168 164.704 236.85 164.425 236.679C164.104 236.483 163.527 236.702 163.214 236.798ZM168.593 230.392C167.069 230.9 165.592 231.449 164.236 232.326C163.953 232.509 163.697 232.928 164.095 233.149C164.497 233.374 165.072 233.231 165.435 232.997C166.507 232.304 167.675 231.865 168.88 231.464C169.18 231.364 169.794 231.108 169.678 230.676C169.569 230.267 168.892 230.291 168.593 230.392ZM173.637 224.31C173.19 224.199 172.659 224.355 172.318 224.658C172.294 224.665 172.27 224.671 172.246 224.677C172.231 224.679 172.208 224.682 172.179 224.687C172.082 224.7 171.982 224.705 171.884 224.71C171.851 224.71 171.715 224.713 171.69 224.713C171.255 224.713 170.699 224.844 170.452 225.247C170.221 225.624 170.647 225.872 170.982 225.871C171.99 225.871 173.056 225.76 173.835 225.05C174.141 224.771 174.025 224.408 173.637 224.31ZM179.922 226.682C179.921 226.707 179.903 226.784 179.898 226.817C179.823 226.824 179.747 226.831 179.671 226.832C179.284 226.841 178.69 227.118 178.621 227.548C178.546 228.021 179.148 228.092 179.471 228.086C180.362 228.066 181.774 227.588 181.821 226.503C181.861 225.591 179.955 225.916 179.922 226.682ZM167.077 196.002C167.077 195.754 165.193 196.008 165.194 196.506C165.195 197.053 165.297 197.457 165.679 197.865C165.761 197.953 166.06 197.911 166.153 197.901C166.402 197.874 166.649 197.814 166.885 197.732C167.016 197.686 167.67 197.467 167.46 197.243C167.129 196.89 167.078 196.464 167.077 196.002ZM155.209 188.511C155.209 189.377 155.209 190.244 155.209 191.111C155.209 192.153 157.125 191.912 157.125 190.995C157.125 190.128 157.125 189.261 157.125 188.394C157.125 187.353 155.209 187.594 155.209 188.511ZM169.949 183.496C171.633 183.46 173.16 182.841 174.559 181.937C174.892 181.722 175.039 181.233 174.665 180.982C174.253 180.705 173.697 180.854 173.315 181.1C172.331 181.736 171.3 182.117 170.123 182.142C169.059 182.164 168.666 183.522 169.949 183.496ZM172.127 166.462C172.103 167.245 171.669 167.814 171.324 168.487C170.901 169.31 172.792 169.112 173.083 168.546C173.469 167.795 173.987 167.111 174.013 166.236C174.037 165.43 172.146 165.815 172.127 166.462ZM170.832 161.017C171.266 161.017 171.699 161.017 172.133 161.017C172.564 161.017 173.117 160.687 173.162 160.222C173.21 159.72 172.675 159.545 172.275 159.545C171.841 159.545 171.408 159.545 170.975 159.545C170.543 159.545 169.99 159.875 169.946 160.34C169.897 160.843 170.433 161.017 170.832 161.017ZM179.063 169.202C179.197 169.73 181.083 169.235 180.946 168.697C180.557 167.165 180.077 165.699 179.212 164.363C178.865 163.826 177.107 164.525 177.329 164.867C178.194 166.203 178.673 167.669 179.063 169.202ZM173.764 174.985C175.064 174.985 176.364 174.985 177.664 174.985C178.121 174.985 178.61 174.884 178.996 174.628C179.284 174.438 179.255 174.183 178.877 174.183C177.577 174.183 176.276 174.183 174.976 174.183C174.52 174.183 174.031 174.285 173.644 174.54C173.357 174.73 173.387 174.985 173.764 174.985ZM177.398 180.162C178.212 181.359 179.186 182.433 179.999 183.63C180.379 184.189 182.203 183.55 181.744 182.874C180.931 181.677 179.956 180.603 179.143 179.407C178.762 178.847 176.939 179.486 177.398 180.162ZM174.788 187.818C174.715 187.877 174.641 187.932 174.567 187.988C174.42 188.099 174.273 188.209 174.131 188.327C173.806 188.598 173.454 188.946 173.416 189.393C173.334 190.359 175.225 190.099 175.321 189.264C175.334 189.24 175.349 189.215 175.362 189.2C175.377 189.186 175.377 189.186 175.385 189.177C175.451 189.12 175.521 189.066 175.591 189.012C175.89 188.78 176.185 188.559 176.458 188.295C176.784 187.983 176.599 187.522 176.215 187.387C175.737 187.22 175.23 187.411 174.883 187.744C175.009 187.622 174.792 187.814 174.788 187.818ZM180.548 194.319C179.576 193.867 178.541 193.831 177.488 193.83C177.075 193.83 176.504 194.144 176.45 194.592C176.391 195.086 176.952 195.211 177.32 195.211C178.075 195.211 178.768 195.267 179.461 195.589C180.245 195.954 181.638 194.825 180.548 194.319ZM183.98 190.367C183.98 189.934 183.98 189.501 183.98 189.067C183.98 188.605 182.097 188.924 182.097 189.572C182.097 190.005 182.097 190.438 182.097 190.872C182.097 191.335 183.98 191.015 183.98 190.367ZM185.564 193.473C185.582 194.444 186.241 194.966 187.047 195.377C187.421 195.568 188.042 195.363 188.375 195.177C188.628 195.036 188.946 194.726 188.564 194.531C188.253 194.373 187.968 194.193 187.735 193.929C187.506 193.67 187.454 193.3 187.448 192.968C187.439 192.472 185.552 192.812 185.564 193.473ZM183.98 201.203C183.98 200.48 183.98 199.758 183.98 199.036C183.98 198.658 182.097 198.951 182.097 199.54C182.097 200.263 182.097 200.985 182.097 201.707C182.097 202.086 183.98 201.792 183.98 201.203ZM179.229 205.297C179.199 204.313 178.699 203.609 178.263 202.762C178.044 202.336 177.313 202.42 176.975 202.588C176.566 202.792 176.325 203.188 176.546 203.616C176.839 204.187 177.294 204.747 177.313 205.415C177.344 206.453 179.256 206.203 179.229 205.297ZM165.344 202.069C165.08 201.554 163.273 202.21 163.461 202.574C163.814 203.264 164.273 203.843 164.819 204.388C165.195 204.764 166.94 204.075 166.587 203.722C166.085 203.221 165.668 202.704 165.344 202.069ZM163.709 207.887C163.976 207.705 164.263 207.223 163.838 207.017C162.847 206.535 161.794 206.198 160.804 205.717C160.377 205.509 159.846 205.592 159.461 205.858C159.194 206.04 158.907 206.521 159.332 206.728C160.323 207.21 161.376 207.547 162.366 208.028C162.792 208.236 163.324 208.153 163.709 207.887ZM173.389 208.81C172.969 208.619 172.436 208.794 172.057 208.992C171.168 209.456 170.421 210.144 169.718 210.848C169.45 211.116 169.479 211.411 169.89 211.488C170.306 211.567 170.914 211.439 171.222 211.131C171.828 210.525 172.452 209.919 173.218 209.52C173.474 209.386 173.787 208.99 173.389 208.81ZM165.194 208.642C165.194 209.509 165.194 210.376 165.194 211.242C165.194 211.807 167.077 211.456 167.077 210.738C167.077 209.871 167.077 209.004 167.077 208.138C167.077 207.573 165.194 207.924 165.194 208.642ZM166.646 214.174C165.345 214.174 164.045 214.174 162.745 214.174C161.649 214.174 161.316 215.607 162.592 215.607C163.892 215.607 165.193 215.607 166.493 215.607C167.588 215.607 167.922 214.174 166.646 214.174ZM175.306 213.278C174.44 214.578 173.573 215.878 172.706 217.179C172.031 218.192 173.785 218.578 174.301 217.803C175.167 216.503 176.035 215.203 176.901 213.903C177.577 212.891 175.823 212.504 175.306 213.278ZM179.063 212.976C179.05 213.18 178.921 213.387 178.833 213.565C178.714 213.801 178.646 214.013 178.629 214.277C178.604 214.659 180.473 214.4 180.513 213.772C180.526 213.569 180.654 213.361 180.743 213.183C180.861 212.947 180.929 212.736 180.946 212.472C180.971 212.089 179.103 212.348 179.063 212.976ZM171.899 242.497C171.456 242.378 170.891 242.531 170.567 242.854C169.669 243.752 168.755 244.603 167.701 245.318C167.417 245.51 167.163 245.928 167.564 246.157C167.961 246.384 168.547 246.25 168.905 246.007C170.077 245.213 171.107 244.269 172.106 243.27C172.4 242.976 172.299 242.605 171.899 242.497ZM177.948 244.163C177.493 244.003 176.936 244.169 176.616 244.52C176.099 245.087 176.017 245.867 176.016 246.602C176.016 247.074 176.471 247.249 176.886 247.217C177.254 247.189 177.924 246.923 177.924 246.458C177.924 246.214 177.932 245.972 177.958 245.73C177.987 245.47 178.067 245.21 178.192 245.072C178.491 244.744 178.355 244.305 177.948 244.163ZM178.346 236.743C178.017 236.12 176.196 236.743 176.463 237.247C176.692 237.681 176.988 238.036 177.359 238.356C177.653 238.61 177.982 238.821 178.262 239.091C178.723 239.536 180.497 238.831 180.015 238.365C179.452 237.823 178.725 237.459 178.346 236.743ZM172.2 249.151C171.984 248.742 171.239 248.865 170.922 249.016C170.536 249.201 170.256 249.562 170.474 249.976C170.697 250.399 171.015 250.724 171.368 251.04C171.527 251.182 171.698 251.311 171.866 251.44C171.932 251.491 171.998 251.542 172.063 251.593C172.084 251.609 172.294 251.795 172.207 251.71C172.554 252.046 173.06 252.048 173.485 251.845C173.762 251.712 174.281 251.221 173.933 250.884C173.331 250.303 172.603 249.915 172.2 249.151ZM185.273 234.68C185.706 233.813 186.139 232.946 186.573 232.079C186.747 231.73 185.91 231.795 185.797 231.813C185.436 231.87 184.886 232.014 184.705 232.374C184.271 233.241 183.839 234.108 183.405 234.975C183.231 235.324 184.067 235.26 184.181 235.241C184.541 235.185 185.093 235.041 185.273 234.68ZM192.224 226.073C192.246 225.56 192.572 225.027 192.918 224.665C193.214 224.355 193.097 223.954 192.694 223.829C192.246 223.691 191.683 223.849 191.362 224.186C190.869 224.702 190.356 225.511 190.323 226.245C190.282 227.17 192.189 226.852 192.224 226.073ZM178.569 157.79C178.993 157.893 179.597 157.759 179.901 157.433C180.093 157.229 180.256 157.016 180.388 156.769C180.505 156.552 180.598 156.315 180.769 156.133C181.041 155.842 180.987 155.505 180.574 155.404C180.15 155.301 179.546 155.435 179.242 155.761C179.05 155.965 178.887 156.179 178.755 156.425C178.638 156.643 178.545 156.879 178.375 157.061C178.101 157.353 178.155 157.689 178.569 157.79ZM183.597 161.183C183.949 161.089 184.414 160.879 184.414 160.463C184.414 160.318 184.414 160.174 184.414 160.029C184.414 159.633 183.53 159.764 183.346 159.813C182.995 159.908 182.53 160.116 182.53 160.534C182.53 160.678 182.53 160.822 182.53 160.967C182.53 161.363 183.415 161.232 183.597 161.183ZM190.102 134.143C189.667 134.025 189.082 134.169 188.77 134.5C187.793 135.537 187.32 136.86 187.292 138.275C187.275 139.156 189.173 138.802 189.187 138.08C189.21 136.922 189.498 135.78 190.31 134.92C190.593 134.62 190.511 134.255 190.102 134.143ZM188.331 144.45C187.977 144.479 187.287 144.734 187.287 145.191C187.287 145.624 187.287 146.057 187.287 146.491C187.287 146.955 187.746 147.107 188.149 147.074C188.502 147.044 189.192 146.789 189.192 146.332C189.192 145.899 189.192 145.466 189.192 145.032C189.192 144.568 188.733 144.416 188.331 144.45ZM189.5 124.178C188.745 125.635 187.655 126.818 186.304 127.74C185.952 127.98 185.851 128.504 186.219 128.775C186.629 129.076 187.189 128.94 187.574 128.677C189.164 127.592 190.428 126.146 191.313 124.438C191.821 123.459 189.909 123.388 189.5 124.178ZM190.89 111.775C191.335 111.766 191.825 111.612 192.14 111.288C192.93 110.476 193.517 109.499 194.307 108.688C194.627 108.359 194.036 108.233 193.824 108.237C193.379 108.246 192.889 108.4 192.573 108.724C191.784 109.536 191.197 110.513 190.407 111.324C190.087 111.652 190.678 111.779 190.89 111.775ZM189.117 117.881C188.313 116.674 187.502 115.464 187.014 114.087C186.795 113.466 184.927 114.017 185.131 114.592C185.645 116.044 186.514 117.327 187.363 118.6C187.689 119.089 189.519 118.484 189.117 117.881ZM196.086 113.46C194.933 114.052 193.849 114.76 192.619 115.194C192.339 115.292 191.852 115.697 192.137 116.025C192.439 116.374 193.035 116.213 193.395 116.087C194.627 115.653 195.708 114.946 196.862 114.353C197.118 114.221 197.648 113.87 197.345 113.521C197.066 113.2 196.417 113.29 196.086 113.46ZM196.121 120.743C196.108 120.3 195.661 120.206 195.282 120.245C194.977 120.277 194.214 120.511 194.227 120.938C194.253 121.84 194.541 122.73 195.172 123.397C195.684 123.939 197.477 123.22 196.91 122.619C196.442 122.123 196.141 121.429 196.121 120.743ZM199.929 107.378C199.485 108.348 199.504 109.451 199.063 110.412C198.675 111.257 200.558 111.037 200.821 110.466C201.265 109.496 201.247 108.393 201.687 107.432C202.075 106.588 200.192 106.807 199.929 107.378ZM197.23 101.072C196.285 100.869 195.338 102.202 196.586 102.47C198.66 102.915 200.656 102.378 202.531 101.475C203.69 100.917 202.656 99.8649 201.687 100.332C200.237 101.031 198.831 101.415 197.23 101.072ZM189.373 106.484C189.706 106.427 190.304 106.292 190.471 105.947C190.942 104.977 191.318 103.906 191.349 102.818C191.358 102.475 189.481 102.74 189.465 103.323C189.437 104.338 189.048 105.358 188.609 106.262C188.448 106.592 189.27 106.501 189.373 106.484ZM194.993 98.239C196.343 98.1922 197.551 97.7052 198.746 97.1084C198.876 97.0434 199.41 96.732 198.985 96.6488C198.574 96.5688 198.036 96.7151 197.67 96.8971C197.246 97.1091 196.709 97.4835 196.223 97.5005C195.767 97.5161 195.286 97.6201 194.89 97.8574C194.599 98.0329 194.625 98.252 194.993 98.239ZM202.118 91.8731C201.25 90.9531 200.908 89.7608 200.884 88.5159C200.873 87.9561 198.986 88.315 199 89.0204C199.026 90.3511 199.443 91.6189 200.366 92.5973C200.801 93.0595 202.59 92.373 202.118 91.8731ZM205.015 96.2295C205.291 96.195 206.085 95.9844 206.085 95.5865C206.085 95.173 206.049 94.4391 206.332 94.1283C206.589 93.8461 206.574 93.5432 206.152 93.4548C205.744 93.3696 205.112 93.4905 204.82 93.8117C204.294 94.3883 204.201 95.0671 204.2 95.8206C204.2 96.2399 204.686 96.2704 205.015 96.2295ZM209.127 98.4795C208.693 98.4795 208.26 98.4795 207.826 98.4795C207.414 98.4795 206.842 98.7929 206.789 99.2415C206.73 99.7355 207.291 99.861 207.659 99.861C208.093 99.861 208.526 99.861 208.96 99.861C209.372 99.861 209.944 99.5477 209.997 99.0991C210.057 98.605 209.495 98.4795 209.127 98.4795ZM211.548 89.2609C211.137 89.1556 210.594 89.3071 210.229 89.4943C209.477 89.8818 208.813 90.4084 208.062 90.7945C207.904 90.8758 207.414 91.2015 207.838 91.3101C208.248 91.4154 208.792 91.2639 209.157 91.0767C209.909 90.6898 210.574 90.1626 211.323 89.7764C211.482 89.6952 211.972 89.3695 211.548 89.2609ZM206.533 87.8411C206.571 86.693 207.338 85.944 208.105 85.1749C208.432 84.8473 208.233 84.3538 207.845 84.205C207.363 84.019 206.858 84.2167 206.513 84.5619C205.56 85.5162 204.666 86.546 204.618 87.9633C204.584 88.9911 206.503 88.746 206.533 87.8411ZM210.702 84.2537C210.685 84.452 212.541 84.2758 212.585 83.7492C212.597 83.6127 212.705 83.5165 212.804 83.4359C213.103 83.3806 213.399 83.287 213.658 83.1368C213.721 83.0998 213.915 82.9931 213.886 82.8826C213.857 82.7741 213.633 82.7734 213.561 82.776C212.855 82.8053 212.146 83.0036 211.525 83.3436C211.171 83.536 210.739 83.8136 210.702 84.2537ZM211.719 77.2474C211.724 76.9815 211.795 76.7169 211.95 76.5011C212.037 76.3808 212.105 76.3379 212.238 76.2385C212.139 76.3126 212.401 76.1448 212.379 76.1572C212.468 76.1052 212.561 76.059 212.652 76.0122C212.899 75.8867 213.233 75.5012 212.832 75.3303C212.411 75.1508 211.882 75.3264 211.502 75.5201C211.033 75.7587 210.604 76.0447 210.255 76.44C209.928 76.8099 209.844 77.2773 209.835 77.7519C209.825 78.2714 211.706 77.9431 211.719 77.2474ZM216.938 81.3321C217.358 81.4277 217.877 81.2671 218.254 81.0909C219.081 80.7054 220.018 80.6144 220.855 80.2243C221.006 80.1541 221.507 79.8316 221.086 79.7354C220.666 79.6399 220.146 79.8004 219.769 79.976C218.943 80.3608 218.005 80.4525 217.169 80.8432C217.018 80.9134 216.517 81.2365 216.938 81.3321ZM215.363 86.1065C215.508 86.1065 215.653 86.1065 215.797 86.1065C216.247 86.1065 216.743 85.9837 217.129 85.7496C217.428 85.5682 217.386 85.3628 217.026 85.3628C216.881 85.3628 216.736 85.3628 216.592 85.3628C216.142 85.3628 215.646 85.4857 215.26 85.7197C214.96 85.9011 215.002 86.1065 215.363 86.1065Z" fill="#340679"/>
</svg>
