<svg width="335" height="335" viewBox="0 0 335 335" fill="none" xmlns="http://www.w3.org/2000/svg">
<circle opacity="0.1" cx="167" cy="168" r="123" fill="#8036E4"/>
<path d="M66.957 248.369H103.536C103.536 248.369 103.536 248.369 100.723 259.061C97.9088 269.754 93.9695 278.195 93.9695 278.195L75.3984 278.758L68.0826 261.312L66.957 248.369ZM178.946 66.5971L166.144 66.175L165.862 114.854C165.862 114.854 168.113 113.447 170.364 111.055C172.615 108.663 179.79 104.724 179.79 104.724L179.368 103.599L178.946 66.5971ZM145.04 72.084L144.196 72.6468L143.211 75.742L144.196 84.4648L143.492 110.352C143.492 110.352 147.432 119.215 149.401 123.295C151.371 127.375 154.607 127.516 154.607 127.516L156.717 124.421L156.436 73.4909L145.04 72.084ZM124.218 95.5793C125.484 95.0165 126.75 97.5489 126.75 97.5489L127.735 96.5641C127.735 96.5641 128.157 93.1875 129.142 92.9062C130.127 92.6248 132.097 93.891 132.097 93.891C132.097 93.891 132.097 93.891 132.378 92.6248C132.659 91.3586 134.207 91.9213 134.207 91.9213L134.066 82.6358C134.066 82.6358 130.69 81.7916 127.313 81.2289C123.937 80.6661 121.685 82.073 121.685 82.073L121.123 82.2137V97.4082L122.108 97.8303C122.108 97.8303 122.952 96.142 124.218 95.5793ZM128.861 114.432C128.861 114.432 128.298 114.15 126.61 113.025C124.921 111.899 122.389 108.382 122.248 107.96L122.108 135.254H134.066L134.77 128.36L126.469 115.276L128.861 114.432ZM102.552 112.321L103.396 135.113L110.008 135.395L116.339 135.254L116.199 113.588L102.552 112.321ZM96.3613 136.239V123.295L83.9805 122.732L84.4026 135.254L96.3613 136.239ZM209.804 121.842L197.142 117.527C197.142 117.527 193.859 116.964 192.453 117.34C191.046 117.715 189.733 122.404 189.733 122.404C189.733 122.404 184.105 142.758 183.73 144.352C183.354 145.946 186.544 147.916 186.544 147.916C186.544 147.916 195.829 151.199 196.111 151.387C196.392 151.574 193.953 148.854 193.953 148.854L191.234 145.29C191.234 145.29 191.046 142.664 191.89 142.382C192.735 142.101 195.642 143.133 195.642 143.133L194.892 141.35C194.892 141.35 194.986 138.724 195.174 138.068C195.361 137.411 197.519 139.381 197.519 139.381C197.519 139.381 197.519 137.036 198.644 136.285C199.77 135.535 200.426 137.13 200.426 137.13L201.27 136.191C201.27 136.191 201.27 136.191 202.396 135.816C203.522 135.441 206.523 140.694 206.523 140.694L208.024 137.598C208.024 137.598 211.494 127.937 212.15 126.156C212.807 124.374 209.804 121.842 209.804 121.842Z" fill="#A358E7"/>
<path d="M202.634 88.7297C202.696 88.0223 203.071 87.3999 203.724 87.0887C204.355 86.7882 205.318 86.5788 205.858 87.1641C206.193 87.526 204.857 88.0606 204.41 87.8237C204.324 88.033 204.273 88.2834 204.255 88.4894C204.214 88.9593 202.584 89.2947 202.634 88.7297ZM188.236 85.7645C188.064 85.8472 187.63 86.1106 187.758 86.3757C187.97 86.8174 188.15 87.2677 188.482 87.6363C188.906 88.109 190.464 87.4961 189.988 86.9666C189.792 86.7494 189.662 86.5074 189.54 86.2541C190.528 85.7949 191.48 85.334 192.15 84.406C192.388 84.0762 191.949 83.8613 191.686 83.8444C191.285 83.8196 190.854 83.9811 190.616 84.3115C190.054 85.0892 189.062 85.3655 188.236 85.7645ZM190.626 89.4731C190.02 89.4641 189.42 89.2897 188.877 89.033C188.186 88.7066 186.996 89.7022 187.94 90.1479C188.739 90.5255 189.608 90.6752 190.487 90.6887C190.847 90.6943 191.339 90.4101 191.383 90.0218C191.432 89.5885 190.951 89.4782 190.626 89.4731ZM195.445 85.1905C195.652 84.7808 195.821 84.3942 195.832 83.9282C195.841 83.5681 195.402 83.5523 195.131 83.5872C194.891 83.6176 194.211 83.7954 194.203 84.1365C194.194 84.5068 194.095 84.8348 193.929 85.1629C193.578 85.8563 195.209 85.6587 195.445 85.1905ZM188.077 83.4797C188.09 83.227 188.245 83.0385 188.362 82.8179C188.555 82.4538 188.192 82.1719 187.864 82.1325C187.464 82.0841 186.997 82.2636 186.802 82.6316C186.635 82.9485 186.444 83.2332 186.425 83.6041C186.382 84.455 188.04 84.2169 188.077 83.4797ZM194.409 81.8618C195.294 82.0092 196.173 82.1786 197.053 82.3525C197.876 82.5152 198.695 81.3508 197.609 81.1358C196.729 80.9619 195.85 80.7931 194.965 80.6451C194.142 80.5078 193.316 81.6794 194.409 81.8618ZM188.163 80.8426C188.659 80.8426 189.155 80.8426 189.65 80.8426C189.996 80.8426 190.501 80.5815 190.554 80.2028C190.612 79.7818 190.109 79.7019 189.809 79.7019C189.313 79.7019 188.818 79.7019 188.322 79.7019C187.976 79.7019 187.471 79.963 187.419 80.3418C187.361 80.7633 187.864 80.8426 188.163 80.8426ZM273.467 274.684C271.069 276.57 266.632 275.791 263.831 275.771C263.511 275.769 263.198 275.747 262.887 275.715C262.141 275.693 261.673 275.663 261.673 275.663L261.352 275.436C257.582 274.474 254.527 271.538 251.765 268.749C252.007 270.348 252.333 271.97 251.993 273.531C251.544 275.593 249.557 276.141 247.669 275.769C247.596 275.755 247.545 275.736 247.503 275.715C247.08 275.846 246.594 275.855 246.515 275.6C245.852 273.484 245.527 271.299 244.92 269.171C244.408 267.375 243.536 265.698 243.071 263.894C242.378 261.208 242.253 258.494 244.226 256.359C244.391 255.783 244.509 255.404 244.509 255.404L244.646 256.09C244.688 256.076 244.732 256.063 244.777 256.051C243.038 248.035 235.367 241.9 229.403 236.926C222.656 231.302 222.09 223.044 222.055 214.855C217.958 215.879 213.687 216.428 209.418 216.499C210.546 218.047 211.008 220.498 211.354 222.064C212.033 225.139 212.603 228.421 212.384 231.584C212.045 236.473 211.951 240.965 213.217 245.747C214.151 249.279 215.437 252.706 216.383 256.233C216.433 256.269 216.479 256.312 216.51 256.368C216.589 256.509 216.656 256.651 216.712 256.795C216.81 256.799 216.899 256.818 216.971 256.855C222.177 259.608 224.072 269.119 220.795 273.929C220.518 274.334 219.831 274.543 219.387 274.306C217.367 273.23 217.772 270.954 217.325 269.012C217.273 269.056 217.218 269.102 217.158 269.151C214.407 271.837 211.099 274.281 207.579 275.64C204.275 276.917 198.806 277.567 195.44 275.97C194.237 275.398 191.811 273.214 194.106 272.25C197.099 270.993 199.785 270.043 202.396 267.993C204.331 266.474 206.125 264.793 208.039 263.252C205.263 253.277 201.405 243.871 196.899 234.513C194.895 230.353 193.031 226.12 191.283 221.847C190.085 218.916 188.47 215.724 187.973 212.551C187.858 212.525 187.771 212.472 187.736 212.383C187.726 212.358 187.716 212.332 187.706 212.307C187.565 212.195 187.525 212.064 187.558 211.933C183.57 201.916 179.391 191.829 178.612 180.939C178.29 176.433 178.238 171.765 179.756 167.447C180.249 166.043 180.769 164.689 181.213 163.316C176.594 164.648 170.611 165.325 166.094 163.689C165.336 163.415 165.91 162.675 166.397 162.512C167.183 162.248 168.787 157.881 169.232 156.831C170.099 154.788 170.899 152.716 171.517 150.588C135.363 150.588 99.2081 150.588 63.0535 150.588C62.7958 151.172 61.4457 151.294 61.4457 150.508C61.4418 118.93 61.0703 87.3543 61.0664 55.7767C61.0664 55.3878 61.5127 55.1385 61.9421 55.1087C62.0884 54.9489 62.3169 54.833 62.6067 54.833C110.805 54.833 159.004 54.8279 207.203 54.8279C207.258 54.8279 207.308 54.833 207.355 54.8392C207.786 54.7733 208.24 54.9224 208.245 55.3772C208.296 60.4977 208.34 65.6183 208.402 70.7383C208.414 71.7327 208.423 72.7276 208.448 73.722C208.451 73.8498 208.479 74.0169 208.494 74.1446C208.53 74.2189 208.545 74.309 208.529 74.417C208.52 74.4761 208.504 74.5262 208.489 74.5774C211.03 74.4936 213.564 76.2404 214.043 78.9326C214.607 82.1156 212.713 85.0684 210.581 87.504C214.955 90.0336 216.02 96.8678 210.429 98.7716C207.893 99.6354 203.315 98.7435 201.506 96.5588C201.399 97.1238 201.285 97.6872 201.148 98.2449C202.669 98.174 204.224 98.5741 205.063 99.9804C205.423 100.584 205.616 101.224 205.65 101.859C212.304 104.408 218.575 108.2 221.654 114.908C225.104 122.424 225.458 131.173 226.412 139.265C227.08 144.943 230.805 156.385 224.317 160.106C223.393 160.636 222.438 161.031 221.463 161.323C222.04 162.681 222.685 164.012 223.118 165.425C223.15 165.531 222.989 165.633 222.833 165.705C222.833 165.705 222.833 165.706 222.834 165.706C226.34 173.458 228.979 181.638 231.44 189.772C233.271 195.826 235.489 202.157 236.201 208.476C236.223 208.674 236.137 208.846 235.994 208.983C236.087 209.012 236.161 209.058 236.201 209.133C238.304 213.05 241.026 216.671 242.837 220.74C244.79 225.13 245.829 229.867 247.302 234.429C250.199 243.396 253.432 252.375 257.786 260.753C257.891 260.847 257.999 260.937 258.106 261.029C258.182 261.066 258.239 261.117 258.277 261.178C262.21 264.593 266.321 267.697 270.58 270.696C271.261 271.175 274.935 273.53 273.467 274.684ZM245.135 257.089C245.225 257.161 245.329 257.243 245.45 257.337C245.369 257.216 245.287 257.097 245.215 256.973C245.188 257.011 245.16 257.05 245.135 257.089ZM219.811 161.711C212.382 162.988 203.982 158.568 197.781 154.91C197.814 156.233 197.888 157.554 197.957 158.876C198.065 159.006 198.066 159.186 197.982 159.357C198.036 160.432 198.081 161.509 198.089 162.589C204.592 167.352 213.67 167.879 221.27 165.701C221.304 165.659 221.344 165.62 221.391 165.584C220.956 164.258 220.355 162.996 219.811 161.711ZM194.481 150.067C193.823 149.367 193.161 148.67 192.534 147.947C191.647 146.925 189.648 145.029 189.85 143.48C190.015 142.216 191.746 141.838 192.8 142.057C193.505 142.203 194.189 142.449 194.849 142.755C193.904 140.896 193.393 138.908 194.945 138.112C195.669 137.741 196.331 137.753 196.946 138.002C196.967 137.266 197.364 136.622 198.387 136.187C199.232 135.827 199.928 135.876 200.528 136.163C201.103 135.56 202.16 135.309 202.909 135.398C204.114 135.541 204.963 136.801 205.576 137.729C205.983 138.345 206.35 138.987 206.722 139.627C208.263 135.832 210.063 132.016 211.053 128.064C211.557 126.051 211.555 124.377 210.24 123.062C210.148 123.059 210.066 123.043 209.999 123.01C207.065 121.566 204.063 120.196 200.971 119.127C199.373 118.573 197.743 118.023 196.074 117.724C194.702 117.478 192.811 117.119 192.336 118.876C192.162 119.52 192.002 120.167 191.835 120.814C191.811 120.906 191.75 120.988 191.668 121.06C189.477 128.578 187.417 136.13 185.003 143.58C184.996 143.601 184.983 143.62 184.972 143.639C185.055 143.737 185.071 143.874 184.967 144.058C183.497 146.663 190.322 148.928 194.481 150.067ZM203.823 144.796C204.189 144.362 205.454 143.2 206.411 142.114C206.374 142.095 206.341 142.071 206.319 142.039C205.109 140.315 204.336 138.105 202.743 136.676C202.544 136.497 202.262 136.227 201.97 136.11C201.957 136.184 201.753 136.338 201.769 136.603C201.784 136.845 201.812 137.079 201.898 137.308C201.911 137.343 201.927 137.376 201.941 137.411C202.615 138.295 203.169 139.403 203.746 140.267C203.835 140.38 203.925 140.492 204.015 140.603C204.035 140.627 204.041 140.653 204.041 140.68C204.062 140.707 204.082 140.738 204.103 140.764C204.463 141.214 202.896 141.77 202.581 141.375C202.512 141.29 202.395 141.112 202.245 140.878C201.6 140.111 200.606 138.994 200.246 137.932C199.605 137.124 199.018 136.605 198.759 137.017C197.678 138.733 200.59 141.51 201.449 142.827C201.46 142.845 201.464 142.862 201.471 142.88C201.56 142.968 201.649 143.051 201.737 143.124C202.05 143.38 200.58 144.011 200.207 143.705C199.251 142.919 198.571 141.765 197.788 140.817C197.326 140.258 196.858 139.676 196.304 139.203C196.118 139.044 195.929 138.874 195.716 138.751C195.371 139.966 196.177 141.499 196.712 142.534C197.124 143.332 197.568 144.121 198.063 144.873C198.247 145.033 198.429 145.194 198.604 145.359C198.695 145.445 198.678 145.544 198.598 145.641C198.601 145.646 198.605 145.652 198.608 145.656C198.903 146.054 197.337 146.585 197.078 146.237C196.927 146.033 196.727 145.761 196.503 145.442C195.189 144.282 193.459 143.034 191.784 142.875C190.78 142.78 192.738 145.745 192.885 145.929C194.234 147.629 195.805 149.149 197.236 150.78C197.48 150.856 197.561 150.984 197.533 151.127C197.719 151.345 197.904 151.564 198.085 151.788C199.952 149.421 201.877 147.1 203.823 144.796ZM210.829 140.53C210.787 140.289 210.747 140.072 210.731 139.927C210.606 138.827 210.468 137.729 210.321 136.632C210.252 136.118 210.224 135.51 210.179 134.892C209.57 136.387 208.941 137.873 208.342 139.358C208.637 139.252 208.967 139.209 209.119 139.263C209.125 139.265 209.131 139.267 209.137 139.27C209.268 139.316 209.352 139.373 209.403 139.434C209.603 139.657 210.119 140.041 210.829 140.53ZM208.031 104.246C206.013 105.556 204.892 108.338 204.036 110.473C203.049 112.935 202.246 115.457 201.507 118.002C201.506 118.007 201.502 118.012 201.5 118.016C204.513 119.027 207.442 120.317 210.298 121.697C210.515 121.657 210.716 121.658 210.837 121.734C212.947 123.061 213.375 125.001 212.785 127.35C212.396 128.905 211.888 130.434 211.329 131.949C211.339 131.965 211.35 131.98 211.358 131.998C211.995 133.473 211.9 135.75 212.101 137.329C212.241 138.432 212.837 140.425 212.582 141.701C216.183 144.07 221.39 147.399 220.795 148.247C220.449 148.739 218.791 148.815 219.259 148.148C219.063 148.427 219.054 148.174 218.649 147.841C218.136 147.419 217.606 147.018 217.073 146.623C215.724 145.626 214.356 144.653 212.983 143.688C212.457 143.319 211.839 142.951 211.205 142.57C211.066 142.54 210.956 142.481 210.904 142.387C210.135 141.922 209.369 141.43 208.717 140.889C208.361 141.359 207.891 141.804 207.641 142.105C205.912 144.181 204.149 146.229 202.433 148.316C201.369 149.61 200.308 150.906 199.28 152.229C197.872 154.041 199.552 154.422 201.071 155.262C203.865 156.806 206.741 158.296 209.776 159.313C215.044 161.079 224.812 162.775 226.037 155.142C226.685 151.112 225.672 147.062 225.184 143.07C224.145 134.58 223.964 125.292 220.822 117.232C218.38 110.967 213.738 107.021 208.031 104.246ZM205.499 103.113C205.335 103.664 205.046 104.19 204.618 104.659C201.96 107.566 197.114 106.517 194.307 104.243C190.861 109.322 188.241 114.633 186.43 120.526C186.255 121.096 184.612 121.322 184.797 120.72C186.491 115.209 188.874 110.195 191.977 105.403C191.228 105.713 190.436 105.875 189.652 105.75C188.58 105.579 187.618 104.945 187.358 103.83C187.339 103.746 187.334 103.666 187.321 103.584C183.492 107.076 179.573 111.189 177.835 116.109C175.792 121.893 178.465 127.945 179.588 133.708C180.478 138.271 181.399 142.829 182.258 147.398C182.916 150.895 183.789 154.516 183.869 158.089C187.773 159.036 192.246 158.957 196.298 158.748C196.181 156.559 196.062 154.372 196.176 152.169C196.178 152.115 196.203 152.064 196.24 152.017C196.173 151.937 196.108 151.857 196.04 151.779C193.155 151.075 181.028 148.332 183.392 143.951C183.37 143.913 183.363 143.868 183.381 143.813C185.855 136.18 187.955 128.44 190.206 120.74C190.222 120.687 190.257 120.638 190.302 120.591C190.695 118.99 190.993 117.539 192.6 116.748C194.043 116.039 196.253 116.564 197.721 116.918C198.502 117.107 199.275 117.326 200.045 117.558C201.31 113.055 202.859 106.35 206.923 103.725C206.454 103.513 205.979 103.311 205.499 103.113ZM205.96 91.6409C206.191 91.6026 206.404 91.5052 206.604 91.3719C206.407 91.458 206.193 91.5322 205.955 91.5958C205.489 91.7208 204.949 91.6966 204.427 91.7236C204.856 91.7489 205.371 91.7393 205.96 91.6409ZM203.705 77.7486C203.748 77.7407 203.791 77.7334 203.835 77.7255C203.844 77.7171 203.85 77.7125 203.85 77.7125C203.85 77.7125 203.794 77.7272 203.705 77.7486ZM204.438 83.9417C204.573 84.0909 204.728 84.2214 204.909 84.3284C204.967 84.3205 205.024 84.3165 205.077 84.3205C205.589 84.3638 206.089 84.4854 206.557 84.6632C206.598 84.6638 206.634 84.6655 206.665 84.6683C205.873 84.4403 205.04 84.1562 204.438 83.9417ZM206.845 84.7803C207.362 85.0104 207.825 85.3154 208.206 85.6784C207.86 85.2457 207.439 84.8816 206.945 84.7471C206.905 84.7358 206.864 84.724 206.824 84.7127C206.847 84.7319 206.853 84.7544 206.845 84.7803ZM187.89 78.268C187.034 81.0829 185.242 83.6193 184.653 86.5096C183.755 90.9104 186.719 92.1873 190.351 93.2627C192.142 93.7934 193.701 94.3455 194.106 96.318C194.524 98.354 194.692 100.455 194.683 102.539C196.121 101.553 197.661 100.713 199.153 99.8043C199.141 99.7632 199.139 99.717 199.159 99.6613C199.996 97.3416 199.673 93.1806 201.945 91.6262C203.038 90.8789 205.709 91.1063 206.417 90.3645C206.687 90.0815 206.9 89.7877 207.066 89.4911C207.077 89.441 207.103 89.3865 207.147 89.3274C208.08 87.4387 206.978 85.4809 204.45 85.267C204.181 85.244 204.045 85.1731 203.999 85.0791C202.973 84.7352 202.215 83.9727 202.139 82.6243C202.063 81.2928 202.413 79.8949 203.162 78.7767C203.228 78.6445 203.289 78.5285 203.346 78.4256C198.294 79.3322 192.985 79.2123 187.89 78.268ZM193.033 99.6613C192.916 99.7221 192.783 99.7666 192.636 99.7789C190.843 99.9376 188.371 101.164 188.988 103.392C189.592 105.573 191.791 104.421 193.044 103.46C193.076 102.337 193.118 100.993 193.033 99.6613ZM201.62 99.1684C199.545 100.55 197.283 101.661 195.281 103.147C197.339 105.058 202.616 107.369 203.832 103.584C204.432 101.718 203.456 99.6208 201.62 99.1684ZM209.197 98.3349C208.063 98.439 206.787 98.1858 205.332 97.6889C206.546 98.2499 207.958 98.5071 209.197 98.3349ZM171.848 149.372C171.961 148.926 172.067 148.477 172.16 148.026C173.482 141.624 174.064 135.051 174.15 128.515C169.405 132.868 165.054 137.541 159.36 140.781C155.072 143.22 148.096 146.358 143.801 142.412C140.334 139.226 137.548 135.172 135.005 131.099C135.005 132.573 135.005 134.047 135.005 135.522C135.067 135.577 135.058 135.654 135.005 135.737C135.005 135.882 135.005 136.028 135.005 136.173C135.005 136.16 134.847 136.112 134.646 136.039C134.477 136.133 134.284 136.201 134.131 136.197C132.347 136.16 130.564 136.045 128.781 135.99C127.414 135.948 126.046 135.906 124.679 135.91C124.197 135.912 123.715 135.911 123.233 135.933C122.955 135.945 122.796 135.955 122.706 135.959C122.396 136.22 121.712 136.343 121.557 136.08C121.441 135.883 121.505 135.728 121.687 135.604C121.57 135.533 121.492 135.423 121.492 135.264C121.489 125.238 121.416 115.211 121.28 105.185C120.9 104.065 120.512 103.013 119.99 101.923C119.716 101.348 118.995 100.15 119.453 99.488C119.974 98.7328 120.56 98.4272 121.169 98.4266C120.56 93.2059 121.318 87.943 120.387 82.7431C120.386 82.662 120.416 82.5945 120.477 82.541C124.813 79.8572 129.493 81.7425 134.219 81.7627C134.681 81.765 135.183 82.3187 134.979 82.577C135.05 82.6299 135.095 82.7003 135.095 82.792C135.095 84.2327 135.095 85.6739 135.095 87.1146C135.095 87.1213 135.095 87.1281 135.095 87.1354C135.095 88.5766 135.095 90.0173 135.095 91.458C135.095 91.7461 134.734 91.9222 134.379 91.9577C135.351 92.821 135.596 94.8469 135.775 95.9021C136.011 97.3062 136.167 98.7193 136.288 100.136C137.941 98.116 140.432 96.3585 142.592 97.0873C142.757 97.143 142.965 97.237 142.915 97.4559C142.339 99.972 140.264 101.966 139.956 104.524C139.793 105.881 139.733 107.091 139.186 108.197C139.931 107.842 140.676 107.488 141.423 107.139C141.549 107.081 141.759 107.045 141.974 107.034C142.173 106.991 142.355 106.981 142.469 107.028C142.497 107.04 142.525 107.06 142.554 107.077C142.657 107.107 142.719 107.151 142.718 107.209C143.033 107.523 143.326 108.144 143.578 108.777C143.519 103.069 143.788 97.363 143.671 91.6532C143.542 85.4066 141.999 78.5995 143.765 72.4806C143.807 72.3371 143.958 72.1784 144.106 72.1446C148.344 71.1772 152.413 72.547 156.664 72.6123C157.265 72.6213 157.575 73.4221 157.289 73.7828C157.374 73.7839 157.436 73.7952 157.436 73.825C157.436 90.481 157.436 107.137 157.436 123.793C158.403 122.57 159.343 121.316 160.402 120.197C162.232 118.262 164.11 116.345 166.051 114.495C165.913 114.252 165.811 114.021 165.804 113.882C164.913 97.8858 165.967 81.8477 164.865 65.8597C164.854 65.7781 164.878 65.7117 164.938 65.6599C169.678 64.1765 174.414 66.0578 179.231 65.6239C179.838 65.5693 180.426 67.481 180.195 67.5018C180.142 67.5063 180.078 67.5091 180.011 67.5108C180.198 67.7545 180.343 68.0044 180.343 68.2002C180.343 80.0795 180.343 91.9588 180.343 103.839C182.595 102.735 184.981 101.967 187.467 101.916C188.2 99.9585 190.817 98.8746 192.811 98.6979C192.86 98.6934 192.902 98.6945 192.944 98.6945C192.82 97.6489 192.597 96.6506 192.199 95.8239C191.221 93.794 186.669 93.6904 184.804 92.4732C179.874 89.257 185.129 82.1949 186.268 78.4008C186.314 78.2455 186.46 78.1166 186.645 78.0198C185.445 77.7643 184.262 77.4616 183.097 77.1183C182.715 77.1549 182.39 77.0597 182.47 76.7772C185.245 67.0657 200.456 66.4084 206.662 73.2611C206.686 72.6117 206.763 71.964 206.758 71.606C206.692 66.4196 206.648 61.2321 206.597 56.0457C158.638 56.0457 110.68 56.0508 62.7209 56.0508C62.7282 87.159 63.0867 118.266 63.0985 149.374C99.3482 149.372 135.598 149.372 171.848 149.372ZM166.84 113.748C169.284 111.468 171.837 109.309 174.556 107.391C176.132 106.28 177.818 105.159 179.594 104.22C179.325 103.914 179.083 103.569 179.083 103.314C179.083 91.3702 179.083 79.4267 179.083 67.4833C175.44 67.2649 165.896 65.9571 166.05 68.4124C166.366 73.4665 166.495 78.5285 166.519 83.5923C166.565 93.6454 166.358 103.703 166.84 113.748ZM148.43 119.088C149.118 120.409 153.016 128.427 154.822 126.74C155.272 126.319 155.695 125.866 156.106 125.399C156.106 108.36 156.106 91.3207 156.106 74.2814C156.106 74.143 156.287 74.0248 156.513 73.9381C153.641 73.7018 145.004 71.4659 144.552 74.8262C143.98 79.0761 144.58 83.3368 144.802 87.5884C145.227 95.7147 144.627 103.848 144.931 111.975C146.063 114.362 147.21 116.744 148.43 119.088ZM127.692 114.217C126.279 113.06 124.843 112.079 123.704 110.615C123.328 110.13 123.003 109.573 122.716 108.986C122.819 117.684 122.884 126.382 122.886 135.081C122.886 135.15 122.869 135.213 122.845 135.271C124.129 135.094 125.891 135.153 126.056 135.155C128.636 135.188 131.212 135.336 133.791 135.411C133.791 133.44 133.791 131.47 133.791 129.5C133.791 129.512 133.919 129.552 134.085 129.611C133.539 128.721 133.001 127.833 132.468 126.96C130.839 124.285 129.252 121.583 127.735 118.842C127.333 118.116 125.989 116.465 126.019 115.589C126.021 115.526 126.047 115.466 126.087 115.411C125.997 115.332 126.042 115.204 126.349 115.017C126.794 114.746 127.243 114.482 127.692 114.217ZM122.856 135.65C122.86 135.672 122.859 135.693 122.857 135.714C122.86 135.695 122.86 135.673 122.856 135.65ZM122.855 135.642C122.85 135.614 122.839 135.586 122.821 135.554C122.838 135.584 122.849 135.613 122.855 135.642ZM136.924 109.292C136.936 109.217 136.981 109.13 137.078 109.026C138.466 107.545 137.918 105.835 138.44 104.083C138.864 102.662 139.641 101.494 140.322 100.19C140.767 99.3372 141.657 97.2398 139.882 98.4857C139.327 98.8757 138.79 99.2955 138.317 99.7846C137.593 100.532 136.88 101.336 136.446 102.289C136.453 102.388 136.46 102.486 136.466 102.584C136.473 102.698 136.345 102.8 136.161 102.884C135.734 103.316 134.46 103.425 134.644 102.897C134.688 102.768 134.746 102.633 134.804 102.498C134.676 100.412 134.201 93.7287 132.984 92.4102C131.919 94.3213 132.585 96.8515 132.997 99.1239C133.176 99.8352 133.332 100.552 133.433 101.271C133.493 101.696 131.849 102.04 131.803 101.708C131.798 101.671 131.79 101.635 131.784 101.598C131.68 101.589 131.614 101.563 131.613 101.52C131.6 101.141 131.465 100.355 131.319 99.3839C131.184 98.8684 131.037 98.3563 130.88 97.8532C130.465 96.5329 130.002 94.6983 128.944 93.7225C128.874 93.6505 128.793 93.5908 128.712 93.5301C128.538 93.9161 128.46 94.3202 128.474 94.7496C128.503 95.65 128.653 96.538 128.879 97.4097C129.286 98.981 129.824 100.505 130.4 102.021C130.456 102.17 130.144 102.358 129.778 102.479C129.501 102.957 128.303 103.175 128.201 102.645C127.939 101.279 127.172 99.8673 126.414 98.7249C126.045 98.1689 123.926 95.287 123.946 97.3292C123.962 98.8453 124.565 100.368 125.321 101.809C126.106 102.941 126.715 104.063 126.987 104.647C126.998 104.67 127.001 104.694 127.002 104.717C127.04 104.781 127.079 104.846 127.115 104.909C127.487 105.548 125.907 106.085 125.607 105.572C125.174 104.829 124.181 103.318 123.375 101.687C122.985 101.171 122.565 100.691 122.106 100.283C120.216 98.6045 122.07 102.26 122.302 102.821C123.091 104.731 123.474 106.767 124.452 108.617C125.611 110.807 127.218 111.967 129.028 113.446C131.612 111.973 134.253 110.603 136.924 109.292ZM133.866 82.6705C130.174 82.3508 121.56 80.1926 122.045 85.1793C122.422 89.0707 122.103 92.9763 122.338 96.8672C122.488 96.4632 122.753 96.1255 123.174 95.8858C124.547 95.1024 125.834 95.5965 126.907 96.6292C126.596 94.5655 126.976 92.785 129.261 92.6769C130.01 92.6415 130.576 93.1277 131.012 93.7743C131.243 92.1642 131.97 91.0984 133.7 91.593C133.7 90.167 133.7 88.741 133.7 87.3144C133.7 87.3076 133.7 87.3009 133.7 87.2935C133.7 85.8529 133.7 84.4117 133.7 82.971C133.7 82.85 133.765 82.7498 133.866 82.6705ZM181.632 161.913C181.911 160.886 182.131 159.838 182.245 158.735C182.25 158.694 182.271 158.654 182.3 158.616C182.263 158.598 182.239 158.576 182.239 158.546C182.152 154.527 181.132 150.431 180.373 146.5C179.444 141.696 178.529 136.886 177.549 132.092C176.346 126.207 173.965 120.665 176.864 114.922C179.216 110.261 182.817 106.416 186.678 102.961C186.768 102.88 186.98 102.807 187.218 102.754C184.884 102.733 182.569 103.436 180.343 104.549C180.343 104.672 180.343 104.794 180.343 104.917C180.343 104.933 180.222 104.839 180.062 104.694C175.841 106.876 171.957 110.476 168.899 113.277C168.227 113.893 167.563 114.517 166.905 115.146C166.909 115.217 166.911 115.288 166.915 115.359C166.924 115.524 166.826 115.494 166.685 115.36C165.053 116.927 163.458 118.533 161.908 120.182C160.008 122.206 158.439 124.498 156.554 126.521C152.756 130.599 149.365 124.329 147.76 121.339C146.214 118.461 144.779 115.524 143.377 112.573C143.029 111.839 141.894 108.78 141.342 107.965C136.678 110.166 132.067 112.483 127.651 115.151C127.624 115.941 128.824 117.425 129.186 118.079C130.4 120.271 131.647 122.445 132.935 124.594C136.126 129.922 139.409 135.443 143.599 140.062C145.217 141.845 146.783 143.515 149.358 143.433C153.7 143.296 157.736 141.095 161.208 138.631C166.002 135.229 169.889 130.978 174.264 127.114C174.268 127.111 174.276 127.107 174.281 127.103C174.653 126.601 175.829 126.567 175.826 127.324C175.79 134.734 175.393 142.66 173.375 149.86C173.381 149.976 173.346 150.098 173.276 150.208C173.222 150.396 173.171 150.587 173.115 150.775C172.142 153.992 170.899 157.169 169.364 160.163C168.978 160.916 168.539 162.015 167.899 162.81C172.079 163.967 177.505 163.169 181.472 161.949C181.527 161.932 181.58 161.921 181.632 161.913ZM180.444 182.514C181.723 192.706 185.43 202.04 189.19 211.498C202.942 217.385 221.378 216.577 234.187 208.719C234.287 208.657 234.406 208.62 234.53 208.599C233.755 202.147 231.487 195.663 229.59 189.49C227.171 181.621 224.62 173.712 221.227 166.2C213.116 168.429 203.528 168.233 196.567 163.145C196.501 163.124 196.459 163.093 196.459 163.048C196.451 161.99 196.407 160.935 196.355 159.882C192.245 160.097 187.78 160.163 183.743 159.325C183.284 162.249 182.108 164.806 181.225 167.641C179.739 172.413 179.826 177.598 180.444 182.514ZM201.195 275.867C200.799 275.862 200.418 275.85 200.052 275.832C200.429 275.857 200.81 275.871 201.195 275.867ZM220.746 268.805C220.418 270.73 220.029 272.287 220.029 272.287L219.747 272.569C219.783 272.63 219.823 272.689 219.864 272.747C220.394 271.585 220.682 270.228 220.746 268.805ZM209.869 223.157C209.453 221.274 208.962 218.023 207.371 216.501C201.272 216.383 195.243 215.283 189.805 213.198C190.495 216.235 192.026 219.281 193.188 222.072C194.94 226.282 196.752 230.482 198.772 234.572C203.676 244.502 207.612 254.682 210.359 265.42C211.69 265.16 213.385 262.794 213.971 261.882C214.675 260.788 215.508 259.324 215.313 257.965C215.171 257.941 215.066 257.884 215.041 257.78C213.076 249.717 209.558 242.292 210.565 233.759C210.983 230.214 210.637 226.639 209.869 223.157ZM246.44 255.749C246.455 255.821 246.445 255.89 246.419 255.956C246.515 256.001 246.598 256.067 246.654 256.164C248.4 259.222 252.496 260.94 256.078 261.039C251.632 252.456 248.303 243.233 245.405 234.032C243.979 229.506 242.998 224.725 240.867 220.462C239.023 216.772 236.643 213.387 234.677 209.764C231.309 211.755 227.594 213.309 223.69 214.419C223.691 218.855 223.665 223.541 225.095 227.784C226.533 232.052 229.065 234.697 232.482 237.48C238.064 242.027 244.908 248.39 246.44 255.749ZM97.5153 123.254C97.5935 123.379 97.6436 123.514 97.6436 123.655C97.6436 127.578 97.6436 131.5 97.6436 135.423C97.6683 135.471 97.6655 135.528 97.6436 135.59C97.6436 135.637 97.6436 135.686 97.6436 135.734C97.6436 136.315 97.1787 136.436 96.7071 136.302C96.5591 136.355 96.4134 136.389 96.2868 136.388C94.3452 136.379 92.4043 136.349 90.4628 136.336C89.1211 136.327 87.7795 136.318 86.4385 136.322C85.9021 136.323 85.3658 136.322 84.8301 136.334C84.6433 136.338 84.5144 136.363 84.4604 136.378C84.5104 136.362 84.632 136.319 84.8498 136.219C84.87 136.175 84.8903 136.131 84.9106 136.087C84.4857 136.289 83.9426 136.416 83.6646 136.306C83.655 136.302 83.646 136.299 83.637 136.295C83.3883 136.196 83.3737 136.045 83.4581 135.895C83.4485 133.644 83.3984 131.391 83.2617 129.144C83.2307 128.636 83.1497 123.847 82.9477 123.763C82.3629 123.518 83.085 122.97 83.3607 122.863C85.2313 122.138 88.0074 122.646 89.954 122.657C91.9563 122.669 93.9592 122.692 95.9615 122.706C96.1815 122.556 96.5237 122.578 96.8445 122.713C96.9249 122.714 97.0054 122.715 97.0853 122.715C97.7471 122.718 97.7606 122.982 97.5153 123.254ZM95.7296 135.236C95.7296 131.44 95.7296 127.646 95.7296 123.851C93.872 123.839 92.0149 123.816 90.1572 123.804C88.739 123.795 87.3214 123.785 85.9033 123.789C85.5673 123.79 85.2319 123.794 84.8959 123.796C85.3214 127.526 85.4722 131.286 85.4942 135.039C87.0766 134.873 88.9973 135.182 90.3125 135.19C92.119 135.2 93.9243 135.222 95.7296 135.236ZM84.4609 136.377C84.426 136.386 84.4249 136.388 84.4609 136.377V136.377ZM116.599 112.859C116.707 113.002 116.773 113.164 116.773 113.331C116.773 120.696 116.773 128.06 116.773 135.425C116.803 135.486 116.794 135.557 116.757 135.634C116.707 135.922 116.517 136.061 116.274 136.092C116 136.262 115.671 136.391 115.417 136.389C113.475 136.371 111.534 136.317 109.593 136.294C108.252 136.277 106.909 136.26 105.568 136.267C105.12 136.269 104.672 136.269 104.224 136.281C102.629 136.326 105.367 136.088 104.586 135.452C104.586 135.452 104.585 135.453 104.585 135.454C105.01 135.864 103.225 136.626 102.661 136.213C102.652 136.206 102.642 136.2 102.633 136.193C102.514 136.106 102.535 135.97 102.597 135.85C102.595 135.837 102.589 135.826 102.589 135.812C102.583 131.765 102.529 127.717 102.401 123.672C102.343 121.816 102.28 119.961 102.189 118.106C102.155 117.404 102.419 113.607 101.943 113.21C101.668 112.981 102.082 112.619 102.26 112.518C103.952 111.568 106.969 112.139 108.794 112.157C111.267 112.182 113.741 112.244 116.216 112.267C116.916 112.272 116.891 112.569 116.599 112.859ZM102.997 113.372C102.941 113.388 102.941 113.393 102.997 113.372V113.372ZM114.886 135.227C114.87 135.168 114.859 135.107 114.859 135.045C114.859 127.83 114.859 120.613 114.859 113.398C112.932 113.375 111.005 113.33 109.078 113.309C107.718 113.294 106.358 113.278 104.999 113.284C104.712 113.285 104.426 113.291 104.14 113.294C104.283 114.396 104.159 116.143 104.185 116.681C104.29 118.83 104.378 120.979 104.441 123.129C104.555 127.086 104.617 131.043 104.625 135.002C106.117 134.85 107.929 135.126 108.973 135.137C110.944 135.156 112.915 135.199 114.886 135.227ZM72.63 258.906C80.3004 259.789 88.0142 259.399 95.7156 259.378C97.4207 259.374 97.3493 257.884 95.6638 257.889C88.2123 257.908 80.7501 258.298 73.3273 257.444C71.975 257.288 70.7509 258.69 72.63 258.906ZM73.1354 255.081C73.5996 255.327 74.446 254.951 74.8608 254.758C74.9728 254.705 76.0325 254.159 75.6036 253.932C74.8006 253.507 74.3521 252.723 74.7539 251.849C74.957 251.407 73.7533 251.675 73.6525 251.703C73.1871 251.833 72.3565 252.087 72.1303 252.579C71.6547 253.613 72.182 254.577 73.1354 255.081ZM83.9983 254.429C83.4316 253.649 82.915 252.683 82.8964 251.696C82.8852 251.11 83.4176 251.728 83.5537 251.907C83.8081 252.242 84.1385 252.722 84.2932 253.189C84.3456 253.217 84.3956 253.249 84.4497 253.276C84.9466 253.527 85.2764 254.195 85.5009 254.672C85.5206 254.714 85.9759 255.922 85.6078 255.737C84.9657 255.413 84.426 255.018 83.9983 254.429ZM84.4035 253.972C84.4035 253.971 84.403 253.97 84.4024 253.969C84.4136 254.044 84.4142 254.048 84.4035 253.972ZM92.6221 255.118C93.1139 255.117 93.5737 255.064 94.043 254.906C94.859 254.631 95.7448 254.261 96.3836 253.663C96.8011 253.272 95.9215 253.527 95.7893 253.57C95.5107 253.663 95.24 253.778 94.9744 253.904C94.4347 253.929 93.8658 254.213 93.3987 254.449C93.1499 254.575 92.8899 254.711 92.6755 254.892C92.6631 254.903 92.4285 255.118 92.6221 255.118ZM116.722 215.367C116.203 219.146 112.128 221.403 109.893 224.197C107.612 227.048 106.237 230.282 104.941 233.666C102.822 239.198 100.322 243.591 95.7313 246.401C97.5794 246.401 99.4275 246.401 101.276 246.401C101.805 246.401 102.346 246.904 102.641 247.454C103.202 246.603 105.03 246.138 105.124 247.246C105.686 253.855 103.002 260.891 100.728 266.967C99.1467 271.191 97.4258 275.379 95.491 279.455C95.1933 280.083 94.3368 280.35 93.7048 280.332C91.7504 280.275 89.7824 280.226 87.8122 280.157C85.0811 280.419 82.3162 280.319 79.5936 280.004C78.1687 279.84 76.3116 279.844 74.9936 279.168C73.4421 278.372 72.9226 274.95 72.419 273.505C70.8483 268.999 69.3772 264.442 68.2309 259.808C67.3187 256.121 66.4053 252.257 66.4965 248.423C65.7598 247.718 65.3923 246.401 66.5151 246.401C66.766 246.401 67.0176 246.401 67.2686 246.401C67.3901 246.357 67.5308 246.352 67.6839 246.401C69.684 246.401 71.684 246.401 73.6841 246.401C65.2505 240.669 63.7328 230.853 64.0631 221.275C64.2528 215.781 62.5982 210.514 62.4992 205.066C62.4407 201.833 63.6365 198.98 67.3795 199.309C76.4962 200.111 76.445 211.04 77.0443 218.028C77.0758 218.394 77.1017 218.771 77.1276 219.152C78.66 216.84 81.0663 214.916 82.3354 212.531C84.4221 208.607 82.8824 204.289 83.1317 200.113C83.489 194.113 94.0104 196.815 95.8276 200.658C97.1759 203.51 96.2417 206.708 95.307 209.544C94.7245 211.312 93.9935 213.093 94.3374 214.995C94.7375 217.208 95.8411 219.36 96.1089 221.598C97.4275 219.961 98.9177 218.442 99.8445 216.501C101.011 214.059 101.835 209.791 104.323 208.287C109.232 205.318 117.599 208.978 116.722 215.367ZM77.6555 223.125C77.7365 223.43 77.8265 223.729 77.9385 224.017C78.996 226.731 80.0759 229.515 80.5177 232.411C81.2599 237.278 79.7326 241.832 78.2435 246.4C78.9954 246.4 79.7467 246.4 80.4985 246.4C83.5622 236.311 85.0389 225.821 88.0851 215.724C88.1965 215.355 89.5139 215.838 89.3885 216.253C86.3957 226.173 84.919 236.473 81.9628 246.399C82.4136 246.399 82.8649 246.399 83.3157 246.399C89.6575 240.966 92.3846 232.857 93.2659 224.647C93.514 222.333 93.0408 220.403 92.3429 218.21C91.7982 216.497 91.0767 214.457 91.5562 212.64C92.2203 210.122 93.3615 207.675 93.6204 205.061C93.9018 202.217 93.0875 199.465 90.2596 198.215C88.2922 197.346 86.1374 196.813 85.9747 199.537C85.8886 200.976 86.0395 202.402 86.1391 203.836C86.3827 207.337 86.5313 210.769 84.3371 213.706C82.2605 216.485 78.8119 219.157 78.5564 222.837C78.5452 223.001 78.1479 223.092 77.6555 223.125ZM75.5046 245.784C75.513 245.789 75.5181 245.794 75.526 245.799C75.5485 245.73 75.5716 245.659 75.5946 245.59C74.3498 240.107 72.4781 234.813 70.9451 229.402C69.1893 223.206 68.0975 216.971 68.0435 210.519C68.0373 209.799 69.3902 210.164 69.3953 210.809C69.4915 222.228 73.7088 232.426 76.369 243.241C77.5452 239.646 78.6071 235.912 78.0331 232.151C77.4112 228.074 75.2941 224.449 74.7888 220.369C74.235 215.901 75.0988 200.739 68.0767 201.176C63.9686 201.431 65.0569 206.917 65.452 209.666C66.0851 214.07 66.9084 218.472 66.5989 222.941C66.0074 231.473 67.828 240.861 75.5046 245.784ZM69.155 248.856C68.8297 255.069 71.0638 261.702 72.8771 267.517C73.9198 270.86 75.0375 274.185 76.2643 277.467C76.5963 277.261 76.9706 277.136 77.2953 277.185C82.6466 277.992 88.1442 278.123 93.5624 278.272C95.2428 274.658 96.7662 270.956 98.1461 267.22C100.25 261.52 102.803 254.999 102.519 248.785C102.42 248.828 102.304 248.856 102.154 248.856C91.1538 248.856 80.1547 248.856 69.155 248.856ZM112.989 212.016C111.147 209.701 106.823 208.221 105.092 211.48C103.89 213.743 103.263 216.411 101.821 218.535C100.174 220.96 97.576 223.074 96.598 225.87C96.4826 226.2 96.2524 226.432 95.975 226.582C95.5276 230.082 94.4477 233.678 93.1426 236.676C91.4898 240.474 89.2123 243.747 86.1216 246.401C86.8133 246.401 87.5049 246.401 88.1971 246.401C95.7223 239.32 98.1518 228.48 103.376 219.836C103.571 219.513 104.719 219.43 104.688 219.48C99.3707 228.278 96.9283 239.283 89.1493 246.401C89.4262 246.401 89.7025 246.401 89.9794 246.401C90.1268 246.236 90.3311 246.094 90.6141 246.002C97.1365 243.876 99.8243 239.265 102.195 233.163C104.092 228.279 106.209 223.996 109.921 220.205C112.126 217.951 115.679 215.396 112.989 212.016Z" fill="#340679"/>
</svg>
