<svg width="367" height="367" viewBox="0 0 367 367" fill="none" xmlns="http://www.w3.org/2000/svg">
<mask id="mask0_1066_27597" style="mask-type:alpha" maskUnits="userSpaceOnUse" x="2" y="69" width="365" height="235">
<rect x="2" y="69" width="364.895" height="235" fill="#8036E4" fill-opacity="0.1"/>
</mask>
<g mask="url(#mask0_1066_27597)">
<circle cx="184.447" cy="251.447" r="182.447" fill="#8036E4"/>
</g>
<path d="M163.16 266.038V261.383H136.965V237.339H86.1021V261.383H61.4414V300.218H163.16V278.06V266.038ZM178.314 175.767C177.964 175.718 177.531 175.65 177.044 175.576C175.306 175.317 172.84 174.941 170.454 174.584C170.448 174.584 170.442 174.584 170.429 174.578C169.036 174.361 167.673 174.152 166.503 173.973C166.49 173.973 166.478 173.973 166.465 173.967C165.016 173.739 163.869 173.554 163.345 173.462C161.089 173.049 156.977 170.996 156.977 170.996C152.458 167.5 141.774 151.471 139.714 149.418C137.661 147.358 134.579 145.305 132.933 145.718C132.883 145.731 132.828 145.743 132.766 145.756C132.766 145.756 132.766 145.756 132.759 145.756C132.568 145.793 132.334 145.823 132.069 145.848C129.856 146.107 125.485 146.353 123.888 150.441C122.038 155.17 123.271 165.034 123.888 170.17C124.504 175.311 124.917 185.792 124.301 188.665C123.684 191.544 121.422 195.86 121.422 195.86L126.97 202.845C129.338 203.825 133.314 204.799 136.2 204.681C137.574 204.633 138.709 204.331 139.301 203.67C139.319 203.652 139.338 203.633 139.35 203.609C140.022 202.844 140.656 201.667 141.217 200.421C141.217 200.421 141.224 200.421 141.224 200.415C141.674 199.41 142.075 198.368 142.408 197.474C142.79 196.432 143.074 195.587 143.209 195.242C143.616 194.212 142.796 187.227 142.796 187.227L141.976 176.13C141.976 176.13 149.165 181.679 153.69 183.115C155.626 183.732 159.763 184.311 163.875 184.774C167.722 185.198 171.539 185.526 173.499 185.685H173.536C174.369 185.753 174.856 185.79 174.856 185.79L178.758 185.994L179.375 175.926C179.375 175.927 178.98 175.866 178.314 175.767ZM190.62 147.075L183.16 146.514L180.817 146.335L178.554 155.786C178.554 155.786 176.705 160.718 173.826 161.951C170.953 163.184 166.224 159.689 160.472 153.524C158.622 151.538 156.705 150.219 154.954 149.331C154.948 149.325 154.942 149.325 154.936 149.325C152.501 148.098 150.392 147.722 149.251 147.617C148.678 147.555 148.345 147.567 148.345 147.567C148.345 147.567 153.9 154.559 156.637 158.659C156.834 158.948 157.019 159.226 157.18 159.485C157.901 160.631 158.08 161.778 157.968 162.82C157.691 165.348 155.743 167.296 155.743 167.296L156.397 167.95L156.421 167.975L157.389 168.936C157.389 168.936 166.427 171.816 170.336 173.049C174.239 174.282 182.666 171.816 184.719 169.146C185.33 168.351 186.193 166.088 187.105 163.302C187.123 163.246 187.142 163.191 187.161 163.135C187.235 162.907 187.309 162.673 187.389 162.438C187.401 162.389 187.414 162.346 187.432 162.297C189.503 155.774 191.705 147.155 191.705 147.155L190.62 147.075ZM275.965 179.726C273.498 171.403 262.709 150.441 262.709 150.441C262.709 150.441 258.086 145.817 254.695 145.817C251.304 145.817 248.838 145.201 248.838 145.201L249.146 142.426L240.515 143.043V145.201L233.425 146.125C233.425 146.125 232.66 146.378 231.569 147.136C231.562 147.136 231.562 147.136 231.562 147.143C230.582 147.821 229.343 148.9 228.154 150.559C227.401 151.606 226.661 152.889 226.027 154.449C223.252 161.231 220.17 170.787 220.17 170.787C220.17 170.787 220.429 171.829 219.424 172.809C219.381 172.846 219.344 172.883 219.3 172.92C219.19 173.025 219.06 173.129 218.912 173.222C218.881 173.247 218.85 173.271 218.82 173.284C218.277 173.635 217.519 173.949 216.471 174.177C212.155 175.102 201.366 175.411 201.366 175.411L200.749 186.2L209.997 186.508C209.997 186.508 221.403 185.275 224.794 183.117C227.321 181.508 229.337 179.036 230.201 177.889C230.274 177.784 230.342 177.698 230.398 177.618C230.564 177.39 230.651 177.261 230.651 177.261L230.959 174.178L231.575 203.463C231.575 203.463 243.597 206.237 249.146 205.312C251.501 204.918 253.973 204.418 256.033 203.968C257.629 203.617 258.979 203.302 259.843 203.093C260.49 202.939 260.86 202.846 260.86 202.846L261.785 201.305L266.1 201.613H266.106L269.621 202.316C269.633 202.323 269.645 202.323 269.658 202.323L272.265 202.847C272.265 202.845 278.431 188.048 275.965 179.726Z" fill="#A358E7"/>
<path d="M195.632 122.062C195.46 122.025 195.077 122.13 194.732 122.26C194.238 122.179 193.197 122.469 193.197 122.925C193.222 124.991 193.246 127.049 193.259 129.109C193.265 129.325 193.703 129.355 194.147 129.263C194.01 129.442 194.307 129.571 194.96 129.411C196.816 128.948 198.523 127.943 198.782 125.897C199.036 123.931 197.414 122.426 195.632 122.062ZM194.917 128.906C194.997 128.819 195.047 128.734 195.047 128.629C195.034 126.761 195.016 124.892 194.991 123.025C197.315 124.233 197.975 128.068 194.917 128.906ZM188.505 121.533C188.499 121.101 186.711 121.409 186.718 122.013C186.749 124.368 186.774 126.729 186.785 129.091C186.792 129.522 188.579 129.214 188.573 128.61C188.555 126.248 188.53 123.894 188.505 121.533ZM188.745 116.224C188.634 116.2 188.518 116.163 188.406 116.132C188.425 116.089 188.437 116.04 188.437 115.996C188.4 112.698 188.357 109.4 188.326 106.101C189.164 105.867 189.066 105.355 188.283 105.422C188.062 105.146 186.724 105.385 186.55 105.873C183.998 106.785 182.414 108.511 182.105 111.575C181.785 114.812 184.615 116.279 187.296 116.988C187.753 117.105 189.35 116.384 188.745 116.224ZM183.986 112.599C183.296 110.127 184.547 107.901 186.539 106.779C186.57 109.683 186.607 112.594 186.644 115.498C185.411 114.923 184.393 114.067 183.986 112.599ZM204.886 124.621C204.985 119.048 199.375 117.871 194.923 117.168C194.874 113.499 194.831 109.825 194.794 106.157C196.476 106.324 198.147 106.557 199.825 106.786C199.837 106.829 199.843 106.873 199.855 106.909C200.151 107.778 201.933 107.285 201.643 106.429C201.008 104.554 201.625 102.397 201.656 100.46C201.884 100.331 201.989 100.201 201.791 100.152C201.717 100.14 201.637 100.121 201.563 100.103C201.367 99.8011 200.885 99.7388 200.478 99.8683C198.733 99.5045 196.915 99.2456 195.164 99.2092C195.041 99.2092 194.782 99.2826 194.516 99.388C194.658 99.2894 194.751 99.1661 194.751 99.0304C194.745 97.8776 194.751 96.7185 194.769 95.5588C194.775 95.1889 194.782 94.8129 194.8 94.4429C194.8 94.3936 194.819 94.258 194.831 94.1285C195.281 93.7709 195.262 93.1051 194.369 93.1051H187.895C187.396 93.1051 187.05 93.4072 186.977 93.7155C186.86 93.7826 186.761 93.8628 186.706 93.9559C186.441 94.369 186.533 95.0656 186.521 95.5348C186.472 97.1001 186.483 98.6661 186.49 100.232C186.298 100.239 186.095 100.27 185.923 100.325C180.941 101.977 177.316 105.793 176.724 111.12C176.095 116.773 180.189 121.002 185.534 121.81C185.947 121.878 187.47 121.207 187.008 121.138C175.442 119.387 176.453 104.036 186.533 100.701C186.619 100.677 186.693 100.645 186.755 100.621C187.248 100.694 188.277 100.411 188.277 99.9552C188.271 98.605 188.271 97.2543 188.29 95.9047C188.296 95.5964 188.247 94.8443 188.272 94.3449H193.037C192.975 94.6661 193.006 95.0484 193 95.3128C192.951 96.7123 192.963 98.1118 192.963 99.5113C192.963 99.7524 193.536 99.7641 194.035 99.61C193.733 99.7826 193.597 99.9429 194.004 99.9491C195.934 99.9867 197.944 100.32 199.83 100.744C199.781 102.384 199.405 104.135 199.614 105.781C198.066 105.572 196.519 105.375 194.959 105.239C194.917 105.233 194.848 105.239 194.78 105.252V104.888C194.774 104.456 192.987 104.765 192.993 105.368C192.993 105.676 192.999 105.985 192.999 106.293C193.037 110.085 193.086 113.883 193.135 117.681C193.098 117.736 193.092 117.792 193.135 117.835C193.135 117.89 193.142 117.946 193.142 118.001C193.142 118.266 193.795 118.254 194.312 118.075C197.617 118.587 201.532 119.364 202.777 122.816C204.855 128.562 200.119 132.772 195.052 134.055C195.052 133.987 195.046 133.925 195.046 133.864C195.046 133.438 193.258 133.74 193.258 134.344C193.271 135.392 193.301 136.44 193.289 137.494H188.628C188.665 136.607 188.622 135.7 188.591 134.819C188.967 134.615 189.176 134.375 188.683 134.307C188.646 134.301 188.609 134.294 188.578 134.288C188.578 134.251 188.572 134.208 188.572 134.172C188.572 133.919 187.955 133.925 187.45 134.091C185.391 133.666 183.424 132.877 181.914 131.36C181.92 131.329 181.927 131.298 181.927 131.268V128.129C182.944 128.715 184.072 129.042 185.299 129.067C185.7 129.079 186.242 128.931 186.476 128.58C186.718 128.223 186.279 128.05 185.989 128.044C184.504 128.013 183.221 127.372 182.161 126.354C182.099 126.299 182.013 126.256 181.915 126.238C181.792 125.399 180.114 125.664 180.114 126.459V131.391C180.114 131.533 180.157 131.638 180.219 131.731C180.152 131.817 180.139 131.903 180.213 131.977C181.97 133.759 184.368 134.585 186.791 135.004C186.798 135.96 186.804 136.909 186.804 137.865C186.804 138.068 186.804 138.272 186.798 138.475C186.798 138.481 186.798 138.481 186.798 138.488C186.742 138.537 186.686 138.586 186.65 138.655C186.533 138.864 186.822 138.926 187.081 138.938C187.148 138.944 187.222 138.951 187.285 138.944C187.506 138.938 187.894 138.883 188.191 138.735H193.105C193.092 138.976 193.77 138.944 193.869 138.932C194.153 138.889 194.492 138.79 194.726 138.586C194.757 138.574 194.782 138.555 194.813 138.537L194.819 138.531C194.831 138.524 194.838 138.513 194.85 138.506C194.893 138.469 194.924 138.432 194.949 138.395C195.115 138.198 195.171 137.957 195.06 137.772C195.103 136.78 195.084 135.775 195.06 134.776C200.491 133.505 204.781 130.62 204.886 124.621ZM204.886 124.621C204.985 119.048 199.375 117.871 194.923 117.168C194.874 113.499 194.831 109.825 194.794 106.157C196.476 106.324 198.147 106.557 199.825 106.786C199.837 106.829 199.843 106.873 199.855 106.909C200.151 107.778 201.933 107.285 201.643 106.429C201.008 104.554 201.625 102.397 201.656 100.46C201.884 100.331 201.989 100.201 201.791 100.152C201.717 100.14 201.637 100.121 201.563 100.103C201.367 99.8011 200.885 99.7388 200.478 99.8683C198.733 99.5045 196.915 99.2456 195.164 99.2092C195.041 99.2092 194.782 99.2826 194.516 99.388C194.658 99.2894 194.751 99.1661 194.751 99.0304C194.745 97.8776 194.751 96.7185 194.769 95.5588C194.775 95.1889 194.782 94.8129 194.8 94.4429C194.8 94.3936 194.819 94.258 194.831 94.1285C195.281 93.7709 195.262 93.1051 194.369 93.1051H187.895C187.396 93.1051 187.05 93.4072 186.977 93.7155C186.86 93.7826 186.761 93.8628 186.706 93.9559C186.441 94.369 186.533 95.0656 186.521 95.5348C186.472 97.1001 186.483 98.6661 186.49 100.232C186.298 100.239 186.095 100.27 185.923 100.325C180.941 101.977 177.316 105.793 176.724 111.12C176.095 116.773 180.189 121.002 185.534 121.81C185.947 121.878 187.47 121.207 187.008 121.138C175.442 119.387 176.453 104.036 186.533 100.701C186.619 100.677 186.693 100.645 186.755 100.621C187.248 100.694 188.277 100.411 188.277 99.9552C188.271 98.605 188.271 97.2543 188.29 95.9047C188.296 95.5964 188.247 94.8443 188.272 94.3449H193.037C192.975 94.6661 193.006 95.0484 193 95.3128C192.951 96.7123 192.963 98.1118 192.963 99.5113C192.963 99.7524 193.536 99.7641 194.035 99.61C193.733 99.7826 193.597 99.9429 194.004 99.9491C195.934 99.9867 197.944 100.32 199.83 100.744C199.781 102.384 199.405 104.135 199.614 105.781C198.066 105.572 196.519 105.375 194.959 105.239C194.917 105.233 194.848 105.239 194.78 105.252V104.888C194.774 104.456 192.987 104.765 192.993 105.368C192.993 105.676 192.999 105.985 192.999 106.293C193.037 110.085 193.086 113.883 193.135 117.681C193.098 117.736 193.092 117.792 193.135 117.835C193.135 117.89 193.142 117.946 193.142 118.001C193.142 118.266 193.795 118.254 194.312 118.075C197.617 118.587 201.532 119.364 202.777 122.816C204.855 128.562 200.119 132.772 195.052 134.055C195.052 133.987 195.046 133.925 195.046 133.864C195.046 133.438 193.258 133.74 193.258 134.344C193.271 135.392 193.301 136.44 193.289 137.494H188.628C188.665 136.607 188.622 135.7 188.591 134.819C188.967 134.615 189.176 134.375 188.683 134.307C188.646 134.301 188.609 134.294 188.578 134.288C188.578 134.251 188.572 134.208 188.572 134.172C188.572 133.919 187.955 133.925 187.45 134.091C185.391 133.666 183.424 132.877 181.914 131.36C181.92 131.329 181.927 131.298 181.927 131.268V128.129C182.944 128.715 184.072 129.042 185.299 129.067C185.7 129.079 186.242 128.931 186.476 128.58C186.718 128.223 186.279 128.05 185.989 128.044C184.504 128.013 183.221 127.372 182.161 126.354C182.099 126.299 182.013 126.256 181.915 126.238C181.792 125.399 180.114 125.664 180.114 126.459V131.391C180.114 131.533 180.157 131.638 180.219 131.731C180.152 131.817 180.139 131.903 180.213 131.977C181.97 133.759 184.368 134.585 186.791 135.004C186.798 135.96 186.804 136.909 186.804 137.865C186.804 138.068 186.804 138.272 186.798 138.475C186.798 138.481 186.798 138.481 186.798 138.488C186.742 138.537 186.686 138.586 186.65 138.655C186.533 138.864 186.822 138.926 187.081 138.938C187.148 138.944 187.222 138.951 187.285 138.944C187.506 138.938 187.894 138.883 188.191 138.735H193.105C193.092 138.976 193.77 138.944 193.869 138.932C194.153 138.889 194.492 138.79 194.726 138.586C194.757 138.574 194.782 138.555 194.813 138.537L194.819 138.531C194.831 138.524 194.838 138.513 194.85 138.506C194.893 138.469 194.924 138.432 194.949 138.395C195.115 138.198 195.171 137.957 195.06 137.772C195.103 136.78 195.084 135.775 195.06 134.776C200.491 133.505 204.781 130.62 204.886 124.621ZM194.96 129.411C196.817 128.949 198.524 127.944 198.783 125.898C199.036 123.931 197.414 122.426 195.633 122.062C195.46 122.025 195.078 122.13 194.733 122.26C194.239 122.179 193.198 122.469 193.198 122.925C193.222 124.991 193.247 127.049 193.259 129.109C193.266 129.325 193.703 129.355 194.147 129.263C194.01 129.443 194.307 129.572 194.96 129.411ZM194.991 123.025C197.315 124.233 197.975 128.068 194.917 128.906C194.997 128.819 195.047 128.734 195.047 128.629C195.034 126.76 195.016 124.892 194.991 123.025ZM188.283 105.422C188.062 105.146 186.724 105.385 186.55 105.873C183.998 106.785 182.414 108.511 182.105 111.575C181.785 114.812 184.615 116.279 187.296 116.988C187.753 117.105 189.349 116.384 188.745 116.224C188.634 116.199 188.518 116.162 188.406 116.131C188.425 116.089 188.437 116.04 188.437 115.996C188.4 112.697 188.357 109.399 188.326 106.101C189.165 105.867 189.066 105.355 188.283 105.422ZM183.986 112.599C183.296 110.127 184.547 107.901 186.539 106.779C186.57 109.683 186.607 112.594 186.644 115.498C185.411 114.923 184.393 114.067 183.986 112.599ZM186.718 122.013C186.748 124.368 186.773 126.729 186.785 129.091C186.791 129.522 188.579 129.214 188.573 128.61C188.554 126.248 188.529 123.894 188.505 121.533C188.499 121.101 186.711 121.409 186.718 122.013ZM244.423 116.692C242.962 116.224 241.421 116.009 239.898 116.224C239.522 116.279 238.967 116.464 238.899 116.902C238.832 117.327 239.393 117.457 239.701 117.408C240.952 117.229 242.173 117.426 243.369 117.808C244.054 118.025 245.478 117.025 244.423 116.692ZM243.943 120.422C242.673 119.788 241.483 119.498 240.077 119.923C239.762 120.015 239.226 120.299 239.337 120.724C239.448 121.131 240.065 121.144 240.379 121.046C241.192 120.805 241.822 121.039 242.555 121.409C242.962 121.606 243.461 121.545 243.831 121.28C244.084 121.101 244.349 120.626 243.943 120.422ZM241.199 128.129C240.904 128.16 240.207 128.37 240.194 128.777C240.188 129.116 240.12 129.534 239.935 129.739C239.923 129.757 239.911 129.769 239.904 129.776C239.892 129.782 239.886 129.788 239.867 129.8C239.854 129.807 239.854 129.807 239.849 129.813C239.843 129.813 239.836 129.819 239.83 129.819C239.818 129.825 239.8 129.825 239.781 129.832C239.689 129.838 239.553 129.85 239.701 129.85C239.288 129.857 238.764 129.967 238.53 130.356C238.314 130.713 238.708 130.96 239.035 130.954C240.485 130.936 241.957 130.202 241.988 128.58C242.001 128.16 241.532 128.092 241.199 128.129ZM233.801 122.216C232.735 123.647 230.01 126.742 231.563 128.585C231.927 129.01 233.634 128.388 233.234 127.913C231.914 126.353 234.554 123.4 235.447 122.198C235.897 121.6 234.115 121.798 233.801 122.216ZM232.882 120.337C233.086 119.967 232.71 119.683 232.358 119.671C231.901 119.652 231.482 119.467 231.038 119.369C230.453 119.246 229.781 119.302 229.305 119.695C229.046 119.911 228.794 120.3 229.183 120.54C229.459 120.707 229.891 120.688 230.218 120.546C230.335 120.577 230.459 120.614 230.576 120.651C230.946 120.763 231.328 120.848 231.716 120.867C232.136 120.879 232.667 120.737 232.882 120.337ZM151.366 121.872C151.058 121.434 149.326 122.013 149.702 122.544C150.719 123.98 150.973 125.596 149.709 126.958C149.413 127.279 149.961 127.414 150.177 127.414C150.596 127.407 151.065 127.26 151.361 126.945C152.815 125.373 152.538 123.523 151.366 121.872ZM146.126 129.849C145.831 129.843 145.677 129.849 145.429 129.658C145.103 129.399 144.973 128.986 144.967 128.579C144.955 128.166 144.523 128.092 144.178 128.129C143.894 128.16 143.161 128.375 143.173 128.777C143.186 129.38 143.302 129.972 143.783 130.385C144.24 130.792 144.856 130.946 145.454 130.952C145.867 130.959 146.397 130.83 146.632 130.448C146.847 130.083 146.447 129.849 146.126 129.849ZM145.035 117.414C145.842 117.525 146.891 116.397 145.682 116.224C144.147 116.002 142.587 116.23 141.12 116.699C140.806 116.797 140.257 117.069 140.368 117.488C140.479 117.888 141.101 117.895 141.41 117.796C142.6 117.421 143.796 117.235 145.035 117.414ZM144.406 121.052C144.826 121.181 145.368 121.039 145.67 120.713C145.941 120.417 145.842 120.034 145.454 119.917C144.055 119.498 142.803 119.8 141.527 120.435C141.243 120.576 140.812 120.947 141.089 121.298C141.355 121.631 141.958 121.564 142.291 121.396C143.025 121.027 143.585 120.805 144.406 121.052ZM162.686 266.038V278.06V266.038ZM306.353 205.231C306.451 189.929 306.464 174.626 306.464 159.331C306.464 145.225 306.47 131.12 306.445 117.014C306.427 106.927 306.408 96.8406 306.334 86.7611C306.279 79.178 306.951 68.9438 299.337 64.6714C297.739 63.7712 296.285 63.8021 294.515 63.7466C291.655 63.6541 288.794 63.6171 285.934 63.574C276.667 63.4383 267.4 63.389 258.135 63.3458C241.883 63.2725 225.595 62.995 209.35 63.4137C183.61 64.0733 158.832 63.2595 133.253 63.2904C115.109 63.3089 96.9459 63.2595 78.8025 63.6973C77.3099 63.7349 75.7378 63.6664 74.2587 63.9007C69.1848 64.7022 66.6817 70.2576 65.6947 74.6404C64.0979 81.7304 64.9308 89.6896 64.8994 96.8782C64.7767 126.458 64.7884 156.033 64.8624 185.613C64.8809 194.824 64.8809 204.042 65.0036 213.252C65.0905 219.436 66.3044 230.687 74.3808 231.303C79.9116 231.728 85.5213 231.593 91.0582 231.654C100.94 231.76 110.829 231.808 120.718 231.84C135.786 231.889 150.847 231.852 165.916 231.797V264.188H163.776V260.767H137.581V236.723H85.4849V260.767H60.8242V300.834H163.776V279.91H221.71V264.188H213.387V231.673C218.898 231.636 224.688 231.575 230.163 231.562C229.959 233.597 229.781 235.625 229.633 237.66C228.283 255.964 228.745 274.312 230.62 292.561C230.379 292.69 230.17 292.851 230.095 292.998C225.909 295.175 221.353 297.913 219.022 302.055C218.862 302.332 219.053 302.56 219.331 302.634C227.943 305.014 238.227 303.454 246.883 302.049C247.228 301.986 248.004 301.753 247.882 301.247C247.24 298.571 246.747 295.859 245.705 293.313C246.235 293.176 246.766 293.022 247.29 292.856C247.308 293.023 247.327 293.196 247.345 293.368C247.382 293.683 249.182 293.344 249.132 292.887C247.48 277.271 246.278 261.513 247.24 245.811C247.505 241.519 247.973 237.253 248.381 232.98C249.139 241.809 251.013 250.403 254.219 258.942C256.63 265.353 259.336 271.901 263.288 277.529C266.883 282.659 271.723 286.845 276.173 291.204C276.506 291.525 277.166 291.438 277.579 291.191C277.949 291.259 278.312 291.321 278.683 291.383C275.138 293.849 271.784 296.95 270.069 300.951C269.958 301.223 270.063 301.482 270.378 301.537C279.292 303.035 289.385 300.445 297.973 298.128C298.239 298.054 298.861 297.764 298.726 297.376C297.844 294.854 297.086 292.295 295.871 289.915C296.432 289.799 297.117 289.44 296.95 289.268C289.089 281.432 283.004 271.753 277.813 262C272.948 252.857 270.323 243.153 269.281 232.832C269.249 232.468 269.231 232.11 269.2 231.747C276.826 231.697 284.459 231.642 292.079 231.469C296.247 231.377 299.243 231.254 302.301 227.955C307.468 222.376 306.309 212.29 306.353 205.231ZM162.686 264.188V279.91H162.544V299.601H112.921L112.543 261.904L134.327 262H162.545V264.188H162.686ZM62.0579 262H85.4855L111.72 261.904L111.687 276.796V299.601H62.0579V262ZM111.687 262V275.563V262ZM86.7185 260.767V237.956H136.348V260.767H86.7185ZM136.348 262L112.542 262.11L136.348 262ZM219.861 266.038V278.06H164.536V266.038H219.861ZM167.766 264.188V232.13H211.538V264.188H167.766ZM245.952 301.105C239.762 302.06 233.467 302.609 227.21 302.449C225.922 302.418 224.633 302.313 223.351 302.165C222.543 302.073 221.754 301.913 220.958 301.728C220.897 301.715 222.154 300.112 222.389 299.853C224.805 297.171 228.215 295.212 231.427 293.559C235.582 294.317 239.774 294.466 243.887 293.707C244.867 296.087 245.373 298.602 245.952 301.105ZM296.766 297.345C291.186 298.806 285.501 299.903 279.762 300.495C278.239 300.649 276.71 300.736 275.175 300.747C273.992 300.76 271.612 301.191 272.487 299.514C274.177 296.265 277.37 293.663 280.391 291.635C285.033 292.234 289.756 292.141 294.201 290.619C295.292 292.757 295.983 295.069 296.766 297.345ZM276.026 262.48C280.946 271.851 286.834 281.137 294.213 288.794C293.794 288.96 293.461 289.293 293.671 289.651C293.695 289.688 293.714 289.725 293.732 289.762C288.474 291.587 282.703 291.062 277.328 289.934C273.4 286.112 269.338 282.395 265.928 278.085C261.6 272.604 258.968 265.939 256.415 259.509C251.501 247.136 249.566 234.386 249.812 221.156C249.819 220.749 249.491 220.557 249.116 220.545V220.484C249.116 220.225 247.328 220.471 247.328 220.964C247.309 229.448 245.996 237.838 245.454 246.29C244.48 261.475 245.626 276.746 247.192 291.863C246.551 292.08 245.91 292.27 245.263 292.43C244.843 292.135 243.906 292.375 243.659 292.77C239.966 293.418 236.162 293.22 232.451 292.535C230.539 274.127 230.101 255.65 231.421 237.179C232.198 226.26 233.949 215.335 234.097 204.38C237.031 204.904 239.923 205.582 242.907 205.859C248.197 206.34 253.517 205.65 258.708 204.608C257.864 205.989 257.432 207.555 257.938 209.201C258.61 211.396 260.823 212.764 262.931 213.295C264.318 213.646 265.873 213.621 267.254 213.153C267.211 219.023 266.97 224.861 267.309 230.724C267.032 231.014 267.013 231.452 267.376 231.649C267.414 232.204 267.444 232.758 267.494 233.313C268.542 243.665 271.204 253.295 276.026 262.48ZM155.744 197.161C156.193 196.68 155.849 196.254 155.355 196.149C155.318 196.112 155.275 196.069 155.232 196.02C155.189 195.915 155.14 195.804 155.09 195.699C155.053 195.612 154.992 195.545 154.918 195.489C154.333 194.213 153.889 191.698 153.752 191.131C153.149 188.591 152.945 185.97 153.259 183.381C161.41 186.223 170.287 186.642 178.838 186.661C179.326 186.661 180.441 186.014 179.911 185.853C180.028 185.766 180.102 185.674 180.102 185.569V184.602C185.108 186.297 190.719 188.535 195.447 185.372C196.995 185.668 198.561 185.637 200.127 185.366V186.044C200.127 186.131 200.257 186.174 200.442 186.18C200.115 186.408 199.997 186.661 200.651 186.661C208.117 186.661 216.416 187.191 223.493 184.336C226.779 183.011 228.876 180.693 230.201 177.887C230.269 177.746 230.337 177.604 230.398 177.462V177.617C230.398 178.671 230.405 179.725 230.405 180.779C230.411 185.755 230.454 190.724 230.478 195.699C230.485 197.481 230.491 199.262 230.478 201.044C230.472 201.562 230.466 202.08 230.454 202.598C230.441 203.054 230.294 203.338 230.423 203.258C230.281 203.442 230.256 203.658 230.454 203.868C230.46 203.868 230.46 203.874 230.467 203.88C230.793 204.226 231.409 204.269 231.805 203.979C231.879 204.01 231.965 204.034 232.075 204.047C232.155 204.059 232.242 204.077 232.322 204.089C232.297 208.084 232.051 212.079 231.712 216.069H160.763C161.083 209.558 158.364 203.073 155.744 197.161ZM242.26 204.552C239.041 204.207 235.922 203.326 232.721 202.875C232.605 202.857 232.481 202.869 232.358 202.9C232.617 201.593 232.302 199.639 232.302 198.757C232.302 194.528 232.259 190.304 232.24 186.081C232.216 181.488 232.197 176.901 232.253 172.308C232.277 170.612 232.308 168.911 232.382 167.215C232.407 166.642 232.445 166.069 232.494 165.495C232.61 164.145 232.876 165.051 231.649 164.996C232.536 164.996 233.369 163.707 232.186 163.627C230.262 163.504 230.607 166.469 230.552 167.677C230.514 168.491 230.496 169.311 230.478 170.131C230.422 170.186 230.385 170.242 230.379 170.303C229.861 175.802 228.295 181.369 222.833 183.786C216.57 186.554 208.487 185.839 201.773 185.814C201.86 185.74 201.915 185.654 201.915 185.568V175.599C206.76 175.636 211.896 175.735 216.508 174.384C217.402 174.125 218.16 173.755 218.82 173.281C218.85 173.268 218.882 173.244 218.912 173.219C219.048 173.126 219.177 173.022 219.3 172.917C219.344 172.88 219.381 172.843 219.424 172.806C220.626 171.745 221.44 170.308 222.106 168.601C223.993 163.768 224.886 155.63 228.154 150.556C229.072 149.125 230.183 147.936 231.563 147.14C231.563 147.134 231.563 147.134 231.57 147.134C232.975 146.314 234.665 145.907 236.718 146.055C236.847 146.142 237.02 146.191 237.26 146.191H239.572C239.578 146.327 239.578 146.462 239.585 146.591C239.591 146.905 241.379 146.629 241.372 146.11C241.354 145.105 241.305 144.089 241.163 143.102C243.629 143.145 246.12 143.225 248.555 142.843C248.456 143.7 248.401 144.576 248.561 145.333C248.592 145.463 248.697 145.543 248.838 145.586C248.906 145.685 249.06 145.759 249.332 145.778C252.205 145.969 255.071 146.104 257.833 146.968C260.608 147.83 261.717 150.747 263.105 153.046C266.65 158.927 270.04 164.921 272.654 171.289C275.398 177.948 276.199 184.248 274.794 191.338C274.196 194.329 273.296 197.258 272.426 200.179C272.247 200.778 271.859 201.665 271.723 202.491C271.033 202.46 270.342 202.405 269.658 202.319C269.645 202.319 269.633 202.319 269.621 202.312C268.437 202.165 267.265 201.924 266.106 201.61H266.1C264.386 201.147 262.716 200.524 261.113 199.754C261.168 199.705 261.211 199.655 261.229 199.606C262.758 195.247 264.601 190.938 265.816 186.48C266.593 183.607 265.841 181.012 264.817 178.287C263.387 174.489 261.413 170.882 259.454 167.344C258.405 165.463 256.309 163.034 255.896 160.889C255.822 160.513 254.028 160.931 254.108 161.363C254.454 163.164 256.18 165.186 257.061 166.746C259.052 170.266 260.958 173.842 262.542 177.559C263.818 180.555 264.854 183.557 264.053 186.794C262.943 191.264 260.989 195.586 259.466 199.92C259.435 199.994 259.515 200.043 259.645 200.068C259.41 200.253 259.33 200.468 259.638 200.616C260.293 200.931 260.958 201.215 261.63 201.486C261.482 201.529 261.352 201.584 261.272 201.658C260.779 202.09 260.292 202.57 259.842 203.089C259.775 203.162 259.706 203.236 259.645 203.31C259.558 203.31 259.478 203.31 259.38 203.328C258.264 203.563 257.148 203.772 256.032 203.963C251.476 204.725 246.89 205.052 242.26 204.552ZM234.898 116.138C233.634 115.41 232.284 115.182 230.848 115.398C230.663 115.423 230.429 115.485 230.225 115.589C230.596 114.566 230.977 113.61 231.353 112.753C232.463 112.901 233.493 112.988 234.232 113.056C239.091 113.524 243.998 113.123 248.869 113.098C248.887 113.228 248.912 113.406 248.936 113.616C248.72 118.154 247.784 122.568 252.653 124.997C253.208 125.274 254.843 124.486 254.065 124.097C253.954 124.048 253.856 123.986 253.751 123.93H254.904C256.407 124.676 255.81 127.932 254.33 128.949C253.597 129.46 252.456 129.615 251.605 129.917C250.07 130.465 249.934 131.68 249.693 133.141C249.262 135.754 249.003 138.406 248.763 141.044C248.732 141.42 248.676 141.821 248.627 142.24C246.148 142.579 243.583 142.388 241.092 142.376C241.08 142.376 241.055 142.382 241.031 142.382C240.673 140.606 239.933 138.979 238.373 137.777C236.314 136.186 233.633 135.644 231.543 134.016C226.752 130.279 227.942 122.364 229.958 116.358C230.131 116.506 230.451 116.543 230.636 116.519C231.684 116.364 232.573 116.543 233.491 117.068C234.072 117.402 235.694 116.594 234.898 116.138ZM255.854 130.984C254.898 131.816 253.837 132.556 252.679 133.184C253.634 132.537 254.769 131.761 255.854 130.984ZM262.709 201.975C262.734 201.957 262.746 201.938 262.765 201.92C264.491 202.536 266.272 202.999 268.085 203.276C268.085 203.282 268.085 203.288 268.085 203.288C268.992 205.668 269.923 208.855 268.32 211.162C267.278 212.66 265.311 212.66 263.72 212.228C261.92 211.735 260.238 210.403 259.676 208.578C258.887 205.982 260.909 203.566 262.709 201.975ZM269.047 212.172C269.201 212.049 269.362 211.926 269.503 211.784C271.674 209.62 271.05 206.18 270.125 203.51C270.588 203.547 271.05 203.572 271.513 203.584C271.587 203.584 271.674 203.571 271.754 203.553C271.784 203.645 271.809 203.745 271.852 203.83C272.185 204.434 273.911 203.837 273.498 203.091C272.956 202.092 274.688 198.443 274.972 197.468C275.921 194.25 276.717 190.995 277.185 187.671C278.19 180.532 275.897 173.868 272.987 167.443C270.256 161.408 266.815 155.73 263.4 150.064C262.154 147.999 261.217 146.765 258.899 145.878C256.23 144.861 253.153 144.817 250.317 144.638C249.922 142.37 250.668 139.404 250.915 137.179C251.007 136.334 251.112 135.489 251.23 134.645C260.755 130.902 265.582 121.482 262.881 111.569C260.139 101.482 249.676 100.181 240.774 101.575C240.663 101.587 240.552 101.624 240.441 101.667C236.655 100.779 232.531 100.637 228.961 102.437C226.44 103.708 223.733 105.884 224.522 109.053C225.022 111.075 227.42 112.012 229.843 112.499C228.394 115.68 227.475 119.176 227.001 122.634C226.594 125.6 225.891 130.088 227.963 132.646C230.041 135.205 232.63 136.265 235.497 137.671C238.432 139.107 239.264 141.869 239.504 144.822H237.403C236.983 144.822 236.687 145.044 236.558 145.303C233.697 145.328 230.947 146.16 228.697 148.121C225.244 151.116 223.944 156.16 222.797 160.389C221.737 164.316 221.077 168.86 218.636 172.226C217.409 173.921 215.399 174.205 213.457 174.446C209.333 174.957 205.109 174.89 200.96 174.895C200.609 174.895 198.932 175.586 199.789 175.586H200.159C200.141 175.623 200.129 175.66 200.129 175.697V177.491C198.032 177.417 196.139 176.245 194.24 175.271C194.265 175.204 194.296 175.148 194.32 175.086C194.352 175.024 194.333 174.975 194.278 174.938C193.1 174.334 191.854 174.026 190.585 174.088C189.105 174.02 187.626 174.433 186.275 175.117C185.714 175.407 185.93 175.517 186.319 175.524C184.333 176.547 182.311 177.7 180.215 177.46C180.184 177.454 180.148 177.46 180.104 177.466V175.333C180.567 175.136 180.949 174.895 180.437 174.895C177.114 174.895 173.754 174.92 170.456 174.581C170.45 174.581 170.443 174.581 170.431 174.575C169.112 174.445 167.798 174.248 166.504 173.971C166.491 173.971 166.48 173.97 166.467 173.964C164.691 173.582 162.946 173.046 161.245 172.294C159.099 171.344 157.231 170.073 155.573 168.582C155.653 168.551 155.727 168.52 155.776 168.477C156.005 168.31 156.208 168.131 156.399 167.947C157.885 166.517 158.224 164.697 157.971 162.818C157.786 161.418 157.263 159.988 156.64 158.656C156.22 157.75 155.752 156.893 155.302 156.116C154.001 153.86 152.454 151.745 150.87 149.68C150.333 148.99 149.797 148.299 149.254 147.614C149.23 147.577 149.199 147.547 149.174 147.51C149.704 147.559 150.235 147.602 150.765 147.621C150.906 147.627 151.048 147.621 151.19 147.621C151.221 147.688 151.313 147.75 151.492 147.799C152.774 148.121 153.908 148.65 154.938 149.323C154.945 149.323 154.951 149.323 154.956 149.329C160.653 153.028 163.242 161.03 170.517 162.504C179.247 164.279 180.264 153.293 181.664 147.029C182.139 146.899 182.595 146.659 182.533 146.505C182.743 146.505 182.952 146.505 183.162 146.511C185.659 146.529 188.162 146.634 190.622 147.072C190.665 147.078 190.703 147.084 190.745 147.09C190.703 147.14 190.671 147.195 190.653 147.257C189.174 151.881 188.896 157.405 187.435 162.294C187.417 162.343 187.404 162.386 187.392 162.435C187.318 162.67 187.244 162.904 187.164 163.132C187.145 163.188 187.126 163.243 187.108 163.299C186.338 165.549 185.271 167.633 183.661 169.402C180.616 172.744 175.456 172.503 171.374 172.004C166.738 171.443 161.72 170.21 157.67 167.805C157.343 167.608 156.787 167.731 156.424 167.972C156.042 168.213 155.857 168.57 156.288 168.829C160.406 171.277 165.258 172.43 169.943 173.176C174.247 173.866 178.939 173.953 182.848 171.752C190.775 167.288 189.956 154.989 192.361 147.455C192.484 147.066 192.274 146.838 191.972 146.751C192.28 146.591 192.465 146.431 192.237 146.388C195.745 145.809 202.595 145.155 204.666 141.813C206.442 138.952 195.992 139.532 195.955 139.532C191.91 139.539 178.834 139.156 180.406 145.907C179.839 146.129 179.204 146.499 179.832 146.499H180.073C179.099 150.315 178.501 154.267 177.132 157.966C175.227 163.083 170.129 161.98 166.651 159.113C162.12 155.376 159.666 149.594 154.087 147.399C156.405 147.023 158.686 146.135 160.357 144.569C164.143 141.012 165.381 135.914 164.043 130.968C163.359 128.435 161.385 124.335 158.809 123.126C158.698 123.077 158.507 123.083 158.297 123.126C157.903 119.501 156.959 115.814 155.498 112.485C157.292 112.183 158.982 111.715 160.418 111.091C160.689 110.98 160.831 110.839 160.887 110.691C165.523 107.966 166.466 100.001 159.931 99.2789C156.83 98.9398 153.445 99.9879 150.474 100.747C147.465 101.517 142.983 103.619 139.863 102.726C139.696 102.677 139.457 102.713 139.222 102.799C136.873 102.405 134.401 102.467 132.293 103.675C128.871 105.641 127.521 109.112 126.596 112.775C125.924 115.414 126.306 119.415 123.366 120.605C120.252 121.869 117.096 121.911 114.426 124.15C109.815 128.015 109.303 135.204 110.388 140.691C111.541 146.467 115.308 151.621 121.066 152.99C121.676 153.298 122.077 153.49 122.126 153.514C121.867 156.079 122.126 158.878 122.348 161.221C123.409 172.368 126.047 184.346 121.51 195.067C120.998 195.16 120.444 195.449 120.536 195.746C120.838 196.745 121.294 197.676 121.849 198.545C121.843 198.57 121.831 198.587 121.824 198.612C120.172 204.482 117.33 209.901 117.231 216.066H79.0139V79.2057H292.624V216.066L269 216.097C269.022 214.793 269.041 213.48 269.047 212.172ZM187.938 178.011C188.789 180.89 191.687 182.247 193.66 184.281C193.783 184.411 193.869 184.528 193.925 184.639C193.875 184.75 193.888 184.861 193.992 184.953C193.912 186.144 189.27 186.026 189.017 186.001C187.673 185.841 186.36 185.434 185.071 185.034C183.401 184.522 181.768 183.874 180.102 183.345V178.245C181.366 178.233 182.605 177.937 183.789 177.425C184.966 176.914 186.088 176.291 187.229 175.699C188.067 175.268 188.906 174.972 189.775 174.892C190.602 174.959 191.433 175.212 192.272 175.557C192.692 176.365 191.243 177.61 190.435 177.481C190.294 177.462 190.028 177.518 189.751 177.617C189.745 177.586 189.733 177.561 189.727 177.536C189.572 177.012 187.79 177.512 187.938 178.011ZM190.003 178.252C191.612 178.252 192.925 177.573 193.764 176.236C195.848 177.247 197.969 178.412 200.127 178.196V184.306C198.628 184.571 197.142 184.515 195.675 184.127C194.01 181.945 191.156 180.774 190.003 178.252ZM153.302 196.181C153.469 196.544 153.628 196.908 153.796 197.277C150.688 198.005 147.686 198.017 144.579 197.296C144.468 197.271 144.295 197.29 144.098 197.345C145.541 191.475 143.229 183.56 142.828 178.005C145.491 179.898 148.401 181.488 151.551 182.74C150.892 186.797 151.564 190.971 152.889 194.83C152.981 195.089 153.117 195.483 153.296 195.896C153.265 195.989 153.259 196.082 153.302 196.181ZM153.253 182.074C153.136 181.969 152.963 181.908 152.772 181.902C144.387 178.69 137.809 172.562 132.828 165.218C132.557 164.812 130.824 165.379 131.157 165.866C134.018 170.083 137.365 173.776 141.237 176.809C141.083 176.914 140.978 177.044 140.978 177.191C141.046 183.048 143.981 191.224 142.408 197.475C142.15 198.516 141.767 199.503 141.225 200.415C141.225 200.422 141.218 200.422 141.218 200.422C140.934 200.902 140.608 201.359 140.238 201.791C135.077 207.783 124.806 201.748 122.501 195.792C122.79 195.712 123.043 195.558 123.129 195.354C126.946 186.483 125.953 176.582 124.868 167.247C124.522 164.282 123.068 157.729 123.751 152.852C124.029 152.667 124.147 152.476 123.819 152.402C124.325 149.461 125.682 147.224 128.659 146.927C129.09 146.884 129.423 146.613 129.541 146.341C130.54 146.219 131.385 146.04 132.069 145.848C132.229 145.811 132.371 145.768 132.513 145.725C132.594 145.732 132.68 145.743 132.759 145.756C132.766 145.756 132.766 145.756 132.766 145.756C140.719 146.822 145.996 159.516 149.874 164.955C156.427 174.147 166.729 175.442 177.044 175.577C177.475 175.583 177.913 175.589 178.345 175.589C178.326 175.62 178.313 175.657 178.313 175.7V185.806C176.723 185.793 175.126 185.756 173.535 185.689H173.498C170.268 185.547 167.049 185.276 163.874 184.777C160.263 184.207 156.705 183.356 153.253 182.074ZM143.136 142.975C140.997 142.944 138.913 142.55 136.823 142.13C136.767 142.118 136.682 142.124 136.589 142.137C136.65 141.976 136.718 141.815 136.78 141.65C137.852 139.695 138.71 137.118 137.81 134.695C137.668 131.681 136.836 128.653 135.485 125.867C135.892 125.349 136.428 124.621 136.946 123.789C139.918 120.522 140.861 115.515 141.046 110.923C144.498 112.643 149.239 113.167 153.611 112.729C153.974 113.543 154.344 114.431 154.702 115.387C153.167 115.171 151.736 115.51 150.399 116.281C150.109 116.441 149.899 116.866 150.263 117.07C150.658 117.298 151.175 117.137 151.539 116.928C152.353 116.459 153.167 116.385 154.085 116.521C154.394 116.57 154.757 116.423 155.004 116.213C155.386 117.305 155.738 118.451 156.033 119.628C156.015 119.61 155.997 119.586 155.978 119.567C155.164 118.895 154.091 119.641 153.216 119.671C152.846 119.69 152.285 119.943 152.224 120.356C152.15 120.8 152.723 120.874 153.026 120.861C153.426 120.848 153.821 120.756 154.203 120.645C154.326 120.608 154.449 120.571 154.579 120.534C154.579 120.534 154.579 120.534 154.579 120.54C154.985 120.873 155.96 120.527 156.138 120.072C157.39 125.337 157.445 131.089 153.678 134.343C153.419 134.565 153.149 134.763 152.871 134.954C152.014 135.422 151.12 135.878 150.281 136.285C148.808 136.914 147.297 137.475 146.021 138.449C143.783 140.158 143.315 143.024 143.204 145.687C142.958 145.792 142.779 145.928 142.865 146.076C142.908 146.15 142.945 146.187 143.013 146.243C143.056 146.273 143.117 146.291 143.18 146.304C143.18 146.403 143.173 146.502 143.173 146.594C143.173 146.779 143.87 146.748 144.394 146.576C144.782 146.681 145.164 146.798 145.553 146.897C145.916 146.989 146.286 147.063 146.65 147.137C147.691 148.691 149.018 150.109 150.127 151.595C152.778 155.121 159.363 163.66 154.782 167.845C152.396 165.516 150.436 162.728 148.654 159.837C145.214 154.251 141.015 147.032 134.703 145.46C134.777 145.411 134.844 145.355 134.888 145.288C135.405 144.548 135.849 143.778 136.225 142.989C138.124 143.352 140.029 143.667 141.978 143.692C142.341 143.696 144.011 142.987 143.136 142.975ZM191.385 146.255C188.376 145.793 185.318 145.749 182.266 145.749C180.639 140.188 188.968 140.38 192.926 140.263C195.491 140.183 198.142 140.102 200.695 140.349C201.478 140.423 202.488 140.645 202.926 141.367C204.436 143.833 193.24 145.651 192.291 145.818C191.946 145.878 191.544 146.089 191.385 146.255ZM158.438 124.608C159.738 125.774 160.725 127.698 161.416 129.251C160.077 126.742 158.518 124.855 158.518 124.855C158.518 124.855 158.505 124.985 158.48 125.2C158.463 125.004 158.45 124.806 158.438 124.608ZM159.504 110.078C160.041 109.776 160.534 109.474 160.966 109.184C160.682 109.486 160.38 109.738 160.059 109.942C159.918 109.942 159.769 109.973 159.622 110.034C159.585 110.046 159.541 110.065 159.504 110.078ZM123.099 200.169C126.299 203.69 131.527 205.57 136.2 204.682C137.143 204.515 138.056 204.226 138.931 203.819C139.073 203.751 139.215 203.684 139.351 203.61C141.755 202.364 143.13 200.459 143.858 198.184C147.267 198.862 150.578 198.733 153.981 197.931C154.019 197.925 154.043 197.913 154.074 197.907C156.595 203.585 159.215 209.842 158.968 216.069H119.031C119.073 210.447 121.415 205.441 123.099 200.169ZM303.202 222.882C302.358 225.669 300.015 229.639 296.883 229.959C295.132 230.138 293.344 230.113 291.587 230.151C284.09 230.323 276.599 230.366 269.109 230.416C268.856 226.254 268.905 222.111 268.973 217.95L294.472 217.919V77.3593H77.1625V217.919H231.544C231.162 222.025 230.706 226.13 230.293 230.231C223.061 230.237 215.829 230.255 208.598 230.28H165.917V230.471C158.808 230.503 151.694 230.527 144.585 230.533C125.189 230.564 105.794 230.52 86.3979 230.262C83.3955 230.225 80.3869 230.182 77.3845 230.09C74.4005 229.998 72.8284 229.733 70.5535 227.284C65.2952 221.6 66.7742 210.207 66.7378 203.024C66.5776 173.548 66.6084 144.067 66.6639 114.591C66.6824 104.709 66.6947 94.8258 66.7872 84.943C66.8057 82.3167 66.781 79.7026 67.0825 77.0954C67.6127 72.4777 69.8568 65.4556 75.0109 65.1596C91.0218 64.2225 107.205 64.6911 123.235 64.6418C151.428 64.5616 179.615 64.7959 207.802 64.7959C221.169 64.7959 234.535 64.6042 247.907 64.6418C263.905 64.6911 280.058 64.2287 296.038 65.1596C301.106 65.4556 303.362 72.0153 304.102 76.522C304.565 79.3395 304.478 82.2187 304.509 85.0731C304.602 94.9559 304.608 104.839 304.632 114.721C304.657 129.062 304.65 143.402 304.65 157.736C304.65 172.101 304.632 186.466 304.564 200.83C304.534 207.992 305.305 215.927 303.202 222.882ZM239.701 117.408C240.952 117.229 242.173 117.427 243.369 117.809C244.054 118.025 245.478 117.025 244.423 116.692C242.962 116.224 241.421 116.009 239.898 116.224C239.522 116.279 238.967 116.464 238.899 116.902C238.832 117.328 239.393 117.458 239.701 117.408ZM243.943 120.422C242.673 119.788 241.483 119.498 240.077 119.923C239.762 120.015 239.226 120.299 239.337 120.724C239.448 121.131 240.065 121.144 240.379 121.046C241.192 120.805 241.822 121.039 242.555 121.409C242.962 121.606 243.461 121.545 243.831 121.28C244.084 121.101 244.349 120.626 243.943 120.422ZM239.035 130.952C240.485 130.935 241.957 130.2 241.988 128.579C242.001 128.16 241.532 128.092 241.199 128.129C240.904 128.16 240.207 128.37 240.194 128.777C240.188 129.116 240.12 129.534 239.935 129.739C239.923 129.757 239.911 129.769 239.904 129.776C239.892 129.782 239.886 129.788 239.867 129.8C239.854 129.807 239.854 129.807 239.849 129.813C239.843 129.813 239.836 129.819 239.83 129.819C239.818 129.825 239.8 129.825 239.781 129.832C239.689 129.838 239.553 129.85 239.701 129.85C239.288 129.857 238.764 129.967 238.53 130.356C238.314 130.713 238.708 130.959 239.035 130.952ZM233.801 122.216C232.735 123.647 230.01 126.742 231.563 128.585C231.927 129.01 233.634 128.388 233.234 127.913C231.914 126.353 234.554 123.4 235.447 122.198C235.897 121.6 234.115 121.798 233.801 122.216ZM232.882 120.337C233.086 119.967 232.71 119.683 232.358 119.671C231.901 119.652 231.482 119.467 231.038 119.369C230.453 119.246 229.781 119.302 229.305 119.695C229.046 119.911 228.794 120.3 229.183 120.54C229.459 120.707 229.891 120.688 230.218 120.546C230.335 120.577 230.459 120.614 230.576 120.651C230.946 120.763 231.328 120.848 231.716 120.867C232.136 120.879 232.667 120.737 232.882 120.337ZM194.923 117.168C194.874 113.499 194.831 109.825 194.794 106.157C196.476 106.324 198.147 106.557 199.825 106.786C199.837 106.829 199.843 106.873 199.855 106.909C200.151 107.778 201.933 107.285 201.643 106.429C201.008 104.554 201.625 102.397 201.656 100.46C201.884 100.331 201.989 100.201 201.791 100.152C201.717 100.14 201.637 100.121 201.563 100.103C201.367 99.8011 200.885 99.7388 200.478 99.8683C198.733 99.5045 196.915 99.2456 195.164 99.2092C195.041 99.2092 194.782 99.2826 194.516 99.388C194.658 99.2894 194.751 99.1661 194.751 99.0304C194.745 97.8776 194.751 96.7185 194.769 95.5588C194.775 95.1889 194.782 94.8129 194.8 94.4429C194.8 94.3936 194.819 94.258 194.831 94.1285C195.281 93.7709 195.262 93.1051 194.369 93.1051H187.895C187.396 93.1051 187.05 93.4072 186.977 93.7155C186.86 93.7826 186.761 93.8628 186.706 93.9559C186.441 94.369 186.533 95.0656 186.521 95.5348C186.472 97.1001 186.483 98.6661 186.49 100.232C186.298 100.239 186.095 100.27 185.923 100.325C180.941 101.977 177.316 105.793 176.724 111.12C176.095 116.773 180.189 121.002 185.534 121.81C185.947 121.878 187.47 121.207 187.008 121.138C175.442 119.387 176.453 104.036 186.533 100.701C186.619 100.677 186.693 100.645 186.755 100.621C187.248 100.694 188.277 100.411 188.277 99.9552C188.271 98.605 188.271 97.2543 188.29 95.9047C188.296 95.5964 188.247 94.8443 188.272 94.3449H193.037C192.975 94.6661 193.006 95.0484 193 95.3128C192.951 96.7123 192.963 98.1118 192.963 99.5113C192.963 99.7524 193.536 99.7641 194.035 99.61C193.733 99.7826 193.597 99.9429 194.004 99.9491C195.934 99.9867 197.944 100.32 199.83 100.744C199.781 102.384 199.405 104.135 199.614 105.781C198.066 105.572 196.519 105.375 194.959 105.239C194.917 105.233 194.848 105.239 194.78 105.252V104.888C194.774 104.456 192.987 104.765 192.993 105.368C192.993 105.676 192.999 105.985 192.999 106.293C193.037 110.085 193.086 113.883 193.135 117.681C193.098 117.736 193.092 117.792 193.135 117.835C193.135 117.89 193.142 117.946 193.142 118.001C193.142 118.266 193.795 118.254 194.312 118.075C197.617 118.587 201.532 119.364 202.777 122.816C204.855 128.562 200.119 132.772 195.052 134.055C195.052 133.987 195.046 133.925 195.046 133.864C195.046 133.438 193.258 133.74 193.258 134.344C193.271 135.392 193.301 136.44 193.289 137.494H188.628C188.665 136.607 188.622 135.7 188.591 134.819C188.967 134.615 189.176 134.375 188.683 134.307C188.646 134.301 188.609 134.294 188.578 134.288C188.578 134.251 188.572 134.208 188.572 134.172C188.572 133.919 187.955 133.925 187.45 134.091C185.391 133.666 183.424 132.877 181.914 131.36C181.92 131.329 181.927 131.298 181.927 131.268V128.129C182.944 128.715 184.072 129.042 185.299 129.067C185.7 129.079 186.242 128.931 186.476 128.58C186.718 128.223 186.279 128.05 185.989 128.044C184.504 128.013 183.221 127.372 182.161 126.354C182.099 126.299 182.013 126.256 181.915 126.238C181.792 125.399 180.114 125.664 180.114 126.459V131.391C180.114 131.533 180.157 131.638 180.219 131.731C180.152 131.817 180.139 131.903 180.213 131.977C181.97 133.759 184.368 134.585 186.791 135.004C186.798 135.96 186.804 136.909 186.804 137.865C186.804 138.068 186.804 138.272 186.798 138.475C186.798 138.481 186.798 138.481 186.798 138.488C186.742 138.537 186.686 138.586 186.65 138.655C186.533 138.864 186.822 138.926 187.081 138.938C187.148 138.944 187.222 138.951 187.285 138.944C187.506 138.938 187.894 138.883 188.191 138.735H193.105C193.092 138.976 193.77 138.944 193.869 138.932C194.153 138.889 194.492 138.79 194.726 138.586C194.757 138.574 194.782 138.555 194.813 138.537L194.819 138.531C194.831 138.524 194.838 138.513 194.85 138.506C194.893 138.469 194.924 138.432 194.949 138.395C195.115 138.198 195.171 137.957 195.06 137.772C195.103 136.78 195.084 135.775 195.06 134.776C200.492 133.506 204.783 130.621 204.887 124.622C204.985 119.048 199.375 117.871 194.923 117.168ZM194.96 129.411C196.817 128.949 198.524 127.944 198.783 125.898C199.036 123.931 197.414 122.426 195.633 122.062C195.46 122.025 195.078 122.13 194.733 122.26C194.239 122.179 193.198 122.469 193.198 122.925C193.222 124.991 193.247 127.049 193.259 129.109C193.266 129.325 193.703 129.355 194.147 129.263C194.01 129.443 194.307 129.572 194.96 129.411ZM194.991 123.025C197.315 124.233 197.975 128.068 194.917 128.906C194.997 128.819 195.047 128.734 195.047 128.629C195.034 126.76 195.016 124.892 194.991 123.025ZM188.283 105.422C188.062 105.146 186.724 105.385 186.55 105.873C183.998 106.785 182.414 108.511 182.105 111.575C181.785 114.812 184.615 116.279 187.296 116.988C187.753 117.105 189.349 116.384 188.745 116.224C188.634 116.199 188.518 116.162 188.406 116.131C188.425 116.089 188.437 116.04 188.437 115.996C188.4 112.697 188.357 109.399 188.326 106.101C189.165 105.867 189.066 105.355 188.283 105.422ZM183.986 112.599C183.296 110.127 184.547 107.901 186.539 106.779C186.57 109.683 186.607 112.594 186.644 115.498C185.411 114.923 184.393 114.067 183.986 112.599ZM186.718 122.013C186.748 124.368 186.773 126.729 186.785 129.091C186.791 129.522 188.579 129.214 188.573 128.61C188.554 126.248 188.529 123.894 188.505 121.533C188.499 121.101 186.711 121.409 186.718 122.013ZM150.177 127.414C150.596 127.407 151.064 127.26 151.36 126.945C152.815 125.373 152.538 123.523 151.366 121.872C151.058 121.434 149.326 122.013 149.702 122.544C150.719 123.98 150.973 125.596 149.709 126.958C149.412 127.278 149.961 127.414 150.177 127.414ZM145.454 130.952C145.867 130.959 146.397 130.83 146.632 130.448C146.847 130.083 146.447 129.849 146.126 129.849C145.831 129.843 145.677 129.849 145.429 129.658C145.103 129.399 144.973 128.986 144.967 128.579C144.955 128.166 144.523 128.092 144.178 128.129C143.894 128.16 143.161 128.375 143.173 128.777C143.186 129.38 143.302 129.972 143.783 130.385C144.24 130.792 144.856 130.946 145.454 130.952ZM145.035 117.414C145.842 117.525 146.891 116.397 145.682 116.224C144.147 116.002 142.587 116.23 141.12 116.699C140.806 116.797 140.257 117.069 140.368 117.488C140.479 117.888 141.101 117.895 141.41 117.796C142.6 117.421 143.796 117.235 145.035 117.414ZM144.406 121.052C144.826 121.181 145.368 121.039 145.67 120.713C145.941 120.417 145.842 120.034 145.454 119.917C144.055 119.498 142.803 119.8 141.527 120.435C141.243 120.576 140.812 120.947 141.089 121.298C141.355 121.631 141.958 121.564 142.291 121.396C143.025 121.027 143.585 120.805 144.406 121.052ZM244.423 116.692C242.962 116.224 241.421 116.009 239.898 116.224C239.522 116.279 238.967 116.464 238.899 116.902C238.832 117.327 239.393 117.457 239.701 117.408C240.952 117.229 242.173 117.426 243.369 117.808C244.054 118.025 245.478 117.025 244.423 116.692ZM232.358 119.67C231.902 119.652 231.483 119.467 231.039 119.368C230.453 119.245 229.781 119.301 229.306 119.695C229.047 119.911 228.795 120.299 229.183 120.539C229.46 120.706 229.892 120.687 230.219 120.546C230.336 120.576 230.459 120.613 230.577 120.65C230.946 120.762 231.329 120.848 231.717 120.867C232.137 120.879 232.667 120.737 232.883 120.337C233.086 119.967 232.71 119.683 232.358 119.67ZM243.943 120.422C242.673 119.788 241.483 119.498 240.077 119.923C239.762 120.015 239.226 120.299 239.337 120.724C239.448 121.131 240.065 121.144 240.379 121.046C241.192 120.805 241.822 121.039 242.555 121.409C242.962 121.606 243.461 121.545 243.831 121.28C244.084 121.101 244.349 120.626 243.943 120.422ZM241.199 128.129C240.904 128.16 240.207 128.37 240.194 128.777C240.188 129.116 240.12 129.534 239.935 129.739C239.923 129.757 239.911 129.769 239.904 129.776C239.892 129.782 239.886 129.788 239.867 129.8C239.854 129.807 239.854 129.807 239.849 129.813C239.843 129.813 239.836 129.819 239.83 129.819C239.818 129.825 239.8 129.825 239.781 129.832C239.689 129.838 239.553 129.85 239.701 129.85C239.288 129.857 238.764 129.967 238.53 130.356C238.314 130.713 238.708 130.96 239.035 130.954C240.485 130.936 241.957 130.202 241.988 128.58C242.001 128.16 241.532 128.092 241.199 128.129ZM233.801 122.216C232.735 123.647 230.01 126.742 231.563 128.585C231.927 129.01 233.634 128.388 233.234 127.913C231.914 126.353 234.554 123.4 235.447 122.198C235.897 121.6 234.115 121.798 233.801 122.216ZM145.682 116.224C144.147 116.003 142.587 116.231 141.12 116.699C140.806 116.798 140.257 117.07 140.368 117.488C140.479 117.889 141.101 117.895 141.41 117.797C142.6 117.421 143.796 117.236 145.035 117.414C145.842 117.525 146.891 116.397 145.682 116.224ZM145.454 119.917C144.055 119.498 142.803 119.8 141.527 120.435C141.243 120.576 140.812 120.947 141.089 121.298C141.355 121.631 141.958 121.564 142.291 121.396C143.025 121.027 143.586 120.805 144.406 121.051C144.826 121.181 145.368 121.038 145.67 120.712C145.941 120.416 145.842 120.034 145.454 119.917ZM146.126 129.849C145.831 129.843 145.677 129.849 145.429 129.658C145.103 129.399 144.973 128.986 144.967 128.579C144.955 128.166 144.523 128.092 144.178 128.129C143.894 128.16 143.161 128.375 143.173 128.777C143.186 129.38 143.302 129.972 143.783 130.385C144.24 130.792 144.856 130.946 145.454 130.952C145.867 130.959 146.397 130.83 146.632 130.448C146.847 130.083 146.447 129.849 146.126 129.849ZM151.366 121.872C151.058 121.434 149.326 122.013 149.702 122.544C150.719 123.98 150.973 125.596 149.709 126.958C149.413 127.279 149.961 127.414 150.177 127.414C150.596 127.407 151.065 127.26 151.361 126.945C152.815 125.373 152.538 123.523 151.366 121.872Z" fill="#340679"/>
</svg>
