<svg width="423" height="423" viewBox="0 0 423 423" fill="none" xmlns="http://www.w3.org/2000/svg">
<path d="M238.534 266.365L238.209 264.335C238.407 265.034 238.606 265.734 238.806 266.433C238.714 266.411 238.625 266.386 238.534 266.365ZM158.397 272.072C158.355 272.101 158.314 272.129 158.272 272.158L159.974 282.132C159.578 279.038 159.047 275.978 158.526 272.864C158.482 272.601 158.44 272.336 158.397 272.072ZM157.968 269.33C157.783 268.079 157.613 266.826 157.463 265.569C154.557 260.251 151.457 254.455 147.414 249.643L147.293 249.494C144.899 246.67 142.17 244.201 138.962 242.372C137.204 244.665 135.465 247.073 133.415 248.909C142.555 254.616 145.127 267.493 147.806 277.112C147.944 277.61 146.998 278.03 146.338 278L146.382 278.179C146.52 278.136 146.658 278.09 146.794 278.042C147.013 277.937 147.228 277.824 147.448 277.721C147.615 277.643 147.794 277.6 147.966 277.586C151.46 276.05 154.57 273.279 157.637 271.202C157.782 271.104 157.998 271.039 158.224 271.007C158.151 270.549 158.082 270.089 158.013 269.63C157.902 269.559 157.898 269.449 157.968 269.33ZM160.121 269.515C160.331 270.852 160.555 272.185 160.793 273.51C161.367 276.707 161.829 279.858 162.175 283.043C162.327 283.059 162.308 283.124 162.193 283.21C162.34 284.588 162.468 285.975 162.564 287.375C162.972 287.442 162.882 287.667 162.606 287.887C162.629 288.242 162.654 288.595 162.679 288.95C167.228 287.399 172.624 287.395 177.316 287.055C186.16 286.415 195.027 286.071 203.891 285.866C212.835 285.659 221.787 285.563 230.731 285.779C235.344 285.889 240.54 285.633 245.088 286.818C242.994 280.537 241.053 274.205 239.212 267.841C213.305 261.042 186.227 266.38 160.121 269.515ZM258.663 248.284L258.628 248.298C258.644 248.307 258.664 248.314 258.679 248.324C258.673 248.311 258.669 248.297 258.663 248.284ZM258.906 248.922C258.845 249.192 258.608 249.472 258.162 249.629C251.405 252.002 244.764 254.536 238.818 258.599C239.937 262.655 241.087 266.703 242.28 270.738C248.157 266.123 255.344 263.239 262.609 261.593C262.821 261.388 262.959 261.214 263.04 261.098C261.77 257.233 260.465 253.053 258.906 248.922ZM191.578 224.83C190.226 224.885 188.759 224.626 187.324 224.094C188.608 224.763 190.038 225.071 191.578 224.83ZM158.318 243.199C158.213 243.018 158.106 242.837 157.994 242.661L158.202 243.38C158.225 243.317 158.263 243.256 158.318 243.199ZM160.507 242.816C160.743 243.261 160.477 243.664 160.073 243.897C159.713 245.514 159.435 247.14 159.245 248.774C183.637 244.564 208.514 239.323 233.033 245.256C232.357 242.676 231.686 240.095 231.018 237.515C230.754 236.496 232.814 235.946 233.077 236.963C233.354 238.031 233.631 239.099 233.909 240.168C237.886 235.79 244.071 233.761 249.618 232.251C249.649 232.242 249.677 232.239 249.706 232.234C247.838 230.087 245.712 228.201 243.253 226.694C236.313 222.442 227.218 222.406 219.3 221.521C213.816 220.908 207.549 221.14 202.423 218.753C202.276 218.825 202.108 218.883 201.937 218.923C196.82 225.623 187.754 228.743 182.13 222.032C181.681 222.102 181.278 222.064 181.276 221.882C181.272 221.529 181.26 221.185 181.242 220.846C181.189 220.767 181.135 220.693 181.083 220.612C178.82 222.078 175.24 222.625 173.29 223.053C167.899 224.237 162.171 224.646 156.901 226.307C154.103 227.19 151.449 229.081 148.997 231.31C153.072 234.941 157.881 237.859 160.507 242.816ZM176.813 220.78C177.39 220.637 178.011 220.465 178.594 220.251L176.813 220.78Z" fill="#A358E7"/>
<mask id="mask0_1066_27684" style="mask-type:alpha" maskUnits="userSpaceOnUse" x="25" y="114" width="365" height="235">
<rect x="25" y="114" width="364.895" height="235" fill="#8036E4" fill-opacity="0.1"/>
</mask>
<g mask="url(#mask0_1066_27684)">
<circle cx="207.447" cy="296.447" r="182.447" fill="#8036E4"/>
</g>
<path d="M365.105 329.013C363.356 325.779 360.846 322.978 358.282 320.373C356.943 319.013 355.516 317.74 354.078 316.488C352.475 315.092 350.605 314.528 349.005 313.183C341.782 307.105 335.302 300.202 327.924 294.299C322.138 289.668 315.773 286.118 308.743 283.767C301.662 281.399 294.24 281.991 286.919 282.407C288.211 280.502 289.32 278.434 290.243 276.255C294.147 267.033 295.09 256.808 295.696 246.904C295.777 245.568 296.946 233.275 295.389 231.554C297.351 228.017 302.875 225.993 306.242 224.383C309.296 222.923 312.517 221.687 315.483 220.036C316.172 220.724 316.86 221.412 317.548 222.101C318.695 223.247 322.604 221.657 321.35 220.402C320.364 219.417 319.379 218.43 318.392 217.444C319.914 214.688 320.042 210.609 319.936 207.581C319.905 206.706 319.831 204.791 318.763 204.426C318.218 204.241 317.676 204.275 317.16 204.435C319.332 197.603 317.298 190.44 312.205 185.409C308.091 181.346 302.239 180.168 296.683 180.836C296.683 173.669 296.683 166.501 296.683 159.333C296.683 158.321 294.606 158.686 294.606 159.525C294.606 166.739 294.606 173.954 294.606 181.168C294.178 181.257 293.754 181.353 293.334 181.462C292.898 181.575 292.666 181.804 292.585 182.043C285.034 184.215 280.076 190.555 279.606 198.429C279.164 205.81 284.129 211.368 290.493 213.801C273.018 220.776 270.794 241.972 264.576 258.965C260.7 247.206 256.465 234.482 246.388 226.681C240.169 221.867 232.233 221.789 224.767 220.937C221.27 220.537 217.817 220.013 214.304 219.701C210.499 219.363 206.411 219.059 203.01 217.168C202.858 217.082 202.637 217.07 202.402 217.104C201.056 214.106 200.038 211.01 199.084 207.862C201.363 206.877 203.104 205.121 203.485 202.864C203.575 202.834 203.648 202.805 203.691 202.777C210.308 198.483 217.274 191.616 218.513 183.494C219.756 175.344 213.417 169.194 205.717 168.631C205.62 168.624 205.436 168.661 205.224 168.723C203.774 164.72 201.549 161.418 197.285 160.137C193.143 158.894 188.372 160.092 184.237 160.9C179.863 155.16 168.375 153.269 165.584 161.486C164.005 166.136 166.465 171.751 170.858 173.704C175.317 175.687 180.793 174.453 185.557 174.466C185.537 174.519 185.526 174.573 185.538 174.628C186.442 178.932 191.219 179.428 194.89 179.791C194.871 179.799 194.85 179.807 194.834 179.817C188.821 183.265 188.415 196.539 195.58 198.728C196.133 199.068 196.516 199.223 196.516 199.223C196.516 199.223 196.56 199.215 196.624 199.205C196.5 199.322 196.381 199.442 196.27 199.566C195.689 200.216 197.755 200.067 198.182 199.59C198.483 199.254 198.76 199.045 199.021 198.918C199.354 198.894 199.693 198.879 200.023 198.877C200.84 199.281 201.32 200.722 201.483 201.755C201.883 204.302 200.179 206.512 197.804 207.254C197.538 207.337 196.78 207.603 196.907 208.025C197.947 211.482 199.054 214.876 200.57 218.151C198.742 220.816 196.433 223.003 193.42 224.295C192.789 224.565 192.175 224.735 191.575 224.829C190.034 225.07 188.605 224.762 187.321 224.093C185.733 223.265 184.371 221.887 183.305 220.301C183.142 216.257 182.194 213.041 178.497 210.72C174.084 207.949 167.658 208.764 164.839 203.694C162.337 199.194 165.388 192.44 167.244 188.26C169.321 183.582 172.024 179.185 174.794 174.892C174.988 174.591 173.095 174.706 172.757 175.232C167.9 182.757 160.476 193.268 162.261 202.74C163.185 207.642 168.776 208.759 172.788 209.883C177.801 211.289 180.166 214.153 180.954 218.386C180.937 218.421 180.917 218.457 180.906 218.494C180.67 219.289 179.702 219.843 178.59 220.25C178.007 220.463 177.387 220.636 176.809 220.779C176.116 220.95 175.489 221.081 175.076 221.19C172.083 221.983 169.02 222.518 165.975 223.067C161.426 223.888 156.872 224.32 152.881 226.79C147.576 230.075 143.131 234.959 139.013 239.575C136.575 242.308 134.469 245.838 131.757 248.291C130.262 243.433 128.588 238.613 127.191 233.746C124.793 225.394 120.999 218.292 111.306 218.604C110.923 218.617 110.254 218.965 110.008 219.253C106.974 219.04 106.589 216.032 105.193 213.048C104.134 210.786 101.489 209.144 98.9858 209.883C98.58 210.002 98.2368 210.185 97.9398 210.414C96.0631 208.471 93.8774 208.049 92.6871 209.947C92.135 209.088 91.3903 208.395 90.2733 208.507C88.6957 208.665 87.8558 210.111 87.3897 211.468C86.0857 215.273 85.356 221.254 87.5538 224.875C87.9724 225.564 89.9592 224.853 89.4525 224.018C87.9304 221.511 88.2772 217.83 88.6083 215.059C88.7817 213.609 89.083 212.13 89.6621 210.784C89.7481 210.593 89.8448 210.409 89.9506 210.229C90.0253 210.095 90.0878 210.016 90.1361 209.967C90.7373 210.384 91.1189 211.363 91.3818 211.931C91.4784 212.14 91.6838 212.253 91.9289 212.295C91.305 216.142 91.8152 221.135 93.1583 224.722C93.5285 225.71 95.5799 225.138 95.2175 224.171C94.2177 221.502 93.9939 218.408 93.8909 215.589C93.8397 214.188 93.8894 212.774 94.1481 211.394C94.5425 209.3 95.398 210.534 96.4462 211.767C96.5428 211.881 96.6707 211.955 96.8128 212.002C95.4705 215.609 97.7998 222.459 98.1317 225.077C98.2077 225.673 100.279 225.221 100.191 224.526C99.8698 222.003 99.2373 219.525 98.9041 217.001C98.6973 215.441 98.5815 213.845 98.8181 212.283C99.1322 210.213 100.659 210.878 101.939 211.956C103.894 213.602 103.967 216.682 105.329 218.741C106.856 221.052 110.185 220.465 112.427 219.919C112.615 219.874 112.757 219.812 112.878 219.746C121.23 220.833 123.711 229.235 125.841 236.8C128.934 247.786 133.49 258.234 133.661 269.845C133.67 270.37 135.731 270.006 135.72 269.294C135.624 262.758 134.187 256.486 132.36 250.296C140.765 256.062 143.193 268.506 145.741 277.662C145.803 277.884 146.04 277.984 146.332 277.998C146.994 278.028 147.94 277.608 147.8 277.109C145.122 267.491 142.55 254.614 133.41 248.907C135.46 247.071 137.198 244.663 138.956 242.37C142.165 244.199 144.893 246.668 147.287 249.492C147.329 249.541 147.368 249.592 147.409 249.641C151.451 254.453 154.552 260.249 157.458 265.567C157.608 266.824 157.778 268.077 157.963 269.328C157.893 269.447 157.897 269.557 158.008 269.627C158.077 270.086 158.146 270.546 158.218 271.004C157.992 271.036 157.777 271.101 157.632 271.2C154.565 273.277 151.455 276.047 147.961 277.583C147.79 277.598 147.611 277.641 147.443 277.718C147.223 277.822 147.008 277.934 146.789 278.04C146.653 278.087 146.515 278.133 146.377 278.176C146.036 278.282 145.692 278.379 145.343 278.457C144.703 278.599 144.468 278.912 144.551 279.147C142.219 280.344 139.912 281.592 137.533 282.695C137.325 282.691 137.117 282.685 136.909 282.681C136.514 282.676 134.574 283.442 135.556 283.457C135.62 283.458 135.685 283.46 135.749 283.461C131.212 285.178 126.506 285.229 121.787 283.879C114.737 281.863 110.051 276.196 108.528 269.171C106.825 261.317 107.59 252.583 108.183 244.645C108.394 241.82 108.683 239.003 108.961 236.184C109.013 235.659 109.232 234.748 109.247 233.967C109.917 234.016 110.585 234.062 111.249 234.107C112.29 234.177 113.338 232.644 111.946 232.551C103.9 232.009 92.7397 231.818 86.2051 226.231C83.0508 223.533 81.8101 210.028 86.3778 211.013C87.4288 211.239 88.4385 209.751 87.0742 209.456C79.7786 207.883 80.4103 221.624 83.1141 225.776C84.7285 228.258 87.7578 229.624 90.4211 230.617C95.7178 232.591 101.501 233.346 107.175 233.81C107.61 234.823 106.745 238.089 106.652 239.039C106.26 243.015 105.947 246.997 105.758 250.988C105.38 258.997 104.792 268.348 108.578 275.664C110.775 279.91 114.534 282.683 118.814 284.3C117.393 284.846 116.35 285.909 114.623 286.567C110.891 287.987 107.473 291.38 104.167 293.604C96.493 298.769 88.5714 303.553 80.9958 308.866C73.9624 313.799 67.1265 319.27 61.5285 325.823C56.3539 331.88 53.0767 339.211 58.0359 346.523C59.1153 348.114 60.2281 347.66 62.1055 347.722C64.881 347.815 67.6573 347.888 70.4343 347.955C76.4487 348.102 82.4646 348.185 88.4804 348.244C100.071 348.357 111.666 348.205 123.255 348.416C146.63 348.84 170.009 349.231 193.389 349.145C216.718 349.059 240.031 348.269 263.362 348.169C286.308 348.07 309.195 349.904 332.142 349.278C337.24 349.14 342.332 348.865 347.416 348.487C350.134 348.284 352.848 348.021 355.559 347.735C357.764 347.502 360.802 347.636 362.849 346.759C365.239 345.735 366.752 341.753 367.305 339.43C368.161 335.856 366.781 332.111 365.105 329.013ZM293.977 232.478C294.011 232.476 294.045 232.472 294.08 232.468C294.112 232.469 294.137 232.472 294.173 232.472C294.094 232.473 294.033 232.475 293.977 232.478ZM317.067 205.748C317.137 205.675 317.22 205.62 317.295 205.555C317.567 205.858 317.65 206.387 317.728 206.758C318.014 208.102 317.908 209.557 317.806 210.913C317.689 212.473 317.564 214.436 317.052 216.105C316.234 215.287 315.417 214.47 314.599 213.652C314.425 213.478 314.184 213.374 313.912 213.315C315.271 210.987 315.46 207.849 315.11 205.289C315.106 205.262 315.1 205.238 315.096 205.211C315.174 205.331 315.308 205.412 315.471 205.458C315.459 205.469 315.447 205.478 315.436 205.488C314.586 206.286 316.625 206.161 317.067 205.748ZM282.016 201.805C280.072 193.941 285.079 184.931 292.854 182.705C293.05 182.817 293.326 182.865 293.686 182.772C300.035 181.132 306.358 182.383 311.086 187.053C315.635 191.547 317.129 198.743 315.066 204.704C315.048 204.758 315.039 204.807 315.032 204.855C314.702 203.249 313.84 202.235 312.729 202.014C312.76 201.971 312.785 201.928 312.798 201.881C315.601 191.193 304.914 183.642 295.167 185.829C294.965 185.692 294.669 185.637 294.294 185.744C288.398 187.422 283.986 193.005 284.472 199.301C285.015 206.339 290.591 210.399 297.269 211.035C296.166 212.064 294.886 212.896 293.483 213.432C293.428 213.416 293.374 213.398 293.32 213.381C293.2 213.158 292.91 213.026 292.479 213.106C287.36 211.268 283.411 207.445 282.016 201.805ZM308.918 200.437C307.466 199.011 304.338 200.04 303.246 201.424C303.184 201.502 303.129 201.584 303.07 201.663C303.13 201.448 303.174 201.227 303.192 201C303.364 198.876 301.302 197.796 299.573 197.135C299.573 195.457 299.573 193.779 299.573 192.101C299.85 192.222 300.083 192.446 300.231 192.811C300.526 193.536 302.556 192.915 302.291 192.259C301.831 191.127 300.771 190.686 299.573 190.723C299.573 190.297 299.573 189.872 299.573 189.446C299.573 188.552 297.51 188.984 297.51 189.691C297.51 190.194 297.51 190.697 297.51 191.2C295.322 192.124 293.505 194.241 294.742 196.355C295.332 197.365 296.404 197.754 297.51 198.108C297.51 198.832 297.51 199.556 297.51 200.279C297.41 200.192 297.308 200.109 297.21 200.019C297.14 199.956 297.076 199.889 297.009 199.822C297.032 199.178 295.607 199.259 295.264 199.325C294.39 199.489 292.045 200.183 293.186 201.367C293.881 202.087 294.723 202.689 295.51 203.303C296.168 203.817 296.84 204.31 297.51 204.808C297.51 205.168 297.51 205.528 297.51 205.888C297.51 206.561 298.68 206.483 299.258 206.1C299.612 206.344 299.983 206.556 300.4 206.655C300.372 206.715 300.344 206.776 300.316 206.836C299.856 207.823 299.262 208.77 298.563 209.638C298.457 209.571 298.312 209.522 298.11 209.504C292.644 209.025 288.07 206.166 286.746 200.617C285.38 194.889 289.159 188.792 294.687 187.219C295.057 187.115 295.281 186.914 295.389 186.694C304.473 184.691 313.145 193.059 310.75 202.186C310.731 202.262 310.744 202.323 310.781 202.372C310.563 202.487 310.344 202.618 310.122 202.785C309.917 201.848 309.529 201.037 308.918 200.437ZM296.951 199.759C296.951 199.76 296.95 199.761 296.95 199.762C296.813 199.618 296.95 199.741 296.951 199.759ZM297.51 196.266C296.762 195.804 296.273 195.143 296.457 194.011C296.543 193.478 296.97 192.937 297.51 192.547C297.51 193.786 297.51 195.026 297.51 196.266ZM301.832 203.651C301.817 203.639 301.801 203.627 301.785 203.615C301.83 203.577 301.871 203.534 301.915 203.495C301.886 203.546 301.86 203.599 301.832 203.651ZM300.619 202.747C300.459 202.626 300.296 202.51 300.137 202.388C299.946 202.243 299.762 202.09 299.573 201.943C299.573 200.933 299.573 199.922 299.573 198.912C300.195 199.266 300.717 199.757 301.015 200.55C301.294 201.291 301.079 202.117 300.619 202.747ZM290.947 215.062C291.031 215.059 291.123 215.052 291.231 215.034C291.825 214.936 292.448 214.79 293.081 214.6C293.612 214.727 294.149 214.833 294.69 214.917C295.192 214.994 296.971 214.185 296.375 214.092C295.944 214.025 295.518 213.947 295.097 213.856C297.227 212.92 299.258 211.541 300.506 209.883C301.302 208.827 301.872 207.629 302.428 206.431C303.085 206.209 303.656 205.852 303.771 205.368C303.826 205.139 303.76 205.019 303.609 204.86C303.592 204.841 303.566 204.83 303.547 204.813C303.547 204.813 303.545 204.813 303.545 204.812C303.454 204.737 303.342 204.678 303.208 204.641C303.206 204.64 303.205 204.639 303.203 204.638C303.8 203.18 304.608 201.364 305.809 200.978C308.674 200.056 307.935 206.15 307.732 207.293C307.331 209.545 306.396 213.331 304.252 214.582C303.052 215.282 304.883 215.495 305.512 215.128C308.26 213.527 310.76 207.547 310.231 203.425C310.714 203.384 311.311 203.244 311.503 203.068C312.043 202.57 311.633 202.76 312.07 203.187C312.387 203.497 312.554 203.988 312.706 204.392C313.129 205.519 313.19 206.789 313.199 207.978C313.211 209.582 312.943 211.82 312.055 213.503C311.051 213.858 310.27 214.539 310.67 215.176C310.558 215.258 310.445 215.336 310.323 215.405C309.281 215.994 310.589 216.017 311.272 215.823C312.389 216.94 313.507 218.057 314.624 219.173C310.705 221.445 306.335 223.022 302.298 225.066C299.259 226.606 294.802 228.582 293.265 231.885C293.056 232.332 293.449 232.497 293.935 232.478C293.509 232.507 293.754 232.649 293.822 233.398C293.914 234.412 293.923 235.435 293.938 236.452C293.993 240.026 293.842 243.606 293.64 247.174C293.194 255.044 292.386 263.036 290.303 270.658C289.087 275.103 287.343 279.258 284.809 282.775C284.669 282.888 284.571 283.019 284.529 283.147C282.146 286.337 279.091 288.981 275.132 290.788C267.142 294.436 255.292 293.076 247.807 288.222C245.986 282.855 244.281 277.448 242.66 272.015C242.774 271.974 242.872 271.925 242.94 271.867C248.678 267.041 255.89 264.17 263.17 262.55C261.837 265.703 260.306 268.653 258.429 271.257C257.803 272.125 259.905 272.093 260.381 271.433C266.651 262.735 269.02 251.703 272.292 241.671C275.66 231.342 280.299 219.502 290.947 215.062ZM282.049 289.025C288.437 289.045 294.825 289.001 301.213 289.024C302.416 290.758 307.899 294.965 308.461 295.464C314.639 300.955 320.864 306.395 327.096 311.826C333.166 317.117 339.25 322.395 345.363 327.637C347.311 329.307 349.261 330.974 351.231 332.618C351.445 332.796 351.713 333.065 352.007 333.337C261.086 333.337 170.165 333.337 79.2442 333.337C77.8919 333.337 76.5397 333.337 75.1874 333.337C75.0894 333.337 74.9139 333.382 74.7156 333.449C74.9501 333.254 75.1753 333.053 75.3935 332.874C77.3171 331.291 79.2058 329.666 81.0988 328.047C87.2966 322.746 93.4538 317.398 99.6033 312.041C105.883 306.571 112.15 301.088 118.381 295.562C119.017 294.999 125.698 289.894 126.334 288.316C137.739 288.318 149.144 288.334 160.546 288.362C160.84 292.892 161.237 297.377 162.829 301.651C159.031 301.651 155.233 301.651 151.434 301.651C150.636 301.651 149.253 302.863 150.646 302.863C188.781 302.863 226.916 302.863 265.051 302.863C265.85 302.863 267.233 301.651 265.839 301.651C261.353 301.651 256.865 301.651 252.378 301.651C252.483 301.491 252.522 301.302 252.441 301.093C251.104 297.605 249.833 294.093 248.611 290.565C255.56 293.981 264.257 294.53 271.592 293.039C275.296 292.287 278.483 290.725 281.206 288.598C281.293 288.837 281.556 289.023 282.049 289.025ZM159.15 249.746C183.521 245.532 208.505 240.157 232.995 246.586C233.093 246.612 233.228 246.605 233.381 246.58C234.94 252.51 236.537 258.434 238.209 264.335C238.407 265.034 238.605 265.734 238.806 266.433C238.715 266.411 238.625 266.386 238.534 266.365C212.731 260.305 185.909 265.546 159.988 268.63C159.814 267.475 159.657 266.316 159.517 265.155C159.542 265.11 159.552 265.069 159.532 265.032C159.519 265.01 159.507 264.987 159.495 264.965C158.894 259.901 158.66 254.794 159.15 249.746ZM165.092 301.652C163.652 298.045 163.108 294.284 162.795 290.456C162.819 290.449 162.842 290.444 162.867 290.435C167.341 288.704 173.066 288.868 177.772 288.527C186.404 287.902 195.061 287.594 203.712 287.384C212.141 287.18 220.577 287.108 229.008 287.265C233.967 287.356 239.785 286.95 244.601 288.389C244.727 288.427 244.866 288.431 245.009 288.413C245.273 288.604 245.541 288.789 245.814 288.969C247.258 293.221 248.773 297.45 250.382 301.646C250.383 301.648 250.385 301.65 250.386 301.653C221.954 301.652 193.523 301.652 165.092 301.652ZM239.213 267.842C241.054 274.205 242.995 280.537 245.089 286.818C240.542 285.634 235.345 285.89 230.732 285.779C221.788 285.564 212.835 285.659 203.892 285.867C195.028 286.072 186.161 286.415 177.318 287.056C172.625 287.395 167.23 287.4 162.68 288.951C162.656 288.596 162.631 288.243 162.607 287.888C162.884 287.667 162.974 287.443 162.565 287.376C162.468 285.976 162.341 284.589 162.194 283.211C162.309 283.125 162.328 283.06 162.176 283.044C161.83 279.859 161.368 276.709 160.794 273.51C160.556 272.186 160.332 270.853 160.122 269.515C186.226 266.38 213.305 261.042 239.213 267.842ZM262.609 261.593C255.343 263.239 248.156 266.123 242.281 270.738C241.087 266.703 239.937 262.655 238.819 258.599C244.765 254.536 251.405 252.002 258.162 249.629C258.608 249.472 258.846 249.193 258.907 248.923C260.465 253.053 261.77 257.233 263.041 261.098C263.083 261.224 263.124 261.348 263.165 261.472C262.98 261.513 262.795 261.551 262.609 261.593ZM258.679 248.324C258.664 248.314 258.644 248.307 258.628 248.298C258.436 248.197 258.16 248.175 257.805 248.299C251.058 250.669 244.417 253.213 238.411 257.123C237.049 252.146 235.731 247.158 234.429 242.168C234.531 242.107 234.62 242.031 234.689 241.939C238.26 237.183 244.493 235.202 250.006 233.7C250.295 233.622 250.494 233.485 250.621 233.327C254.08 237.657 256.598 242.91 258.662 248.283C258.669 248.297 258.673 248.311 258.679 248.324ZM181.083 220.611C181.135 220.692 181.189 220.767 181.242 220.846C181.259 221.185 181.272 221.529 181.276 221.882C181.279 222.064 181.681 222.101 182.131 222.032C187.755 228.742 196.821 225.622 201.938 218.923C202.108 218.882 202.276 218.825 202.424 218.752C207.549 221.139 213.816 220.908 219.301 221.521C227.219 222.405 236.314 222.44 243.253 226.693C245.713 228.2 247.839 230.086 249.707 232.233C249.677 232.239 249.649 232.242 249.618 232.25C244.071 233.761 237.886 235.789 233.909 240.167C233.631 239.099 233.354 238.031 233.078 236.963C232.814 235.946 230.754 236.496 231.018 237.514C231.686 240.094 232.357 242.675 233.034 245.255C208.515 239.322 183.638 244.563 159.246 248.773C159.436 247.139 159.714 245.513 160.073 243.896C160.477 243.663 160.743 243.261 160.508 242.816C157.882 237.857 153.072 234.94 148.999 231.307C151.45 229.079 154.104 227.187 156.902 226.304C162.172 224.643 167.901 224.234 173.291 223.051C175.241 222.624 178.821 222.076 181.083 220.611ZM140.638 241.5C140.409 241.373 139.966 241.456 139.557 241.605C140.123 240.883 140.694 240.177 141.282 239.518C143.13 237.446 145.246 234.954 147.57 232.661C151.203 235.871 155.381 238.524 157.995 242.661C158.106 242.837 158.213 243.018 158.319 243.199C158.263 243.256 158.226 243.317 158.203 243.38C158.198 243.393 158.189 243.405 158.186 243.419C156.837 249.016 156.62 254.721 156.988 260.415C152.861 253.075 147.985 245.573 140.638 241.5ZM147.416 278.87C151.395 277.458 154.84 274.552 158.272 272.159C158.314 272.13 158.355 272.101 158.397 272.073C158.44 272.336 158.481 272.602 158.526 272.864C159.047 275.979 159.578 279.038 159.974 282.132C160.015 282.454 160.052 282.776 160.091 283.1C153.291 283.29 146.505 282.916 139.708 282.744C142.299 281.51 144.844 280.112 147.416 278.87ZM365.382 338.814C365.225 340.82 363.671 345.575 361.23 345.904C338.261 349.001 315.044 348.42 291.961 347.389C268.767 346.353 245.45 346.984 222.253 347.557C199.364 348.122 176.464 348.006 153.573 347.697C130.288 347.382 107.006 347.267 83.7223 346.975C78.1691 346.905 72.6158 346.792 67.0647 346.641C63.7512 346.551 60.7006 347.237 58.8638 343.965C57.5591 341.64 57.3935 338.87 57.724 336.29C58.3322 331.548 61.7118 327.797 64.7865 324.411C67.9998 320.873 71.6125 317.71 75.3303 314.717C82.7993 308.704 91.0002 303.644 99.0483 298.458C102.704 296.104 106.335 293.714 109.892 291.215C111.702 289.943 113.426 288.37 115.454 287.461C116.697 286.904 119.088 285.103 120.304 285.173C120.511 285.185 120.754 285.117 120.979 285.008C122.407 285.408 123.87 285.701 125.337 285.88C129.905 286.436 134.038 285.253 138.02 283.513C145.407 283.693 152.782 284.131 160.175 283.831C160.297 284.949 160.399 286.071 160.471 287.206C160.475 287.255 160.477 287.303 160.48 287.352C148.75 287.324 137.019 287.305 125.29 287.304C124.623 287.304 123.063 288.314 124.446 288.315C124.464 288.315 124.483 288.315 124.501 288.315C124.434 288.408 124.396 288.5 124.39 288.581C124.363 288.573 124.336 288.564 124.309 288.556C124.206 288.325 122.649 289.949 122.13 290.422C120.218 292.165 118.281 293.883 116.345 295.6C110.593 300.702 104.806 305.763 99.0121 310.815C93.1639 315.914 87.3023 321 81.4165 326.056C79.3856 327.802 77.3505 329.542 75.3025 331.268C74.673 331.799 74.0412 332.326 73.4038 332.847C72.5348 333.558 72.404 333.262 73.3349 333.216C72.8119 333.289 72.2449 333.55 72.1816 333.896C72.1802 333.9 72.1795 333.904 72.1788 333.908C72.1148 334.257 72.5476 334.338 72.802 334.341C73.0969 334.344 73.3726 334.271 73.6348 334.158C73.6817 334.173 73.7485 334.184 73.8522 334.184C165.508 334.184 257.165 334.184 348.82 334.184C350.172 334.184 351.524 334.184 352.877 334.184C352.926 334.184 352.997 334.172 353.078 334.153C353.303 334.27 353.529 334.344 353.746 334.341C354.142 334.337 355.293 334.109 355.181 333.498C355.18 333.494 355.18 333.49 355.179 333.486C355.149 333.325 355.01 333.232 354.818 333.19C355.044 333.15 354.615 333.029 354.245 332.731C353.638 332.241 353.042 331.74 352.445 331.239C350.447 329.562 348.465 327.862 346.484 326.163C340.637 321.145 334.819 316.093 329.009 311.032C323.171 305.945 317.345 300.845 311.55 295.712C310.665 294.928 302.906 288.466 303.049 288.146C303.037 288.151 303.025 288.156 303.013 288.16C303.013 288.145 303.011 288.131 303.01 288.116C303.089 287.985 303.063 287.867 302.869 287.791C302.732 287.644 302.494 287.543 302.134 287.542C295.578 287.511 289.022 287.561 282.467 287.542C283.78 286.365 284.975 285.053 286.05 283.624C290.665 283.37 295.274 283.014 299.894 283.365C305.541 283.794 310.99 285.919 315.985 288.483C324.563 292.887 331.614 299.771 338.583 306.303C341.601 309.133 344.654 312.576 348.122 314.848C349.749 315.914 351.336 316.581 352.857 317.906C354.569 319.397 356.194 320.981 357.759 322.624C360.621 325.631 363.114 329.038 364.601 332.936C365.319 334.814 365.539 336.82 365.382 338.814ZM170.849 194.373C172.039 194.587 170.301 195.672 169.603 195.546C163.994 194.538 170.016 188.456 171.88 186.59C172.393 186.077 174.414 186.114 173.546 186.984C172.255 188.276 166.699 193.627 170.849 194.373ZM182.067 185.414C182.474 185.373 182.987 185.484 182.987 185.973C182.986 186.941 182.764 187.727 182.084 188.446C181.741 188.809 181.107 188.97 180.628 188.836C180.182 188.711 180.084 188.302 180.397 187.971C180.88 187.46 180.915 186.852 180.915 186.18C180.915 185.705 181.715 185.449 182.067 185.414ZM171.035 184.245C171.429 183.433 171.705 182.57 172.101 181.758C172.43 181.082 174.502 180.911 174.035 181.868C173.641 182.681 173.365 183.543 172.97 184.355C172.641 185.032 170.568 185.203 171.035 184.245ZM182.032 181.313C181.619 181.205 181.497 180.874 181.834 180.572C182.188 180.253 182.82 180.059 183.29 180.181C184.819 180.58 186.417 181.316 186.889 182.958C187.096 183.683 185.04 184.245 184.829 183.51C184.46 182.221 183.244 181.63 182.032 181.313ZM177.262 177.507C176.864 177.751 176.248 177.906 175.803 177.697C175.326 177.472 174.935 177.43 174.446 177.43C174.114 177.43 173.612 177.216 173.885 176.813C174.164 176.399 174.777 176.247 175.243 176.248C176.003 176.248 176.747 176.366 177.439 176.692C177.888 176.904 177.537 177.338 177.262 177.507ZM179.086 197.491C177.421 198.118 175.658 198.281 173.9 198.056C173.829 197.729 173.778 197.42 173.742 197.17C173.665 196.638 171.592 197.093 171.683 197.722C171.994 199.866 173.009 202.028 175.517 201.678C177.838 201.354 179.507 199.685 180.484 197.641C180.739 197.11 179.214 197.443 179.086 197.491ZM175.933 200.748C175.061 200.716 174.535 199.975 174.21 199.124C175.513 199.141 176.815 198.98 178.079 198.662C177.575 199.569 176.749 200.778 175.933 200.748ZM169.142 308.272C165.944 308.272 162.746 308.272 159.549 308.272C158.155 308.272 159.394 306.903 160.295 306.903C163.493 306.903 166.691 306.903 169.888 306.903C171.282 306.903 170.043 308.272 169.142 308.272ZM247.298 308.95C239.955 308.95 232.613 308.95 225.27 308.95C223.876 308.95 225.174 307.646 226.034 307.646C233.377 307.646 240.719 307.646 248.063 307.646C249.456 307.646 248.158 308.95 247.298 308.95ZM87.3591 188.157C89.4753 199.653 102.329 202.456 112.183 200.362C121.423 198.397 126.98 190.224 125.128 180.964C123.831 174.485 119.276 169.719 113.525 167.606C113.827 167.453 114.053 167.235 114.053 166.97C114.053 164.128 114.053 161.285 114.053 158.443C114.053 157.803 111.994 158.194 111.994 158.995C111.994 161.7 111.994 164.406 111.994 167.112C110.153 166.604 108.212 166.375 106.237 166.421C106.237 159.972 106.237 153.523 106.237 147.074C106.237 146.818 104.177 147.09 104.177 147.625C104.177 153.938 104.177 160.252 104.177 166.565C103.029 166.726 101.891 166.994 100.777 167.293C100.612 167.338 100.477 167.398 100.365 167.468C100.3 167.478 100.243 167.475 100.172 167.493C91.0386 169.861 85.6686 178.971 87.3591 188.157ZM100.499 168.717C100.666 168.673 100.802 168.612 100.914 168.543C100.979 168.533 101.034 168.536 101.105 168.517C102.134 168.241 103.161 168.056 104.177 167.945C104.177 168.041 104.177 168.137 104.177 168.233C104.177 168.464 105.849 168.263 106.177 167.83C113.065 167.8 119.211 171.568 122.113 178.421C125.345 186.053 122.608 194.805 114.849 198.2C105.592 202.25 92.7319 199.053 89.6806 188.706C87.2447 180.447 92.071 170.903 100.499 168.717ZM111.965 195.515C118.832 193.238 122.212 186.801 119.872 179.878C117.325 172.342 109.406 169.825 102.25 171.701C102.106 171.739 101.986 171.785 101.881 171.835C101.854 171.841 101.834 171.84 101.806 171.848C94.8693 173.7 90.6975 180.426 92.2295 187.492C94.0984 196.102 104.773 197.9 111.965 195.515ZM102.034 172.694C102.175 172.656 102.292 172.61 102.395 172.561C102.425 172.555 102.448 172.555 102.478 172.547C108.927 170.856 115.002 173.811 117.619 179.921C119.962 185.392 118.064 191.918 112.46 194.394C105.762 197.354 96.7602 194.739 94.4366 187.486C92.5386 181.564 95.9182 174.328 102.034 172.694ZM104.941 183.897C104.941 185.336 104.941 186.775 104.941 188.214C104.688 187.896 104.477 187.57 104.33 187.317C103.99 186.73 101.985 187.376 102.419 188.125C103.063 189.238 103.917 189.977 104.941 190.307C104.941 190.764 104.941 191.22 104.941 191.676C104.941 192.571 107.003 192.139 107.003 191.432C107.003 191.095 107.003 190.759 107.003 190.422C107.138 190.399 107.269 190.386 107.407 190.352C109.057 189.946 110.485 188.507 110.622 186.789C110.794 184.665 108.732 183.584 107.003 182.924C107.003 181.246 107.003 179.568 107.003 177.89C107.28 178.011 107.514 178.234 107.661 178.6C107.956 179.325 109.986 178.703 109.721 178.048C109.261 176.916 108.201 176.475 107.003 176.512C107.003 176.086 107.003 175.661 107.003 175.235C107.003 174.34 104.941 174.772 104.941 175.479C104.941 175.983 104.941 176.486 104.941 176.989C102.752 177.913 100.936 180.03 102.172 182.144C102.762 183.154 103.833 183.543 104.941 183.897ZM108.445 186.337C108.833 187.372 108.271 188.58 107.404 189.173C107.271 189.264 107.136 189.32 107.003 189.354C107.003 187.802 107.003 186.251 107.003 184.699C107.625 185.054 108.147 185.545 108.445 186.337ZM103.887 179.799C103.973 179.266 104.399 178.725 104.94 178.335C104.94 179.575 104.94 180.815 104.94 182.054C104.192 181.592 103.703 180.932 103.887 179.799ZM263.239 153.595C272.479 151.631 278.037 143.457 276.184 134.197C274.951 128.036 270.764 123.434 265.411 121.18C265.411 117.783 265.411 114.386 265.411 110.988C265.411 110.088 263.347 110.517 263.347 111.231C263.347 114.3 263.347 117.369 263.347 120.438C261.951 120.029 260.496 119.781 259.01 119.688C259.018 119.647 259.027 119.606 259.027 119.562C259.027 109.85 259.027 100.139 259.027 90.4276C259.027 89.334 256.939 89.6381 256.939 90.5789C256.939 100.274 256.939 109.97 256.939 119.665C256.749 119.673 256.56 119.666 256.369 119.68C254.835 119.786 253.312 120.13 251.832 120.527C251.667 120.572 251.532 120.633 251.421 120.703C251.355 120.712 251.298 120.709 251.227 120.728C242.094 123.096 236.724 132.206 238.416 141.392C240.532 152.886 253.386 155.69 263.239 153.595ZM251.555 121.951C251.723 121.907 251.859 121.846 251.972 121.777C252.035 121.767 252.091 121.77 252.161 121.751C256.102 120.694 259.995 120.87 263.422 122.139C263.536 122.314 263.776 122.391 264.054 122.396C268.006 124.047 271.279 127.189 273.169 131.654C276.402 139.286 273.666 148.038 265.906 151.433C256.649 155.483 243.789 152.287 240.738 141.939C238.301 133.68 243.128 124.136 251.555 121.951ZM263.022 148.749C269.888 146.471 273.269 140.035 270.928 133.111C268.381 125.575 260.462 123.059 253.307 124.935C253.163 124.972 253.043 125.018 252.938 125.068C252.912 125.075 252.891 125.074 252.863 125.081C245.926 126.933 241.753 133.659 243.287 140.725C245.155 149.335 255.829 151.134 263.022 148.749ZM253.09 125.927C253.231 125.89 253.348 125.843 253.452 125.794C253.481 125.788 253.504 125.789 253.534 125.78C259.983 124.089 266.058 127.044 268.676 133.155C271.019 138.625 269.12 145.151 263.516 147.627C256.818 150.588 247.817 147.973 245.493 140.72C243.595 134.798 246.975 127.561 253.09 125.927ZM255.997 137.13C255.997 138.569 255.997 140.008 255.997 141.447C255.744 141.129 255.534 140.803 255.387 140.55C255.047 139.964 253.042 140.609 253.475 141.358C254.12 142.471 254.974 143.21 255.998 143.54C255.998 143.996 255.998 144.453 255.998 144.909C255.998 145.804 258.06 145.372 258.06 144.665C258.06 144.328 258.06 143.991 258.06 143.655C258.193 143.632 258.325 143.619 258.463 143.585C260.113 143.179 261.541 141.74 261.68 140.022C261.85 137.899 259.789 136.818 258.059 136.158C258.059 134.479 258.059 132.801 258.059 131.123C258.336 131.244 258.569 131.468 258.718 131.833C259.013 132.558 261.043 131.937 260.777 131.282C260.318 130.15 259.258 129.708 258.059 129.745C258.059 129.32 258.059 128.894 258.059 128.468C258.059 127.574 255.997 128.006 255.997 128.713C255.997 129.216 255.997 129.719 255.997 130.222C253.808 131.146 251.992 133.263 253.229 135.377C253.818 136.388 254.89 136.777 255.997 137.13ZM259.502 139.571C259.89 140.606 259.327 141.814 258.461 142.407C258.327 142.497 258.193 142.554 258.059 142.588C258.059 141.036 258.059 139.485 258.059 137.933C258.682 138.288 259.205 138.778 259.502 139.571ZM254.943 133.032C255.03 132.499 255.456 131.958 255.996 131.569C255.996 132.809 255.996 134.048 255.996 135.287C255.249 134.825 254.761 134.165 254.943 133.032ZM79.7274 279.488C86.947 277.188 90.0857 269.843 87.6121 262.873C85.5102 256.951 80.217 253.952 74.5031 253.759C74.7803 253.617 74.9806 253.4 74.9806 253.135C74.9806 250.529 74.9806 247.924 74.9806 245.318C74.9806 244.293 72.9015 244.65 72.9015 245.504C72.9015 248.11 72.9015 250.715 72.9015 253.32C72.9015 253.521 72.9825 253.667 73.1104 253.768C71.8334 253.826 70.5473 254.012 69.2803 254.345C69.1474 254.38 69.0422 254.429 68.9442 254.481C68.8994 254.489 68.8639 254.485 68.8163 254.498C61.4858 256.446 57.2258 263.824 58.954 271.185C61.0787 280.233 72.1511 281.902 79.7274 279.488ZM69.1446 255.722C69.2767 255.687 69.3812 255.638 69.4793 255.586C69.524 255.578 69.5603 255.582 69.6086 255.569C76.4374 253.772 82.9222 256.818 85.5528 263.426C87.8686 269.241 85.5983 275.661 79.7594 278.128C72.684 281.119 63.2218 278.417 61.014 270.634C59.2624 264.46 62.8935 257.383 69.1446 255.722ZM77.9523 276.187C83.4026 274.561 85.9664 269.28 84.1473 263.964C82.1398 258.098 75.9286 256.355 70.4215 257.764C70.3078 257.793 70.2197 257.83 70.1309 257.867C70.1131 257.872 70.0996 257.87 70.0818 257.876C64.7204 259.355 61.4411 264.31 62.4956 269.854C63.8237 276.834 72.3124 277.869 77.9523 276.187ZM70.3085 258.723C70.4123 258.694 70.4918 258.658 70.575 258.623C70.6013 258.617 70.6205 258.618 70.6489 258.611C75.4425 257.385 79.8375 259.569 81.8869 264.014C83.642 267.82 82.6529 272.545 78.9784 274.769C73.9467 277.815 66.5019 275.432 64.6941 269.85C63.268 265.448 65.7707 259.975 70.3085 258.723ZM72.2655 267.288C72.2655 268.101 72.2655 268.916 72.2655 269.729C72.2655 269.729 72.2641 269.728 72.2641 269.727C71.9237 269.14 69.9184 269.786 70.3519 270.535C70.8436 271.384 71.4959 271.939 72.2655 272.209C72.2655 272.535 72.2655 272.861 72.2655 273.188C72.2655 274.082 74.3276 273.65 74.3276 272.943C74.3276 272.724 74.3276 272.504 74.3276 272.285C74.3617 272.277 74.3937 272.275 74.4278 272.267C75.7658 271.937 76.9859 270.797 77.0996 269.387C77.2325 267.738 75.677 266.884 74.3283 266.361C74.3283 265.297 74.3283 264.234 74.3283 263.171C74.3354 263.185 74.3432 263.196 74.3496 263.212C74.6445 263.937 76.6747 263.315 76.4089 262.66C76.0543 261.788 75.2535 261.415 74.3276 261.401C74.3276 261.115 74.3276 260.828 74.3276 260.543C74.3276 259.648 72.2655 260.08 72.2655 260.787C72.2655 261.15 72.2655 261.512 72.2655 261.874C70.5515 262.657 69.1943 264.3 70.1628 265.957C70.6105 266.721 71.4241 267.019 72.2655 267.288ZM74.9501 269.136C75.208 269.825 74.8925 270.658 74.3283 271.101C74.3283 270.145 74.3283 269.189 74.3283 268.231C74.5891 268.462 74.8051 268.752 74.9501 269.136ZM71.9415 264.035C71.977 263.816 72.0978 263.591 72.2655 263.387C72.2655 264.026 72.2655 264.666 72.2655 265.305C71.9955 264.998 71.8498 264.6 71.9415 264.035ZM79.7274 133.165C86.947 130.865 90.0857 123.52 87.6121 116.55C84.8742 108.838 76.7259 106.063 69.2803 108.022C69.2796 108.022 69.2789 108.022 69.2789 108.022C69.2803 108.012 69.286 108.002 69.286 107.991C69.286 105.385 69.286 102.78 69.286 100.175C69.286 99.8898 67.2267 100.171 67.2267 100.726C67.2267 103.332 67.2267 105.937 67.2267 108.543C67.2267 108.592 67.2913 108.623 67.3923 108.64C60.9465 111.112 57.3417 117.993 58.9547 124.862C61.0787 133.911 72.1511 135.579 79.7274 133.165ZM69.1446 109.4C69.2767 109.365 69.3812 109.315 69.4793 109.264C69.524 109.255 69.5603 109.26 69.6086 109.247C76.4374 107.45 82.9222 110.495 85.5528 117.103C87.8686 122.919 85.5983 129.338 79.7594 131.806C72.684 134.796 63.2218 132.094 61.014 124.311C59.2624 118.137 62.8935 111.06 69.1446 109.4ZM77.9523 129.865C83.4026 128.239 85.9664 122.958 84.1473 117.641C82.1398 111.775 75.9286 110.033 70.4215 111.441C70.3078 111.47 70.2197 111.507 70.1309 111.544C70.1131 111.549 70.0996 111.548 70.0818 111.553C64.7204 113.033 61.4411 117.988 62.4956 123.531C63.8237 130.512 72.3124 131.547 77.9523 129.865ZM70.3085 112.4C70.4123 112.371 70.4918 112.335 70.575 112.3C70.6013 112.295 70.6205 112.295 70.6489 112.288C75.4425 111.062 79.8375 113.247 81.8869 117.691C83.642 121.497 82.6529 126.222 78.9784 128.446C73.9467 131.493 66.5019 129.109 64.6941 123.528C63.268 119.125 65.7707 113.652 70.3085 112.4ZM72.2655 120.965C72.2655 121.779 72.2655 122.593 72.2655 123.407C72.2655 123.406 72.2641 123.405 72.2641 123.405C71.9237 122.818 69.9184 123.464 70.3519 124.213C70.8436 125.062 71.4959 125.617 72.2655 125.886C72.2655 126.212 72.2655 126.538 72.2655 126.865C72.2655 127.76 74.3276 127.328 74.3276 126.621C74.3276 126.401 74.3276 126.182 74.3276 125.962C74.3617 125.954 74.3937 125.953 74.4278 125.944C75.7658 125.615 76.9859 124.475 77.0996 123.064C77.2325 121.415 75.677 120.562 74.3283 120.039C74.3283 118.975 74.3283 117.912 74.3283 116.848C74.3354 116.863 74.3432 116.874 74.3496 116.889C74.6445 117.615 76.6747 116.993 76.4089 116.338C76.0543 115.466 75.2535 115.093 74.3276 115.079C74.3276 114.792 74.3276 114.506 74.3276 114.22C74.3276 113.326 72.2655 113.758 72.2655 114.465C72.2655 114.827 72.2655 115.189 72.2655 115.552C70.5515 116.334 69.1943 117.978 70.1628 119.634C70.6105 120.398 71.4241 120.697 72.2655 120.965ZM74.9501 122.813C75.208 123.503 74.8925 124.336 74.3283 124.779C74.3283 123.822 74.3283 122.866 74.3283 121.909C74.5891 122.139 74.8051 122.429 74.9501 122.813ZM71.9415 117.712C71.977 117.494 72.0978 117.269 72.2655 117.065C72.2655 117.704 72.2655 118.343 72.2655 118.983C71.9955 118.676 71.8498 118.277 71.9415 117.712ZM311.02 256.505C311.003 256.51 310.989 256.509 310.971 256.514C305.61 257.994 302.33 262.949 303.385 268.492C304.714 275.473 313.202 276.508 318.842 274.826C324.293 273.2 326.856 267.919 325.037 262.602C323.029 256.736 316.819 254.994 311.311 256.402C311.197 256.431 311.109 256.468 311.02 256.505ZM322.777 262.652C324.532 266.458 323.543 271.182 319.868 273.407C314.837 276.453 307.392 274.07 305.584 268.488C304.157 264.085 306.66 258.613 311.198 257.36C311.302 257.331 311.381 257.295 311.464 257.26C311.491 257.254 311.51 257.255 311.538 257.248C316.333 256.023 320.728 258.207 322.777 262.652ZM311.053 264.592C311.501 265.358 312.313 265.657 313.155 265.926C313.155 266.739 313.155 267.553 313.155 268.367C313.155 268.366 313.154 268.366 313.154 268.365C312.814 267.778 310.808 268.424 311.242 269.173C311.734 270.023 312.386 270.578 313.155 270.846C313.155 271.173 313.155 271.499 313.155 271.826C313.155 272.72 315.218 272.288 315.218 271.581C315.218 271.362 315.218 271.142 315.218 270.922C315.252 270.915 315.284 270.913 315.318 270.905C316.656 270.575 317.876 269.435 317.99 268.025C318.122 266.375 316.567 265.522 315.218 264.999C315.218 263.935 315.218 262.872 315.218 261.808C315.225 261.823 315.233 261.834 315.24 261.85C315.535 262.575 317.565 261.953 317.299 261.298C316.944 260.426 316.143 260.053 315.218 260.039C315.218 259.753 315.218 259.466 315.218 259.181C315.218 258.286 313.155 258.718 313.155 259.425C313.155 259.787 313.155 260.15 313.155 260.512C311.442 261.292 310.084 262.935 311.053 264.592ZM315.84 267.774C316.098 268.463 315.783 269.296 315.218 269.739C315.218 268.783 315.218 267.826 315.218 266.869C315.479 267.099 315.695 267.389 315.84 267.774ZM312.831 262.672C312.867 262.454 312.988 262.229 313.155 262.025C313.155 262.664 313.155 263.303 313.155 263.943C312.885 263.636 312.74 263.237 312.831 262.672ZM316.354 118.243C323.573 115.943 326.712 108.598 324.239 101.628C321.589 94.1624 313.87 91.3371 306.627 92.9395C306.627 89.0092 306.627 85.079 306.627 81.1494C306.627 80.2221 304.56 80.6385 304.56 81.3796C304.56 85.4065 304.56 89.4327 304.56 93.4597C304.56 93.486 304.568 93.5073 304.571 93.5314C297.784 95.816 293.925 102.879 295.582 109.94C297.705 118.988 308.778 120.657 316.354 118.243ZM305.771 94.4772C305.903 94.4424 306.008 94.3927 306.106 94.3415C306.15 94.333 306.187 94.3372 306.235 94.3244C313.064 92.5274 319.549 95.573 322.18 102.181C324.495 107.996 322.225 114.416 316.386 116.884C309.31 119.874 299.848 117.172 297.641 109.389C295.889 103.215 299.52 96.1379 305.771 94.4772ZM314.579 114.942C320.029 113.316 322.593 108.035 320.774 102.719C318.766 96.8527 312.555 95.1104 307.048 96.5187C306.934 96.5479 306.846 96.5848 306.757 96.6218C306.74 96.6268 306.726 96.6253 306.708 96.631C301.347 98.1105 298.068 103.065 299.122 108.609C300.45 115.59 308.939 116.624 314.579 114.942ZM306.935 97.478C307.039 97.4489 307.118 97.4127 307.201 97.3778C307.228 97.3722 307.247 97.3729 307.275 97.3658C312.069 96.14 316.464 98.3244 318.513 102.769C320.268 106.575 319.279 111.3 315.605 113.524C310.573 116.57 303.128 114.187 301.321 108.605C299.894 104.203 302.397 98.7301 306.935 97.478ZM308.892 106.043C308.892 106.856 308.892 107.671 308.892 108.484C308.892 108.484 308.891 108.483 308.891 108.482C308.55 107.895 306.545 108.541 306.978 109.29C307.47 110.14 308.122 110.695 308.892 110.964C308.892 111.29 308.892 111.616 308.892 111.943C308.892 112.837 310.954 112.405 310.954 111.698C310.954 111.479 310.954 111.259 310.954 111.04C310.988 111.032 311.02 111.03 311.054 111.022C312.392 110.692 313.612 109.552 313.726 108.142C313.858 106.493 312.303 105.639 310.955 105.116C310.955 104.052 310.955 102.989 310.955 101.926C310.962 101.941 310.97 101.951 310.976 101.967C311.271 102.692 313.301 102.071 313.035 101.415C312.681 100.544 311.88 100.17 310.954 100.156C310.954 99.8699 310.954 99.5835 310.954 99.2979C310.954 98.4032 308.892 98.8353 308.892 99.5423C308.892 99.9047 308.892 100.267 308.892 100.63C307.178 101.412 305.821 103.055 306.789 104.712C307.237 105.476 308.051 105.774 308.892 106.043ZM311.577 107.891C311.835 108.58 311.519 109.413 310.955 109.857C310.955 108.9 310.955 107.944 310.955 106.986C311.216 107.217 311.432 107.507 311.577 107.891ZM308.568 102.79C308.603 102.572 308.724 102.346 308.892 102.142C308.892 102.781 308.892 103.421 308.892 104.06C308.622 103.753 308.476 103.355 308.568 102.79ZM75.7523 106.97C75.7523 101.049 75.7523 95.1267 75.7523 89.2054C75.7523 88.5083 77.8131 88.072 77.8131 88.9567C77.8131 94.878 77.8131 100.8 77.8131 106.721C77.8138 107.419 75.7523 107.856 75.7523 106.97ZM249.137 120.623C249.137 116.359 249.137 112.096 249.137 107.832C249.137 107.089 251.196 106.724 251.196 107.281C251.196 111.544 251.196 115.808 251.196 120.071C251.197 120.814 249.137 121.179 249.137 120.623ZM310.248 92.1991C310.248 86.2777 310.248 80.3557 310.248 74.4343C310.248 73.7465 312.307 73.4068 312.307 73.8829C312.307 79.8043 312.307 85.7263 312.307 91.6477C312.308 92.3355 310.248 92.6752 310.248 92.1991ZM305.202 171.944C305.202 174.076 305.202 176.208 305.202 178.34C305.202 179.13 303.143 179.516 303.143 178.891C303.143 176.759 303.143 174.628 303.143 172.496C303.142 171.706 305.202 171.32 305.202 171.944ZM68.5868 237.509C68.5868 242.957 68.5868 248.404 68.5868 253.853C68.5868 254.741 66.5047 255.078 66.5047 254.024C66.5047 248.576 66.5047 243.128 66.5047 237.68C66.5047 236.791 68.5868 236.455 68.5868 237.509ZM318.707 233.217C318.707 232.285 316.64 232.698 316.64 233.445C316.64 239.792 316.64 246.14 316.64 252.487C314.522 252.259 312.318 252.417 310.171 252.982C310.038 253.017 309.933 253.066 309.835 253.118C309.79 253.126 309.755 253.122 309.707 253.135C309.381 253.222 309.069 253.332 308.755 253.439C308.755 249.723 308.755 246.008 308.755 242.292C308.755 241.731 306.695 242.098 306.695 242.843C306.695 246.676 306.695 250.507 306.695 254.339C301.264 257.261 298.371 263.541 299.845 269.822C301.969 278.87 313.041 280.539 320.617 278.125C327.837 275.825 330.976 268.48 328.502 261.51C326.815 256.757 323.071 253.887 318.707 252.836C318.707 246.298 318.707 239.757 318.707 233.217ZM326.443 262.063C328.758 267.878 326.488 274.298 320.649 276.766C313.573 279.756 304.111 277.054 301.904 269.271C300.48 264.253 302.612 258.638 306.817 255.82C307.255 256.077 308.755 255.719 308.755 255.083C308.755 254.987 308.755 254.891 308.755 254.796C309.169 254.626 309.593 254.476 310.035 254.359C310.167 254.324 310.271 254.274 310.369 254.223C310.414 254.214 310.45 254.219 310.499 254.206C317.327 252.409 323.811 255.455 326.443 262.063ZM231.416 325.965C227.311 325.965 223.205 325.965 219.1 325.965C219.19 325.873 219.242 325.773 219.228 325.667C217.606 313.51 205.988 307.4 194.635 310.344C194.581 310.359 194.545 310.377 194.496 310.394C194.354 310.389 194.195 310.401 194.004 310.452C186.687 312.415 181.716 318.467 180.898 325.965C178.079 325.965 175.258 325.965 172.439 325.965C171.838 325.965 170.194 326.872 171.568 326.872C191.227 326.872 210.887 326.872 230.547 326.872C231.146 326.872 232.791 325.965 231.416 325.965ZM198.74 324.902C198.249 324.599 197.837 324.201 197.655 323.647C197.422 322.938 197.87 322.207 198.363 321.731C198.466 321.631 198.596 321.523 198.74 321.415C198.74 322.578 198.74 323.74 198.74 324.902ZM200.715 325.965C200.768 325.902 200.799 325.835 200.799 325.764C200.799 324.086 200.799 322.408 200.799 320.731C201.086 320.814 201.324 321.024 201.459 321.428C201.683 322.1 203.729 321.508 203.519 320.877C203.116 319.667 202.007 319.419 200.799 319.594C200.799 319.033 200.799 318.472 200.799 317.91C200.799 317.573 198.74 317.87 198.74 318.462C198.74 319.047 198.74 319.632 198.74 320.217C198.103 320.498 197.542 320.819 197.171 321.089C196.278 321.735 195.502 322.703 195.534 323.849C195.561 324.823 196.39 325.501 197.28 325.965C194.106 325.965 190.931 325.965 187.758 325.965C187.786 325.907 187.808 325.847 187.816 325.781C188.378 321.116 191.219 317.005 195.894 315.755C196.177 315.679 196.369 315.55 196.498 315.406C204.104 313.61 210.965 318.41 212.266 325.965C208.416 325.965 204.565 325.965 200.715 325.965ZM214.352 325.965C214.379 325.896 214.396 325.825 214.384 325.751C213.045 316.748 204.582 312.373 196.153 314.428C195.982 314.389 195.785 314.38 195.543 314.445C190.112 315.898 186.405 320.419 185.737 325.965C184.78 325.965 183.825 325.965 182.868 325.965C182.904 325.911 182.931 325.855 182.937 325.796C183.623 319.175 187.613 313.197 194.262 311.415C194.536 311.341 194.724 311.235 194.857 311.12C205.497 308.368 215.555 315.245 217.128 325.965C216.203 325.965 215.277 325.965 214.352 325.965ZM266.075 307.686C281.489 307.686 296.903 307.686 312.316 307.686C312.917 307.686 314.561 306.779 313.187 306.779C310.029 306.779 306.87 306.779 303.712 306.779C303.749 306.716 303.768 306.652 303.759 306.584C302.389 296.885 293.26 292.273 284.232 294.547C284.227 294.548 284.223 294.55 284.217 294.552C284.077 294.549 283.92 294.561 283.732 294.611C277.961 296.159 273.976 300.867 273.281 306.779C271.17 306.779 269.058 306.779 266.946 306.779C266.345 306.779 264.701 307.686 266.075 307.686ZM287.251 305.53C286.766 305.031 286.607 304.4 287.251 303.7C287.251 304.31 287.251 304.92 287.251 305.53ZM289.28 306.779C289.298 306.74 289.311 306.701 289.311 306.659C289.311 305.51 289.311 304.36 289.311 303.21C289.339 303.265 289.363 303.321 289.383 303.379C289.607 304.051 291.653 303.46 291.443 302.828C291.166 301.997 290.316 301.718 289.311 301.804C289.311 301.37 289.311 300.936 289.311 300.502C289.311 300.165 287.252 300.462 287.252 301.054C287.252 301.5 287.252 301.947 287.252 302.394C285.177 303.371 283.584 305.332 285.836 306.778C283.596 306.778 281.356 306.778 279.116 306.778C279.122 306.756 279.131 306.735 279.134 306.712C279.563 303.15 281.7 299.97 285.28 299.012C285.548 298.94 285.729 298.82 285.858 298.687C291.633 297.39 296.756 301.109 297.818 306.778C294.971 306.779 292.126 306.779 289.28 306.779ZM275.306 306.714C275.832 301.625 278.86 296.948 283.991 295.573C284.248 295.504 284.426 295.404 284.557 295.298C292.803 293.287 300.296 298.61 301.64 306.778C301.08 306.778 300.519 306.778 299.958 306.778C299.966 306.735 299.969 306.693 299.962 306.649C298.903 299.522 292.21 296.154 285.575 297.693C285.399 297.646 285.189 297.633 284.93 297.703C280.63 298.854 277.648 302.392 277.073 306.778C276.478 306.778 275.883 306.778 275.287 306.778C275.293 306.757 275.304 306.736 275.306 306.714ZM154.725 316.016C151.567 316.016 148.408 316.016 145.25 316.016C145.287 315.954 145.306 315.889 145.297 315.822C143.928 306.123 134.798 301.51 125.771 303.784C125.765 303.786 125.762 303.788 125.756 303.789C125.616 303.786 125.459 303.799 125.271 303.849C119.499 305.397 115.515 310.104 114.82 316.016C112.708 316.016 110.596 316.016 108.484 316.016C107.884 316.016 106.239 316.924 107.614 316.924C123.027 316.924 138.441 316.924 153.855 316.924C154.455 316.924 156.1 316.016 154.725 316.016ZM128.789 314.767C128.305 314.268 128.146 313.638 128.789 312.938C128.789 313.548 128.789 314.158 128.789 314.767ZM130.818 316.016C130.837 315.978 130.849 315.938 130.849 315.897C130.849 314.747 130.849 313.598 130.849 312.448C130.877 312.503 130.902 312.559 130.922 312.617C131.145 313.288 133.191 312.697 132.981 312.066C132.704 311.235 131.855 310.956 130.849 311.042C130.849 310.608 130.849 310.174 130.849 309.74C130.849 309.403 128.79 309.7 128.79 310.291C128.79 310.738 128.79 311.184 128.79 311.631C126.716 312.608 125.122 314.57 127.375 316.016C125.135 316.016 122.894 316.016 120.655 316.016C120.66 315.994 120.669 315.972 120.672 315.95C121.101 312.388 123.239 309.208 126.819 308.25C127.087 308.178 127.267 308.058 127.397 307.924C133.172 306.628 138.295 310.347 139.357 316.016C136.51 316.016 133.664 316.016 130.818 316.016ZM141.496 316.016C141.504 315.974 141.507 315.931 141.5 315.887C140.441 308.761 133.748 305.392 127.113 306.932C126.937 306.885 126.727 306.872 126.468 306.941C122.167 308.092 119.186 311.631 118.612 316.016C118.016 316.016 117.421 316.016 116.825 316.016C116.832 315.995 116.842 315.974 116.844 315.952C117.37 310.863 120.398 306.187 125.528 304.811C125.785 304.742 125.963 304.643 126.095 304.536C134.34 302.526 141.834 307.848 143.178 316.016C142.617 316.016 142.057 316.016 141.496 316.016ZM105.591 136.001C105.533 136.057 105.515 136.101 105.558 136.123C117.653 142.151 129.749 148.179 141.843 154.207C142.024 154.297 142.328 154.26 142.644 154.169C143.154 154.11 143.739 153.907 143.893 153.6C147.725 145.912 151.556 138.224 155.387 130.536C155.459 130.472 155.483 130.422 155.436 130.399C155.434 130.398 155.432 130.397 155.429 130.396C155.421 130.282 155.265 130.22 155.041 130.202C143.039 124.22 131.036 118.239 119.034 112.258C119.024 112.136 118.849 112.074 118.604 112.061C118.447 112.027 118.239 112.049 118.018 112.105C117.679 112.167 117.338 112.287 117.129 112.455C116.851 112.607 116.679 112.753 116.77 112.798C116.775 112.8 116.781 112.803 116.786 112.806C116.759 112.837 116.738 112.869 116.724 112.904C116.698 112.969 116.697 113.056 116.71 113.154C112.956 120.687 109.201 128.22 105.447 135.754C105.388 135.873 105.454 135.954 105.591 136.001ZM153.261 130.982C153.242 131.019 153.223 131.056 153.205 131.093C152.964 131.136 152.722 131.178 152.48 131.219C151.513 131.382 150.542 131.534 149.573 131.687C146.946 132.102 144.316 132.497 141.686 132.892C138.114 133.429 134.54 133.958 130.967 134.481C128.962 130.928 126.965 127.372 124.974 123.812C123.601 121.357 122.233 118.899 120.876 116.436C120.718 116.15 119.993 115.079 119.432 114.124C130.707 119.744 141.984 125.363 153.261 130.982ZM117.664 115.062C117.951 115.509 118.216 115.894 118.313 116.071C119.717 118.641 121.146 121.198 122.575 123.754C124.716 127.589 126.867 131.418 129.025 135.243C129.165 135.49 129.65 135.379 129.864 135.348C134.606 134.655 139.345 133.951 144.083 133.234C146.757 132.829 149.43 132.423 152.097 131.98C152.279 131.949 152.529 131.924 152.807 131.89C149.333 138.863 145.858 145.834 142.384 152.806C130.761 147.013 119.137 141.221 107.514 135.428C110.897 128.64 114.281 121.851 117.664 115.062ZM222.526 187.965C222.551 188.062 222.666 188.131 222.845 188.166C227.651 195.831 232.457 203.496 237.264 211.16C237.543 211.606 238.292 211.549 238.788 211.25C238.881 211.221 238.97 211.186 239.046 211.138C251.008 203.637 262.97 196.136 274.932 188.635C275.368 188.362 275.404 188.121 275.241 187.948C275.248 187.917 275.248 187.887 275.231 187.86C275.209 187.823 275.185 187.786 275.162 187.749C270.38 180.125 265.599 172.5 260.818 164.875C260.87 164.753 260.796 164.666 260.652 164.61C260.651 164.607 260.649 164.604 260.646 164.601C260.379 164.173 258.95 164.543 258.709 165.053C247.157 172.297 235.603 179.542 224.05 186.786C223.432 186.727 222.63 187.152 222.648 187.697C222.533 187.805 222.508 187.892 222.526 187.965ZM238.795 209.689C234.161 202.298 229.525 194.906 224.891 187.515C236.308 180.356 247.725 173.197 259.142 166.037C263.777 173.429 268.411 180.821 273.046 188.212C261.629 195.371 250.211 202.531 238.795 209.689ZM258.849 168.398C258.839 168.381 258.829 168.366 258.819 168.349C258.415 167.706 257.205 168.022 256.899 168.629C247.196 174.714 237.493 180.798 227.789 186.883C227.44 186.968 227.109 187.164 226.952 187.42C226.483 187.785 226.684 188.117 227.1 188.285C229.427 191.996 231.754 195.706 234.08 199.416C233.953 199.597 234.073 199.713 234.303 199.772C235.822 202.194 237.341 204.617 238.86 207.04C238.729 207.224 238.858 207.342 239.098 207.399C239.56 207.971 240.909 207.538 241.026 206.863C250.57 200.88 260.111 194.895 269.655 188.912C270.274 188.967 271.044 188.531 271.018 187.97C271.092 187.848 271.052 187.756 270.937 187.694C270.925 187.672 270.919 187.65 270.905 187.627C269.362 185.166 267.818 182.705 266.275 180.243C266.279 180.175 266.243 180.119 266.171 180.076C263.806 176.304 261.441 172.532 259.076 168.761C259.083 168.619 258.995 168.495 258.849 168.398ZM257.417 170.045C259.514 173.388 261.611 176.732 263.708 180.076C260.52 179.759 257.536 178.382 254.35 179.751C251.402 181.019 250.684 183.699 249.796 186.423C247.145 186.104 244.473 185.862 242.213 187.311C238.53 189.671 237.074 193.785 235.449 197.686C233.369 194.369 231.289 191.051 229.209 187.734C238.612 181.837 248.014 175.941 257.417 170.045ZM241.011 190.033C242.927 186.973 246.191 187.154 249.45 187.444C249.443 187.464 249.435 187.483 249.429 187.503C249.317 187.815 250.245 187.795 250.891 187.569C251.512 187.617 252.126 187.653 252.724 187.653C247.676 190.818 242.63 193.983 237.583 197.148C238.619 194.722 239.602 192.281 241.011 190.033ZM254.169 186.747C253.35 186.78 252.502 186.726 251.64 186.638C252.507 183.931 253.236 179.836 256.853 179.976C259.079 180.062 261.12 180.852 263.329 181.003C260.276 182.917 257.223 184.832 254.169 186.747ZM240.589 205.883C239.232 203.718 237.873 201.552 236.516 199.387C236.59 199.331 236.648 199.27 236.678 199.203C236.728 199.095 236.776 198.984 236.825 198.876C246.077 193.074 255.33 187.272 264.583 181.47C265.989 183.711 267.393 185.952 268.799 188.193C259.396 194.09 249.993 199.987 240.589 205.883Z" fill="#340679"/>
</svg>
