<svg width="24" height="24" viewBox="0 0 24 24" fill="none" xmlns="http://www.w3.org/2000/svg">
<path fill-rule="evenodd" clip-rule="evenodd" d="M21.8942 15.83L20.4853 17.245L17.6677 14.415L19.0765 13L21.8942 15.83ZM16.9608 15.12L15.5519 16.535L22.5911 23.605L24 22.19L16.9608 15.12ZM19.415 23H13.4412V24H19.415V23ZM17.6677 20.07L14.85 17.24L13.4412 18.655L16.2588 21.485L17.6677 20.07Z" fill="black" fill-opacity="0.38"/>
<path fill-rule="evenodd" clip-rule="evenodd" d="M8.29701 9.25V14.75H6.928V12.4583H5.10265V14.75H3.73364V9.25H8.29701ZM5.10265 10.1667H6.928V11.0833H5.10265V10.1667ZM16.9674 11.5417V10.625H20.1618V9.25H15.5984V12.9167H18.7928H20.1618V11.5417H16.9674ZM12.8604 9.25H9.66602V14.75H12.8604C13.5905 14.75 14.2294 14.1083 14.2294 13.375V10.625C14.2294 9.89167 13.5905 9.25 12.8604 9.25ZM12.8604 13.375H11.035V10.625H12.8604V13.375Z" fill="black" fill-opacity="0.38"/>
</svg>
