<svg width="24" height="24" viewBox="0 0 24 24" fill="none" xmlns="http://www.w3.org/2000/svg">
<g clip-path="url(#clip0_2177_41594)">
<path fill-rule="evenodd" clip-rule="evenodd" d="M21.1875 14.83L19.7725 16.245L16.9425 13.415L18.3575 12L21.1875 14.83ZM16.2325 14.12L14.8175 15.535L21.8875 22.605L23.3025 21.19L16.2325 14.12ZM18.6975 22H12.6975V23H18.6975V22ZM16.9425 19.07L14.1125 16.24L12.6975 17.655L15.5275 20.485L16.9425 19.07Z" fill="black" fill-opacity="0.38"/>
<path d="M5.5 5.5H18.5V9.54918V9.75L10 18.5H9.7623H5.5V5.5Z" fill="black" fill-opacity="0.38"/>
<path d="M11.4096 15.3825L9.57227 13.125L7 16.5H12.0192L15 13.3853L13.9819 12L11.4096 15.3825Z" fill="white"/>
</g>
<defs>
<clipPath id="clip0_2177_41594">
<rect width="24" height="24" fill="white"/>
</clipPath>
</defs>
</svg>
