<svg width="52" height="49" viewBox="0 0 52 49" fill="none" xmlns="http://www.w3.org/2000/svg">
<rect x="2" y="1.5" width="48" height="46" rx="10" fill="#F2E7FE" stroke="#AB22AF" stroke-width="2.8"/>
<path d="M34.9027 23.1799C35.1803 25.0524 34.8604 26.9649 33.9885 28.6451C33.1166 30.3254 31.7372 31.688 30.0463 32.539C28.3554 33.3902 26.4391 33.6865 24.5701 33.3857C22.7012 33.0848 20.9746 32.2024 19.636 30.8639C18.2975 29.5253 17.4151 27.7987 17.1143 25.9299C16.8136 24.0608 17.1098 22.1447 17.9609 20.4536C18.812 18.7628 20.1746 17.3833 21.8548 16.5114C23.5351 15.6395 25.4475 15.3197 27.3202 15.5974C29.2302 15.8806 30.9985 16.7706 32.3638 18.136C33.7293 19.5014 34.6194 21.2697 34.9027 23.1799Z" fill="#F2E7FE" stroke="#AB22AF" stroke-width="2.8"/>
</svg>
