<svg width="25" height="25" viewBox="0 0 25 25" fill="none" xmlns="http://www.w3.org/2000/svg">
<path fill-rule="evenodd" clip-rule="evenodd" d="M23.4658 12.9577C23.4658 12.1423 23.3926 11.3582 23.2567 10.6055H12.4258V15.0539H18.6149C18.3483 16.4914 17.5381 17.7093 16.3201 18.5248V21.4102H20.0367C22.2112 19.4082 23.4658 16.46 23.4658 12.9577Z" fill="#4285F4"/>
<path fill-rule="evenodd" clip-rule="evenodd" d="M12.4262 24.1978C15.5312 24.1978 18.1344 23.168 20.0371 21.4117L16.3206 18.5262C15.2908 19.2162 13.9735 19.6239 12.4262 19.6239C9.43101 19.6239 6.89578 17.601 5.99146 14.8828H2.14941V17.8624C4.04169 21.6208 7.93078 24.1978 12.4262 24.1978Z" fill="#34A853"/>
<path fill-rule="evenodd" clip-rule="evenodd" d="M5.99101 14.8827C5.76101 14.1927 5.63033 13.4557 5.63033 12.6977C5.63033 11.9398 5.76101 11.2027 5.99101 10.5127V7.5332H2.14896C1.3701 9.0857 0.925781 10.8421 0.925781 12.6977C0.925781 14.5534 1.3701 16.3098 2.14896 17.8623L5.99101 14.8827Z" fill="#FBBC05"/>
<path fill-rule="evenodd" clip-rule="evenodd" d="M12.4262 5.77113C14.1146 5.77113 15.6306 6.35136 16.8224 7.4909L20.1208 4.19249C18.1292 2.33681 15.526 1.19727 12.4262 1.19727C7.93078 1.19727 4.04169 3.77431 2.14941 7.53272L5.99146 10.5123C6.89578 7.79408 9.43101 5.77113 12.4262 5.77113Z" fill="#EA4335"/>
</svg>
