<svg width="24" height="24" viewBox="0 0 24 24" fill="none" xmlns="http://www.w3.org/2000/svg">
<path d="M19.6121 5.65256C19.1723 5.21255 18.6501 4.8635 18.0753 4.62536C17.5006 4.38722 16.8846 4.26465 16.2625 4.26465C15.6403 4.26465 15.0243 4.38722 14.4496 4.62536C13.8748 4.8635 13.3527 5.21255 12.9129 5.65256L12.0001 6.5653L11.0874 5.65256C10.199 4.76419 8.99412 4.26511 7.73778 4.26511C6.48143 4.26511 5.27655 4.76419 4.38818 5.65256C3.49981 6.54093 3.00073 7.74581 3.00073 9.00215C3.00073 10.2585 3.49981 11.4634 4.38818 12.3517L5.30092 13.2645L12.0001 19.9637L18.6993 13.2645L19.6121 12.3517C20.0521 11.9119 20.4011 11.3898 20.6392 10.815C20.8774 10.2403 21 9.62427 21 9.00215C21 8.38003 20.8774 7.76401 20.6392 7.18928C20.4011 6.61454 20.0521 6.09236 19.6121 5.65256V5.65256Z" stroke="#9E9E9E" stroke-width="2" stroke-linecap="round" stroke-linejoin="round"/>
</svg>
