<svg width="38" height="24" viewBox="0 0 38 24" fill="none" xmlns="http://www.w3.org/2000/svg">
<path fill-rule="evenodd" clip-rule="evenodd" d="M17.3167 5.33325C17.3167 8.09992 15.1 10.3333 12.3334 10.3333C9.56669 10.3333 7.33335 8.09992 7.33335 5.33325C7.33335 2.56659 9.56669 0.333252 12.3334 0.333252C15.1 0.333252 17.3167 2.56659 17.3167 5.33325ZM30.65 5.33325C30.65 8.09992 28.4334 10.3333 25.6667 10.3333C22.9 10.3333 20.6667 8.09992 20.6667 5.33325C20.6667 2.56659 22.9 0.333252 25.6667 0.333252C28.4334 0.333252 30.65 2.56659 30.65 5.33325ZM12.3334 13.6666C8.45002 13.6666 0.666687 15.6166 0.666687 19.4999V23.6666H24V19.4999C24 15.6166 16.2167 13.6666 12.3334 13.6666ZM24.05 13.7499C24.6334 13.6999 25.1834 13.6666 25.6667 13.6666C29.55 13.6666 37.3334 15.6166 37.3334 19.4999V23.6666H27.3334V19.4999C27.3334 17.0333 25.9834 15.1499 24.05 13.7499Z" fill="black" fill-opacity="0.38"/>
</svg>
