<svg width="16" height="16" viewBox="0 0 16 16" fill="none" xmlns="http://www.w3.org/2000/svg">
<path d="M8.00004 1.33301C4.31804 1.33301 1.33337 4.31767 1.33337 7.99967C1.33337 11.6817 4.31804 14.6663 8.00004 14.6663C11.682 14.6663 14.6667 11.6817 14.6667 7.99967C14.6667 4.31767 11.682 1.33301 8.00004 1.33301ZM8.00004 11.333C7.63204 11.333 7.33337 11.0343 7.33337 10.6663V7.99967C7.33337 7.63167 7.63204 7.33301 8.00004 7.33301C8.36804 7.33301 8.66671 7.63167 8.66671 7.99967V10.6663C8.66671 11.0343 8.36804 11.333 8.00004 11.333ZM8.33337 5.99967H7.66671C7.48271 5.99967 7.33337 5.85034 7.33337 5.66634V4.99967C7.33337 4.81567 7.48271 4.66634 7.66671 4.66634H8.33337C8.51737 4.66634 8.66671 4.81567 8.66671 4.99967V5.66634C8.66671 5.85034 8.51737 5.99967 8.33337 5.99967Z" fill="black" fill-opacity="0.38"/>
</svg>
