<svg width="24" height="22" viewBox="0 0 24 22" fill="none" xmlns="http://www.w3.org/2000/svg">
<g clip-path="url(#clip0_2177_44952)">
<path fill-rule="evenodd" clip-rule="evenodd" d="M8.33341 10.1316C9.85508 10.1316 11.0742 9.05999 11.0742 7.73244C11.0742 6.40489 9.85508 5.33325 8.33341 5.33325C6.81175 5.33325 5.58341 6.40489 5.58341 7.73244C5.58341 9.05999 6.81175 10.1316 8.33341 10.1316ZM15.6667 10.1316C17.1884 10.1316 18.4076 9.05999 18.4076 7.73244C18.4076 6.40489 17.1884 5.33325 15.6667 5.33325C14.1451 5.33325 12.9167 6.40489 12.9167 7.73244C12.9167 9.05999 14.1451 10.1316 15.6667 10.1316ZM1.91675 14.5301C1.91675 12.6668 6.19758 11.7311 8.33341 11.7311C8.69182 11.7311 9.07543 11.7175 9.46568 11.7036C11.4011 11.635 13.5 11.5605 13.5 13.1112L11.75 14.4199L1.91675 16.5295V14.5301Z" fill="black" fill-opacity="0.38"/>
<path fill-rule="evenodd" clip-rule="evenodd" d="M20.99 13.4004L19.575 14.6349L16.745 12.1659L18.16 10.9314L20.99 13.4004ZM16.035 12.781L14.62 14.0154L21.69 20.1835L23.105 18.9491L16.035 12.781ZM18.5 19.6557H12.5V20.5282H18.5V19.6557ZM16.745 17.0995L13.915 14.6305L12.5 15.865L15.33 18.334L16.745 17.0995Z" fill="black" fill-opacity="0.38"/>
<path d="M11.4096 13.8824L9.57227 11.9129L7 14.8573H12.0192L15 12.14L13.9819 10.9314L11.4096 13.8824Z" fill="white"/>
</g>
<defs>
<clipPath id="clip0_2177_44952">
<rect width="24" height="20.9384" fill="white" transform="translate(0 0.462158)"/>
</clipPath>
</defs>
</svg>
