<svg width="24" height="22" viewBox="0 0 24 22" fill="none" xmlns="http://www.w3.org/2000/svg">
<path fill-rule="evenodd" clip-rule="evenodd" d="M10.99 7.44164C10.99 8.88988 9.66 10.0589 8 10.0589C6.34 10.0589 5 8.88988 5 7.44164C5 5.9934 6.34 4.82434 8 4.82434C9.66 4.82434 10.99 5.9934 10.99 7.44164ZM18.99 7.44164C18.99 8.88988 17.66 10.0589 16 10.0589C14.34 10.0589 13 8.88988 13 7.44164C13 5.9934 14.34 4.82434 16 4.82434C17.66 4.82434 18.99 5.9934 18.99 7.44164ZM8 11.8038C5.67 11.8038 1 12.8245 1 14.8573V17.0384H15V14.8573C15 12.8245 10.33 11.8038 8 11.8038ZM15.03 11.8474C15.38 11.8213 15.71 11.8038 16 11.8038C18.33 11.8038 23 12.8245 23 14.8573V17.0384H17V14.8573C17 13.5661 16.19 12.5803 15.03 11.8474Z" fill="black" fill-opacity="0.38"/>
</svg>
